<svg width="239" height="368" viewBox="0 0 239 368" fill="none" xmlns="http://www.w3.org/2000/svg">
<path d="M78.8317 254.655C96.201 253.653 95.6452 206.215 78.9337 177.956C78.8658 177.841 74.2365 180.147 74.1364 180.059C51.5355 160.132 54.8091 91.7291 73.2279 53.2212C91.6873 14.6287 139.988 15.3426 167.503 45.0634C196.84 76.7532 186.774 161.038 183.148 172.647C179.522 184.256 162.558 185.628 158.273 206.023C153.988 226.417 148.886 258.687 166.514 254.655C182.976 250.89 214 201.944 214 191.59C214 183.456 206.312 172.293 201.994 168.515C201.657 168.22 201.479 167.785 201.539 167.343L205.068 141.341C214.627 75.1371 190.906 39.6822 176.403 25.5157C154.068 3.70062 96.9485 -10.5194 65.3039 22.7392C40.6732 48.6261 34.0776 125.85 39.8339 164.873C39.8972 165.302 39.7328 165.714 39.4242 166.019C37.2156 168.205 33.5003 173.663 33.0129 181.549C32.3536 192.217 57.076 255.91 78.8317 254.655Z" fill="#FF6C9C"/>
<path fill-rule="evenodd" clip-rule="evenodd" d="M125.06 6.51795C104.567 4.31195 83.9612 9.89319 68.8943 26.764C63.1231 33.2262 57.6051 42.4932 53.6654 54.5738C49.7403 66.6093 46.8157 80.6094 44.8255 95.1144C40.8407 124.156 40.6473 154.875 43.4826 175.354C43.6954 176.89 43.1177 178.253 42.2647 179.152C40.4769 181.038 37.1138 186.192 36.6739 193.776C36.6191 194.721 36.8409 196.654 37.4918 199.574C38.1213 202.399 39.0904 205.885 40.3544 209.798C42.8821 217.621 46.5445 227.011 50.8961 236.001C55.2597 245.017 60.2493 253.492 65.397 259.584C70.6738 265.829 75.5181 268.865 79.5856 268.616C82.3849 268.443 84.9143 266.322 86.8505 261.449C88.7778 256.599 89.7985 249.678 89.7708 241.61C89.7158 225.572 85.5291 206.036 77.5357 191.511C71.4324 185.684 66.9585 176.79 63.8944 166.387C60.7862 155.835 59.0528 143.474 58.6249 130.569C57.7708 104.807 62.1087 76.4144 71.5779 55.323C81.2957 33.6775 98.9738 22.9638 117.809 21.9161C136.553 20.8735 156.344 29.389 170.665 45.8696C186.115 63.6493 190.733 92.6106 191.231 118.01C191.73 143.523 188.08 166.468 186.149 173.053C185.118 176.57 183.244 180.018 181.106 183.425C179.802 185.503 178.306 187.706 176.78 189.954C175.838 191.342 174.884 192.747 173.957 194.15C168.976 201.684 164.135 210.064 162.11 220.33C159.961 231.228 157.685 244.948 158.063 255.327C158.255 260.588 159.118 264.44 160.576 266.67C161.256 267.711 162.03 268.344 162.926 268.677C163.845 269.018 165.135 269.131 166.96 268.687C168.51 268.309 170.45 267.297 172.73 265.575C174.983 263.872 177.424 261.586 179.967 258.848C185.053 253.37 190.384 246.262 195.242 238.877C200.097 231.497 204.43 223.919 207.536 217.539C209.09 214.346 210.316 211.496 211.147 209.149C212.01 206.707 212.333 205.113 212.333 204.308C212.333 200.762 210.706 196.172 208.317 191.748C205.954 187.372 203.131 183.677 201.27 181.942C200.274 181.014 199.678 179.572 199.875 178.024L203.412 150.258L203.413 150.245C212.858 80.5598 189.421 43.6675 175.518 29.1991C164.87 18.1186 145.609 8.72995 125.06 6.51795ZM125.631 0.52681C147.215 2.85014 167.755 12.6926 179.482 24.8966C194.639 40.6686 218.729 79.4589 209.024 151.091C209.023 151.095 209.023 151.099 209.022 151.103L205.597 177.989C207.967 180.385 210.863 184.364 213.232 188.751C215.777 193.464 218 199.171 218 204.308C218 206.265 217.352 208.721 216.451 211.268C215.517 213.908 214.186 216.984 212.569 220.306C209.332 226.956 204.864 234.762 199.887 242.327C194.913 249.886 189.381 257.283 184.001 263.077C181.311 265.974 178.617 268.515 176.014 270.482C173.437 272.429 170.798 273.929 168.226 274.556C165.636 275.187 163.221 275.165 161.057 274.362C158.869 273.55 157.178 272.028 155.921 270.105C153.504 266.406 152.602 261.094 152.401 255.56C151.993 244.352 154.42 229.966 156.564 219.095C158.832 207.593 164.228 198.391 169.32 190.688C170.346 189.135 171.338 187.675 172.291 186.274C173.757 184.115 175.13 182.095 176.391 180.084C178.443 176.814 179.954 173.941 180.739 171.262C182.441 165.457 186.056 143.191 185.565 118.135C185.072 92.9655 180.444 65.9994 166.502 49.9548C153.257 34.7127 135.071 26.986 118.105 27.9297C101.231 28.8683 85.4678 38.3695 76.6923 57.9159C67.7086 77.9261 63.4575 105.305 64.2881 130.357C64.7026 142.86 66.38 154.667 69.3024 164.589C72.2377 174.554 76.3539 182.366 81.476 187.177C81.7906 187.472 82.0673 187.822 82.2918 188.226C90.9595 203.842 95.3791 224.584 95.4374 241.588C95.4666 250.082 94.4101 257.905 92.0709 263.792C89.7406 269.656 85.8141 274.265 79.9128 274.627C73.0824 275.047 66.6573 270.088 61.1807 263.607C55.5749 256.973 50.3271 247.992 45.8568 238.756C41.3745 229.495 37.6066 219.837 34.9948 211.753C33.6892 207.712 32.6614 204.03 31.9777 200.962C31.3154 197.991 30.9076 195.308 31.018 193.406C31.5214 184.727 35.1445 178.473 37.7685 175.436C34.9509 154.278 35.222 123.37 39.2181 94.2456C41.2435 79.484 44.2372 65.0938 48.3111 52.602C52.3702 40.1552 58.6204 29.2692 65.1872 21.9161C81.8233 3.28824 103.992 -1.80253 125.631 0.52681Z" fill="black"/>
<path d="M15.7805 268.11L29.241 177.075C29.3323 176.458 29.8616 176 30.4849 176H214.423C215.051 176 215.582 176.464 215.668 177.088L228.211 268.123C228.315 268.88 227.728 269.555 226.965 269.555H217.719L235.976 363.499C236.128 364.277 235.533 365 234.742 365H4.2581C3.44926 365 2.85075 364.246 3.03282 363.456L24.6841 269.555H17.0244C16.2565 269.555 15.6679 268.871 15.7805 268.11Z" fill="#FF4C1F"/>
<path fill-rule="evenodd" clip-rule="evenodd" d="M31.7169 179.65L18.7037 267.233H225.312L213.186 179.65H31.7169ZM225.559 269.017C225.559 269.017 225.558 269.016 225.558 269.015L225.559 269.017ZM26.3101 177.483C26.6074 175.482 28.3299 174 30.3587 174H214.557C216.602 174 218.332 175.504 218.612 177.523L231.172 268.245C231.512 270.697 229.601 272.883 227.118 272.883H221.297L238.923 363.139C239.415 365.659 237.48 368 234.906 368H4.09463C1.46216 368 -0.485743 365.558 0.106807 363L20.9869 272.883H16.8791C14.3798 272.883 12.4642 270.67 12.8304 268.205L26.3101 177.483L29.113 177.897L29.1249 177.899M29.113 177.897L26.3101 177.483L29.113 177.897ZM26.8032 272.883L6.07395 362.35H232.996L215.524 272.883H26.8032Z" fill="black"/>
</svg>
