<svg width="399" height="528" viewBox="0 0 399 528" fill="none" xmlns="http://www.w3.org/2000/svg">
<path d="M74.0765 520.128C34.2764 518.918 7.77289 479.324 3.1286 426.344C-0.401604 386.074 14.298 356.78 40.7709 344.425C22.8782 337.882 13.8602 302.984 45.2939 280.047C71.8273 260.685 140.41 225.467 205.013 232.727C269.616 239.988 346.401 269.741 363.02 293.907C383.514 323.705 369.404 345.872 358.445 348.292C413.242 357.368 394.784 466.278 378.633 492.295C362.482 518.313 337.103 530.414 303.648 523.153C276.884 517.345 249.427 477.25 239.045 457.928C227.426 462.783 212.541 466.581 198.091 466.278C184.381 465.99 166.938 459.92 153.869 453.349L150.851 458.795C138.353 480.173 105.916 521.096 74.0765 520.128Z" fill="#FF6C9C"/>
<path d="M130.604 410.008C124.259 385.402 102.917 336.554 68.3083 338.007C59.9831 338.356 52.2774 339.893 45.2939 342.522M135.795 440.866C138.058 444.139 144.943 448.861 153.869 453.349M260.387 443.286C258.948 447.211 250.616 453.094 239.045 457.928M239.045 457.928C227.426 462.783 212.541 466.581 198.091 466.278C184.381 465.99 166.938 459.92 153.869 453.349M239.045 457.928C249.427 477.25 276.884 517.345 303.648 523.153C337.103 530.414 362.482 518.313 378.633 492.295C394.784 466.278 413.242 357.368 358.445 348.292M358.445 348.292C303.648 339.217 279.998 369.469 274.807 385.806C270.654 398.875 269.616 407.386 269.616 410.008M358.445 348.292C369.404 345.872 383.514 323.705 363.02 293.907C346.401 269.741 269.616 239.988 205.013 232.727C140.41 225.467 71.8273 260.685 45.2939 280.047C13.8602 302.984 22.8782 337.882 40.7709 344.425L45.2939 342.522M153.869 453.349L150.851 458.795C138.353 480.173 105.916 521.096 74.0765 520.128C34.2764 518.918 7.77289 479.324 3.1286 426.344C-0.597853 383.835 15.9887 353.557 45.2939 342.522" stroke="black" stroke-width="5" stroke-linecap="round"/>
<path d="M155.849 63.6942C155.849 97.1573 129.763 124.12 97.7838 124.12C65.8044 124.12 39.7185 97.1573 39.7185 63.6942C39.7185 30.2311 65.8044 3.26855 97.7838 3.26855C129.763 3.26855 155.849 30.2311 155.849 63.6942Z" fill="#FF6C9C" stroke="black" stroke-width="5"/>
<path d="M363.502 68.5348C363.502 101.998 337.416 128.96 305.436 128.96C273.457 128.96 247.371 101.998 247.371 68.5348C247.371 35.0717 273.457 8.10915 305.436 8.10915C337.416 8.10915 363.502 35.0717 363.502 68.5348Z" fill="#FF6C9C" stroke="black" stroke-width="5"/>
<path d="M144.313 72.7699C144.313 101.537 124.655 124.12 101.245 124.12C77.8338 124.12 58.1765 101.537 58.1765 72.7699C58.1765 44.0026 77.8338 21.4201 101.245 21.4201C124.655 21.4201 144.313 44.0026 144.313 72.7699Z" fill="white" stroke="black" stroke-width="5"/>
<path d="M348.504 77.6105C348.504 106.378 328.847 128.96 305.436 128.96C282.025 128.96 262.368 106.378 262.368 77.6105C262.368 48.8431 282.025 26.2607 305.436 26.2607C328.847 26.2607 348.504 48.8431 348.504 77.6105Z" fill="white" stroke="black" stroke-width="5"/>
<path d="M348.504 159.898C348.504 232.113 283.005 291.115 201.61 291.115C120.215 291.115 54.7158 232.113 54.7158 159.898C54.7158 87.6821 120.215 28.6808 201.61 28.6808C283.005 28.6808 348.504 87.6821 348.504 159.898Z" fill="#FF6C9C" stroke="black" stroke-width="5"/>
<path d="M102.801 423.839C107.165 442.908 106.652 461.169 102.417 475.237C98.1595 489.379 90.3407 498.771 80.4415 501.263C70.5423 503.756 59.511 499.112 49.5968 488.539C39.7348 478.021 31.374 461.994 27.0097 442.926C22.6454 423.857 23.1585 405.595 27.3936 391.528C31.6511 377.385 39.4699 367.994 49.3691 365.501C59.2683 363.008 70.2996 367.652 80.2138 378.226C90.0758 388.743 98.4366 404.77 102.801 423.839Z" fill="white" stroke="black" stroke-width="5"/>
<path d="M379.557 453.817C375.193 472.886 366.832 488.912 356.97 499.43C347.056 510.003 336.025 514.648 326.126 512.155C316.226 509.662 308.408 500.27 304.15 486.128C299.915 472.06 299.402 453.799 303.766 434.73C308.131 415.661 316.491 399.634 326.353 389.117C336.267 378.544 347.299 373.899 357.198 376.392C367.097 378.885 374.916 388.277 379.173 402.419C383.409 416.486 383.922 434.748 379.557 453.817Z" fill="white" stroke="black" stroke-width="5"/>
<path d="M264.411 215.598C264.411 228.793 257.267 240.931 245.336 249.858C233.404 258.784 216.804 264.379 198.362 264.379C179.92 264.379 163.321 258.784 151.389 249.858C139.457 240.931 132.314 228.793 132.314 215.598C132.314 202.403 139.457 190.264 151.389 181.338C163.321 172.411 179.92 166.816 198.362 166.816C216.804 166.816 233.404 172.411 245.336 181.338C257.267 190.264 264.411 202.403 264.411 215.598Z" stroke="black" stroke-width="5"/>
<ellipse cx="164.5" cy="158.5" rx="12.5" ry="15.5" fill="black"/>
<ellipse cx="199" cy="186.5" rx="12.5" ry="16" transform="rotate(-90 199 186.5)" fill="black"/>
<path d="M199.212 191.5C199.212 198.82 199.5 205 199.5 213M239 230.65C233.426 234.92 223.085 243.46 210.168 236.14C203.709 232.48 201.788 224.43 199.5 213M199.5 213C198.788 220.93 196.5 236.14 183.642 238.58C170.785 241.02 163 233 160 230.65" stroke="black" stroke-width="5" stroke-linecap="round"/>
<ellipse cx="230.5" cy="158.5" rx="12.5" ry="15.5" fill="black"/>
</svg>
