<svg width="399" height="528" viewBox="0 0 399 528" fill="none" xmlns="http://www.w3.org/2000/svg">
<path d="M156 241.5C175.834 237.5 227.5 239 227.5 220.5C227.5 211.376 203.131 195.5 173.131 197.5C143.131 199.5 137.363 208.501 142.631 211C159.5 219 227.5 217.5 228.632 192C229.73 167.235 135 164.5 141.5 177.5C148 190.5 237.162 177.928 227.5 158C219.5 141.5 141.131 138.5 142.631 148C144.131 157.5 219.632 156.5 224.132 141.5C228.632 126.5 155 109 144.5 123C134 137 230.5 127.5 220.632 115.5C212.57 105.698 184.632 103.667 167.632 102" stroke="black" stroke-width="5"/>
<path d="M74.0765 520.128C34.2764 518.918 7.77289 479.324 3.1286 426.344C-0.401606 386.074 14.298 356.78 40.7709 344.425C22.8782 337.882 13.8602 302.984 45.2939 280.047C71.8273 260.685 140.41 225.467 205.013 232.727C269.616 239.988 346.401 269.741 363.02 293.907C383.514 323.705 369.404 345.872 358.445 348.292C413.242 357.368 394.784 466.278 378.633 492.295C362.482 518.313 337.103 530.414 303.648 523.153C276.884 517.345 249.427 477.25 239.045 457.928C227.426 462.783 212.541 466.581 198.091 466.278C184.381 465.99 166.938 459.92 153.869 453.349L150.851 458.795C138.353 480.173 105.916 521.096 74.0765 520.128Z" fill="#FF6C9C"/>
<path d="M130.604 410.008C124.259 385.402 102.917 336.554 68.3083 338.007C59.9831 338.356 52.2774 339.893 45.2939 342.522M45.2939 342.522L40.7709 344.425C22.8782 337.882 13.8602 302.984 45.2939 280.047C71.8273 260.685 140.41 225.467 205.013 232.727C269.616 239.988 346.401 269.741 363.02 293.907C383.514 323.705 369.404 345.872 358.445 348.292M45.2939 342.522C15.9887 353.557 -0.597855 383.835 3.1286 426.344C7.77289 479.324 34.2764 518.918 74.0765 520.128C105.916 521.096 138.353 480.173 150.851 458.795L153.869 453.349M135.795 440.866C138.058 444.139 144.943 448.861 153.869 453.349M153.869 453.349C166.938 459.92 184.381 465.99 198.091 466.278C212.541 466.581 227.426 462.783 239.045 457.928M260.387 443.286C258.948 447.211 250.616 453.094 239.045 457.928M239.045 457.928C249.427 477.25 276.884 517.345 303.648 523.153C337.103 530.414 362.482 518.313 378.633 492.295C394.784 466.278 413.242 357.368 358.445 348.292M358.445 348.292C303.648 339.217 279.998 369.469 274.807 385.806C270.654 398.875 269.616 407.386 269.616 410.008" stroke="black" stroke-width="5" stroke-linecap="round"/>
<path d="M102.801 423.839C107.165 442.908 106.652 461.169 102.417 475.237C98.1596 489.379 90.3408 498.771 80.4416 501.263C70.5424 503.756 59.5111 499.112 49.5969 488.539C39.7349 478.021 31.3741 461.994 27.0098 442.926C22.6455 423.857 23.1586 405.595 27.3937 391.528C31.6512 377.385 39.47 367.994 49.3692 365.501C59.2684 363.008 70.2997 367.652 80.2139 378.226C90.0759 388.743 98.4367 404.77 102.801 423.839Z" fill="white" stroke="black" stroke-width="5"/>
<path d="M379.557 453.817C375.193 472.886 366.832 488.912 356.97 499.43C347.056 510.003 336.025 514.648 326.126 512.155C316.226 509.662 308.408 500.27 304.15 486.128C299.915 472.06 299.402 453.799 303.766 434.73C308.131 415.661 316.491 399.634 326.353 389.117C336.267 378.544 347.299 373.899 357.198 376.392C367.097 378.885 374.916 388.277 379.173 402.419C383.409 416.486 383.922 434.748 379.557 453.817Z" fill="white" stroke="black" stroke-width="5"/>
</svg>
