<?xml version="1.0" encoding="utf-8"?>
<!-- Generator: Adobe Illustrator 26.4.1, SVG Export Plug-In . SVG Version: 6.00 Build 0)  -->
<svg version="1.1" id="Слой_1" xmlns="http://www.w3.org/2000/svg" xmlns:xlink="http://www.w3.org/1999/xlink" x="0px" y="0px"
	 viewBox="0 0 455 289" style="enable-background:new 0 0 455 289;" xml:space="preserve">
<style type="text/css">
	.st0{fill:#FFC6DE;}
	.st1{fill:none;stroke:#FF6C9C;stroke-width:7;stroke-linecap:round;}
	.st2{fill:none;stroke:#000000;stroke-width:5;}
	.st3{fill:#FFFFFF;filter:url(#Adobe_OpacityMaskFilter);}
	
		.st4{mask:url(#path-4-inside-1_191_3328_00000098183011240144887980000010231583362549958561_);fill:#FFC6DE;stroke:#000000;stroke-width:10;}
	.st5{fill:#FFE640;stroke:#000000;stroke-width:2;}
	.st6{fill:#C1F4FF;stroke:#000000;stroke-width:2;}
	.st7{fill:#FF4C1F;stroke:#000000;stroke-width:2;}
	.st8{fill:#FF6C9C;stroke:#000000;stroke-width:2;}
</style>
<path class="st0" d="M105.8,84l46.5,30.4l-18.5,30.4l-15.5,24.4l7.7,8.3l-57.2,91.8l-19.7-6.6l-20.3-12.5L8.1,227.6l53.6-91.2
	l7.2,5.4l16.1-25.4L105.8,84z"/>
<path class="st1" d="M165,23c-2.1,0-1.4,0.9-2.5,2.1c-1,1.1-1.6,3.5-2.3,5c-0.7,1.5-1.4,2.8-1.8,4.3c-0.3,1-1,1.6-1,2.6
	c0,1.1-0.4,3.2,0.1,4.2c0.6,1.4,3,2.3,3.2,3.7c0.1,0.4,1,1.3,1.2,1.7c0.4,0.7,0.9,1.4,1.2,2.1c0.6,1.3,2.4,1.5,3.7,1.5
	c1.7,0,2.6,0.7,4.2,1.3c0.7,0.2,1.2,0.4,1.8,0.9c0.6,0.5,0.6-0.5,0.9-0.9c0.2-0.2,0.4-1.3,0.6-1.7c0.4-0.9,1.1-1.7,1.5-2.6
	c0.7-1.5-0.5-2.6-1.3-3.7c-0.6-0.8-1.2-2.1-1.2-3c0-2.5,1.5-5.7,0.1-8.1c-0.4-0.8-0.6-1.5-0.9-2.3c-0.2-0.5-0.3-1.2-0.6-1.6
	c-0.2-0.4-0.1-0.9-0.3-1.2c-0.7-1-0.9-2.4-2.3-2.7c-2.1-0.5-3.9,5-4.5,6.3c-1.8,3.6-3.2,7.3-4.4,11.2c-0.5,1.7-0.8,2.8-0.8,4.6
	c0,1.4,0.4,1.8,1,2.9c0.8,1.4,3.5,2.9,5,1.5c1.5-1.4,4.6-3.1,5-5c0.2-1-1.4-1.8-1.4-3c0-1.6-0.4-2.6-0.8-4.2
	c-0.4-1.7-0.6-3.1-0.6-4.9c0-1.1-0.9-1.2-1.5-0.1c-0.8,1.2-1.6,2.4-1.8,3.9c-0.1,1-0.5,1.8-0.5,2.8c0,0.8,0,1.6,0,2.5
	c0,1.1,0,2.2,0,3.4c0,0.3,0.2,2.3-0.4,1.8c-0.9-0.7-1-2.5-1.2-3.5c-0.3-1.6,0-3.3-0.5-4.8c-0.3-1,0.1-2.2-0.7-3.1
	c-0.5-0.6-0.8-1.3-1.2-2c-0.7-1.1-4.7-4.4-5.8-2.5c-0.3,0.5-0.4,0.9-0.7,1.5c-0.4,0.6-1.2,0.8-1.6,1.3c-0.4,0.6-1.9,1.2-2.5,1.7
	c-0.5,0.4-1.5,0.8-1.8,1.3c-0.2,0.3-0.6,0.9-0.9,1.1c-0.4,0.4-0.4,1.3-0.9,1.6c-0.3,0.2-0.5,1.2-0.7,1.6c-0.4,0.7-0.8,1.2-1.2,1.9
	c-1,1.5-2.6,2.8-3.6,4.3c-0.5,0.7-1,1.5-1.5,2.2c-0.2,0.2-0.8,0.6-0.9,0.8c-0.1,0.3-0.1,0.7-0.4,0.9c-0.9,0.5-2,2.4-2.7,3.3
	c-1.3,1.7-2.2,3.9-3.8,5.5c-1.3,1.3-2.2,2.7-3.6,3.8c-1.6,1.2-2.5,2.2-3.4,4c-1,1.8-1.9,3.5-2.8,5.3c-0.5,1.1-0.3-0.7-0.5,0
	c-0.2,0.8-1.6,1.9-2.3,2.4c-1.2,0.9-2.3,2.2-2.3,3.7c0,1.2-0.4,2.8-0.9,3.8c-0.7,1.6,1.5,0.9,2.5,1.4c1.2,0.5,2.5,1.3,3.7,1.9
	c1.3,0.7,2.5,1,3.7,1.7c1.3,0.8,2.5,1.8,3.9,2.4c0.6,0.3,2,0.8,2.4,1.3c0.5,0.7,1.1,0.1,1.2,0.1c1.4,0.6-1,4,0,5
	c1.8,1.9,7.5,0.9,9.8,2.2c0.6,0.3,1.6,0.7,2.3,0.8c0.3,0,0.9,0.1,1.1,0.4c0.3,0.3-0.2-0.1-0.3,0.3c-0.2,0.5,0.3,1.7,0.3,0.6
	c0-1.1,0.9-1.8,1.6-2.5c0.7-0.7,1.4-1.2,2-1.9c0.6-0.6,1-1.8,1.6-2.2c0.4-0.3,0.4-1.4,0.6-1.9c0.3-0.5,0.5-1,0.8-1.6
	c0.6-1.2,1.4-2.1,2-3.2c0.4-0.6,0.6-1,0.8-1.7c0.2-0.7,1-1,1.3-1.6c0.5-0.9,1.9-2,1.9-3.2c0-1,1.1-2.4,1.6-3.3
	c0.6-1,1.6-2.4,1.7-3.4c0.1-1.1,2-1.9,2.2-2.8c0.2-1.1,2-1.6,2.2-2.8c0.1-0.5,0.9-0.9,1.1-1.5c0.2-0.7,0.4-1,0.8-1.6
	c0.7-0.8,1.2-2.1,2-2.8c0.8-0.6-0.1-2.9,0.5-3.6c0.5-0.6,0.1-1.2-0.1-1.8c-0.2-0.7-1.6-0.3-2.2-0.5c-0.9-0.3-2.9-0.5-3.3-1.4
	c-0.6-1.3,1.9,0.3,2.7,0.4c1.7,0.3,2.5,1.3,4.3,1.3c1,0,0.9,0.1,1.6,0.7c0.2,0.3,0.3,0.6-0.2,0.6c-2.5,0-5.1-0.9-7.2-2.2
	c-2-1.3-3.5-3.2-5.6-4.3c-0.9-0.5-1.5-0.9-2.4-1.6c-0.8-0.6-1.3-1.4-2-2c-0.4-0.3-0.7-2.7-0.8-3.2c-0.3-1.3-1.1-2.8-1.2-4.1
	c-0.1-1.2-0.3-2-1-3c-0.8-1.1-1.4,0.4-2,0.7c-1.3,0.7-2.1,2.5-3,3.6c-0.9,0.9-2.3,2.6-2.7,3.8c-0.3,1-1.2,2.4-1.8,3.3
	c-1,1.4-1.6,3.3-2.3,4.9c-0.7,1.7-1.8,3.1-2.6,4.7c-0.7,1.6-1.4,3.2-2.3,4.7c-0.8,1.3-1.3,3-2.3,4.2c-1,1.2-2.6,2-3.7,3
	c-1.2,1.1-3.1,3.4-4.9,3.7c-1,0.2-1.1-0.1-0.3-0.9c0.7-0.7,1.4-1.5,2.2-2.2c0.8-0.9,1.3-1.9,1.9-2.9c0.7-1.2,0.6-2.4,1.2-3.6
	c0.9-1.7,1.6-3.6,2.5-5.4c1-2,1.8-4.1,2.8-6.1c0.3-0.7,0.7-1.8,1.2-2.3c0.5-0.4,1.4-1.5,1.7-2.1c0.3-0.6,0.7-1.1,1.2-1.7
	c0.7-0.8-1.5,1.3-1.8,1.6c-2.2,2.3-4.5,4.4-6.6,6.8c-1.8,2.1-4,4-5.8,6.2c-1.9,2.4-3.2,4.7-3.6,7.8c-0.3,1.9-0.3,3.7-0.3,5.6
	c0,1.7,0.5,3.3,0.5,5c0,1.5-0.4,3.5,0.8,4.6c1.7,1.6,5.5-0.7,7.3,0.9c0.8,0.7,1.7,1.1,2.5,1.7c0.5,0.4,1.7,1.7,2.3,1.8
	c1.2,0.3,2.3,1.2,3.4,1.8c1.6,0.8,3.3,1.8,4.8,2.7c0.4,0.2,1.3,0.1,1.8,0c1-0.2,0.7-1.1,1.1-1.7c1.9-3.3,2.6-7.3,4.1-10.9
	c0.9-2.2,2-3.9,3.3-5.8c1-1.5,2.5-2.9,3.7-4.3c2.2-2.5,4.1-5,6.4-7.4c0.3-0.3,3-3.1,2.1-3.8c-0.5-0.4-1.1-0.5-1.6-1
	c-1.9-1.8-4-3.7-6.1-5.4c-1.5-1.3-3.8-1.1-5.5-2.4c-0.7-0.6-1.3-1.5-2.3-1.9c-0.9-0.3-1.4-1-1.4-1.9c0-0.7,0.1-1.1,1-1.1
	c0.8,0-0.8-0.7-1.2,0.3c-1.4,3.2-3.5,6.4-5.9,9c-2.2,2.3-3.7,5.4-6.3,7.4c-1.4,1.1-2.5,3.1-3.5,4.5c-1,1.4-2,2.8-2.9,4.3
	c-0.5,0.9-0.3,1.8-0.8,2.7c-0.6,1.1-0.8,2.4-1.4,3.6c-0.5,1-0.5,2.1-0.4,3.2c0,0.3,1,0.6,1.3,0.9c2.8,2.7,6.2,5.8,10.1,6.3
	c0.8,0.1,5,1.8,5.2,0.2c0.1-0.8,0.4-1.9,0.5-2.8c0.2-1.7,1-3,1.4-4.6c0.3-1.4,0.7-2.9,1.2-4.3c0.4-1.1,1.6-2.2,2.2-3.1
	c1.3-1.8,3.1-3.4,4.2-5.3c0.9-1.6,1.7-2.6,2.3-4.3c0.4-1.2,1.3-2.4,2-3.5c0.5-0.9,1-3.9,1-2.9c0,0.6-0.3,1.3-0.3,2
	c0,0.6,0.2,1.7-0.2,2.2c-0.2,0.4-0.4,0.9-0.9,0.9c-0.1,0-1,0-0.8,0.2c0.1,0.1,0.3-0.4,0.4-0.5c0.2-0.2,0.6-0.2,0.6-0.5
	c0.1-1.3-1-2.4-2.3-2.4c-1.5,0-2.4-2.1-3.1-2.9c-0.9-0.9-0.4-2.3-1.9-2.4c-1-0.1-1.4-1.1-2.5-1.1c-1.9,0-3.5,2-4.6,3.4
	c-2.6,3.6-4.7,7.3-6.9,11.1c-1.2,2.1-1.7,4.5-2.6,6.7c-0.5,1.3-0.3,3.1-0.3,4.5c0,1.8-0.6,3.5,0.5,5.2c0.4,0.6,0.8,2.3,1.8,2
	c0.8-0.2,0.4-2.5,0.4-2.9c0-2.6-0.5-5.3,1-7.6c1.8-2.8,2.2-6.3,3.8-9.1c1.9-3.2,2.5-7.2,4.6-10.3c1.4-1.9,4.6-1.3,3.3,1.4
	c-1,2.2-2.1,4.5-2.9,6.8c-1,3-2.9,5.3-4.2,8.1c-0.4,1-4.3,11.1-3,11.4c1.4,0.3,2-0.9,2.5-1.9c1.9-3.4,2.2-6.8,3.2-10.5
	c0.9-3.4,1.7-7.6,5.3-9.3c0.7-0.3,1.9-0.5,2.2,0.4c0.2,0.8-2,2.4-2.6,2.9c-3.2,3.1-4.5,7.5-4.5,11.7"/>
<path class="st2" d="M68.7,138.6l-7.7-5L6.9,227.7c4.6,5.7,9.7,14.4,26.3,26.2c16.6,11.8,26.8,12.3,35.6,15.4l58.7-92.6l-9.3-6
	 M68.7,138.6l35.6-55.9l4.9,3.1 M68.7,138.6l49.5,32.1 M118.2,170.8l35.6-57.2l-6.2-3.9 M109.2,85.8l38.3,23.9 M109.2,85.8
	c13.4-20.9,40.7-60.5,52.3-67 M147.6,109.7c8.2-13.6,25.7-42.7,29.4-50.1c0.6-1.2,1-2.8,1.3-4.6 M161.5,18.8c1.2-0.7,2.3-1,3.1-0.9
	c9.4,1.3,15.3,24.8,13.6,37 M161.5,18.8c-2.1,2.3-6.2,8.4-6.2,14.5c0,7.7,6.2,20.1,10.8,21.6c4.6,1.5,11.9,1.5,12.1,0"/>
<defs>
	<filter id="Adobe_OpacityMaskFilter" filterUnits="userSpaceOnUse" x="152.8" y="-4.2" width="305.5" height="297.4">
		<feColorMatrix  type="matrix" values="1 0 0 0 0  0 1 0 0 0  0 0 1 0 0  0 0 0 1 0"/>
	</filter>
</defs>
<mask maskUnits="userSpaceOnUse" x="152.8" y="-4.2" width="305.5" height="297.4" id="path-4-inside-1_191_3328_00000098183011240144887980000010231583362549958561_">
	<path class="st3" d="M159.9,72.9L381.3,0.9c1.6-0.5,3.3,0.4,3.8,1.9l68.1,209.5c0.5,1.6-0.4,3.3-1.9,3.8l-221.4,71.9
		c-1.6,0.5-3.3-0.4-3.8-1.9L158,76.6C157.5,75.1,158.3,73.4,159.9,72.9z"/>
</mask>
<path class="st4" d="M159.9,72.9L381.3,0.9c1.6-0.5,3.3,0.4,3.8,1.9l68.1,209.5c0.5,1.6-0.4,3.3-1.9,3.8l-221.4,71.9
	c-1.6,0.5-3.3-0.4-3.8-1.9L158,76.6C157.5,75.1,158.3,73.4,159.9,72.9z"/>
<path class="st5" d="M287.1,54l81.7-26.5c1.1-0.3,2.2,0.2,2.5,1.3l23.9,73.6c0.3,1.1-0.2,2.2-1.3,2.5l-81.7,26.5
	c-1.1,0.3-2.2-0.2-2.5-1.3l-23.9-73.6C285.5,55.4,286.1,54.3,287.1,54z"/>
<path class="st6" d="M184.6,88.5L266.3,62c1.1-0.3,2.2,0.2,2.5,1.3l23.9,73.6c0.3,1.1-0.2,2.2-1.3,2.5l-81.7,26.5
	c-1.1,0.3-2.2-0.2-2.5-1.3L183.3,91C183,90,183.6,88.9,184.6,88.5z"/>
<path class="st7" d="M214.4,185l81.7-26.5c1.1-0.3,2.2,0.2,2.5,1.3l23.9,73.6c0.3,1.1-0.2,2.2-1.3,2.5l-81.7,26.5
	c-1.1,0.3-2.2-0.2-2.5-1.3l-23.9-73.6C212.8,186.5,213.4,185.4,214.4,185z"/>
<path class="st8" d="M319.3,151.7l81.7-26.5c1.1-0.3,2.2,0.2,2.5,1.3l23.9,73.6c0.3,1.1-0.2,2.2-1.3,2.5l-81.7,26.5
	c-1.1,0.3-2.2-0.2-2.5-1.3L318,154.2C317.7,153.1,318.2,152,319.3,151.7z"/>
</svg>
