<?xml version="1.0" encoding="utf-8"?>
<!-- Generator: Adobe Illustrator 26.4.1, SVG Export Plug-In . SVG Version: 6.00 Build 0)  -->
<svg version="1.1" id="Слой_1" xmlns="http://www.w3.org/2000/svg" xmlns:xlink="http://www.w3.org/1999/xlink" x="0px" y="0px"
	 viewBox="0 0 455 289" style="enable-background:new 0 0 455 289;" xml:space="preserve">
<style type="text/css">
	.st0{fill:#FFFFFF;filter:url(#Adobe_OpacityMaskFilter);}
	
		.st1{mask:url(#path-1-inside-1_311_12_00000059277019000963437370000008322998096868365234_);fill:#FFC6DE;stroke:#000000;stroke-width:10;}
	.st2{fill:#FFE640;stroke:#000000;stroke-width:2;}
	.st3{fill:#C1F4FF;stroke:#000000;stroke-width:2;}
	.st4{fill:#FFFFFF;stroke:#000000;}
	.st5{fill:#C1F4FF;stroke:#000000;}
	.st6{fill:#FFFFFF;stroke:#000000;stroke-width:2;}
	.st7{fill:#FF6C9C;stroke:#000000;stroke-width:2;}
	.st8{fill:#FFC6DE;}
	.st9{fill:none;stroke:#FF6C9C;stroke-width:7;stroke-linecap:round;}
	.st10{fill:none;stroke:#000000;stroke-width:5;}
</style>
<defs>
	<filter id="Adobe_OpacityMaskFilter" filterUnits="userSpaceOnUse" x="152.8" y="-4.2" width="305.5" height="297.4">
		<feColorMatrix  type="matrix" values="1 0 0 0 0  0 1 0 0 0  0 0 1 0 0  0 0 0 1 0"/>
	</filter>
</defs>
<mask maskUnits="userSpaceOnUse" x="152.8" y="-4.2" width="305.5" height="297.4" id="path-1-inside-1_311_12_00000059277019000963437370000008322998096868365234_">
	<path class="st0" d="M159.9,72.9L381.2,0.9c1.6-0.5,3.3,0.4,3.8,1.9l68.1,209.5c0.5,1.6-0.4,3.3-1.9,3.8l-221.4,71.9
		c-1.6,0.5-3.3-0.4-3.8-1.9L157.9,76.6C157.4,75.1,158.3,73.4,159.9,72.9z"/>
</mask>
<path class="st1" d="M159.9,72.9L381.2,0.9c1.6-0.5,3.3,0.4,3.8,1.9l68.1,209.5c0.5,1.6-0.4,3.3-1.9,3.8l-221.4,71.9
	c-1.6,0.5-3.3-0.4-3.8-1.9L157.9,76.6C157.4,75.1,158.3,73.4,159.9,72.9z"/>
<path class="st2" d="M287.1,54l81.7-26.5c1.1-0.3,2.2,0.2,2.5,1.3l23.9,73.6c0.3,1.1-0.2,2.2-1.3,2.5l-81.7,26.5
	c-1.1,0.3-2.2-0.2-2.5-1.3l-23.9-73.6C285.4,55.4,286,54.3,287.1,54z"/>
<path class="st3" d="M184.6,88.5L266.3,62c1.1-0.3,2.2,0.2,2.5,1.3l23.9,73.6c0.3,1.1-0.2,2.2-1.3,2.5l-81.7,26.5
	c-1.1,0.3-2.2-0.2-2.5-1.3L183.3,91C183,90,183.5,88.9,184.6,88.5z"/>
<path class="st4" d="M277.6,120.9l8.2-3.9l7.2,21.5l-21,7v-5.4l5.6-7.9V120.9z"/>
<path class="st4" d="M280,97.5L268,94l-4.5-2L262,81l-8,7l-10.5,4L233,85l-11-8.5l18.5-5.5l27.5-9.5L280,97.5z"/>
<path class="st5" d="M293.4,125.8l9.1-0.6l-1.4,22.6l-22.1-1.4l2-5l8.2-5.2L293.4,125.8z"/>
<path class="st6" d="M214.4,185l81.7-26.5c1.1-0.3,2.2,0.2,2.5,1.3l23.9,73.6c0.3,1.1-0.2,2.2-1.3,2.5l-81.7,26.5
	c-1.1,0.3-2.2-0.2-2.5-1.3l-23.9-73.6C212.7,186.5,213.3,185.4,214.4,185z"/>
<path class="st7" d="M319.2,151.7l81.7-26.5c1.1-0.3,2.2,0.2,2.5,1.3l23.9,73.6c0.3,1.1-0.2,2.2-1.3,2.5l-81.7,26.5
	c-1.1,0.3-2.2-0.2-2.5-1.3L318,154.2C317.6,153.1,318.2,152,319.2,151.7z"/>
<path class="st4" d="M318,152l37-12l11-4l-5,12l-12.8,8.5l10.8,8l-3,7l-7.6,5l4.6,7l3,10.5l-7.6,15.5l-0.2,11.5l-5.7,7.5l-9.4-30.3
	l-5.7-18.5L318,152z"/>
<path class="st4" d="M395,104l-23,7.5l-15,5l9-9l-0.5-7L372,94l-3.5-6.6l7.5-6.9l-4-7l6.5-6.5l1-11l2.5,8.5l4.5,13L395,104z"/>
<path class="st8" d="M105.8,84l46.5,30.4l-18.5,30.4l-15.5,24.4l7.7,8.3l-57.2,91.8l-19.7-6.6l-20.3-12.5L8.1,227.6l53.6-91.2
	l7.2,5.4l16.1-25.4L105.8,84z"/>
<path class="st9" d="M143.4,12.8c-1.7,1.2-0.7,1.6-0.9,3.2c-0.2,1.6,0.8,3.9,1.1,5.6c0.3,1.7,0.5,3.2,1.1,4.8c0.4,1,0.1,2,0.7,2.9
	c0.7,1,1.6,3,2.6,3.6c1.3,0.8,3.9,0.3,4.9,1.4c0.3,0.3,1.6,0.5,2,0.8c0.8,0.4,1.5,0.7,2.3,1.1c1.3,0.8,2.9-0.1,3.9-0.8
	c1.4-1,2.6-0.8,4.2-1.3c0.7-0.2,1.3-0.4,2-0.3c0.8,0.1,2.3-0.5,2.3-1c0-0.3-2.5-1.6-2.6-2c-0.2-1-0.1-2.1-0.3-3.1
	c-0.3-1.7-2.1,1-3.4,0.6c-1-0.3-2.1-4.1-2.7-5c-1.5-2.1-2.1-5.8-4.7-7.1c-0.8-0.4-1.4-0.9-2.1-1.5c-0.5-0.3-0.9-0.8-1.5-1.1
	c-0.4-0.2-0.6-0.7-1-0.8c-1.2-0.4-2.1-1.6-3.5-1.1c-2,0.8-0.2,6.5,0,8c0.7,4.2,1.7,8.2,3.1,12.2c0.6,1.7,1,2.9,2,4.4
	c0.8,1.2,1.4,1.3,2.6,1.9c1.5,0.8,4.6,0.6,5-1.5c0.4-2.1,0.3-4.3-0.6-6.2c-0.5-1-0.5-1.7-1.2-2.7c-1-1.4-1.9-2.1-3.1-3.2
	c-1.4-1.2-2.4-2.4-3.4-3.9c-0.7-1-1.4-0.6-1.3,0.7c0.1,1.5,0.1,3,0.9,4.4c0.5,0.9,0.6,1.9,1.2,2.8c0.5,0.7,1,1.4,1.5,2.1
	c0.7,1,1.3,1.9,2,2.9c0.2,0.3,1.6,1.9,0.8,1.8c-1.2-0.1-2.3-1.6-3-2.4c-1.2-1.2-2-2.8-3.3-3.9c-0.8-0.7-1.2-2-2.4-2.3
	c-0.8-0.2-1.4-0.7-2.1-1.1c-1.2-0.6-6.5-1.1-6.3,1.1c0.1,0.6,0.2,1,0.3,1.7c0,0.8-0.6,1.3-0.6,2.1c0,0.8-0.8,2.1-1.1,2.9
	c-0.2,0.6-0.7,1.6-0.7,2.2c0,0.4,0,1.1,0,1.5c0,0.6,0.4,1.3,0.2,1.9c-0.1,0.4,0.3,1.3,0.3,1.8c0.1,0.8,0,1.6,0.1,2.3
	c0.1,1.9-0.4,3.9-0.4,5.8c0,0.9,0.1,1.9,0.1,2.8c0,0.3-0.4,1-0.3,1.2c0.1,0.3,0.3,0.7,0.2,1c-0.4,0.9-0.2,3.3-0.3,4.4
	c-0.1,2.2,0.5,4.7,0.2,6.9c-0.3,1.8-0.2,3.6-0.7,5.3c-0.6,1.9-0.7,3.4-0.4,5.4c0.3,2.1,0.5,4.1,0.9,6.2c0.2,1.2-0.7-0.4-0.4,0.3
	c0.3,0.8-0.2,2.5-0.5,3.4c-0.4,1.4-0.6,3.2,0.3,4.5c0.7,1.1,1.3,2.6,1.6,3.8c0.3,1.8,1.8,0,2.9-0.2c1.3-0.2,2.8-0.3,4.2-0.4
	c1.4-0.1,2.7-0.6,4.1-0.6c1.5,0,3.1,0.1,4.6-0.1c0.7-0.1,2.1-0.5,2.8-0.2c0.8,0.3,1-0.5,1.1-0.5c1.5-0.3,0.3-0.4,1.7-0.1
	c2.6,0.7,8,1,10.7,0.8c0.7-0.1,1.8-0.3,2.4-0.6c0.3-0.2,0.8-0.4,1.1-0.3c0.4,0.1-0.2,0,0,0.4c0.2,0.5,1.2,1.3,0.6,0.4
	c-0.7-1-0.3-2-0.1-3.1c0.2-0.9,0.4-1.8,0.6-2.8c0.2-0.9-0.2-2.1,0-2.9c0.2-0.6-0.5-1.4-0.6-2c-0.1-0.6-0.2-1.2-0.3-1.8
	c-0.2-1.4-0.1-2.6-0.2-3.9c-0.1-0.8-0.1-1.2-0.4-1.9c-0.3-0.7,0.2-1.5,0.2-2.2c-0.1-1.1,0.4-2.8-0.3-3.8c-0.6-0.8-0.5-2.8-0.7-3.8
	c-0.1-1.2-0.1-3-0.6-3.9c-0.6-1,0.5-2.7,0.1-3.6c-0.4-1.1,0.7-2.6,0.2-3.7c-0.3-0.5,0.3-1.3,0-1.9c-0.3-0.7-0.3-1.1-0.3-1.8
	c0.1-1.1-0.3-2.5,0-3.6c0.3-1-1.8-2.5-1.8-3.4c0-0.7-0.6-1-1.1-1.5c-0.6-0.6-1.5,0.7-2.1,0.8c-0.9,0.2-2.7,1.2-3.5,0.6
	c-1.3-0.8,1.7-0.9,2.5-1.2c1.6-0.7,2.8-0.3,4.3-1.3c0.9-0.6,0.8-0.5,1.7-0.2c0.4,0.1,0.6,0.3,0.2,0.6c-2,1.4-4.8,2.2-7.2,2.2
	c-2.4,0-4.8-0.7-7.2-0.5c-1,0.1-1.8,0-2.9,0c-1,0-1.9-0.5-2.8-0.6c-0.5,0-2.2-1.9-2.6-2.3c-1-0.9-2.5-1.8-3.4-2.8
	c-0.8-0.9-1.4-1.5-2.6-2c-1.3-0.5-0.9,1.1-1.2,1.7c-0.6,1.4-0.2,3.4-0.4,4.8c-0.2,1.3-0.3,3.6,0.1,4.9c0.4,1.1,0.4,2.8,0.4,3.9
	c0,1.8,0.6,3.8,1,5.5c0.4,1.8,0.3,3.7,0.7,5.6c0.3,1.8,0.7,3.6,0.9,5.4c0.1,1.6,0.7,3.4,0.6,5c-0.1,1.6-0.9,3.2-1.3,4.7
	c-0.4,1.6-0.5,4.8-1.8,6c-0.7,0.7-1,0.5-0.8-0.7c0.2-1.1,0.3-2.1,0.5-3.2c0.2-1.2-0.1-2.4-0.1-3.6c-0.1-1.4-1-2.5-1.1-3.8
	c-0.2-2-0.8-4.1-1.2-6.1c-0.4-2.3-0.9-4.6-1.3-6.9c-0.1-0.8-0.5-2-0.3-2.7c0.2-0.7,0.3-2.1,0.2-2.8c-0.1-0.8,0-1.4,0-2.1
	c0.1-1.1-0.5,2-0.5,2.4c-0.5,3.2-1.1,6.4-1.4,9.6c-0.3,2.9-1,5.7-1.1,8.6c-0.1,3.2,0.2,5.9,1.7,8.9c0.9,1.8,2,3.4,3.1,5.1
	c1,1.5,2.4,2.6,3.5,4.1c0.9,1.3,1.8,3.2,3.4,3.6c2.3,0.5,4.2-3.7,6.5-3.4c1,0.1,2.1,0,3.1,0c0.7,0,2.4,0.5,3,0.3
	c1.2-0.5,2.6-0.2,3.9-0.4c1.8-0.2,3.8-0.3,5.6-0.4c0.5,0,1.1-0.6,1.5-1.1c0.7-0.8,0-1.3-0.1-2.1c-0.4-4-2.3-7.8-3.1-11.7
	c-0.5-2.4-0.7-4.5-0.8-6.9c-0.1-1.9,0.3-3.9,0.5-5.8c0.3-3.4,0.4-6.7,0.9-10.1c0.1-0.5,0.6-4.4-0.5-4.5c-0.6-0.1-1.2,0.2-1.9,0
	c-2.6-0.5-5.5-0.9-8.3-1.3c-2-0.2-3.8,1.2-6,1c-1-0.1-2-0.6-3-0.4c-0.9,0.2-1.8,0-2.3-0.8c-0.4-0.6-0.5-1,0.2-1.5
	c0.6-0.4-1.1-0.2-0.8,0.9c0.7,3.6,1,7.5,0.5,11.1c-0.4,3.2,0.2,6.8-0.8,10c-0.5,1.7-0.2,4.1-0.2,5.9c0,1.8,0,3.6,0.1,5.4
	c0.1,1.1,0.8,1.8,1,2.8c0.2,1.3,0.7,2.6,0.9,3.9c0.2,1.2,0.8,2.1,1.6,3c0.2,0.3,1.2-0.1,1.6,0c3.9,0.8,8.5,1.5,12.1-0.3
	c0.7-0.3,5.2-1.3,4.4-2.7c-0.4-0.8-0.8-1.9-1.2-2.7c-0.8-1.6-0.9-3.2-1.6-4.8c-0.6-1.4-1.2-2.9-1.6-4.4c-0.3-1.2,0-2.8,0-3.9
	c0-2.3,0.5-4.7,0.3-7c-0.2-1.9-0.1-3.2-0.7-5c-0.4-1.3-0.3-2.8-0.5-4.2c-0.1-1.1-1.5-3.9-0.9-3c0.4,0.6,0.6,1.3,1,1.9
	c0.4,0.5,1.2,1.3,1.2,2c0,0.4,0.2,1-0.2,1.3c-0.1,0-0.8,0.5-0.5,0.6c0.2,0,0-0.6,0-0.7c0.1-0.3,0.4-0.5,0.2-0.8
	c-0.7-1.1-2.3-1.5-3.3-0.7c-1.2,0.8-3.2-0.5-4.3-0.7c-1.3-0.3-1.7-1.8-3-1c-0.8,0.5-1.8-0.1-2.7,0.5c-1.6,1.1-1.7,3.7-1.8,5.6
	c-0.1,4.6,0.4,9,0.9,13.6c0.2,2.5,1.3,4.9,1.9,7.3c0.4,1.4,1.6,2.9,2.4,4.1c1.1,1.6,1.6,3.4,3.6,4.2c0.7,0.3,2.1,1.5,2.7,0.8
	c0.5-0.6-1.1-2.4-1.4-2.8c-1.6-2.3-3.5-4.3-3.7-7.1c-0.2-3.5-1.9-6.7-2.3-10c-0.4-3.9-2.3-7.7-2.3-11.5c0-2.4,3-3.7,3.6-0.6
	c0.5,2.5,1,5.1,1.7,7.5c0.9,3.2,0.8,6.2,1.4,9.4c0.2,1.1,3.1,12.1,4.3,11.6c1.3-0.5,1.1-1.9,1-3.1c-0.5-4.1-2.2-7.2-3.6-10.9
	c-1.3-3.5-3.1-7.5-1.1-11.1c0.4-0.7,1.3-1.5,2-0.9c0.6,0.5-0.3,3.2-0.4,4c-0.8,4.5,0.7,9,3.3,12.7"/>
<path class="st10" d="M68.7,138.6l-7.7-5L6.9,227.7c4.6,5.7,9.7,14.4,26.3,26.2c16.6,11.8,26.8,12.3,35.6,15.4l58.7-92.6l-9.3-6
	 M68.7,138.6l35.6-55.9l4.9,3.1l38.3,23.9l6.2,3.9l-35.6,57.2 M68.7,138.6l49.5,32.1"/>
<path class="st10" d="M140.2,12.1c-6.1,11.7-7.2,59.8-6.9,84.7l45.2-1.1c-0.6-15.9-2-49.8-3-58c-0.2-1.3-0.7-2.9-1.5-4.6
	 M140.2,12.1c0.6-1.2,1.3-2.1,2.1-2.4c8.6-4,26.4,12.3,31.7,23.5 M140.2,12.1c-0.5,3-0.6,10.4,2.8,15.5c4.2,6.4,16.2,13.4,20.9,12.1
	c4.7-1.3,10.8-5.3,10.1-6.6"/>
</svg>
