<svg width="608" height="145" viewBox="0 0 608 145" fill="none" xmlns="http://www.w3.org/2000/svg">
<path d="M0 0H608V145H0V0Z" fill="#FFE640"/>
<path fill-rule="evenodd" clip-rule="evenodd" d="M603.881 4.11932H4.11924V140.881H603.881V4.11932ZM0 0V145H608V0H0Z" fill="black"/>
<mask id="path-3-outside-1_188_3023" maskUnits="userSpaceOnUse" x="45" y="39" width="504" height="64" fill="black">
<rect fill="white" x="45" y="39" width="504" height="64"/>
<path d="M62.4729 96.9513C60.1968 96.9513 58.0444 96.3316 56.0158 95.0923C54.0366 93.853 52.5274 92.2171 51.4883 90.1846C50.3008 87.8547 49.5339 85.9214 49.1875 84.3846C48.7422 82.4017 48.4206 80.865 48.2227 79.7744C48.0742 78.6838 48 77.5188 48 76.2795C48 72.7103 48.2969 69.1906 48.8906 65.7205C49.5339 62.2504 50.5235 59.1273 51.8594 56.3513C53.6902 52.6333 55.6694 49.8821 57.797 48.0974C59.9741 46.2632 62.9182 45.3462 66.6292 45.3462C68.262 45.3462 69.7217 45.6188 71.0082 46.1641C72.3441 46.6598 73.7543 47.453 75.2387 48.5436C76.6736 49.5846 77.6632 50.7744 78.2075 52.1128C78.8013 53.4017 79.0981 55.0128 79.0981 56.9462C79.0981 57.6402 79.0734 58.1855 79.0239 58.582C79.0239 58.7308 78.9992 59.0778 78.9497 59.6231C78.9497 60.1188 78.826 60.5402 78.5786 60.8872C78.3807 61.1846 78.0591 61.3333 77.6137 61.3333H69.3011C69.2022 61.3333 69.0785 61.2838 68.93 61.1846C68.8311 61.0855 68.7816 60.9615 68.7816 60.8128L68.93 60.5154V59.8462C68.93 58.706 68.6331 57.8137 68.0394 57.1692C67.4456 56.5248 66.6045 56.2026 65.5159 56.2026C64.6253 56.2026 63.9078 56.4009 63.3635 56.7974C61.6317 58.1855 60.37 60.912 59.5783 64.9769C58.8361 69.0419 58.465 72.7846 58.465 76.2051C58.465 78.535 58.6877 80.7658 59.133 82.8974C59.5783 84.9795 60.4689 86.0205 61.8049 86.0205C62.5966 86.0205 63.3635 85.5248 64.1057 84.5333C64.8974 83.4923 65.5159 82.4513 65.9612 81.4103L66.6292 79.2538C67.2724 76.9239 67.7178 75.759 67.9652 75.759C69.2516 75.8085 71.1319 75.9325 73.6059 76.1308C76.0799 76.2795 77.4653 76.4282 77.7622 76.5769C77.8611 76.6265 77.9106 76.7256 77.9106 76.8744L77.7622 77.4692C77.7127 77.6675 77.6385 77.9402 77.5395 78.2872C77.49 78.5846 77.4653 78.8325 77.4653 79.0308C76.7726 82.2034 75.5603 85.3761 73.8285 88.5487C72.0967 91.7214 70.0928 94.0017 67.8167 95.3897C65.986 96.4308 64.2047 96.9513 62.4729 96.9513Z"/>
<path d="M80.8423 99.3308C80.7434 99.3308 80.6691 99.2812 80.6197 99.182C80.5702 99.1325 80.5454 99.0581 80.5454 98.959L80.4712 97.9923V93.9769L80.397 91.5231V90.9282V90.259C80.5454 90.1103 80.6444 90.0359 80.6939 90.0359L83.44 89.8128L83.7369 89.7385C83.7369 87.8051 83.8853 85.0043 84.1822 81.3359C84.4791 77.2709 84.8007 73.6769 85.1471 70.5539C85.5429 67.4308 86.0377 64.382 86.6315 61.4077C87.0273 59.6231 87.819 56.9957 89.0065 53.5256C90.194 50.1051 91.6289 47.4282 93.3113 45.4949C95.0431 43.5615 97.4676 42.5949 100.585 42.5949C103.356 42.5949 105.483 43.8342 106.968 46.3128C108.502 48.7915 109.392 51.5923 109.64 54.7154L110.308 62.7462C110.357 62.8949 110.382 63.3906 110.382 64.2333L110.604 89.5154H110.976L112.683 89.441C112.98 89.441 113.177 89.5154 113.276 89.6641C113.375 89.8128 113.425 90.0607 113.425 90.4077C113.524 91.2009 113.573 92.1923 113.573 93.3821C113.623 93.8778 113.672 94.547 113.722 95.3897C113.821 96.1829 113.87 96.8273 113.87 97.3231C113.92 97.3726 113.944 97.8188 113.944 98.6615C113.944 98.7607 113.92 98.835 113.87 98.8846C113.821 98.9838 113.746 99.0333 113.648 99.0333C112.608 99.0333 111.05 98.9838 108.972 98.8846L106.597 98.8103H101.104C92.7422 98.8103 86.483 98.9838 82.3267 99.3308H80.8423ZM99.62 89.7385L100.585 89.6641V81.4846L101.253 68.3231C101.302 67.6291 101.327 66.588 101.327 65.2C101.327 62.9197 101.203 60.3171 100.956 57.3923C100.758 54.4675 100.288 53.0051 99.5457 53.0051C99.3478 53.1538 99.1746 53.3769 99.0262 53.6744C98.8778 53.9718 98.7788 54.1701 98.7293 54.2692C98.284 55.2607 97.9129 56.3017 97.616 57.3923C97.3686 58.4333 97.0965 59.8214 96.7996 61.5564L96.5769 63.0436C95.8347 67.059 95.142 72.2145 94.4988 78.5103C94.4988 78.9068 94.4493 79.5017 94.3503 80.2949L94.0535 82.9718C93.7071 85.4009 93.5339 87.5077 93.5339 89.2923L93.6081 89.6641C94.4988 89.7137 95.7853 89.7385 97.4676 89.7385H99.62Z"/>
<path d="M127.207 96.5051C127.059 96.5051 126.935 96.4803 126.836 96.4308C126.737 96.3316 126.613 96.2821 126.465 96.2821L124.535 95.9103C123.496 95.6624 122.333 95.4889 121.047 95.3897L118.969 95.0923C118.771 95.0923 118.647 95.0675 118.598 95.0179C118.499 94.9684 118.449 94.8692 118.449 94.7205V94.4974C118.845 93.4564 119.092 92.6633 119.191 92.118L120.676 86.541L121.789 82.3026C122.63 78.7829 123.471 75.6846 124.313 73.0077C124.659 72.0162 125.104 70.7026 125.649 69.0667C126.193 67.3812 126.613 66.0427 126.91 65.0513C127.356 63.6632 128.073 61.1846 129.063 57.6154C130.597 52.2615 131.809 48.3949 132.699 46.0154C132.749 45.8171 132.823 45.6932 132.922 45.6436C133.021 45.5444 133.194 45.4949 133.442 45.4949C133.738 45.4949 134.085 45.5692 134.481 45.7179C134.877 45.8171 135.248 45.8915 135.594 45.941C138.068 46.1393 139.923 46.3128 141.16 46.4615C141.408 46.5111 141.73 46.5359 142.125 46.5359C142.571 46.5359 142.917 46.5607 143.164 46.6103C143.214 46.6103 143.263 46.635 143.313 46.6846C143.412 46.7342 143.461 46.8085 143.461 46.9077L143.387 47.2051V47.3538V47.5026L146.579 65.3487C146.826 66.8359 147.222 69.4632 147.766 73.2308C148.063 75.6103 148.31 77.3949 148.508 78.5846L149.325 83.3436L150.735 92.118C150.883 93.4564 150.958 94.1752 150.958 94.2744C150.958 94.7205 150.685 95.0427 150.141 95.241C149.795 95.241 149.127 95.241 148.137 95.241C147.148 95.241 146.232 95.2906 145.391 95.3897C144.599 95.4393 143.882 95.5632 143.239 95.7615C142.546 95.9598 142.076 96.059 141.828 96.059C141.433 96.059 141.185 95.8359 141.086 95.3897L140.121 89.8128L139.825 88.6974L139.676 88.6231L138.934 88.5487L130.77 87.9538H130.547C130.349 87.9043 130.25 87.9291 130.25 88.0282L129.582 90.6308C129.434 91.1265 129.236 91.8205 128.988 92.7128C128.741 93.5556 128.543 94.2248 128.395 94.7205C128.147 95.6128 127.999 96.1085 127.949 96.2077C127.702 96.406 127.455 96.5051 127.207 96.5051ZM137.969 77.4692C137.969 77.0727 137.895 76.6513 137.746 76.2051C137.647 75.7094 137.573 75.3376 137.524 75.0897C137.276 74.0487 136.955 72.4872 136.559 70.4051C136.509 70.0085 136.386 69.2897 136.188 68.2487L136.114 67.9513C135.965 68.2487 135.817 68.6453 135.668 69.141C135.52 69.5872 135.421 69.9094 135.371 70.1077C135.124 70.9009 134.802 72.0906 134.406 73.6769L133.367 77.3205C133.862 77.4197 134.629 77.4692 135.668 77.4692H137.969Z"/>
<path d="M168.683 94.3487C167.495 94.2 165.788 93.9274 163.562 93.5308C161.384 93.0846 160.172 92.7624 159.925 92.5641L159.628 91.9692V91.1513C159.628 90.259 159.653 89.5154 159.702 88.9205L161.558 70.2564L162.003 63.2667L161.409 63.1923L154.061 62.8949H153.839L153.468 62.9692C153.22 62.9692 153.097 62.7214 153.097 62.2256V61.8538L153.245 60.441C153.294 60.0444 153.319 59.4744 153.319 58.7308C153.369 58.1855 153.418 57.3923 153.468 56.3513C153.567 55.3103 153.666 54.4179 153.765 53.6744C153.765 53.6248 153.789 53.5752 153.839 53.5256C153.888 53.4761 153.938 53.4513 153.987 53.4513H162.745L162.819 53.3769L162.894 52.3359C162.943 51.9393 162.993 51.4188 163.042 50.7744C163.141 50.1299 163.19 49.6094 163.19 49.2128C163.19 49.1632 163.215 48.841 163.265 48.2462C163.364 47.6513 163.611 47.3538 164.007 47.3538C164.304 47.3538 164.601 47.3786 164.898 47.4282C165.244 47.4778 165.541 47.5026 165.788 47.5026L167.347 47.5769C169.623 47.6761 171.305 47.7009 172.394 47.6513C172.592 47.7504 172.74 47.9983 172.839 48.3949V49.1385C172.839 50.1299 172.814 50.8487 172.765 51.2949L172.691 53.5256V53.9718C173.383 53.9718 173.779 53.9966 173.878 54.0462C174.719 54.0462 175.758 54.0709 176.995 54.1205C178.232 54.1701 179.247 54.2197 180.038 54.2692C180.632 54.2692 180.979 54.3932 181.077 54.641V55.3846C181.077 56.0291 181.053 56.5496 181.003 56.9462V63.7128C181.003 63.7624 180.88 63.8615 180.632 64.0103H178.777L172.32 63.9359H172.097L172.023 64.0103C171.924 66.0923 171.652 69.3393 171.206 73.7513L171.058 75.4615L170.612 79.2538L169.351 93.7538C169.351 93.8034 169.326 93.9274 169.277 94.1256C169.227 94.2744 169.103 94.3487 168.905 94.3487H168.683Z"/>
<path d="M189.203 96.8769C186.976 96.8769 185.813 96.6043 185.714 96.059L185.64 93.3077L185.566 92.0436V81.1128L186.308 56.2769C186.655 52.1128 186.828 48.4692 186.828 45.3462L187.125 45.1974H188.09C190.217 45.1974 192.939 45.4205 196.254 45.8667C196.452 45.9162 196.6 46.0897 196.699 46.3872V46.8333V47.3538C196.501 52.3111 196.402 56.0043 196.402 58.4333V58.9538C198.183 59.2513 199.816 59.9205 201.301 60.9615C202.835 62.0026 204.368 63.341 205.902 64.9769C206.991 66.1171 207.783 67.5795 208.277 69.3641C208.822 71.1487 209.094 72.9333 209.094 74.7179C209.094 77.2462 208.822 79.5017 208.277 81.4846C207.634 83.6658 206.422 86.0205 204.641 88.5487C202.909 91.0769 201.152 92.9359 199.371 94.1256C197.936 95.018 196.328 95.712 194.547 96.2077C192.765 96.6538 190.984 96.8769 189.203 96.8769ZM194.992 85.1282C195.239 85.0291 195.487 84.8308 195.734 84.5333C195.982 84.2359 196.155 84.0376 196.254 83.9385C197.194 82.7487 197.936 81.3111 198.48 79.6256C199.074 77.8906 199.371 76.2795 199.371 74.7923C199.371 72.4128 198.505 70.5786 196.773 69.2897L196.179 68.7692H196.105C196.056 70.4051 195.883 72.859 195.586 76.1308C195.19 79.8983 194.992 82.7487 194.992 84.6821V85.1282Z"/>
<path d="M233.341 96.9513C233.094 96.9513 232.97 96.753 232.97 96.3564C232.97 96.1581 232.995 95.935 233.044 95.6872C233.094 95.3897 233.143 95.1667 233.193 95.0179L234.677 68.3974C235.073 65.2744 235.469 60.5402 235.865 54.1949C235.963 51.8154 236.062 50.0308 236.161 48.841L236.31 47.2051C236.409 46.3624 237.102 45.8419 238.388 45.6436C238.685 45.6436 239.056 45.6188 239.501 45.5692C239.947 45.4701 240.318 45.3957 240.615 45.3462C241.01 45.2966 241.357 45.247 241.654 45.1974C241.951 45.1479 242.272 45.0983 242.619 45.0487H244.474C246.948 45.0487 248.977 45.2718 250.56 45.7179C252.193 46.1641 254.024 47.0068 256.052 48.2462C257.487 49.1385 258.576 50.0803 259.318 51.0718C260.06 52.0137 260.877 53.3769 261.767 55.1615C262.905 57.4915 263.474 60.0692 263.474 62.8949C263.474 64.9274 263.004 66.9846 262.064 69.0667C261.124 71.1487 259.887 72.7598 258.353 73.9C258.007 74.1479 257.24 74.5692 256.052 75.1641V75.3128C256.597 76.1556 256.968 76.9487 257.166 77.6923C257.364 78.3863 257.463 79.2538 257.463 80.2949C257.463 81.9803 257.091 83.765 256.349 85.6487C255.657 87.4829 254.741 88.9949 253.603 90.1846C252.762 91.0769 252.02 91.8205 251.376 92.4154C250.783 92.9607 250.115 93.4316 249.373 93.8282C246.899 95.1171 244.177 95.9103 241.208 96.2077C240.813 96.2573 240.293 96.3564 239.65 96.5051C239.056 96.6043 238.561 96.6786 238.165 96.7282H236.087C235.642 96.7282 235.197 96.753 234.751 96.8026C234.306 96.9017 233.836 96.9513 233.341 96.9513ZM244.326 67.7282C245.464 67.7282 246.824 67.5051 248.408 67.059C249.1 66.8607 249.694 66.5632 250.189 66.1667C250.733 65.7701 251.327 65.2248 251.97 64.5308C252.762 63.688 253.158 62.3496 253.158 60.5154C253.158 60.0692 253.133 59.747 253.084 59.5487C252.688 58.5077 251.748 57.665 250.263 57.0205C248.828 56.3761 247.468 56.0538 246.181 56.0538H245.513C245.414 58.3838 245.241 60.5154 244.994 62.4487L244.4 66.9846L244.326 67.7282ZM243.138 84.1615C243.93 84.1615 244.697 83.9137 245.439 83.4179C246.231 82.8727 246.626 81.9556 246.626 80.6667C246.626 80.0222 246.404 79.5761 245.958 79.3282C245.563 79.0803 245.117 78.9068 244.622 78.8077C244.177 78.659 243.856 78.5598 243.658 78.5103C243.608 78.6094 243.583 78.8077 243.583 79.1051C243.534 79.3034 243.509 79.5761 243.509 79.9231C243.509 80.2205 243.484 80.5427 243.435 80.8897L243.287 82.6744C243.287 82.8231 243.262 83.0462 243.212 83.3436C243.212 83.5915 243.188 83.7897 243.138 83.9385V84.1615Z"/>
<path d="M296.088 95.3897L291.19 94.2744C291.14 94.2248 291.041 94.2 290.893 94.2C290.794 94.1504 290.72 94.1009 290.67 94.0513C290.373 94.0017 290.027 93.9274 289.631 93.8282C289.285 93.6795 289.013 93.5556 288.815 93.4564C288.468 93.4068 288.122 93.3077 287.776 93.159C287.429 93.0103 287.256 92.812 287.256 92.5641V92.4154L287.553 91.5231L288.815 87.2846L290.447 81.9308C290.992 80.2453 291.338 79.1547 291.487 78.659L300.838 49.8077L301.655 47.5026C301.853 46.9573 302.149 46.6846 302.545 46.6846C303.436 46.6846 304.97 46.7838 307.147 46.9821C309.374 47.1308 310.66 47.3291 311.006 47.5769C311.204 47.6265 311.303 47.8496 311.303 48.2462L313.159 60.3667C313.357 61.7547 313.654 63.2667 314.049 64.9026C314.445 66.4889 314.693 67.5299 314.792 68.0256L315.46 70.7769L316.128 74.0487C316.177 74.3957 316.276 74.8915 316.424 75.5359C316.622 76.1803 316.746 76.7504 316.796 77.2462L319.467 90.7051L319.913 92.7128C320.012 93.0598 320.061 93.3821 320.061 93.6795C320.061 93.8778 320.012 94.0017 319.913 94.0513C316.993 94.3487 314.124 94.7205 311.303 95.1667C311.006 95.1667 310.833 94.9684 310.784 94.5718C310.734 94.1752 310.71 93.9274 310.71 93.8282L308.483 84.1615L307.667 79.9974L306.182 71.5949L305.291 67.3564L297.647 91.9692L296.979 94.0513C296.979 94.1009 296.954 94.3487 296.905 94.7949C296.855 95.1915 296.632 95.3897 296.237 95.3897H296.088Z"/>
<path d="M337.664 96.6538C332.814 96.6538 329.029 94.0761 326.308 88.9205C324.675 85.7974 323.859 82.8231 323.859 79.9974C323.859 73.553 324.997 67.8026 327.273 62.7462C328.114 60.9615 329.005 59.4496 329.945 58.2103C330.934 56.9709 332.27 55.5581 333.953 53.9718C334.101 53.8231 334.373 53.6496 334.769 53.4513C335.165 53.253 335.412 53.0547 335.511 52.8564C336.352 50.9727 337.664 49.2624 339.445 47.7256C341.276 46.1393 343.131 45.3462 345.011 45.3462C346.199 45.3462 347.51 45.5692 348.945 46.0154C350.38 46.412 351.468 46.9573 352.211 47.6513C353.349 48.6427 354.338 49.8325 355.179 51.2205C356.07 52.6085 356.763 54.0462 357.258 55.5333C357.406 55.9795 357.505 56.3761 357.554 56.7231C357.604 57.0701 357.653 57.3675 357.703 57.6154C357.802 58.3094 357.901 58.8299 358 59.1769L359.187 58.1359C359.237 58.1359 359.286 58.1111 359.336 58.0615C359.435 57.9624 359.484 57.888 359.484 57.8385C359.534 57.7393 359.855 57.318 360.449 56.5744C361.043 55.8308 361.513 55.459 361.859 55.459L362.008 55.5333C363.789 56.8222 365.669 58.2846 367.648 59.9205C367.846 60.0197 368.044 60.1684 368.242 60.3667C368.44 60.565 368.539 60.7632 368.539 60.9615C368.539 61.259 368.267 61.8291 367.723 62.6718C367.228 63.465 366.832 64.0103 366.535 64.3077L362.601 68.2487C362.008 68.8436 361.216 69.4385 360.226 70.0333C359.286 70.6282 358.346 71.1735 357.406 71.6692C357.307 71.6692 357.258 71.7436 357.258 71.8923C356.367 75.5607 354.957 79.2786 353.027 83.0462C351.691 85.6735 350.429 87.8547 349.242 89.5897C348.104 91.3248 346.669 92.8615 344.937 94.2C343.205 95.4889 341.177 96.3068 338.851 96.6538H337.664ZM347.535 62.2256C347.535 61.1846 347.312 60.0444 346.867 58.8051C346.471 57.5658 345.852 56.9462 345.011 56.9462C344.566 56.9462 344.343 57.3923 344.343 58.2846C344.343 59.4248 345.135 60.565 346.718 61.7051C346.768 61.7547 346.867 61.8538 347.015 62.0026C347.213 62.1513 347.386 62.2256 347.535 62.2256ZM337.515 87.1359C338.653 87.1359 339.692 86.541 340.632 85.3513C341.622 84.112 342.389 82.7735 342.933 81.3359C343.725 79.353 344.269 77.9154 344.566 77.0231C345.259 75.288 345.704 73.8504 345.902 72.7103C344.418 72.3632 343.106 71.8427 341.968 71.1487C340.83 70.4547 339.692 69.5128 338.554 68.3231L337.144 66.6128C336.897 66.365 336.773 66.241 336.773 66.241C335.833 67.9265 335.066 70.0581 334.472 72.6359C333.878 75.1641 333.581 77.4197 333.581 79.4026C333.581 80.9393 333.705 82.3026 333.953 83.4923C334.249 84.6325 334.818 85.5991 335.66 86.3923C336.204 86.888 336.822 87.1359 337.515 87.1359Z"/>
<path d="M375.456 97.1C374.417 97.1 372.858 96.9513 370.78 96.6538C369.048 96.4556 367.811 96.3316 367.069 96.2821C366.723 96.1829 366.55 95.9846 366.55 95.6872V84.6077C366.55 81.5342 366.846 77.7171 367.44 73.1564C368.083 68.5462 368.826 64.9274 369.667 62.3C373.031 51.9393 377.188 46.759 382.136 46.759C383.274 46.759 384.437 46.9821 385.624 47.4282C387.653 48.1718 389.162 49.5103 390.151 51.4436C391.141 53.3274 391.958 55.7068 392.601 58.582C393.59 55.8556 395.099 53.1538 397.128 50.4769C399.157 47.8 401.26 46.0402 403.437 45.1974C404.229 44.9 405.515 44.7513 407.296 44.7513C410.958 44.7513 413.778 46.8581 415.757 51.0718C416.054 51.6667 416.401 52.8564 416.796 54.641C417.588 57.5658 418.108 60.8624 418.355 64.5308C418.553 67.5547 418.652 72.0906 418.652 78.1385V82.3026L418.281 87.7308V96.3564C418.33 96.4556 418.355 96.5795 418.355 96.7282C418.355 96.8769 418.256 97.0009 418.058 97.1H415.164C413.729 97.1 412.64 97.0752 411.898 97.0256L408.632 96.9513L407.89 97.0256C407.791 97.0256 407.667 96.9017 407.519 96.6538C407.321 95.2658 407.222 94.2248 407.222 93.5308L406.777 87.2103L406.703 85.4256L406.48 66.018L406.331 61.4077C406.331 61.259 406.307 60.8376 406.257 60.1436C406.257 59.4 406.158 58.7556 405.96 58.2103C405.762 57.665 405.466 57.2188 405.07 56.8718H404.847C404.501 56.8718 404.13 57.0701 403.734 57.4667C401.952 59.1521 400.542 61.2342 399.503 63.7128C398.514 66.1419 397.623 69.0171 396.831 72.3385L395.273 79.4026C395.223 79.6009 395.149 79.8487 395.05 80.1462C395.001 80.4436 394.976 80.6915 394.976 80.8897C394.53 83.4179 394.209 86.0453 394.011 88.7718C393.862 91.4983 393.764 93.1094 393.714 93.6051C393.714 94.5966 393.665 95.2906 393.566 95.6872C393.566 95.8855 393.417 95.9846 393.12 95.9846C392.23 95.9846 390.943 95.8855 389.261 95.6872C389.162 95.6872 388.519 95.6128 387.331 95.4641C387.034 95.4145 386.688 95.365 386.292 95.3154C385.946 95.2658 385.5 95.241 384.956 95.241L384.288 95.3154C383.991 95.3154 383.843 94.9932 383.843 94.3487L382.729 72.1154V64.2333C382.729 63.4402 382.606 62.3 382.358 60.8128C382.16 59.2761 381.888 58.5077 381.542 58.5077C381.344 58.5077 381.196 58.6316 381.097 58.8795L380.726 59.6231C380.132 60.912 379.711 62.1513 379.464 63.341C379.266 64.4812 378.994 66.2162 378.647 68.5462C377.955 74.247 377.46 79.6009 377.163 84.6077C377.114 85.5991 377.039 86.9872 376.94 88.7718C376.841 90.5068 376.792 91.8701 376.792 92.8615L376.421 96.8769C376.421 97.0256 376.347 97.1 376.198 97.1H375.456Z"/>
<path d="M426.051 97.6949C425.309 97.6949 424.691 97.6701 424.196 97.6205C423.998 97.5709 423.849 97.447 423.75 97.2487C423.701 97.1 423.652 96.9513 423.602 96.8026C423.602 96.6538 423.602 96.5299 423.602 96.4308C423.404 92.7624 423.256 89.0197 423.157 85.2026V73.6026C423.157 62.0026 423.181 53.3026 423.231 47.5026L423.305 45.1974C423.305 45.1479 423.28 44.9991 423.231 44.7513C423.231 44.5034 423.33 44.3795 423.528 44.3795H424.27L425.829 44.3051H428.055H429.762L444.013 44.9C444.755 44.9 445.769 44.9744 447.056 45.1231C448.342 45.2718 449.035 45.4949 449.134 45.7923V46.2385C449.134 46.635 449.084 47.106 448.985 47.6513C448.886 48.147 448.812 48.494 448.763 48.6923C448.614 49.4359 448.54 50.2291 448.54 51.0718L448.391 52.6333C448.391 52.6829 448.342 53.0051 448.243 53.6C448.194 54.1453 447.971 54.4675 447.575 54.5667H446.536C445.002 54.5667 442.701 54.5171 439.634 54.4179C436.566 54.3188 434.265 54.2692 432.731 54.2692H432.508L432.434 61.0359C432.335 64.1094 432.286 66.4145 432.286 67.9513C432.286 68.0009 432.731 68.1 433.622 68.2487C434.562 68.3974 435.205 68.5214 435.551 68.6205C438.322 69.4137 440.598 70.9009 442.38 73.0821C444.161 75.2632 445.052 77.7667 445.052 80.5923C445.052 83.6658 444.161 86.4667 442.38 88.9949C440.598 91.4735 438.248 93.5803 435.329 95.3154C432.657 96.9017 429.564 97.6949 426.051 97.6949ZM432.286 86.9128C433.374 86.6154 434.314 86.1444 435.106 85.5C435.898 84.806 436.294 83.9632 436.294 82.9718C436.294 81.8316 435.898 80.741 435.106 79.7C434.364 78.659 433.424 78.0393 432.286 77.841V86.9128Z"/>
<path d="M455.833 96.5051C455.685 96.5051 455.561 96.4803 455.462 96.4308C455.363 96.3316 455.239 96.2821 455.091 96.2821L453.161 95.9103C452.122 95.6624 450.959 95.4889 449.673 95.3897L447.595 95.0923C447.397 95.0923 447.273 95.0675 447.224 95.0179C447.125 94.9684 447.075 94.8692 447.075 94.7205V94.4974C447.471 93.4564 447.719 92.6633 447.817 92.118L449.302 86.541L450.415 82.3026C451.256 78.7829 452.097 75.6846 452.939 73.0077C453.285 72.0162 453.73 70.7026 454.275 69.0667C454.819 67.3812 455.239 66.0427 455.536 65.0513C455.982 63.6632 456.699 61.1846 457.689 57.6154C459.223 52.2615 460.435 48.3949 461.326 46.0154C461.375 45.8171 461.449 45.6932 461.548 45.6436C461.647 45.5444 461.82 45.4949 462.068 45.4949C462.365 45.4949 462.711 45.5692 463.107 45.7179C463.503 45.8171 463.874 45.8915 464.22 45.941C466.694 46.1393 468.55 46.3128 469.787 46.4615C470.034 46.5111 470.356 46.5359 470.751 46.5359C471.197 46.5359 471.543 46.5607 471.79 46.6103C471.84 46.6103 471.889 46.635 471.939 46.6846C472.038 46.7342 472.087 46.8085 472.087 46.9077L472.013 47.2051V47.3538V47.5026L475.205 65.3487C475.452 66.8359 475.848 69.4632 476.392 73.2308C476.689 75.6103 476.936 77.3949 477.134 78.5846L477.951 83.3436L479.361 92.118C479.509 93.4564 479.584 94.1752 479.584 94.2744C479.584 94.7205 479.311 95.0427 478.767 95.241C478.421 95.241 477.753 95.241 476.763 95.241C475.774 95.241 474.858 95.2906 474.017 95.3897C473.225 95.4393 472.508 95.5632 471.865 95.7615C471.172 95.9598 470.702 96.059 470.455 96.059C470.059 96.059 469.811 95.8359 469.712 95.3897L468.747 89.8128L468.451 88.6974L468.302 88.6231L467.56 88.5487L459.396 87.9538H459.173C458.975 87.9043 458.876 87.9291 458.876 88.0282L458.208 90.6308C458.06 91.1265 457.862 91.8205 457.615 92.7128C457.367 93.5556 457.169 94.2248 457.021 94.7205C456.773 95.6128 456.625 96.1085 456.575 96.2077C456.328 96.406 456.081 96.5051 455.833 96.5051ZM466.595 77.4692C466.595 77.0727 466.521 76.6513 466.372 76.2051C466.273 75.7094 466.199 75.3376 466.15 75.0897C465.902 74.0487 465.581 72.4872 465.185 70.4051C465.135 70.0085 465.012 69.2897 464.814 68.2487L464.74 67.9513C464.591 68.2487 464.443 68.6453 464.294 69.141C464.146 69.5872 464.047 69.9094 463.997 70.1077C463.75 70.9009 463.428 72.0906 463.033 73.6769L461.993 77.3205C462.488 77.4197 463.255 77.4692 464.294 77.4692H466.595Z"/>
<path d="M484.781 100C484.632 100 484.533 99.9504 484.484 99.8513V99.0333C484.484 98.1906 484.459 97.5709 484.41 97.1744V82.9718C484.261 80.4932 484.187 78.0393 484.187 75.6103L484.261 66.7615L484.187 61.259V54.0462L484.113 47.9487C484.113 46.2137 484.187 44.5282 484.335 42.8923C484.385 42.694 484.484 42.5949 484.632 42.5949C484.781 42.5453 484.904 42.5205 485.003 42.5205C485.152 42.5205 485.375 42.4709 485.671 42.3718C485.968 42.2727 486.216 42.1983 486.414 42.1487C487.156 42.0496 488.294 42 489.828 42C492.945 42 496.062 42.694 499.179 44.0821C502.346 45.4205 505.043 47.3291 507.269 49.8077C509.496 52.2368 510.881 55.0128 511.426 58.1359C511.475 58.4333 511.574 58.9538 511.723 59.6974C511.871 60.3915 511.945 61.0607 511.945 61.7051C511.945 62.3 511.846 63.2915 511.648 64.6795C511.45 66.9598 511.055 68.9923 510.461 70.7769C509.867 72.512 508.927 74.1479 507.64 75.6846C507.344 76.0316 506.799 76.7009 506.008 77.6923C505.216 78.6342 504.4 79.4026 503.558 79.9974C501.48 81.4846 498.759 82.8231 495.394 84.0128C495.246 84.0128 495.172 84.1615 495.172 84.459V98.959C495.172 99.4547 495.023 99.7273 494.726 99.7769C493.44 99.7273 491.609 99.7521 489.234 99.8513C487.255 99.9504 485.77 100 484.781 100ZM495.468 72.7846L496.359 72.3385C496.953 71.9915 497.522 71.5453 498.066 71C498.61 70.4547 498.957 70.1077 499.105 69.959C500.689 68.2735 501.48 66.2658 501.48 63.9359C501.48 62.9444 501.258 61.6556 500.812 60.0692C500.268 58.1855 499.575 56.6735 498.734 55.5333C497.942 54.3932 496.78 53.5504 495.246 53.0051V53.5256L495.32 59.7718C495.419 62.5479 495.468 64.6547 495.468 66.0923L495.394 72.7846H495.468Z"/>
<path d="M512.898 99.3308C512.799 99.3308 512.725 99.2812 512.675 99.182C512.626 99.1325 512.601 99.0581 512.601 98.959L512.527 97.9923V93.9769L512.453 91.5231V90.9282V90.259C512.601 90.1103 512.7 90.0359 512.749 90.0359L515.496 89.8128L515.792 89.7385C515.792 87.8051 515.941 85.0043 516.238 81.3359C516.535 77.2709 516.856 73.6769 517.203 70.5539C517.599 67.4308 518.093 64.382 518.687 61.4077C519.083 59.6231 519.875 56.9957 521.062 53.5256C522.25 50.1051 523.685 47.4282 525.367 45.4949C527.099 43.5615 529.523 42.5949 532.64 42.5949C535.411 42.5949 537.539 43.8342 539.023 46.3128C540.557 48.7915 541.448 51.5923 541.695 54.7154L542.363 62.7462C542.413 62.8949 542.437 63.3906 542.437 64.2333L542.66 89.5154H543.031L544.738 89.441C545.035 89.441 545.233 89.5154 545.332 89.6641C545.431 89.8128 545.48 90.0607 545.48 90.4077C545.579 91.2009 545.629 92.1923 545.629 93.3821C545.678 93.8778 545.728 94.547 545.777 95.3897C545.876 96.1829 545.926 96.8273 545.926 97.3231C545.975 97.3726 546 97.8188 546 98.6615C546 98.7607 545.975 98.835 545.926 98.8846C545.876 98.9838 545.802 99.0333 545.703 99.0333C544.664 99.0333 543.105 98.9838 541.027 98.8846L538.652 98.8103H533.16C524.798 98.8103 518.539 98.9838 514.382 99.3308H512.898ZM531.676 89.7385L532.64 89.6641V81.4846L533.308 68.3231C533.358 67.6291 533.383 66.588 533.383 65.2C533.383 62.9197 533.259 60.3171 533.012 57.3923C532.814 54.4675 532.344 53.0051 531.601 53.0051C531.403 53.1538 531.23 53.3769 531.082 53.6744C530.933 53.9718 530.834 54.1701 530.785 54.2692C530.34 55.2607 529.969 56.3017 529.672 57.3923C529.424 58.4333 529.152 59.8214 528.855 61.5564L528.633 63.0436C527.89 67.059 527.198 72.2145 526.554 78.5103C526.554 78.9068 526.505 79.5017 526.406 80.2949L526.109 82.9718C525.763 85.4009 525.59 87.5077 525.59 89.2923L525.664 89.6641C526.554 89.7137 527.841 89.7385 529.523 89.7385H531.676Z"/>
</mask>
<path d="M62.4729 96.9513C60.1968 96.9513 58.0444 96.3316 56.0158 95.0923C54.0366 93.853 52.5274 92.2171 51.4883 90.1846C50.3008 87.8547 49.5339 85.9214 49.1875 84.3846C48.7422 82.4017 48.4206 80.865 48.2227 79.7744C48.0742 78.6838 48 77.5188 48 76.2795C48 72.7103 48.2969 69.1906 48.8906 65.7205C49.5339 62.2504 50.5235 59.1273 51.8594 56.3513C53.6902 52.6333 55.6694 49.8821 57.797 48.0974C59.9741 46.2632 62.9182 45.3462 66.6292 45.3462C68.262 45.3462 69.7217 45.6188 71.0082 46.1641C72.3441 46.6598 73.7543 47.453 75.2387 48.5436C76.6736 49.5846 77.6632 50.7744 78.2075 52.1128C78.8013 53.4017 79.0981 55.0128 79.0981 56.9462C79.0981 57.6402 79.0734 58.1855 79.0239 58.582C79.0239 58.7308 78.9992 59.0778 78.9497 59.6231C78.9497 60.1188 78.826 60.5402 78.5786 60.8872C78.3807 61.1846 78.0591 61.3333 77.6137 61.3333H69.3011C69.2022 61.3333 69.0785 61.2838 68.93 61.1846C68.8311 61.0855 68.7816 60.9615 68.7816 60.8128L68.93 60.5154V59.8462C68.93 58.706 68.6331 57.8137 68.0394 57.1692C67.4456 56.5248 66.6045 56.2026 65.5159 56.2026C64.6253 56.2026 63.9078 56.4009 63.3635 56.7974C61.6317 58.1855 60.37 60.912 59.5783 64.9769C58.8361 69.0419 58.465 72.7846 58.465 76.2051C58.465 78.535 58.6877 80.7658 59.133 82.8974C59.5783 84.9795 60.4689 86.0205 61.8049 86.0205C62.5966 86.0205 63.3635 85.5248 64.1057 84.5333C64.8974 83.4923 65.5159 82.4513 65.9612 81.4103L66.6292 79.2538C67.2724 76.9239 67.7178 75.759 67.9652 75.759C69.2516 75.8085 71.1319 75.9325 73.6059 76.1308C76.0799 76.2795 77.4653 76.4282 77.7622 76.5769C77.8611 76.6265 77.9106 76.7256 77.9106 76.8744L77.7622 77.4692C77.7127 77.6675 77.6385 77.9402 77.5395 78.2872C77.49 78.5846 77.4653 78.8325 77.4653 79.0308C76.7726 82.2034 75.5603 85.3761 73.8285 88.5487C72.0967 91.7214 70.0928 94.0017 67.8167 95.3897C65.986 96.4308 64.2047 96.9513 62.4729 96.9513Z" fill="white"/>
<path d="M80.8423 99.3308C80.7434 99.3308 80.6691 99.2812 80.6197 99.182C80.5702 99.1325 80.5454 99.0581 80.5454 98.959L80.4712 97.9923V93.9769L80.397 91.5231V90.9282V90.259C80.5454 90.1103 80.6444 90.0359 80.6939 90.0359L83.44 89.8128L83.7369 89.7385C83.7369 87.8051 83.8853 85.0043 84.1822 81.3359C84.4791 77.2709 84.8007 73.6769 85.1471 70.5539C85.5429 67.4308 86.0377 64.382 86.6315 61.4077C87.0273 59.6231 87.819 56.9957 89.0065 53.5256C90.194 50.1051 91.6289 47.4282 93.3113 45.4949C95.0431 43.5615 97.4676 42.5949 100.585 42.5949C103.356 42.5949 105.483 43.8342 106.968 46.3128C108.502 48.7915 109.392 51.5923 109.64 54.7154L110.308 62.7462C110.357 62.8949 110.382 63.3906 110.382 64.2333L110.604 89.5154H110.976L112.683 89.441C112.98 89.441 113.177 89.5154 113.276 89.6641C113.375 89.8128 113.425 90.0607 113.425 90.4077C113.524 91.2009 113.573 92.1923 113.573 93.3821C113.623 93.8778 113.672 94.547 113.722 95.3897C113.821 96.1829 113.87 96.8273 113.87 97.3231C113.92 97.3726 113.944 97.8188 113.944 98.6615C113.944 98.7607 113.92 98.835 113.87 98.8846C113.821 98.9838 113.746 99.0333 113.648 99.0333C112.608 99.0333 111.05 98.9838 108.972 98.8846L106.597 98.8103H101.104C92.7422 98.8103 86.483 98.9838 82.3267 99.3308H80.8423ZM99.62 89.7385L100.585 89.6641V81.4846L101.253 68.3231C101.302 67.6291 101.327 66.588 101.327 65.2C101.327 62.9197 101.203 60.3171 100.956 57.3923C100.758 54.4675 100.288 53.0051 99.5457 53.0051C99.3478 53.1538 99.1746 53.3769 99.0262 53.6744C98.8778 53.9718 98.7788 54.1701 98.7293 54.2692C98.284 55.2607 97.9129 56.3017 97.616 57.3923C97.3686 58.4333 97.0965 59.8214 96.7996 61.5564L96.5769 63.0436C95.8347 67.059 95.142 72.2145 94.4988 78.5103C94.4988 78.9068 94.4493 79.5017 94.3503 80.2949L94.0535 82.9718C93.7071 85.4009 93.5339 87.5077 93.5339 89.2923L93.6081 89.6641C94.4988 89.7137 95.7853 89.7385 97.4676 89.7385H99.62Z" fill="white"/>
<path d="M127.207 96.5051C127.059 96.5051 126.935 96.4803 126.836 96.4308C126.737 96.3316 126.613 96.2821 126.465 96.2821L124.535 95.9103C123.496 95.6624 122.333 95.4889 121.047 95.3897L118.969 95.0923C118.771 95.0923 118.647 95.0675 118.598 95.0179C118.499 94.9684 118.449 94.8692 118.449 94.7205V94.4974C118.845 93.4564 119.092 92.6633 119.191 92.118L120.676 86.541L121.789 82.3026C122.63 78.7829 123.471 75.6846 124.313 73.0077C124.659 72.0162 125.104 70.7026 125.649 69.0667C126.193 67.3812 126.613 66.0427 126.91 65.0513C127.356 63.6632 128.073 61.1846 129.063 57.6154C130.597 52.2615 131.809 48.3949 132.699 46.0154C132.749 45.8171 132.823 45.6932 132.922 45.6436C133.021 45.5444 133.194 45.4949 133.442 45.4949C133.738 45.4949 134.085 45.5692 134.481 45.7179C134.877 45.8171 135.248 45.8915 135.594 45.941C138.068 46.1393 139.923 46.3128 141.16 46.4615C141.408 46.5111 141.73 46.5359 142.125 46.5359C142.571 46.5359 142.917 46.5607 143.164 46.6103C143.214 46.6103 143.263 46.635 143.313 46.6846C143.412 46.7342 143.461 46.8085 143.461 46.9077L143.387 47.2051V47.3538V47.5026L146.579 65.3487C146.826 66.8359 147.222 69.4632 147.766 73.2308C148.063 75.6103 148.31 77.3949 148.508 78.5846L149.325 83.3436L150.735 92.118C150.883 93.4564 150.958 94.1752 150.958 94.2744C150.958 94.7205 150.685 95.0427 150.141 95.241C149.795 95.241 149.127 95.241 148.137 95.241C147.148 95.241 146.232 95.2906 145.391 95.3897C144.599 95.4393 143.882 95.5632 143.239 95.7615C142.546 95.9598 142.076 96.059 141.828 96.059C141.433 96.059 141.185 95.8359 141.086 95.3897L140.121 89.8128L139.825 88.6974L139.676 88.6231L138.934 88.5487L130.77 87.9538H130.547C130.349 87.9043 130.25 87.9291 130.25 88.0282L129.582 90.6308C129.434 91.1265 129.236 91.8205 128.988 92.7128C128.741 93.5556 128.543 94.2248 128.395 94.7205C128.147 95.6128 127.999 96.1085 127.949 96.2077C127.702 96.406 127.455 96.5051 127.207 96.5051ZM137.969 77.4692C137.969 77.0727 137.895 76.6513 137.746 76.2051C137.647 75.7094 137.573 75.3376 137.524 75.0897C137.276 74.0487 136.955 72.4872 136.559 70.4051C136.509 70.0085 136.386 69.2897 136.188 68.2487L136.114 67.9513C135.965 68.2487 135.817 68.6453 135.668 69.141C135.52 69.5872 135.421 69.9094 135.371 70.1077C135.124 70.9009 134.802 72.0906 134.406 73.6769L133.367 77.3205C133.862 77.4197 134.629 77.4692 135.668 77.4692H137.969Z" fill="white"/>
<path d="M168.683 94.3487C167.495 94.2 165.788 93.9274 163.562 93.5308C161.384 93.0846 160.172 92.7624 159.925 92.5641L159.628 91.9692V91.1513C159.628 90.259 159.653 89.5154 159.702 88.9205L161.558 70.2564L162.003 63.2667L161.409 63.1923L154.061 62.8949H153.839L153.468 62.9692C153.22 62.9692 153.097 62.7214 153.097 62.2256V61.8538L153.245 60.441C153.294 60.0444 153.319 59.4744 153.319 58.7308C153.369 58.1855 153.418 57.3923 153.468 56.3513C153.567 55.3103 153.666 54.4179 153.765 53.6744C153.765 53.6248 153.789 53.5752 153.839 53.5256C153.888 53.4761 153.938 53.4513 153.987 53.4513H162.745L162.819 53.3769L162.894 52.3359C162.943 51.9393 162.993 51.4188 163.042 50.7744C163.141 50.1299 163.19 49.6094 163.19 49.2128C163.19 49.1632 163.215 48.841 163.265 48.2462C163.364 47.6513 163.611 47.3538 164.007 47.3538C164.304 47.3538 164.601 47.3786 164.898 47.4282C165.244 47.4778 165.541 47.5026 165.788 47.5026L167.347 47.5769C169.623 47.6761 171.305 47.7009 172.394 47.6513C172.592 47.7504 172.74 47.9983 172.839 48.3949V49.1385C172.839 50.1299 172.814 50.8487 172.765 51.2949L172.691 53.5256V53.9718C173.383 53.9718 173.779 53.9966 173.878 54.0462C174.719 54.0462 175.758 54.0709 176.995 54.1205C178.232 54.1701 179.247 54.2197 180.038 54.2692C180.632 54.2692 180.979 54.3932 181.077 54.641V55.3846C181.077 56.0291 181.053 56.5496 181.003 56.9462V63.7128C181.003 63.7624 180.88 63.8615 180.632 64.0103H178.777L172.32 63.9359H172.097L172.023 64.0103C171.924 66.0923 171.652 69.3393 171.206 73.7513L171.058 75.4615L170.612 79.2538L169.351 93.7538C169.351 93.8034 169.326 93.9274 169.277 94.1256C169.227 94.2744 169.103 94.3487 168.905 94.3487H168.683Z" fill="white"/>
<path d="M189.203 96.8769C186.976 96.8769 185.813 96.6043 185.714 96.059L185.64 93.3077L185.566 92.0436V81.1128L186.308 56.2769C186.655 52.1128 186.828 48.4692 186.828 45.3462L187.125 45.1974H188.09C190.217 45.1974 192.939 45.4205 196.254 45.8667C196.452 45.9162 196.6 46.0897 196.699 46.3872V46.8333V47.3538C196.501 52.3111 196.402 56.0043 196.402 58.4333V58.9538C198.183 59.2513 199.816 59.9205 201.301 60.9615C202.835 62.0026 204.368 63.341 205.902 64.9769C206.991 66.1171 207.783 67.5795 208.277 69.3641C208.822 71.1487 209.094 72.9333 209.094 74.7179C209.094 77.2462 208.822 79.5017 208.277 81.4846C207.634 83.6658 206.422 86.0205 204.641 88.5487C202.909 91.0769 201.152 92.9359 199.371 94.1256C197.936 95.018 196.328 95.712 194.547 96.2077C192.765 96.6538 190.984 96.8769 189.203 96.8769ZM194.992 85.1282C195.239 85.0291 195.487 84.8308 195.734 84.5333C195.982 84.2359 196.155 84.0376 196.254 83.9385C197.194 82.7487 197.936 81.3111 198.48 79.6256C199.074 77.8906 199.371 76.2795 199.371 74.7923C199.371 72.4128 198.505 70.5786 196.773 69.2897L196.179 68.7692H196.105C196.056 70.4051 195.883 72.859 195.586 76.1308C195.19 79.8983 194.992 82.7487 194.992 84.6821V85.1282Z" fill="white"/>
<path d="M233.341 96.9513C233.094 96.9513 232.97 96.753 232.97 96.3564C232.97 96.1581 232.995 95.935 233.044 95.6872C233.094 95.3897 233.143 95.1667 233.193 95.0179L234.677 68.3974C235.073 65.2744 235.469 60.5402 235.865 54.1949C235.963 51.8154 236.062 50.0308 236.161 48.841L236.31 47.2051C236.409 46.3624 237.102 45.8419 238.388 45.6436C238.685 45.6436 239.056 45.6188 239.501 45.5692C239.947 45.4701 240.318 45.3957 240.615 45.3462C241.01 45.2966 241.357 45.247 241.654 45.1974C241.951 45.1479 242.272 45.0983 242.619 45.0487H244.474C246.948 45.0487 248.977 45.2718 250.56 45.7179C252.193 46.1641 254.024 47.0068 256.052 48.2462C257.487 49.1385 258.576 50.0803 259.318 51.0718C260.06 52.0137 260.877 53.3769 261.767 55.1615C262.905 57.4915 263.474 60.0692 263.474 62.8949C263.474 64.9274 263.004 66.9846 262.064 69.0667C261.124 71.1487 259.887 72.7598 258.353 73.9C258.007 74.1479 257.24 74.5692 256.052 75.1641V75.3128C256.597 76.1556 256.968 76.9487 257.166 77.6923C257.364 78.3863 257.463 79.2538 257.463 80.2949C257.463 81.9803 257.091 83.765 256.349 85.6487C255.657 87.4829 254.741 88.9949 253.603 90.1846C252.762 91.0769 252.02 91.8205 251.376 92.4154C250.783 92.9607 250.115 93.4316 249.373 93.8282C246.899 95.1171 244.177 95.9103 241.208 96.2077C240.813 96.2573 240.293 96.3564 239.65 96.5051C239.056 96.6043 238.561 96.6786 238.165 96.7282H236.087C235.642 96.7282 235.197 96.753 234.751 96.8026C234.306 96.9017 233.836 96.9513 233.341 96.9513ZM244.326 67.7282C245.464 67.7282 246.824 67.5051 248.408 67.059C249.1 66.8607 249.694 66.5632 250.189 66.1667C250.733 65.7701 251.327 65.2248 251.97 64.5308C252.762 63.688 253.158 62.3496 253.158 60.5154C253.158 60.0692 253.133 59.747 253.084 59.5487C252.688 58.5077 251.748 57.665 250.263 57.0205C248.828 56.3761 247.468 56.0538 246.181 56.0538H245.513C245.414 58.3838 245.241 60.5154 244.994 62.4487L244.4 66.9846L244.326 67.7282ZM243.138 84.1615C243.93 84.1615 244.697 83.9137 245.439 83.4179C246.231 82.8727 246.626 81.9556 246.626 80.6667C246.626 80.0222 246.404 79.5761 245.958 79.3282C245.563 79.0803 245.117 78.9068 244.622 78.8077C244.177 78.659 243.856 78.5598 243.658 78.5103C243.608 78.6094 243.583 78.8077 243.583 79.1051C243.534 79.3034 243.509 79.5761 243.509 79.9231C243.509 80.2205 243.484 80.5427 243.435 80.8897L243.287 82.6744C243.287 82.8231 243.262 83.0462 243.212 83.3436C243.212 83.5915 243.188 83.7897 243.138 83.9385V84.1615Z" fill="white"/>
<path d="M296.088 95.3897L291.19 94.2744C291.14 94.2248 291.041 94.2 290.893 94.2C290.794 94.1504 290.72 94.1009 290.67 94.0513C290.373 94.0017 290.027 93.9274 289.631 93.8282C289.285 93.6795 289.013 93.5556 288.815 93.4564C288.468 93.4068 288.122 93.3077 287.776 93.159C287.429 93.0103 287.256 92.812 287.256 92.5641V92.4154L287.553 91.5231L288.815 87.2846L290.447 81.9308C290.992 80.2453 291.338 79.1547 291.487 78.659L300.838 49.8077L301.655 47.5026C301.853 46.9573 302.149 46.6846 302.545 46.6846C303.436 46.6846 304.97 46.7838 307.147 46.9821C309.374 47.1308 310.66 47.3291 311.006 47.5769C311.204 47.6265 311.303 47.8496 311.303 48.2462L313.159 60.3667C313.357 61.7547 313.654 63.2667 314.049 64.9026C314.445 66.4889 314.693 67.5299 314.792 68.0256L315.46 70.7769L316.128 74.0487C316.177 74.3957 316.276 74.8915 316.424 75.5359C316.622 76.1803 316.746 76.7504 316.796 77.2462L319.467 90.7051L319.913 92.7128C320.012 93.0598 320.061 93.3821 320.061 93.6795C320.061 93.8778 320.012 94.0017 319.913 94.0513C316.993 94.3487 314.124 94.7205 311.303 95.1667C311.006 95.1667 310.833 94.9684 310.784 94.5718C310.734 94.1752 310.71 93.9274 310.71 93.8282L308.483 84.1615L307.667 79.9974L306.182 71.5949L305.291 67.3564L297.647 91.9692L296.979 94.0513C296.979 94.1009 296.954 94.3487 296.905 94.7949C296.855 95.1915 296.632 95.3897 296.237 95.3897H296.088Z" fill="white"/>
<path d="M337.664 96.6538C332.814 96.6538 329.029 94.0761 326.308 88.9205C324.675 85.7974 323.859 82.8231 323.859 79.9974C323.859 73.553 324.997 67.8026 327.273 62.7462C328.114 60.9615 329.005 59.4496 329.945 58.2103C330.934 56.9709 332.27 55.5581 333.953 53.9718C334.101 53.8231 334.373 53.6496 334.769 53.4513C335.165 53.253 335.412 53.0547 335.511 52.8564C336.352 50.9727 337.664 49.2624 339.445 47.7256C341.276 46.1393 343.131 45.3462 345.011 45.3462C346.199 45.3462 347.51 45.5692 348.945 46.0154C350.38 46.412 351.468 46.9573 352.211 47.6513C353.349 48.6427 354.338 49.8325 355.179 51.2205C356.07 52.6085 356.763 54.0462 357.258 55.5333C357.406 55.9795 357.505 56.3761 357.554 56.7231C357.604 57.0701 357.653 57.3675 357.703 57.6154C357.802 58.3094 357.901 58.8299 358 59.1769L359.187 58.1359C359.237 58.1359 359.286 58.1111 359.336 58.0615C359.435 57.9624 359.484 57.888 359.484 57.8385C359.534 57.7393 359.855 57.318 360.449 56.5744C361.043 55.8308 361.513 55.459 361.859 55.459L362.008 55.5333C363.789 56.8222 365.669 58.2846 367.648 59.9205C367.846 60.0197 368.044 60.1684 368.242 60.3667C368.44 60.565 368.539 60.7632 368.539 60.9615C368.539 61.259 368.267 61.8291 367.723 62.6718C367.228 63.465 366.832 64.0103 366.535 64.3077L362.601 68.2487C362.008 68.8436 361.216 69.4385 360.226 70.0333C359.286 70.6282 358.346 71.1735 357.406 71.6692C357.307 71.6692 357.258 71.7436 357.258 71.8923C356.367 75.5607 354.957 79.2786 353.027 83.0462C351.691 85.6735 350.429 87.8547 349.242 89.5897C348.104 91.3248 346.669 92.8615 344.937 94.2C343.205 95.4889 341.177 96.3068 338.851 96.6538H337.664ZM347.535 62.2256C347.535 61.1846 347.312 60.0444 346.867 58.8051C346.471 57.5658 345.852 56.9462 345.011 56.9462C344.566 56.9462 344.343 57.3923 344.343 58.2846C344.343 59.4248 345.135 60.565 346.718 61.7051C346.768 61.7547 346.867 61.8538 347.015 62.0026C347.213 62.1513 347.386 62.2256 347.535 62.2256ZM337.515 87.1359C338.653 87.1359 339.692 86.541 340.632 85.3513C341.622 84.112 342.389 82.7735 342.933 81.3359C343.725 79.353 344.269 77.9154 344.566 77.0231C345.259 75.288 345.704 73.8504 345.902 72.7103C344.418 72.3632 343.106 71.8427 341.968 71.1487C340.83 70.4547 339.692 69.5128 338.554 68.3231L337.144 66.6128C336.897 66.365 336.773 66.241 336.773 66.241C335.833 67.9265 335.066 70.0581 334.472 72.6359C333.878 75.1641 333.581 77.4197 333.581 79.4026C333.581 80.9393 333.705 82.3026 333.953 83.4923C334.249 84.6325 334.818 85.5991 335.66 86.3923C336.204 86.888 336.822 87.1359 337.515 87.1359Z" fill="white"/>
<path d="M375.456 97.1C374.417 97.1 372.858 96.9513 370.78 96.6538C369.048 96.4556 367.811 96.3316 367.069 96.2821C366.723 96.1829 366.55 95.9846 366.55 95.6872V84.6077C366.55 81.5342 366.846 77.7171 367.44 73.1564C368.083 68.5462 368.826 64.9274 369.667 62.3C373.031 51.9393 377.188 46.759 382.136 46.759C383.274 46.759 384.437 46.9821 385.624 47.4282C387.653 48.1718 389.162 49.5103 390.151 51.4436C391.141 53.3274 391.958 55.7068 392.601 58.582C393.59 55.8556 395.099 53.1538 397.128 50.4769C399.157 47.8 401.26 46.0402 403.437 45.1974C404.229 44.9 405.515 44.7513 407.296 44.7513C410.958 44.7513 413.778 46.8581 415.757 51.0718C416.054 51.6667 416.401 52.8564 416.796 54.641C417.588 57.5658 418.108 60.8624 418.355 64.5308C418.553 67.5547 418.652 72.0906 418.652 78.1385V82.3026L418.281 87.7308V96.3564C418.33 96.4556 418.355 96.5795 418.355 96.7282C418.355 96.8769 418.256 97.0009 418.058 97.1H415.164C413.729 97.1 412.64 97.0752 411.898 97.0256L408.632 96.9513L407.89 97.0256C407.791 97.0256 407.667 96.9017 407.519 96.6538C407.321 95.2658 407.222 94.2248 407.222 93.5308L406.777 87.2103L406.703 85.4256L406.48 66.018L406.331 61.4077C406.331 61.259 406.307 60.8376 406.257 60.1436C406.257 59.4 406.158 58.7556 405.96 58.2103C405.762 57.665 405.466 57.2188 405.07 56.8718H404.847C404.501 56.8718 404.13 57.0701 403.734 57.4667C401.952 59.1521 400.542 61.2342 399.503 63.7128C398.514 66.1419 397.623 69.0171 396.831 72.3385L395.273 79.4026C395.223 79.6009 395.149 79.8487 395.05 80.1462C395.001 80.4436 394.976 80.6915 394.976 80.8897C394.53 83.4179 394.209 86.0453 394.011 88.7718C393.862 91.4983 393.764 93.1094 393.714 93.6051C393.714 94.5966 393.665 95.2906 393.566 95.6872C393.566 95.8855 393.417 95.9846 393.12 95.9846C392.23 95.9846 390.943 95.8855 389.261 95.6872C389.162 95.6872 388.519 95.6128 387.331 95.4641C387.034 95.4145 386.688 95.365 386.292 95.3154C385.946 95.2658 385.5 95.241 384.956 95.241L384.288 95.3154C383.991 95.3154 383.843 94.9932 383.843 94.3487L382.729 72.1154V64.2333C382.729 63.4402 382.606 62.3 382.358 60.8128C382.16 59.2761 381.888 58.5077 381.542 58.5077C381.344 58.5077 381.196 58.6316 381.097 58.8795L380.726 59.6231C380.132 60.912 379.711 62.1513 379.464 63.341C379.266 64.4812 378.994 66.2162 378.647 68.5462C377.955 74.247 377.46 79.6009 377.163 84.6077C377.114 85.5991 377.039 86.9872 376.94 88.7718C376.841 90.5068 376.792 91.8701 376.792 92.8615L376.421 96.8769C376.421 97.0256 376.347 97.1 376.198 97.1H375.456Z" fill="white"/>
<path d="M426.051 97.6949C425.309 97.6949 424.691 97.6701 424.196 97.6205C423.998 97.5709 423.849 97.447 423.75 97.2487C423.701 97.1 423.652 96.9513 423.602 96.8026C423.602 96.6538 423.602 96.5299 423.602 96.4308C423.404 92.7624 423.256 89.0197 423.157 85.2026V73.6026C423.157 62.0026 423.181 53.3026 423.231 47.5026L423.305 45.1974C423.305 45.1479 423.28 44.9991 423.231 44.7513C423.231 44.5034 423.33 44.3795 423.528 44.3795H424.27L425.829 44.3051H428.055H429.762L444.013 44.9C444.755 44.9 445.769 44.9744 447.056 45.1231C448.342 45.2718 449.035 45.4949 449.134 45.7923V46.2385C449.134 46.635 449.084 47.106 448.985 47.6513C448.886 48.147 448.812 48.494 448.763 48.6923C448.614 49.4359 448.54 50.2291 448.54 51.0718L448.391 52.6333C448.391 52.6829 448.342 53.0051 448.243 53.6C448.194 54.1453 447.971 54.4675 447.575 54.5667H446.536C445.002 54.5667 442.701 54.5171 439.634 54.4179C436.566 54.3188 434.265 54.2692 432.731 54.2692H432.508L432.434 61.0359C432.335 64.1094 432.286 66.4145 432.286 67.9513C432.286 68.0009 432.731 68.1 433.622 68.2487C434.562 68.3974 435.205 68.5214 435.551 68.6205C438.322 69.4137 440.598 70.9009 442.38 73.0821C444.161 75.2632 445.052 77.7667 445.052 80.5923C445.052 83.6658 444.161 86.4667 442.38 88.9949C440.598 91.4735 438.248 93.5803 435.329 95.3154C432.657 96.9017 429.564 97.6949 426.051 97.6949ZM432.286 86.9128C433.374 86.6154 434.314 86.1444 435.106 85.5C435.898 84.806 436.294 83.9632 436.294 82.9718C436.294 81.8316 435.898 80.741 435.106 79.7C434.364 78.659 433.424 78.0393 432.286 77.841V86.9128Z" fill="white"/>
<path d="M455.833 96.5051C455.685 96.5051 455.561 96.4803 455.462 96.4308C455.363 96.3316 455.239 96.2821 455.091 96.2821L453.161 95.9103C452.122 95.6624 450.959 95.4889 449.673 95.3897L447.595 95.0923C447.397 95.0923 447.273 95.0675 447.224 95.0179C447.125 94.9684 447.075 94.8692 447.075 94.7205V94.4974C447.471 93.4564 447.719 92.6633 447.817 92.118L449.302 86.541L450.415 82.3026C451.256 78.7829 452.097 75.6846 452.939 73.0077C453.285 72.0162 453.73 70.7026 454.275 69.0667C454.819 67.3812 455.239 66.0427 455.536 65.0513C455.982 63.6632 456.699 61.1846 457.689 57.6154C459.223 52.2615 460.435 48.3949 461.326 46.0154C461.375 45.8171 461.449 45.6932 461.548 45.6436C461.647 45.5444 461.82 45.4949 462.068 45.4949C462.365 45.4949 462.711 45.5692 463.107 45.7179C463.503 45.8171 463.874 45.8915 464.22 45.941C466.694 46.1393 468.55 46.3128 469.787 46.4615C470.034 46.5111 470.356 46.5359 470.751 46.5359C471.197 46.5359 471.543 46.5607 471.79 46.6103C471.84 46.6103 471.889 46.635 471.939 46.6846C472.038 46.7342 472.087 46.8085 472.087 46.9077L472.013 47.2051V47.3538V47.5026L475.205 65.3487C475.452 66.8359 475.848 69.4632 476.392 73.2308C476.689 75.6103 476.936 77.3949 477.134 78.5846L477.951 83.3436L479.361 92.118C479.509 93.4564 479.584 94.1752 479.584 94.2744C479.584 94.7205 479.311 95.0427 478.767 95.241C478.421 95.241 477.753 95.241 476.763 95.241C475.774 95.241 474.858 95.2906 474.017 95.3897C473.225 95.4393 472.508 95.5632 471.865 95.7615C471.172 95.9598 470.702 96.059 470.455 96.059C470.059 96.059 469.811 95.8359 469.712 95.3897L468.747 89.8128L468.451 88.6974L468.302 88.6231L467.56 88.5487L459.396 87.9538H459.173C458.975 87.9043 458.876 87.9291 458.876 88.0282L458.208 90.6308C458.06 91.1265 457.862 91.8205 457.615 92.7128C457.367 93.5556 457.169 94.2248 457.021 94.7205C456.773 95.6128 456.625 96.1085 456.575 96.2077C456.328 96.406 456.081 96.5051 455.833 96.5051ZM466.595 77.4692C466.595 77.0727 466.521 76.6513 466.372 76.2051C466.273 75.7094 466.199 75.3376 466.15 75.0897C465.902 74.0487 465.581 72.4872 465.185 70.4051C465.135 70.0085 465.012 69.2897 464.814 68.2487L464.74 67.9513C464.591 68.2487 464.443 68.6453 464.294 69.141C464.146 69.5872 464.047 69.9094 463.997 70.1077C463.75 70.9009 463.428 72.0906 463.033 73.6769L461.993 77.3205C462.488 77.4197 463.255 77.4692 464.294 77.4692H466.595Z" fill="white"/>
<path d="M484.781 100C484.632 100 484.533 99.9504 484.484 99.8513V99.0333C484.484 98.1906 484.459 97.5709 484.41 97.1744V82.9718C484.261 80.4932 484.187 78.0393 484.187 75.6103L484.261 66.7615L484.187 61.259V54.0462L484.113 47.9487C484.113 46.2137 484.187 44.5282 484.335 42.8923C484.385 42.694 484.484 42.5949 484.632 42.5949C484.781 42.5453 484.904 42.5205 485.003 42.5205C485.152 42.5205 485.375 42.4709 485.671 42.3718C485.968 42.2727 486.216 42.1983 486.414 42.1487C487.156 42.0496 488.294 42 489.828 42C492.945 42 496.062 42.694 499.179 44.0821C502.346 45.4205 505.043 47.3291 507.269 49.8077C509.496 52.2368 510.881 55.0128 511.426 58.1359C511.475 58.4333 511.574 58.9538 511.723 59.6974C511.871 60.3915 511.945 61.0607 511.945 61.7051C511.945 62.3 511.846 63.2915 511.648 64.6795C511.45 66.9598 511.055 68.9923 510.461 70.7769C509.867 72.512 508.927 74.1479 507.64 75.6846C507.344 76.0316 506.799 76.7009 506.008 77.6923C505.216 78.6342 504.4 79.4026 503.558 79.9974C501.48 81.4846 498.759 82.8231 495.394 84.0128C495.246 84.0128 495.172 84.1615 495.172 84.459V98.959C495.172 99.4547 495.023 99.7273 494.726 99.7769C493.44 99.7273 491.609 99.7521 489.234 99.8513C487.255 99.9504 485.77 100 484.781 100ZM495.468 72.7846L496.359 72.3385C496.953 71.9915 497.522 71.5453 498.066 71C498.61 70.4547 498.957 70.1077 499.105 69.959C500.689 68.2735 501.48 66.2658 501.48 63.9359C501.48 62.9444 501.258 61.6556 500.812 60.0692C500.268 58.1855 499.575 56.6735 498.734 55.5333C497.942 54.3932 496.78 53.5504 495.246 53.0051V53.5256L495.32 59.7718C495.419 62.5479 495.468 64.6547 495.468 66.0923L495.394 72.7846H495.468Z" fill="white"/>
<path d="M512.898 99.3308C512.799 99.3308 512.725 99.2812 512.675 99.182C512.626 99.1325 512.601 99.0581 512.601 98.959L512.527 97.9923V93.9769L512.453 91.5231V90.9282V90.259C512.601 90.1103 512.7 90.0359 512.749 90.0359L515.496 89.8128L515.792 89.7385C515.792 87.8051 515.941 85.0043 516.238 81.3359C516.535 77.2709 516.856 73.6769 517.203 70.5539C517.599 67.4308 518.093 64.382 518.687 61.4077C519.083 59.6231 519.875 56.9957 521.062 53.5256C522.25 50.1051 523.685 47.4282 525.367 45.4949C527.099 43.5615 529.523 42.5949 532.64 42.5949C535.411 42.5949 537.539 43.8342 539.023 46.3128C540.557 48.7915 541.448 51.5923 541.695 54.7154L542.363 62.7462C542.413 62.8949 542.437 63.3906 542.437 64.2333L542.66 89.5154H543.031L544.738 89.441C545.035 89.441 545.233 89.5154 545.332 89.6641C545.431 89.8128 545.48 90.0607 545.48 90.4077C545.579 91.2009 545.629 92.1923 545.629 93.3821C545.678 93.8778 545.728 94.547 545.777 95.3897C545.876 96.1829 545.926 96.8273 545.926 97.3231C545.975 97.3726 546 97.8188 546 98.6615C546 98.7607 545.975 98.835 545.926 98.8846C545.876 98.9838 545.802 99.0333 545.703 99.0333C544.664 99.0333 543.105 98.9838 541.027 98.8846L538.652 98.8103H533.16C524.798 98.8103 518.539 98.9838 514.382 99.3308H512.898ZM531.676 89.7385L532.64 89.6641V81.4846L533.308 68.3231C533.358 67.6291 533.383 66.588 533.383 65.2C533.383 62.9197 533.259 60.3171 533.012 57.3923C532.814 54.4675 532.344 53.0051 531.601 53.0051C531.403 53.1538 531.23 53.3769 531.082 53.6744C530.933 53.9718 530.834 54.1701 530.785 54.2692C530.34 55.2607 529.969 56.3017 529.672 57.3923C529.424 58.4333 529.152 59.8214 528.855 61.5564L528.633 63.0436C527.89 67.059 527.198 72.2145 526.554 78.5103C526.554 78.9068 526.505 79.5017 526.406 80.2949L526.109 82.9718C525.763 85.4009 525.59 87.5077 525.59 89.2923L525.664 89.6641C526.554 89.7137 527.841 89.7385 529.523 89.7385H531.676Z" fill="white"/>
<path d="M62.4729 96.9513C60.1968 96.9513 58.0444 96.3316 56.0158 95.0923C54.0366 93.853 52.5274 92.2171 51.4883 90.1846C50.3008 87.8547 49.5339 85.9214 49.1875 84.3846C48.7422 82.4017 48.4206 80.865 48.2227 79.7744C48.0742 78.6838 48 77.5188 48 76.2795C48 72.7103 48.2969 69.1906 48.8906 65.7205C49.5339 62.2504 50.5235 59.1273 51.8594 56.3513C53.6902 52.6333 55.6694 49.8821 57.797 48.0974C59.9741 46.2632 62.9182 45.3462 66.6292 45.3462C68.262 45.3462 69.7217 45.6188 71.0082 46.1641C72.3441 46.6598 73.7543 47.453 75.2387 48.5436C76.6736 49.5846 77.6632 50.7744 78.2075 52.1128C78.8013 53.4017 79.0981 55.0128 79.0981 56.9462C79.0981 57.6402 79.0734 58.1855 79.0239 58.582C79.0239 58.7308 78.9992 59.0778 78.9497 59.6231C78.9497 60.1188 78.826 60.5402 78.5786 60.8872C78.3807 61.1846 78.0591 61.3333 77.6137 61.3333H69.3011C69.2022 61.3333 69.0785 61.2838 68.93 61.1846C68.8311 61.0855 68.7816 60.9615 68.7816 60.8128L68.93 60.5154V59.8462C68.93 58.706 68.6331 57.8137 68.0394 57.1692C67.4456 56.5248 66.6045 56.2026 65.5159 56.2026C64.6253 56.2026 63.9078 56.4009 63.3635 56.7974C61.6317 58.1855 60.37 60.912 59.5783 64.9769C58.8361 69.0419 58.465 72.7846 58.465 76.2051C58.465 78.535 58.6877 80.7658 59.133 82.8974C59.5783 84.9795 60.4689 86.0205 61.8049 86.0205C62.5966 86.0205 63.3635 85.5248 64.1057 84.5333C64.8974 83.4923 65.5159 82.4513 65.9612 81.4103L66.6292 79.2538C67.2724 76.9239 67.7178 75.759 67.9652 75.759C69.2516 75.8085 71.1319 75.9325 73.6059 76.1308C76.0799 76.2795 77.4653 76.4282 77.7622 76.5769C77.8611 76.6265 77.9106 76.7256 77.9106 76.8744L77.7622 77.4692C77.7127 77.6675 77.6385 77.9402 77.5395 78.2872C77.49 78.5846 77.4653 78.8325 77.4653 79.0308C76.7726 82.2034 75.5603 85.3761 73.8285 88.5487C72.0967 91.7214 70.0928 94.0017 67.8167 95.3897C65.986 96.4308 64.2047 96.9513 62.4729 96.9513Z" stroke="black" stroke-width="6" mask="url(#path-3-outside-1_188_3023)"/>
<path d="M80.8423 99.3308C80.7434 99.3308 80.6691 99.2812 80.6197 99.182C80.5702 99.1325 80.5454 99.0581 80.5454 98.959L80.4712 97.9923V93.9769L80.397 91.5231V90.9282V90.259C80.5454 90.1103 80.6444 90.0359 80.6939 90.0359L83.44 89.8128L83.7369 89.7385C83.7369 87.8051 83.8853 85.0043 84.1822 81.3359C84.4791 77.2709 84.8007 73.6769 85.1471 70.5539C85.5429 67.4308 86.0377 64.382 86.6315 61.4077C87.0273 59.6231 87.819 56.9957 89.0065 53.5256C90.194 50.1051 91.6289 47.4282 93.3113 45.4949C95.0431 43.5615 97.4676 42.5949 100.585 42.5949C103.356 42.5949 105.483 43.8342 106.968 46.3128C108.502 48.7915 109.392 51.5923 109.64 54.7154L110.308 62.7462C110.357 62.8949 110.382 63.3906 110.382 64.2333L110.604 89.5154H110.976L112.683 89.441C112.98 89.441 113.177 89.5154 113.276 89.6641C113.375 89.8128 113.425 90.0607 113.425 90.4077C113.524 91.2009 113.573 92.1923 113.573 93.3821C113.623 93.8778 113.672 94.547 113.722 95.3897C113.821 96.1829 113.87 96.8273 113.87 97.3231C113.92 97.3726 113.944 97.8188 113.944 98.6615C113.944 98.7607 113.92 98.835 113.87 98.8846C113.821 98.9838 113.746 99.0333 113.648 99.0333C112.608 99.0333 111.05 98.9838 108.972 98.8846L106.597 98.8103H101.104C92.7422 98.8103 86.483 98.9838 82.3267 99.3308H80.8423ZM99.62 89.7385L100.585 89.6641V81.4846L101.253 68.3231C101.302 67.6291 101.327 66.588 101.327 65.2C101.327 62.9197 101.203 60.3171 100.956 57.3923C100.758 54.4675 100.288 53.0051 99.5457 53.0051C99.3478 53.1538 99.1746 53.3769 99.0262 53.6744C98.8778 53.9718 98.7788 54.1701 98.7293 54.2692C98.284 55.2607 97.9129 56.3017 97.616 57.3923C97.3686 58.4333 97.0965 59.8214 96.7996 61.5564L96.5769 63.0436C95.8347 67.059 95.142 72.2145 94.4988 78.5103C94.4988 78.9068 94.4493 79.5017 94.3503 80.2949L94.0535 82.9718C93.7071 85.4009 93.5339 87.5077 93.5339 89.2923L93.6081 89.6641C94.4988 89.7137 95.7853 89.7385 97.4676 89.7385H99.62Z" stroke="black" stroke-width="6" mask="url(#path-3-outside-1_188_3023)"/>
<path d="M127.207 96.5051C127.059 96.5051 126.935 96.4803 126.836 96.4308C126.737 96.3316 126.613 96.2821 126.465 96.2821L124.535 95.9103C123.496 95.6624 122.333 95.4889 121.047 95.3897L118.969 95.0923C118.771 95.0923 118.647 95.0675 118.598 95.0179C118.499 94.9684 118.449 94.8692 118.449 94.7205V94.4974C118.845 93.4564 119.092 92.6633 119.191 92.118L120.676 86.541L121.789 82.3026C122.63 78.7829 123.471 75.6846 124.313 73.0077C124.659 72.0162 125.104 70.7026 125.649 69.0667C126.193 67.3812 126.613 66.0427 126.91 65.0513C127.356 63.6632 128.073 61.1846 129.063 57.6154C130.597 52.2615 131.809 48.3949 132.699 46.0154C132.749 45.8171 132.823 45.6932 132.922 45.6436C133.021 45.5444 133.194 45.4949 133.442 45.4949C133.738 45.4949 134.085 45.5692 134.481 45.7179C134.877 45.8171 135.248 45.8915 135.594 45.941C138.068 46.1393 139.923 46.3128 141.16 46.4615C141.408 46.5111 141.73 46.5359 142.125 46.5359C142.571 46.5359 142.917 46.5607 143.164 46.6103C143.214 46.6103 143.263 46.635 143.313 46.6846C143.412 46.7342 143.461 46.8085 143.461 46.9077L143.387 47.2051V47.3538V47.5026L146.579 65.3487C146.826 66.8359 147.222 69.4632 147.766 73.2308C148.063 75.6103 148.31 77.3949 148.508 78.5846L149.325 83.3436L150.735 92.118C150.883 93.4564 150.958 94.1752 150.958 94.2744C150.958 94.7205 150.685 95.0427 150.141 95.241C149.795 95.241 149.127 95.241 148.137 95.241C147.148 95.241 146.232 95.2906 145.391 95.3897C144.599 95.4393 143.882 95.5632 143.239 95.7615C142.546 95.9598 142.076 96.059 141.828 96.059C141.433 96.059 141.185 95.8359 141.086 95.3897L140.121 89.8128L139.825 88.6974L139.676 88.6231L138.934 88.5487L130.77 87.9538H130.547C130.349 87.9043 130.25 87.9291 130.25 88.0282L129.582 90.6308C129.434 91.1265 129.236 91.8205 128.988 92.7128C128.741 93.5556 128.543 94.2248 128.395 94.7205C128.147 95.6128 127.999 96.1085 127.949 96.2077C127.702 96.406 127.455 96.5051 127.207 96.5051ZM137.969 77.4692C137.969 77.0727 137.895 76.6513 137.746 76.2051C137.647 75.7094 137.573 75.3376 137.524 75.0897C137.276 74.0487 136.955 72.4872 136.559 70.4051C136.509 70.0085 136.386 69.2897 136.188 68.2487L136.114 67.9513C135.965 68.2487 135.817 68.6453 135.668 69.141C135.52 69.5872 135.421 69.9094 135.371 70.1077C135.124 70.9009 134.802 72.0906 134.406 73.6769L133.367 77.3205C133.862 77.4197 134.629 77.4692 135.668 77.4692H137.969Z" stroke="black" stroke-width="6" mask="url(#path-3-outside-1_188_3023)"/>
<path d="M168.683 94.3487C167.495 94.2 165.788 93.9274 163.562 93.5308C161.384 93.0846 160.172 92.7624 159.925 92.5641L159.628 91.9692V91.1513C159.628 90.259 159.653 89.5154 159.702 88.9205L161.558 70.2564L162.003 63.2667L161.409 63.1923L154.061 62.8949H153.839L153.468 62.9692C153.22 62.9692 153.097 62.7214 153.097 62.2256V61.8538L153.245 60.441C153.294 60.0444 153.319 59.4744 153.319 58.7308C153.369 58.1855 153.418 57.3923 153.468 56.3513C153.567 55.3103 153.666 54.4179 153.765 53.6744C153.765 53.6248 153.789 53.5752 153.839 53.5256C153.888 53.4761 153.938 53.4513 153.987 53.4513H162.745L162.819 53.3769L162.894 52.3359C162.943 51.9393 162.993 51.4188 163.042 50.7744C163.141 50.1299 163.19 49.6094 163.19 49.2128C163.19 49.1632 163.215 48.841 163.265 48.2462C163.364 47.6513 163.611 47.3538 164.007 47.3538C164.304 47.3538 164.601 47.3786 164.898 47.4282C165.244 47.4778 165.541 47.5026 165.788 47.5026L167.347 47.5769C169.623 47.6761 171.305 47.7009 172.394 47.6513C172.592 47.7504 172.74 47.9983 172.839 48.3949V49.1385C172.839 50.1299 172.814 50.8487 172.765 51.2949L172.691 53.5256V53.9718C173.383 53.9718 173.779 53.9966 173.878 54.0462C174.719 54.0462 175.758 54.0709 176.995 54.1205C178.232 54.1701 179.247 54.2197 180.038 54.2692C180.632 54.2692 180.979 54.3932 181.077 54.641V55.3846C181.077 56.0291 181.053 56.5496 181.003 56.9462V63.7128C181.003 63.7624 180.88 63.8615 180.632 64.0103H178.777L172.32 63.9359H172.097L172.023 64.0103C171.924 66.0923 171.652 69.3393 171.206 73.7513L171.058 75.4615L170.612 79.2538L169.351 93.7538C169.351 93.8034 169.326 93.9274 169.277 94.1256C169.227 94.2744 169.103 94.3487 168.905 94.3487H168.683Z" stroke="black" stroke-width="6" mask="url(#path-3-outside-1_188_3023)"/>
<path d="M189.203 96.8769C186.976 96.8769 185.813 96.6043 185.714 96.059L185.64 93.3077L185.566 92.0436V81.1128L186.308 56.2769C186.655 52.1128 186.828 48.4692 186.828 45.3462L187.125 45.1974H188.09C190.217 45.1974 192.939 45.4205 196.254 45.8667C196.452 45.9162 196.6 46.0897 196.699 46.3872V46.8333V47.3538C196.501 52.3111 196.402 56.0043 196.402 58.4333V58.9538C198.183 59.2513 199.816 59.9205 201.301 60.9615C202.835 62.0026 204.368 63.341 205.902 64.9769C206.991 66.1171 207.783 67.5795 208.277 69.3641C208.822 71.1487 209.094 72.9333 209.094 74.7179C209.094 77.2462 208.822 79.5017 208.277 81.4846C207.634 83.6658 206.422 86.0205 204.641 88.5487C202.909 91.0769 201.152 92.9359 199.371 94.1256C197.936 95.018 196.328 95.712 194.547 96.2077C192.765 96.6538 190.984 96.8769 189.203 96.8769ZM194.992 85.1282C195.239 85.0291 195.487 84.8308 195.734 84.5333C195.982 84.2359 196.155 84.0376 196.254 83.9385C197.194 82.7487 197.936 81.3111 198.48 79.6256C199.074 77.8906 199.371 76.2795 199.371 74.7923C199.371 72.4128 198.505 70.5786 196.773 69.2897L196.179 68.7692H196.105C196.056 70.4051 195.883 72.859 195.586 76.1308C195.19 79.8983 194.992 82.7487 194.992 84.6821V85.1282Z" stroke="black" stroke-width="6" mask="url(#path-3-outside-1_188_3023)"/>
<path d="M233.341 96.9513C233.094 96.9513 232.97 96.753 232.97 96.3564C232.97 96.1581 232.995 95.935 233.044 95.6872C233.094 95.3897 233.143 95.1667 233.193 95.0179L234.677 68.3974C235.073 65.2744 235.469 60.5402 235.865 54.1949C235.963 51.8154 236.062 50.0308 236.161 48.841L236.31 47.2051C236.409 46.3624 237.102 45.8419 238.388 45.6436C238.685 45.6436 239.056 45.6188 239.501 45.5692C239.947 45.4701 240.318 45.3957 240.615 45.3462C241.01 45.2966 241.357 45.247 241.654 45.1974C241.951 45.1479 242.272 45.0983 242.619 45.0487H244.474C246.948 45.0487 248.977 45.2718 250.56 45.7179C252.193 46.1641 254.024 47.0068 256.052 48.2462C257.487 49.1385 258.576 50.0803 259.318 51.0718C260.06 52.0137 260.877 53.3769 261.767 55.1615C262.905 57.4915 263.474 60.0692 263.474 62.8949C263.474 64.9274 263.004 66.9846 262.064 69.0667C261.124 71.1487 259.887 72.7598 258.353 73.9C258.007 74.1479 257.24 74.5692 256.052 75.1641V75.3128C256.597 76.1556 256.968 76.9487 257.166 77.6923C257.364 78.3863 257.463 79.2538 257.463 80.2949C257.463 81.9803 257.091 83.765 256.349 85.6487C255.657 87.4829 254.741 88.9949 253.603 90.1846C252.762 91.0769 252.02 91.8205 251.376 92.4154C250.783 92.9607 250.115 93.4316 249.373 93.8282C246.899 95.1171 244.177 95.9103 241.208 96.2077C240.813 96.2573 240.293 96.3564 239.65 96.5051C239.056 96.6043 238.561 96.6786 238.165 96.7282H236.087C235.642 96.7282 235.197 96.753 234.751 96.8026C234.306 96.9017 233.836 96.9513 233.341 96.9513ZM244.326 67.7282C245.464 67.7282 246.824 67.5051 248.408 67.059C249.1 66.8607 249.694 66.5632 250.189 66.1667C250.733 65.7701 251.327 65.2248 251.97 64.5308C252.762 63.688 253.158 62.3496 253.158 60.5154C253.158 60.0692 253.133 59.747 253.084 59.5487C252.688 58.5077 251.748 57.665 250.263 57.0205C248.828 56.3761 247.468 56.0538 246.181 56.0538H245.513C245.414 58.3838 245.241 60.5154 244.994 62.4487L244.4 66.9846L244.326 67.7282ZM243.138 84.1615C243.93 84.1615 244.697 83.9137 245.439 83.4179C246.231 82.8727 246.626 81.9556 246.626 80.6667C246.626 80.0222 246.404 79.5761 245.958 79.3282C245.563 79.0803 245.117 78.9068 244.622 78.8077C244.177 78.659 243.856 78.5598 243.658 78.5103C243.608 78.6094 243.583 78.8077 243.583 79.1051C243.534 79.3034 243.509 79.5761 243.509 79.9231C243.509 80.2205 243.484 80.5427 243.435 80.8897L243.287 82.6744C243.287 82.8231 243.262 83.0462 243.212 83.3436C243.212 83.5915 243.188 83.7897 243.138 83.9385V84.1615Z" stroke="black" stroke-width="6" mask="url(#path-3-outside-1_188_3023)"/>
<path d="M296.088 95.3897L291.19 94.2744C291.14 94.2248 291.041 94.2 290.893 94.2C290.794 94.1504 290.72 94.1009 290.67 94.0513C290.373 94.0017 290.027 93.9274 289.631 93.8282C289.285 93.6795 289.013 93.5556 288.815 93.4564C288.468 93.4068 288.122 93.3077 287.776 93.159C287.429 93.0103 287.256 92.812 287.256 92.5641V92.4154L287.553 91.5231L288.815 87.2846L290.447 81.9308C290.992 80.2453 291.338 79.1547 291.487 78.659L300.838 49.8077L301.655 47.5026C301.853 46.9573 302.149 46.6846 302.545 46.6846C303.436 46.6846 304.97 46.7838 307.147 46.9821C309.374 47.1308 310.66 47.3291 311.006 47.5769C311.204 47.6265 311.303 47.8496 311.303 48.2462L313.159 60.3667C313.357 61.7547 313.654 63.2667 314.049 64.9026C314.445 66.4889 314.693 67.5299 314.792 68.0256L315.46 70.7769L316.128 74.0487C316.177 74.3957 316.276 74.8915 316.424 75.5359C316.622 76.1803 316.746 76.7504 316.796 77.2462L319.467 90.7051L319.913 92.7128C320.012 93.0598 320.061 93.3821 320.061 93.6795C320.061 93.8778 320.012 94.0017 319.913 94.0513C316.993 94.3487 314.124 94.7205 311.303 95.1667C311.006 95.1667 310.833 94.9684 310.784 94.5718C310.734 94.1752 310.71 93.9274 310.71 93.8282L308.483 84.1615L307.667 79.9974L306.182 71.5949L305.291 67.3564L297.647 91.9692L296.979 94.0513C296.979 94.1009 296.954 94.3487 296.905 94.7949C296.855 95.1915 296.632 95.3897 296.237 95.3897H296.088Z" stroke="black" stroke-width="6" mask="url(#path-3-outside-1_188_3023)"/>
<path d="M337.664 96.6538C332.814 96.6538 329.029 94.0761 326.308 88.9205C324.675 85.7974 323.859 82.8231 323.859 79.9974C323.859 73.553 324.997 67.8026 327.273 62.7462C328.114 60.9615 329.005 59.4496 329.945 58.2103C330.934 56.9709 332.27 55.5581 333.953 53.9718C334.101 53.8231 334.373 53.6496 334.769 53.4513C335.165 53.253 335.412 53.0547 335.511 52.8564C336.352 50.9727 337.664 49.2624 339.445 47.7256C341.276 46.1393 343.131 45.3462 345.011 45.3462C346.199 45.3462 347.51 45.5692 348.945 46.0154C350.38 46.412 351.468 46.9573 352.211 47.6513C353.349 48.6427 354.338 49.8325 355.179 51.2205C356.07 52.6085 356.763 54.0462 357.258 55.5333C357.406 55.9795 357.505 56.3761 357.554 56.7231C357.604 57.0701 357.653 57.3675 357.703 57.6154C357.802 58.3094 357.901 58.8299 358 59.1769L359.187 58.1359C359.237 58.1359 359.286 58.1111 359.336 58.0615C359.435 57.9624 359.484 57.888 359.484 57.8385C359.534 57.7393 359.855 57.318 360.449 56.5744C361.043 55.8308 361.513 55.459 361.859 55.459L362.008 55.5333C363.789 56.8222 365.669 58.2846 367.648 59.9205C367.846 60.0197 368.044 60.1684 368.242 60.3667C368.44 60.565 368.539 60.7632 368.539 60.9615C368.539 61.259 368.267 61.8291 367.723 62.6718C367.228 63.465 366.832 64.0103 366.535 64.3077L362.601 68.2487C362.008 68.8436 361.216 69.4385 360.226 70.0333C359.286 70.6282 358.346 71.1735 357.406 71.6692C357.307 71.6692 357.258 71.7436 357.258 71.8923C356.367 75.5607 354.957 79.2786 353.027 83.0462C351.691 85.6735 350.429 87.8547 349.242 89.5897C348.104 91.3248 346.669 92.8615 344.937 94.2C343.205 95.4889 341.177 96.3068 338.851 96.6538H337.664ZM347.535 62.2256C347.535 61.1846 347.312 60.0444 346.867 58.8051C346.471 57.5658 345.852 56.9462 345.011 56.9462C344.566 56.9462 344.343 57.3923 344.343 58.2846C344.343 59.4248 345.135 60.565 346.718 61.7051C346.768 61.7547 346.867 61.8538 347.015 62.0026C347.213 62.1513 347.386 62.2256 347.535 62.2256ZM337.515 87.1359C338.653 87.1359 339.692 86.541 340.632 85.3513C341.622 84.112 342.389 82.7735 342.933 81.3359C343.725 79.353 344.269 77.9154 344.566 77.0231C345.259 75.288 345.704 73.8504 345.902 72.7103C344.418 72.3632 343.106 71.8427 341.968 71.1487C340.83 70.4547 339.692 69.5128 338.554 68.3231L337.144 66.6128C336.897 66.365 336.773 66.241 336.773 66.241C335.833 67.9265 335.066 70.0581 334.472 72.6359C333.878 75.1641 333.581 77.4197 333.581 79.4026C333.581 80.9393 333.705 82.3026 333.953 83.4923C334.249 84.6325 334.818 85.5991 335.66 86.3923C336.204 86.888 336.822 87.1359 337.515 87.1359Z" stroke="black" stroke-width="6" mask="url(#path-3-outside-1_188_3023)"/>
<path d="M375.456 97.1C374.417 97.1 372.858 96.9513 370.78 96.6538C369.048 96.4556 367.811 96.3316 367.069 96.2821C366.723 96.1829 366.55 95.9846 366.55 95.6872V84.6077C366.55 81.5342 366.846 77.7171 367.44 73.1564C368.083 68.5462 368.826 64.9274 369.667 62.3C373.031 51.9393 377.188 46.759 382.136 46.759C383.274 46.759 384.437 46.9821 385.624 47.4282C387.653 48.1718 389.162 49.5103 390.151 51.4436C391.141 53.3274 391.958 55.7068 392.601 58.582C393.59 55.8556 395.099 53.1538 397.128 50.4769C399.157 47.8 401.26 46.0402 403.437 45.1974C404.229 44.9 405.515 44.7513 407.296 44.7513C410.958 44.7513 413.778 46.8581 415.757 51.0718C416.054 51.6667 416.401 52.8564 416.796 54.641C417.588 57.5658 418.108 60.8624 418.355 64.5308C418.553 67.5547 418.652 72.0906 418.652 78.1385V82.3026L418.281 87.7308V96.3564C418.33 96.4556 418.355 96.5795 418.355 96.7282C418.355 96.8769 418.256 97.0009 418.058 97.1H415.164C413.729 97.1 412.64 97.0752 411.898 97.0256L408.632 96.9513L407.89 97.0256C407.791 97.0256 407.667 96.9017 407.519 96.6538C407.321 95.2658 407.222 94.2248 407.222 93.5308L406.777 87.2103L406.703 85.4256L406.48 66.018L406.331 61.4077C406.331 61.259 406.307 60.8376 406.257 60.1436C406.257 59.4 406.158 58.7556 405.96 58.2103C405.762 57.665 405.466 57.2188 405.07 56.8718H404.847C404.501 56.8718 404.13 57.0701 403.734 57.4667C401.952 59.1521 400.542 61.2342 399.503 63.7128C398.514 66.1419 397.623 69.0171 396.831 72.3385L395.273 79.4026C395.223 79.6009 395.149 79.8487 395.05 80.1462C395.001 80.4436 394.976 80.6915 394.976 80.8897C394.53 83.4179 394.209 86.0453 394.011 88.7718C393.862 91.4983 393.764 93.1094 393.714 93.6051C393.714 94.5966 393.665 95.2906 393.566 95.6872C393.566 95.8855 393.417 95.9846 393.12 95.9846C392.23 95.9846 390.943 95.8855 389.261 95.6872C389.162 95.6872 388.519 95.6128 387.331 95.4641C387.034 95.4145 386.688 95.365 386.292 95.3154C385.946 95.2658 385.5 95.241 384.956 95.241L384.288 95.3154C383.991 95.3154 383.843 94.9932 383.843 94.3487L382.729 72.1154V64.2333C382.729 63.4402 382.606 62.3 382.358 60.8128C382.16 59.2761 381.888 58.5077 381.542 58.5077C381.344 58.5077 381.196 58.6316 381.097 58.8795L380.726 59.6231C380.132 60.912 379.711 62.1513 379.464 63.341C379.266 64.4812 378.994 66.2162 378.647 68.5462C377.955 74.247 377.46 79.6009 377.163 84.6077C377.114 85.5991 377.039 86.9872 376.94 88.7718C376.841 90.5068 376.792 91.8701 376.792 92.8615L376.421 96.8769C376.421 97.0256 376.347 97.1 376.198 97.1H375.456Z" stroke="black" stroke-width="6" mask="url(#path-3-outside-1_188_3023)"/>
<path d="M426.051 97.6949C425.309 97.6949 424.691 97.6701 424.196 97.6205C423.998 97.5709 423.849 97.447 423.75 97.2487C423.701 97.1 423.652 96.9513 423.602 96.8026C423.602 96.6538 423.602 96.5299 423.602 96.4308C423.404 92.7624 423.256 89.0197 423.157 85.2026V73.6026C423.157 62.0026 423.181 53.3026 423.231 47.5026L423.305 45.1974C423.305 45.1479 423.28 44.9991 423.231 44.7513C423.231 44.5034 423.33 44.3795 423.528 44.3795H424.27L425.829 44.3051H428.055H429.762L444.013 44.9C444.755 44.9 445.769 44.9744 447.056 45.1231C448.342 45.2718 449.035 45.4949 449.134 45.7923V46.2385C449.134 46.635 449.084 47.106 448.985 47.6513C448.886 48.147 448.812 48.494 448.763 48.6923C448.614 49.4359 448.54 50.2291 448.54 51.0718L448.391 52.6333C448.391 52.6829 448.342 53.0051 448.243 53.6C448.194 54.1453 447.971 54.4675 447.575 54.5667H446.536C445.002 54.5667 442.701 54.5171 439.634 54.4179C436.566 54.3188 434.265 54.2692 432.731 54.2692H432.508L432.434 61.0359C432.335 64.1094 432.286 66.4145 432.286 67.9513C432.286 68.0009 432.731 68.1 433.622 68.2487C434.562 68.3974 435.205 68.5214 435.551 68.6205C438.322 69.4137 440.598 70.9009 442.38 73.0821C444.161 75.2632 445.052 77.7667 445.052 80.5923C445.052 83.6658 444.161 86.4667 442.38 88.9949C440.598 91.4735 438.248 93.5803 435.329 95.3154C432.657 96.9017 429.564 97.6949 426.051 97.6949ZM432.286 86.9128C433.374 86.6154 434.314 86.1444 435.106 85.5C435.898 84.806 436.294 83.9632 436.294 82.9718C436.294 81.8316 435.898 80.741 435.106 79.7C434.364 78.659 433.424 78.0393 432.286 77.841V86.9128Z" stroke="black" stroke-width="6" mask="url(#path-3-outside-1_188_3023)"/>
<path d="M455.833 96.5051C455.685 96.5051 455.561 96.4803 455.462 96.4308C455.363 96.3316 455.239 96.2821 455.091 96.2821L453.161 95.9103C452.122 95.6624 450.959 95.4889 449.673 95.3897L447.595 95.0923C447.397 95.0923 447.273 95.0675 447.224 95.0179C447.125 94.9684 447.075 94.8692 447.075 94.7205V94.4974C447.471 93.4564 447.719 92.6633 447.817 92.118L449.302 86.541L450.415 82.3026C451.256 78.7829 452.097 75.6846 452.939 73.0077C453.285 72.0162 453.73 70.7026 454.275 69.0667C454.819 67.3812 455.239 66.0427 455.536 65.0513C455.982 63.6632 456.699 61.1846 457.689 57.6154C459.223 52.2615 460.435 48.3949 461.326 46.0154C461.375 45.8171 461.449 45.6932 461.548 45.6436C461.647 45.5444 461.82 45.4949 462.068 45.4949C462.365 45.4949 462.711 45.5692 463.107 45.7179C463.503 45.8171 463.874 45.8915 464.22 45.941C466.694 46.1393 468.55 46.3128 469.787 46.4615C470.034 46.5111 470.356 46.5359 470.751 46.5359C471.197 46.5359 471.543 46.5607 471.79 46.6103C471.84 46.6103 471.889 46.635 471.939 46.6846C472.038 46.7342 472.087 46.8085 472.087 46.9077L472.013 47.2051V47.3538V47.5026L475.205 65.3487C475.452 66.8359 475.848 69.4632 476.392 73.2308C476.689 75.6103 476.936 77.3949 477.134 78.5846L477.951 83.3436L479.361 92.118C479.509 93.4564 479.584 94.1752 479.584 94.2744C479.584 94.7205 479.311 95.0427 478.767 95.241C478.421 95.241 477.753 95.241 476.763 95.241C475.774 95.241 474.858 95.2906 474.017 95.3897C473.225 95.4393 472.508 95.5632 471.865 95.7615C471.172 95.9598 470.702 96.059 470.455 96.059C470.059 96.059 469.811 95.8359 469.712 95.3897L468.747 89.8128L468.451 88.6974L468.302 88.6231L467.56 88.5487L459.396 87.9538H459.173C458.975 87.9043 458.876 87.9291 458.876 88.0282L458.208 90.6308C458.06 91.1265 457.862 91.8205 457.615 92.7128C457.367 93.5556 457.169 94.2248 457.021 94.7205C456.773 95.6128 456.625 96.1085 456.575 96.2077C456.328 96.406 456.081 96.5051 455.833 96.5051ZM466.595 77.4692C466.595 77.0727 466.521 76.6513 466.372 76.2051C466.273 75.7094 466.199 75.3376 466.15 75.0897C465.902 74.0487 465.581 72.4872 465.185 70.4051C465.135 70.0085 465.012 69.2897 464.814 68.2487L464.74 67.9513C464.591 68.2487 464.443 68.6453 464.294 69.141C464.146 69.5872 464.047 69.9094 463.997 70.1077C463.75 70.9009 463.428 72.0906 463.033 73.6769L461.993 77.3205C462.488 77.4197 463.255 77.4692 464.294 77.4692H466.595Z" stroke="black" stroke-width="6" mask="url(#path-3-outside-1_188_3023)"/>
<path d="M484.781 100C484.632 100 484.533 99.9504 484.484 99.8513V99.0333C484.484 98.1906 484.459 97.5709 484.41 97.1744V82.9718C484.261 80.4932 484.187 78.0393 484.187 75.6103L484.261 66.7615L484.187 61.259V54.0462L484.113 47.9487C484.113 46.2137 484.187 44.5282 484.335 42.8923C484.385 42.694 484.484 42.5949 484.632 42.5949C484.781 42.5453 484.904 42.5205 485.003 42.5205C485.152 42.5205 485.375 42.4709 485.671 42.3718C485.968 42.2727 486.216 42.1983 486.414 42.1487C487.156 42.0496 488.294 42 489.828 42C492.945 42 496.062 42.694 499.179 44.0821C502.346 45.4205 505.043 47.3291 507.269 49.8077C509.496 52.2368 510.881 55.0128 511.426 58.1359C511.475 58.4333 511.574 58.9538 511.723 59.6974C511.871 60.3915 511.945 61.0607 511.945 61.7051C511.945 62.3 511.846 63.2915 511.648 64.6795C511.45 66.9598 511.055 68.9923 510.461 70.7769C509.867 72.512 508.927 74.1479 507.64 75.6846C507.344 76.0316 506.799 76.7009 506.008 77.6923C505.216 78.6342 504.4 79.4026 503.558 79.9974C501.48 81.4846 498.759 82.8231 495.394 84.0128C495.246 84.0128 495.172 84.1615 495.172 84.459V98.959C495.172 99.4547 495.023 99.7273 494.726 99.7769C493.44 99.7273 491.609 99.7521 489.234 99.8513C487.255 99.9504 485.77 100 484.781 100ZM495.468 72.7846L496.359 72.3385C496.953 71.9915 497.522 71.5453 498.066 71C498.61 70.4547 498.957 70.1077 499.105 69.959C500.689 68.2735 501.48 66.2658 501.48 63.9359C501.48 62.9444 501.258 61.6556 500.812 60.0692C500.268 58.1855 499.575 56.6735 498.734 55.5333C497.942 54.3932 496.78 53.5504 495.246 53.0051V53.5256L495.32 59.7718C495.419 62.5479 495.468 64.6547 495.468 66.0923L495.394 72.7846H495.468Z" stroke="black" stroke-width="6" mask="url(#path-3-outside-1_188_3023)"/>
<path d="M512.898 99.3308C512.799 99.3308 512.725 99.2812 512.675 99.182C512.626 99.1325 512.601 99.0581 512.601 98.959L512.527 97.9923V93.9769L512.453 91.5231V90.9282V90.259C512.601 90.1103 512.7 90.0359 512.749 90.0359L515.496 89.8128L515.792 89.7385C515.792 87.8051 515.941 85.0043 516.238 81.3359C516.535 77.2709 516.856 73.6769 517.203 70.5539C517.599 67.4308 518.093 64.382 518.687 61.4077C519.083 59.6231 519.875 56.9957 521.062 53.5256C522.25 50.1051 523.685 47.4282 525.367 45.4949C527.099 43.5615 529.523 42.5949 532.64 42.5949C535.411 42.5949 537.539 43.8342 539.023 46.3128C540.557 48.7915 541.448 51.5923 541.695 54.7154L542.363 62.7462C542.413 62.8949 542.437 63.3906 542.437 64.2333L542.66 89.5154H543.031L544.738 89.441C545.035 89.441 545.233 89.5154 545.332 89.6641C545.431 89.8128 545.48 90.0607 545.48 90.4077C545.579 91.2009 545.629 92.1923 545.629 93.3821C545.678 93.8778 545.728 94.547 545.777 95.3897C545.876 96.1829 545.926 96.8273 545.926 97.3231C545.975 97.3726 546 97.8188 546 98.6615C546 98.7607 545.975 98.835 545.926 98.8846C545.876 98.9838 545.802 99.0333 545.703 99.0333C544.664 99.0333 543.105 98.9838 541.027 98.8846L538.652 98.8103H533.16C524.798 98.8103 518.539 98.9838 514.382 99.3308H512.898ZM531.676 89.7385L532.64 89.6641V81.4846L533.308 68.3231C533.358 67.6291 533.383 66.588 533.383 65.2C533.383 62.9197 533.259 60.3171 533.012 57.3923C532.814 54.4675 532.344 53.0051 531.601 53.0051C531.403 53.1538 531.23 53.3769 531.082 53.6744C530.933 53.9718 530.834 54.1701 530.785 54.2692C530.34 55.2607 529.969 56.3017 529.672 57.3923C529.424 58.4333 529.152 59.8214 528.855 61.5564L528.633 63.0436C527.89 67.059 527.198 72.2145 526.554 78.5103C526.554 78.9068 526.505 79.5017 526.406 80.2949L526.109 82.9718C525.763 85.4009 525.59 87.5077 525.59 89.2923L525.664 89.6641C526.554 89.7137 527.841 89.7385 529.523 89.7385H531.676Z" stroke="black" stroke-width="6" mask="url(#path-3-outside-1_188_3023)"/>
</svg>
