<svg width="1283" height="457" viewBox="0 0 1283 457" fill="none" xmlns="http://www.w3.org/2000/svg">
<path d="M27 214.8L335.93 166.54L397.277 30.5354L706.892 5L817.381 30.5354L936.261 15.18L1229.85 102.925L1243 166.54L1124.69 195.058L1142.12 246.893L1083.21 262.472L1043.94 244.861C1035.14 224.541 1010.19 199.644 988.425 191.351C928.83 193.106 913.621 265.254 912.16 302.545L607.613 383.71L563.909 371.524C558.066 344.47 524.55 288.026 471.828 307.177C421.783 325.355 408.963 387.366 412.614 429.776L338.448 444L344.694 396.871L283.346 405.646L27 315.707V214.8Z" fill="#FF6C9C"/>
<path fill-rule="evenodd" clip-rule="evenodd" d="M707.325 0L817.705 25.4912L936.757 10.1251L1234.26 98.9737L1249 170.232L1131.28 198.583L1148.68 250.27L1082.87 267.662L1040.2 248.54L1039.42 246.754C1035.36 237.379 1027.38 226.606 1017.63 217.109C1008.17 207.902 997.438 200.277 987.65 196.338C960.922 197.518 943.872 214.124 933.065 235.768C922.061 257.806 917.97 284.371 917.256 302.602L917.111 306.299L607.641 388.713L559.697 375.356L559.057 372.396C556.331 359.78 546.951 339.833 532.022 325.485C517.295 311.333 497.681 303.005 473.593 311.748C450.32 320.195 435.463 338.872 426.809 361.034C418.135 383.245 415.889 408.539 417.662 429.119L418.05 433.624L332.597 450L338.888 402.57L282.879 410.575L22 319.114V210.427L332.511 161.957L393.962 25.8253L707.325 0ZM335.815 171.594L47.8538 216.545L283.786 297.242L630.421 236.195L335.815 171.594ZM652.421 242.5L652.352 242.515L652.268 242.533L288.404 306.614V399.652L350.582 390.765L344.38 437.528L407.334 425.463C406.13 404.536 408.753 379.671 417.454 357.388C426.772 333.527 443.252 312.214 469.835 302.44C478.249 298.064 490.679 296.251 504.26 296.819C518.171 297.402 533.91 300.507 549.015 306.552C577.747 318.051 604.891 340.552 611.769 377.233L907.406 298.502C908.534 279.644 912.962 253.557 924.08 231.29C936.008 207.401 956.07 187.224 988.361 186.274C1019.99 185.343 1042.43 199.825 1058.08 216.425C1070.56 229.67 1079 244.635 1084.32 254.064C1084.81 254.937 1085.27 255.762 1085.71 256.534L1135.74 243.312L1118.27 191.399L1237.2 162.755L1226.09 109.014L985.691 166.993L659.326 240.936L659.268 241.05L652.421 242.5ZM1210.7 102.406L986.745 156.419L915.34 51.5106L843.339 32.2971L935.926 20.3469L1210.7 102.406ZM816.24 35.4486L706.589 10.1259L434.255 32.5698L728.145 89.0378L890.516 55.2692L816.24 35.4486ZM909.975 61.4685L731.57 98.5717L665.224 229.314L976.254 158.845L909.975 61.4685ZM653.156 230.91L720.693 97.8212L400.268 36.2545L343.091 162.92L653.156 230.91ZM1071.24 251.458C1066.24 242.933 1059.66 232.739 1050.77 223.301C1040.79 212.712 1028.11 203.352 1011.85 198.942C1016.3 202.287 1020.61 206.006 1024.64 209.925C1034.43 219.463 1042.92 230.545 1047.82 240.962L1071.24 251.458ZM601.382 376.555C594.571 345.744 571.283 326.27 545.281 315.864C540.309 313.874 535.263 312.229 530.249 310.909C533.338 313.161 536.252 315.632 538.983 318.256C554.355 333.029 564.353 352.978 568.152 367.297L601.382 376.555ZM278.363 398.36V305.99L32.0409 221.739V312.003L278.363 398.36Z" fill="black"/>
<path d="M336 166.083L397.61 31L728 94.1291L654.881 236L336 166.083Z" fill="#C1F4FF"/>
<path fill-rule="evenodd" clip-rule="evenodd" d="M395.547 27L733 91.5113L656.509 240L331 168.594L395.547 27ZM399.725 35.1085L341.205 163.482L652.668 231.807L722.234 96.7627L399.725 35.1085Z" fill="black"/>
<path d="M907.458 54L983 160.684L819.5 198.342L656 236L728.291 94.1885L809.366 76.5469L907.458 54Z" fill="#C1F4FF"/>
<path fill-rule="evenodd" clip-rule="evenodd" d="M908.901 50L989 162.865L649 241L725.627 91.0195L808.431 73.0421L908.901 50ZM805.96 80.9179L730.459 97.3099L662.376 230.567L815.505 195.376L805.96 80.9179ZM822.558 193.756L976.955 158.274L905.835 58.0616L813.017 79.3485L822.558 193.756Z" fill="black"/>
<path fill-rule="evenodd" clip-rule="evenodd" d="M549.918 313.173C549.757 312.893 549.531 312.569 549.22 312.26C548.76 311.802 547.802 311.072 546.364 311.005C545.255 310.953 544.382 311.32 543.789 311.707C543.176 311.486 542.429 311.37 541.6 311.509C540.432 311.704 539.653 312.311 539.238 312.73C538.546 313.429 538.29 314.181 538.238 314.331C538.237 314.336 538.236 314.34 538.234 314.343C538.09 314.762 538.046 315.117 538.038 315.178C538.038 315.181 538.037 315.183 538.037 315.184C538.022 315.303 538.015 315.397 538.011 315.443C538.005 315.539 538.003 315.617 538.002 315.648C538 315.72 538 315.788 538 315.827C538 316.094 538.025 316.356 538.072 316.61C538.075 316.637 538.078 316.663 538.081 316.687C538.107 316.926 538.151 317.276 538.22 317.64C538.221 317.643 538.222 317.646 538.222 317.65C538.267 317.882 538.408 318.618 538.797 319.343C538.798 319.347 538.831 319.423 538.915 319.657C538.925 319.686 538.938 319.722 538.952 319.763C538.993 319.879 539.048 320.035 539.097 320.168C539.17 320.366 539.267 320.619 539.387 320.888C539.602 321.367 539.938 322.004 540.423 322.625C540.853 323.176 541.72 324.133 543.114 324.636C543.123 324.643 543.245 324.71 543.647 324.979C543.671 324.995 543.697 325.012 543.725 325.031C544.033 325.238 544.594 325.616 545.298 325.947C545.306 326.094 545.314 326.223 545.32 326.298C545.321 326.326 545.323 326.346 545.323 326.358C545.353 326.853 545.455 327.579 545.58 328.212C545.646 328.543 545.737 328.948 545.86 329.348C545.862 329.354 545.864 329.36 545.866 329.367C545.917 329.534 546.058 329.994 546.344 330.517C546.404 330.682 546.49 330.889 546.605 331.112C546.674 331.247 546.751 331.382 546.836 331.516C546.995 332.323 547.305 332.956 547.447 333.233C547.557 333.449 547.749 333.804 548.033 334.194C548.045 334.235 548.059 334.278 548.073 334.322C548.108 334.433 548.159 334.585 548.224 334.752C548.257 334.837 548.298 334.938 548.348 335.048C548.397 335.157 548.462 335.291 548.545 335.439C548.776 335.85 549.05 336.494 549.151 336.844C549.326 337.451 549.574 337.937 549.738 338.234C549.859 338.454 550.017 338.713 550.092 338.836C550.093 338.837 550.093 338.838 550.094 338.839C550.256 339.652 550.573 340.577 551.035 341.373L551.039 341.386C551.069 341.474 551.119 341.625 551.181 341.795C551.429 342.462 551.791 342.983 552.089 343.337C552.128 343.441 552.165 343.536 552.198 343.622C552.369 344.07 552.455 344.294 552.505 344.555C552.662 345.374 552.947 346.108 553.089 346.474C553.101 346.507 553.113 346.536 553.123 346.562C553.248 346.89 553.278 346.993 553.283 347.006C553.286 347.026 553.289 347.05 553.293 347.076C553.36 347.533 553.547 348.797 554.234 350.02L554.236 350.028C554.273 350.251 554.353 350.729 554.516 351.243C554.667 351.719 554.916 352.325 555.355 352.938C555.426 353.103 555.503 353.304 555.613 353.591C555.616 353.6 555.621 353.612 555.627 353.627C555.689 353.794 555.892 354.335 556.122 354.747L556.126 354.754C556.187 354.864 556.434 355.307 556.874 355.747C557.086 355.959 557.657 356.496 558.585 356.804C558.947 356.924 559.337 356.999 559.739 357.019C559.757 357.081 559.774 357.142 559.791 357.203C559.821 357.307 559.85 357.413 559.88 357.52C560.447 359.534 561.114 361.903 562.359 364.26C562.423 364.38 562.495 364.522 562.575 364.68C562.862 365.242 563.257 366.016 563.747 366.785C563.744 366.868 563.742 366.953 563.741 367.039C563.737 367.388 563.745 367.989 563.875 368.629C563.941 368.953 564.072 369.462 564.361 370.013C564.649 370.562 565.23 371.403 566.306 371.968C567.107 372.388 567.856 372.5 568.318 372.534C568.617 372.557 568.89 372.552 569.081 372.543C569.908 372.758 570.802 372.946 571.707 373.066C571.79 373.077 571.874 373.088 571.96 373.1C572.867 373.22 573.928 373.361 574.99 373.452C575.042 373.48 575.1 373.511 575.161 373.542C575.267 373.596 575.417 373.669 575.593 373.742C576.27 374.025 576.905 374.108 577.333 374.13C577.613 374.244 577.979 374.367 578.415 374.446C578.415 374.446 578.419 374.446 578.426 374.448C578.429 374.449 578.433 374.45 578.438 374.451C578.444 374.452 578.452 374.454 578.46 374.456C578.491 374.464 578.534 374.475 578.591 374.492C578.71 374.528 578.856 374.576 579.056 374.647C579.111 374.667 579.176 374.69 579.25 374.716C579.602 374.843 580.142 375.037 580.643 375.179C581.345 375.377 582.07 375.527 582.625 375.64C582.664 375.648 582.702 375.656 582.739 375.664C582.783 375.673 582.826 375.682 582.868 375.691C582.933 375.729 583.001 375.767 583.072 375.804C583.612 376.087 584.374 376.34 585.292 376.303C585.306 376.302 585.32 376.301 585.334 376.301C585.544 376.352 585.741 376.397 585.912 376.437C586.057 376.471 586.183 376.5 586.281 376.524C586.793 376.649 587.097 376.746 587.359 376.863C587.898 377.106 588.429 377.36 589.009 377.637L589.06 377.661C589.645 377.941 590.281 378.244 590.941 378.539C591.558 378.814 592.116 378.938 592.474 379.004C592.564 379.02 592.649 379.034 592.725 379.046C592.884 379.15 593.015 379.227 593.089 379.271C593.374 379.439 593.704 379.617 594.042 379.781C594.363 379.937 594.792 380.128 595.252 380.278C595.479 380.353 595.812 380.449 596.203 380.51C596.502 380.557 597.307 380.666 598.256 380.397C598.538 380.317 598.797 380.216 599.033 380.099C599.088 380.217 599.139 380.324 599.177 380.404L599.188 380.428C599.259 380.577 599.266 380.594 599.259 380.576C599.338 380.764 599.418 380.918 599.471 381.017C599.527 381.123 599.581 381.216 599.623 381.286C599.666 381.359 599.706 381.425 599.738 381.477C599.752 381.499 599.766 381.521 599.779 381.542C599.782 381.547 599.785 381.552 599.788 381.557C600.564 383.179 602.325 384.201 604.221 383.967C606.585 383.674 608.262 381.537 607.966 379.194C607.916 378.798 607.821 378.492 607.767 378.333C607.707 378.156 607.646 378.012 607.603 377.918C607.519 377.733 607.437 377.583 607.392 377.502C607.3 377.339 607.201 377.18 607.16 377.115C607.141 377.084 607.125 377.059 607.113 377.04C607.104 377.019 607.095 377 607.087 376.983C607.053 376.91 607.017 376.835 606.989 376.776L606.982 376.761C606.957 376.709 606.936 376.664 606.915 376.62C606.743 375.338 606.293 374.144 605.781 373.206C605.778 373.188 605.775 373.164 605.772 373.133C605.767 373.088 605.764 373.033 605.764 372.971C605.764 372.122 605.571 371.419 605.406 370.947C605.255 370.514 605.071 370.126 604.979 369.933L604.961 369.895C604.938 369.846 604.919 369.807 604.904 369.774C604.843 369.31 604.737 368.912 604.638 368.602C604.509 368.199 604.358 367.848 604.259 367.624C604.196 367.479 604.158 367.396 604.129 367.333C604.097 367.261 604.076 367.215 604.042 367.134C604.039 367.127 604.036 367.121 604.034 367.115C604.001 366.981 603.965 366.833 603.926 366.676C603.771 366.036 603.575 365.232 603.338 364.469C602.909 363.086 602.376 361.765 601.912 360.614C601.774 360.27 601.641 359.941 601.52 359.631C601.05 358.432 600.451 357.336 599.984 356.485L599.95 356.422C599.459 355.527 599.107 354.884 598.837 354.244C597.847 351.898 596.284 349.771 595.142 348.216C595.084 348.137 595.027 348.059 594.971 347.983C594.745 347.675 594.514 347.357 594.278 347.033C593.3 345.687 592.233 344.219 591.095 342.84C590.999 342.724 590.878 342.56 590.665 342.265C590.647 342.24 590.629 342.214 590.609 342.187C590.428 341.934 590.185 341.595 589.925 341.264C589.397 340.588 588.467 339.487 587.079 338.738C587.078 338.737 587.078 338.737 587.077 338.736C587.048 338.716 587.017 338.695 586.958 338.655L586.951 338.649C586.895 338.611 586.814 338.555 586.725 338.496C586.385 338.269 585.682 337.817 584.722 337.553C584.719 337.552 584.72 337.552 584.722 337.553C584.723 337.553 584.724 337.553 584.722 337.553M607.066 376.963C607.055 376.945 607.058 376.949 607.07 376.97C607.068 376.967 607.067 376.965 607.066 376.963ZM583.604 337.051C583.858 337.135 584.057 337.225 584.171 337.28C584.316 337.349 584.449 337.422 584.527 337.466C584.557 337.48 584.584 337.492 584.609 337.503C584.66 337.527 584.689 337.539 584.706 337.546C584.715 337.55 584.72 337.552 584.722 337.553M584.641 337.531C584.642 337.531 584.634 337.527 584.616 337.516C584.631 337.525 584.641 337.53 584.641 337.531ZM573.738 328.032C574.49 328.403 575.184 328.908 575.753 329.54C575.756 329.542 575.759 329.545 575.762 329.547L575.776 329.557C575.87 329.629 576.063 329.775 576.263 329.948C576.464 330.12 576.714 330.353 576.97 330.65C576.997 330.673 577.043 330.71 577.114 330.765C577.131 330.778 577.155 330.796 577.183 330.818C577.285 330.896 577.445 331.019 577.581 331.128C577.775 331.284 578.031 331.499 578.298 331.763C578.539 332.003 578.767 332.247 578.939 332.43L578.948 332.44C579.132 332.637 579.263 332.776 579.39 332.905C579.529 333.045 579.607 333.112 579.634 333.135C580.715 333.747 581.597 334.614 582.179 335.254C582.72 335.849 583.21 336.48 583.604 337.051M558.169 318.102C560.363 318.723 562.218 319.789 563.527 320.541C563.616 320.592 563.703 320.642 563.787 320.69C564.061 320.847 564.391 321.028 564.755 321.227C565.866 321.835 567.3 322.62 568.454 323.444C568.813 323.701 569.141 323.959 569.39 324.155L569.422 324.18C569.678 324.381 569.846 324.514 570.01 324.634C570.171 324.751 570.261 324.805 570.296 324.825C571.032 325.042 571.953 325.469 572.725 326.316C573.208 326.846 573.537 327.435 573.738 328.032M549.918 313.173C551.31 313.606 552.92 314.234 554.492 315.306C555.763 316.174 556.987 317.116 558.169 318.102M555.29 352.8C555.29 352.799 555.297 352.812 555.311 352.84C555.297 352.815 555.29 352.801 555.29 352.8ZM555.68 352.58C555.68 352.583 555.68 352.586 555.68 352.588V352.591C555.68 352.587 555.68 352.584 555.68 352.58Z" fill="black"/>
<path fill-rule="evenodd" clip-rule="evenodd" d="M1006.85 195.123C1007.5 194.397 1008.26 194.039 1008.82 193.87C1009.84 193.558 1010.71 193.724 1010.91 193.763L1010.92 193.765C1011.5 193.875 1011.98 194.084 1012.16 194.164C1012.66 194.38 1013.23 194.685 1013.75 194.975C1014.83 195.584 1016.24 196.435 1017.6 197.271C1018.53 197.848 1019.48 198.441 1020.32 198.964C1020.36 198.989 1020.4 199.013 1020.44 199.038C1021.22 198.543 1022.14 198.29 1023.1 198.323C1024.13 198.359 1024.96 198.721 1025.46 198.995C1027.91 200.326 1030.6 202.536 1032.95 204.599C1034.08 204.985 1035.07 205.434 1035.86 205.793C1035.92 205.825 1035.99 205.856 1036.06 205.886C1036.29 205.993 1036.58 206.116 1036.89 206.254C1037.87 206.677 1039.14 207.231 1040.16 207.812C1040.49 207.995 1040.78 208.179 1041 208.316L1041.02 208.331C1041.25 208.473 1041.39 208.562 1041.53 208.641C1041.66 208.72 1041.74 208.753 1041.76 208.765C1042.34 208.898 1043.2 209.186 1044.01 209.886C1044.4 210.231 1044.73 210.637 1044.99 211.088C1045.5 211.308 1046.07 211.627 1046.61 212.086C1046.7 212.14 1046.86 212.241 1047.03 212.359C1047.21 212.478 1047.44 212.647 1047.69 212.87C1047.7 212.881 1047.73 212.896 1047.76 212.913C1047.77 212.922 1047.79 212.933 1047.81 212.947C1047.9 213.001 1048.05 213.092 1048.17 213.17C1048.35 213.282 1048.59 213.444 1048.85 213.65C1049.07 213.826 1049.28 214.004 1049.43 214.131L1049.44 214.133C1049.6 214.276 1049.71 214.366 1049.81 214.448C1049.88 214.504 1049.93 214.538 1049.95 214.556C1051.44 215.23 1052.72 216.444 1053.48 217.291C1053.7 217.351 1053.85 217.408 1053.89 217.425C1053.89 217.427 1053.9 217.428 1053.9 217.429C1054.03 217.477 1054.14 217.527 1054.21 217.558C1054.24 217.568 1054.26 217.577 1054.28 217.585C1054.33 217.601 1054.36 217.61 1054.37 217.616C1054.39 217.621 1054.4 217.623 1054.4 217.625C1054.41 217.626 1054.41 217.626 1054.41 217.627C1055.22 217.803 1055.83 218.111 1056.15 218.281C1056.23 218.323 1056.3 218.363 1056.35 218.39L1056.36 218.393C1056.4 218.42 1056.43 218.433 1056.45 218.446C1057.71 218.986 1058.59 219.806 1059.12 220.34C1059.36 220.589 1059.59 220.843 1059.75 221.018C1059.77 221.037 1059.78 221.055 1059.8 221.072C1059.99 221.278 1060.07 221.365 1060.12 221.417C1061.14 222.403 1062.11 223.457 1062.97 224.395C1063.17 224.618 1063.37 224.835 1063.56 225.042C1063.62 225.103 1063.67 225.167 1063.74 225.232C1064.71 226.285 1066.19 227.886 1067.15 229.7C1067.34 230.056 1067.6 230.433 1068.06 231.105L1068.07 231.119C1068.47 231.698 1069.06 232.544 1069.52 233.493C1069.62 233.678 1069.72 233.884 1069.83 234.108C1070.24 234.915 1070.77 235.946 1071.18 236.999C1071.41 237.603 1071.62 238.269 1071.75 238.713C1071.76 238.739 1071.77 238.764 1071.78 238.788C1071.8 238.824 1071.83 238.88 1071.89 238.984C1071.98 239.153 1072.15 239.471 1072.31 239.856C1072.39 240.072 1072.5 240.354 1072.58 240.691C1072.68 240.865 1072.83 241.135 1072.96 241.436C1073.12 241.808 1073.34 242.408 1073.41 243.166C1073.79 243.802 1074.14 244.582 1074.34 245.458C1074.34 245.46 1074.34 245.462 1074.34 245.464C1074.38 245.52 1074.43 245.609 1074.48 245.712C1075.53 247.681 1074.7 249.429 1074.45 249.88C1074.14 250.444 1073.78 250.803 1073.65 250.924C1073.36 251.212 1073.07 251.406 1072.98 251.472C1072.72 251.644 1072.45 251.798 1072.26 251.902C1071.86 252.128 1071.35 252.389 1070.9 252.614C1070.69 252.723 1070.49 252.821 1070.31 252.912C1070.08 253.027 1069.87 253.13 1069.69 253.225C1069.62 253.258 1069.57 253.285 1069.53 253.307C1069.05 253.624 1068.49 253.847 1067.88 253.945C1065.56 254.322 1063.37 252.72 1062.99 250.367C1062.96 250.159 1062.94 249.959 1062.94 249.769C1062.9 249.753 1062.86 249.738 1062.82 249.723C1062.52 249.609 1062.23 249.485 1061.98 249.366L1061.97 249.363C1061.91 249.333 1061.79 249.278 1061.65 249.203C1061.57 249.193 1061.48 249.182 1061.39 249.168C1061.09 249.125 1060.63 249.043 1060.1 248.858C1059.53 248.653 1058.97 248.442 1058.46 248.248L1058.41 248.231C1057.9 248.038 1057.44 247.861 1056.97 247.692C1056.73 247.606 1056.44 247.535 1055.98 247.446C1055.89 247.428 1055.78 247.407 1055.65 247.383C1055.48 247.353 1055.3 247.318 1055.1 247.279C1054.42 247.314 1053.78 247.189 1053.22 246.955C1053.15 246.928 1053.09 246.9 1053.02 246.87C1052.97 246.862 1052.92 246.854 1052.87 246.845C1052.84 246.84 1052.81 246.834 1052.77 246.829C1052.29 246.749 1051.66 246.648 1051.06 246.512C1050.74 246.44 1050.4 246.348 1050.12 246.269C1050.09 246.308 1050.06 246.346 1050.03 246.385C1049.91 246.548 1049.64 246.878 1049.23 247.202C1049.02 247.37 1048.69 247.602 1048.24 247.795C1047.79 247.991 1047.14 248.183 1046.34 248.146C1045.23 248.094 1044.35 247.672 1043.77 247.274C1043.2 246.889 1042.79 246.453 1042.53 246.141C1042.14 245.676 1041.8 245.151 1041.59 244.804C1041.2 244.733 1040.81 244.654 1040.45 244.572C1039.93 244.456 1038.89 244.118 1038.05 243.084C1037.81 242.79 1037.62 242.471 1037.47 242.138C1037.02 241.799 1036.53 241.302 1036.18 240.621C1035.61 239.94 1035.17 239.246 1034.9 238.83C1034.84 238.734 1034.79 238.652 1034.75 238.589C1033.54 236.776 1032.9 234.945 1032.4 233.551C1032.37 233.469 1032.35 233.388 1032.32 233.309C1032.14 232.818 1031.94 232.265 1031.71 231.675C1031.21 230.334 1030.63 228.797 1030.2 227.338C1029.65 226.983 1028.97 226.376 1028.53 225.381C1028.22 224.685 1027.98 223.997 1027.78 223.329C1026.32 223.263 1024.92 222.437 1024.19 221.032C1023.8 220.286 1023.66 219.573 1023.6 219.081C1023.59 219 1023.58 218.92 1023.58 218.842C1023.52 218.81 1023.47 218.777 1023.41 218.743C1022.5 218.168 1021.94 217.374 1021.68 216.98C1021.51 216.716 1021.33 216.387 1021.17 216.007C1021.14 215.941 1021.11 215.855 1021.07 215.752C1020.33 215.902 1019.6 215.856 1018.94 215.67C1017.64 215.303 1016.91 214.441 1016.71 214.2C1016.42 213.847 1016.23 213.511 1016.12 213.313C1015.9 212.902 1015.73 212.479 1015.62 212.175C1015.5 211.856 1015.39 211.508 1015.28 211.159C1015.08 211.118 1014.88 211.061 1014.66 210.981C1014.15 210.794 1013.65 210.502 1013.21 210.093C1013.11 210.02 1012.97 209.913 1012.77 209.772C1012.32 209.442 1011.67 208.978 1010.89 208.419C1009.32 207.305 1007.24 205.846 1005.17 204.407C1003.09 202.965 1001.03 201.555 999.506 200.533C998.735 200.018 998.132 199.623 997.737 199.376C997.698 199.351 997.663 199.33 997.632 199.311C996.087 198.662 995 197.121 995 195.324C995 194.105 995.54 192.638 996.917 191.717C997.982 191.006 999.02 190.994 999.369 191.001C1000.09 191.016 1000.65 191.223 1000.76 191.263C1000.76 191.264 1000.76 191.265 1000.77 191.267C1001.1 191.388 1001.37 191.533 1001.46 191.581L1001.46 191.582C1001.71 191.716 1001.98 191.883 1002.22 192.034C1002.74 192.354 1003.43 192.809 1004.22 193.335C1004.99 193.854 1005.89 194.465 1006.85 195.123ZM1019.51 210.157C1019.51 210.157 1019.51 210.158 1019.5 210.16C1019.51 210.158 1019.51 210.157 1019.51 210.157ZM1047.58 245.556L1047.6 245.567C1047.57 245.554 1047.56 245.549 1047.58 245.556ZM1054.01 217.684C1054.01 217.684 1054.01 217.685 1054.02 217.688C1054.01 217.686 1054.01 217.684 1054.01 217.684ZM1061.98 249.243C1061.98 249.243 1061.98 249.242 1061.97 249.241C1061.98 249.242 1061.98 249.243 1061.98 249.243ZM1069.41 253.371C1069.41 253.371 1069.41 253.37 1069.41 253.37C1069.4 253.376 1069.4 253.377 1069.41 253.371ZM1071.71 238.672C1071.71 238.661 1071.71 238.664 1071.71 238.677C1071.71 238.675 1071.71 238.674 1071.71 238.672ZM1054.31 217.604C1054.31 217.604 1054.31 217.601 1054.29 217.594C1054.3 217.6 1054.31 217.604 1054.31 217.604ZM1013.13 195.182C1013.12 195.175 1013.12 195.172 1013.12 195.172C1013.12 195.172 1013.12 195.175 1013.13 195.182Z" fill="black"/>
<path fill-rule="evenodd" clip-rule="evenodd" d="M515.756 310.205C515.736 310.202 515.718 310.199 515.702 310.196C515.694 310.195 515.687 310.193 515.681 310.192C515.309 310.126 514.87 310.037 514.445 309.935C514.07 309.845 513.514 309.701 513.008 309.503C513.005 309.501 513 309.499 512.996 309.498C512.826 309.431 512.19 309.182 511.584 308.678C511.322 308.459 510.417 307.675 510.105 306.269C509.687 304.388 510.591 302.895 511.458 302.124C512.674 301.043 514.061 301.008 514.317 301.002C514.323 301.002 514.328 301.002 514.333 301.002C514.791 300.989 515.17 301.046 515.369 301.08C515.794 301.152 516.201 301.269 516.499 301.361C516.895 301.483 517.346 301.64 517.821 301.817C519.5 301.949 520.926 302.484 521.794 302.81C521.849 302.831 521.903 302.851 521.954 302.87C523.139 303.312 523.502 303.401 523.803 303.401C525.356 303.401 526.558 303.952 527.031 304.169C527.053 304.179 527.073 304.188 527.092 304.197C527.11 304.205 527.128 304.213 527.145 304.221C528.335 304.286 529.339 304.573 529.94 304.745C529.992 304.76 530.041 304.774 530.086 304.787C530.083 304.786 530.082 304.785 530.082 304.785C530.082 304.785 530.098 304.79 530.145 304.802L530.345 304.855C530.502 304.897 530.711 304.954 530.925 305.016C531.125 305.073 531.398 305.155 531.661 305.249C531.784 305.293 531.992 305.371 532.22 305.479C532.333 305.532 532.522 305.625 532.737 305.761C532.827 305.818 533.032 305.949 533.277 306.16C533.39 306.197 533.55 306.243 533.763 306.294C534.338 306.432 534.89 306.517 535.454 306.605C535.647 306.635 535.841 306.665 536.038 306.697C537.785 306.985 539.627 307.933 540.458 308.402C540.661 308.516 540.88 308.606 541.379 308.811C541.498 308.859 541.634 308.915 541.789 308.979C542.415 309.238 543.479 309.683 544.458 310.408C544.5 310.439 544.54 310.469 544.578 310.498C544.812 310.671 544.99 310.804 545.177 310.933C545.383 311.077 545.532 311.169 545.645 311.23C545.676 311.247 545.702 311.26 545.722 311.27C548.032 311.363 549.875 313.241 549.875 315.544C549.875 317.907 547.936 319.822 545.543 319.822C543.861 319.822 542.389 319.242 541.273 318.621C541.639 318.937 542.02 319.262 542.418 319.599C542.48 319.652 542.543 319.705 542.606 319.759C543.678 320.667 544.87 321.678 546 322.763C549.397 326.023 553.156 330.094 555.542 334.809C556.612 336.922 555.744 339.492 553.603 340.548C551.463 341.604 548.86 340.747 547.791 338.633C546.072 335.237 543.168 331.977 539.96 328.898C539.028 328.003 538.021 327.15 536.897 326.196C536.855 326.161 536.813 326.125 536.771 326.089C535.636 325.127 534.378 324.056 533.202 322.893C533.048 322.742 532.9 322.595 532.757 322.453C531.951 321.652 531.3 321.006 530.698 320.548C530.293 320.24 529.95 319.923 529.694 319.675C529.534 319.521 529.337 319.323 529.192 319.177C529.134 319.119 529.084 319.069 529.048 319.033C528.825 318.811 528.717 318.72 528.689 318.695C526.976 317.762 525.483 316.838 523.805 315.243C522.684 314.179 521.495 313.45 519.905 312.476C519.319 312.117 518.679 311.725 517.967 311.27C517.897 311.225 517.779 311.147 517.642 311.044C517.64 311.042 517.639 311.041 517.636 311.039C517.608 311.018 517.547 310.972 517.465 310.903C516.853 310.647 516.277 310.412 515.756 310.205ZM545.785 311.297C545.785 311.297 545.784 311.297 545.782 311.296L545.785 311.297ZM533.093 306.092C533.093 306.092 533.094 306.093 533.097 306.094C533.094 306.093 533.093 306.092 533.093 306.092Z" fill="black"/>
<path d="M295.058 404.137C280.982 406.302 110.085 345.499 26.3959 314.827V305.355C26.3959 299.266 26.3958 297.236 14.8914 305.355C3.9452 313.08 2.71026 340.538 8.12417 354.746C11.2094 362.843 197.609 427.817 257.161 443.379C316.714 458.941 326.154 449.96 335.662 443.379C344.46 437.29 346.039 406.843 344.46 390.605C334.76 394.214 309.134 401.972 295.058 404.137Z" fill="#FFE640"/>
<path fill-rule="evenodd" clip-rule="evenodd" d="M21.3934 307.018C20.394 307.663 19.2081 308.469 17.8018 309.461C16.1402 310.634 14.4926 312.836 13.1229 316.222C11.7736 319.557 10.8455 323.674 10.3798 328.146C9.48349 336.753 10.376 345.862 12.5017 352.059C12.7119 352.203 12.9947 352.384 13.3639 352.604C14.7009 353.402 16.7155 354.44 19.4147 355.706C24.7844 358.222 32.4398 361.441 41.8279 365.165C60.5803 372.603 85.9603 381.945 113.144 391.533C167.561 410.729 228.87 430.797 258.422 438.519C288.028 446.254 304.572 447.713 314.654 446.684C319.601 446.178 322.962 445.075 325.559 443.82C327.82 442.727 329.561 441.507 331.568 440.1C331.963 439.823 332.368 439.539 332.789 439.248C333.616 438.675 334.93 436.935 336.208 433.212C337.414 429.697 338.331 425.186 338.956 420.171C339.894 412.654 340.127 404.421 339.866 397.5C327.789 401.497 307.868 407.232 295.809 409.087C294.057 409.356 291.849 409.102 289.82 408.77C287.591 408.407 284.851 407.816 281.699 407.043C275.384 405.496 267.126 403.148 257.44 400.201C238.052 394.302 212.695 385.926 185.208 376.54C130.221 357.763 66.5438 334.884 24.6828 319.543L21.3934 318.338V307.018ZM25.1005 304.98C25.1003 304.98 25.0907 304.983 25.0723 304.987C25.0915 304.981 25.1007 304.979 25.1005 304.98ZM21.3082 302.626C21.3003 302.594 21.3011 302.589 21.3067 302.617C21.3072 302.62 21.3077 302.623 21.3082 302.626ZM12.0042 351.677C12.0076 351.677 12.0408 351.704 12.0937 351.759C12.0274 351.704 12.0009 351.677 12.0042 351.677ZM31.4279 305.108C31.4278 305.196 31.4277 305.282 31.4277 305.367V311.336C73.2436 326.637 134.981 348.794 188.453 367.054C215.906 376.428 241.138 384.761 260.363 390.611C269.984 393.538 278.039 395.824 284.089 397.307C287.12 398.049 289.576 398.572 291.438 398.876C292.369 399.028 293.093 399.116 293.63 399.154C294.112 399.188 294.31 399.172 294.31 399.174C294.31 399.174 294.301 399.176 294.283 399.178C307.889 397.086 333.158 389.452 342.692 385.905L348.805 383.631L349.436 390.118C350.26 398.594 350.258 410.634 348.914 421.411C348.242 426.796 347.214 432.052 345.699 436.464C344.256 440.669 342.074 445.017 338.503 447.489C338.172 447.717 337.828 447.96 337.47 448.212C335.454 449.63 332.985 451.367 329.93 452.844C326.222 454.637 321.719 456.04 315.674 456.657C303.773 457.872 285.824 456.041 255.883 448.218C225.889 440.38 164.235 420.187 109.803 400.987C82.5631 391.378 57.0478 381.988 38.1253 374.482C28.676 370.734 20.799 367.428 15.153 364.782C12.3443 363.465 9.98017 362.262 8.21891 361.212C7.34714 360.691 6.50459 360.139 5.79563 359.564C5.29384 359.157 4.06121 358.132 3.45187 356.533C0.39836 348.52 -0.659919 337.281 0.399341 327.109C0.933798 321.976 2.02828 316.894 3.81968 312.465C5.59065 308.087 8.20181 303.962 12.0128 301.272C14.9233 299.219 17.2952 297.669 19.209 296.656C20.1681 296.149 21.157 295.697 22.1441 295.398C23.092 295.11 24.4018 294.849 25.8451 295.103C27.4909 295.394 28.8851 296.282 29.8395 297.573C30.6707 298.697 30.9982 299.894 31.155 300.696C31.4311 302.109 31.4293 303.818 31.4279 305.108Z" fill="black"/>
<path d="M1120.69 194.761C1111.47 198.647 1128.28 231.343 1135.97 248C1181.4 243.836 1270.36 221.488 1276.32 215.381C1283.78 207.746 1264.12 166.799 1261.41 161.246C1259.24 156.804 1248.3 155.231 1243.1 155C1244.45 158.239 1246.9 165.133 1245.81 166.799C1244.45 168.881 1132.22 189.903 1120.69 194.761Z" fill="#FFE640"/>
<path fill-rule="evenodd" clip-rule="evenodd" d="M1235.41 150L1243.31 150.353C1246.17 150.481 1250.58 150.971 1254.68 152.07C1256.72 152.619 1258.88 153.369 1260.77 154.415C1262.6 155.42 1264.72 156.992 1265.91 159.44C1267.28 162.265 1272.97 174.122 1277.38 186.303C1279.58 192.366 1281.54 198.729 1282.45 204.192C1282.91 206.914 1283.14 209.638 1282.91 212.1C1282.7 214.478 1281.99 217.298 1279.9 219.44C1278.91 220.462 1277.56 221.219 1276.52 221.749C1275.32 222.353 1273.88 222.976 1272.25 223.611C1268.99 224.884 1264.72 226.321 1259.72 227.853C1249.71 230.922 1236.51 234.457 1222.12 237.92C1193.39 244.831 1159.52 251.551 1136.45 253.674L1132.9 254L1131.42 250.771C1130.6 248.981 1129.65 246.97 1128.64 244.806C1125.02 237.122 1120.5 227.501 1117.3 218.908C1115.27 213.431 1113.6 207.954 1113.13 203.412C1112.9 201.155 1112.92 198.72 1113.61 196.497C1114.36 194.11 1115.96 191.828 1118.75 190.646C1120.62 189.857 1124.02 188.907 1128.12 187.88C1132.36 186.815 1137.74 185.572 1143.84 184.22C1156.04 181.515 1171.22 178.349 1186.05 175.278C1188.42 174.787 1190.78 174.298 1193.12 173.814C1205.42 171.267 1217.11 168.849 1226.24 166.881C1231.67 165.709 1236.16 164.706 1239.31 163.937C1239.78 163.822 1240.22 163.713 1240.62 163.611C1240.58 163.477 1240.55 163.338 1240.51 163.194C1239.94 161.114 1239.07 158.78 1238.44 157.283L1235.41 150ZM1243.47 162.803C1243.47 162.802 1243.47 162.802 1243.47 162.801C1243.48 162.8 1243.48 162.799 1243.48 162.799C1243.48 162.799 1243.47 162.8 1243.47 162.803ZM1250.41 161.35C1250.68 162.412 1250.91 163.528 1251.02 164.583C1251.09 165.244 1251.13 166.023 1251.05 166.825C1250.98 167.561 1250.77 168.757 1250.02 169.921C1249.3 171.028 1248.31 171.569 1248.13 171.668C1248.13 171.672 1248.12 171.675 1248.12 171.678C1247.77 171.87 1247.45 172.009 1247.23 172.098C1246.77 172.282 1246.25 172.451 1245.75 172.602C1244.72 172.912 1243.33 173.273 1241.7 173.672C1238.41 174.475 1233.81 175.501 1228.36 176.677C1219.19 178.655 1207.45 181.083 1195.15 183.63C1192.81 184.113 1190.45 184.601 1188.09 185.09C1173.26 188.163 1158.14 191.316 1146.02 194.003C1139.96 195.347 1134.68 196.568 1130.57 197.598C1126.87 198.528 1124.4 199.236 1123.16 199.687C1123.06 200.148 1122.99 201.005 1123.13 202.39C1123.47 205.62 1124.76 210.121 1126.73 215.423C1129.76 223.579 1134.02 232.641 1137.62 240.292C1138.11 241.337 1138.59 242.356 1139.05 243.343C1161.27 240.963 1192.64 234.703 1219.76 228.177C1234.02 224.745 1247.01 221.263 1256.77 218.273C1261.65 216.775 1265.66 215.422 1268.58 214.28C1270.05 213.707 1271.17 213.216 1271.96 212.815C1272.31 212.639 1272.53 212.51 1272.66 212.43C1272.73 212.257 1272.84 211.882 1272.9 211.19C1273.02 209.917 1272.92 208.13 1272.54 205.836C1271.77 201.266 1270.05 195.571 1267.93 189.708C1263.73 178.13 1258.29 166.747 1256.9 163.883C1256.86 163.848 1256.63 163.583 1255.91 163.185C1254.98 162.674 1253.67 162.18 1252.06 161.747C1251.52 161.602 1250.97 161.47 1250.41 161.35Z" fill="black"/>
<path d="M568 371C568 410.212 535.988 442 496.5 442C457.012 442 425 410.212 425 371C425 331.788 457.012 300 496.5 300C535.988 300 568 331.788 568 371Z" fill="#FFE640"/>
<path fill-rule="evenodd" clip-rule="evenodd" d="M496.5 414.8C521.221 414.8 540.85 394.964 540.85 371C540.85 347.036 521.221 327.2 496.5 327.2C471.779 327.2 452.15 347.036 452.15 371C452.15 394.964 471.779 414.8 496.5 414.8ZM496.5 442C535.988 442 568 410.212 568 371C568 331.788 535.988 300 496.5 300C457.012 300 425 331.788 425 371C425 410.212 457.012 442 496.5 442Z" fill="black"/>
<path d="M227 337.5C227 346.06 220.06 353 211.5 353C202.94 353 196 346.06 196 337.5C196 328.94 202.94 322 211.5 322C220.06 322 227 328.94 227 337.5Z" fill="#FFE640"/>
<path fill-rule="evenodd" clip-rule="evenodd" d="M211.5 348.72C217.692 348.72 222.717 343.699 222.717 337.5C222.717 331.301 217.692 326.28 211.5 326.28C205.308 326.28 200.283 331.301 200.283 337.5C200.283 343.699 205.308 348.72 211.5 348.72ZM211.5 353C220.06 353 227 346.06 227 337.5C227 328.94 220.06 322 211.5 322C202.94 322 196 328.94 196 337.5C196 346.06 202.94 353 211.5 353Z" fill="black"/>
<path d="M98 289.5C98 298.06 91.0604 305 82.5 305C73.9396 305 67 298.06 67 289.5C67 280.94 73.9396 274 82.5 274C91.0604 274 98 280.94 98 289.5Z" fill="#FFE640"/>
<path fill-rule="evenodd" clip-rule="evenodd" d="M82.5 300.72C88.6925 300.72 93.7171 295.699 93.7171 289.5C93.7171 283.301 88.6925 278.28 82.5 278.28C76.3075 278.28 71.2829 283.301 71.2829 289.5C71.2829 295.699 76.3075 300.72 82.5 300.72ZM82.5 305C91.0604 305 98 298.06 98 289.5C98 280.94 91.0604 274 82.5 274C73.9396 274 67 280.94 67 289.5C67 298.06 73.9396 305 82.5 305Z" fill="black"/>
<path d="M1064 262.5C1064 301.988 1031.76 334 992 334C952.235 334 920 301.988 920 262.5C920 223.012 952.235 191 992 191C1031.76 191 1064 223.012 1064 262.5Z" fill="#FFE640"/>
<path fill-rule="evenodd" clip-rule="evenodd" d="M992 306.609C1016.89 306.609 1036.66 286.633 1036.66 262.5C1036.66 238.367 1016.89 218.391 992 218.391C967.106 218.391 947.34 238.367 947.34 262.5C947.34 286.633 967.106 306.609 992 306.609ZM992 334C1031.76 334 1064 301.988 1064 262.5C1064 223.012 1031.76 191 992 191C952.235 191 920 223.012 920 262.5C920 301.988 952.235 334 992 334Z" fill="black"/>
</svg>
