<svg width="25" height="55" viewBox="0 0 25 55" fill="none" xmlns="http://www.w3.org/2000/svg">
<path d="M8.66873 30.4669C6.19195 29.1699 4.30857 27.6394 3.01858 25.8755C1.78019 24.0597 1.16099 22.1401 1.16099 20.1167C1.16099 17.1595 2.11558 14.7471 4.02477 12.8794C5.93395 10.9598 8.77193 10 12.5387 10C13.8287 10 15.0413 10.1816 16.1765 10.5447C17.3633 10.9079 18.4211 11.3748 19.3498 11.9455C20.2786 12.4643 21.0526 13.061 21.6718 13.7354C22.3426 14.358 22.8328 14.9805 23.1424 15.6031L22.0588 20.8171C20.7172 19.4163 19.2208 18.3009 17.5697 17.4708C15.9701 16.6407 14.2157 16.2257 12.3065 16.2257C10.9649 16.2257 9.72652 16.511 8.59133 17.0817C7.45614 17.6524 6.88854 18.6381 6.88854 20.0389C6.88854 21.2322 7.37874 22.192 8.35913 22.9183C9.33952 23.6446 10.4747 24.3709 11.7647 25.0973L16.4087 27.6654C19.2982 29.2218 21.4396 30.856 22.8328 32.5681C24.2776 34.2283 25 36.3294 25 38.8716C25 40.5318 24.6904 42.0363 24.0712 43.3852C23.452 44.7341 22.5748 45.9014 21.4396 46.8872C20.356 47.8729 19.0144 48.6252 17.4149 49.144C15.8153 49.7147 14.0093 50 11.9969 50C10.6037 50 9.26213 49.8184 7.97214 49.4553C6.73375 49.0921 5.57276 48.6252 4.48916 48.0545C3.45717 47.4319 2.55418 46.7315 1.78019 45.9533C1.00619 45.1751 0.412797 44.371 0 43.5409L1.23839 38.249C2.78638 40.0649 4.51496 41.3878 6.42415 42.2179C8.33333 43.048 10.3715 43.463 12.5387 43.463C13.3127 43.463 14.0867 43.4112 14.8607 43.3074C15.6863 43.1518 16.4087 42.8923 17.0279 42.5292C17.6987 42.166 18.2405 41.725 18.6533 41.2062C19.066 40.6355 19.2724 39.9092 19.2724 39.0272C19.2724 37.7821 18.6791 36.6926 17.4923 35.7588C16.3571 34.773 14.8865 33.8132 13.0805 32.8794L8.66873 30.4669Z" fill="black"/>
<rect x="14" width="3" height="55" fill="black"/>
<rect x="8" width="3" height="55" fill="black"/>
</svg>
