<svg width="929" height="684" viewBox="0 0 929 684" fill="none" xmlns="http://www.w3.org/2000/svg">
<path d="M657 249.855C642.993 209.511 625.77 127.958 618.693 124.5C609.847 120.177 690 112.5 720.427 91C742.164 75.6404 766.133 51.5484 777.928 37.5C777.191 55.871 762.005 97.7 777.928 124.5C758.393 168.446 747.615 245.532 748.5 249.855C787.424 261.093 878.925 538.387 925 675.629C908.044 671.306 871.921 665.254 863.075 675.629C852.017 688.596 795.621 675.629 762.447 662.661C729.273 649.693 691.676 672.387 669.56 675.629C651.867 678.222 571.481 681.032 556 675.629C558.58 666.983 579.115 626.314 580 607.295C581.106 583.521 618.693 361.161 625.328 324.419C630.635 295.026 644.467 262.462 657 249.855Z" fill="#FFC6DE"/>
<path d="M657 249.855C642.993 209.511 625.77 127.958 618.693 124.5C609.847 120.177 690 112.5 720.427 91C742.164 75.6404 766.133 51.5484 777.928 37.5C777.191 55.871 762.005 97.6999 777.928 124.5C758.393 168.446 747.615 245.532 748.5 249.855M657 249.855C680.222 251.656 749.385 254.177 748.5 249.855M657 249.855C644.467 262.462 630.635 295.026 625.328 324.419C618.693 361.161 581.106 583.521 580 607.295C579.115 626.314 558.58 666.983 556 675.629C571.481 681.032 651.867 678.222 669.56 675.629C691.676 672.387 729.273 649.693 762.447 662.661C795.621 675.629 852.017 688.596 863.075 675.629C871.921 665.254 908.044 671.306 925 675.629C878.925 538.387 787.424 261.093 748.5 249.855" stroke="black" stroke-width="5"/>
<path d="M272 250.19C285.192 212.224 295.351 60.6253 302.401 40.2221C304.71 38.1421 305.33 37.1911 303.672 38.0004C303.26 38.2015 302.837 38.9613 302.401 40.2221C292.387 49.243 250.598 79.5 225 79.5C195.033 79.5 162.867 52.0379 151.072 38.0004C151.809 56.3571 154.928 90.5676 160 129.5C167.695 188.568 181.385 245.871 180.5 250.19C141.576 261.42 50.0751 538.498 4 675.633C20.9556 671.314 57.0785 665.267 65.9249 675.633C76.9829 688.591 133.379 675.633 166.553 662.675C199.727 649.718 237.324 672.394 259.44 675.633C277.133 678.225 357.519 681.032 373 675.633C370.42 666.995 349.885 626.357 349 607.353C347.894 583.597 310.307 361.41 303.672 324.697C298.365 295.326 284.533 262.788 272 250.19Z" fill="#C1F4FF"/>
<path d="M272 250.19C286.007 209.877 296.595 41.4558 303.672 38.0004C312.519 33.6812 256.5 79.5 225 79.5C195.033 79.5 162.867 52.0379 151.072 38.0004C151.809 56.3571 154.928 90.5676 160 129.5C167.695 188.568 181.385 245.871 180.5 250.19M272 250.19C248.778 251.99 179.615 254.509 180.5 250.19M272 250.19C284.533 262.788 298.365 295.326 303.672 324.697C310.307 361.41 347.894 583.597 349 607.353C349.885 626.357 370.42 666.995 373 675.633C357.519 681.032 277.133 678.225 259.44 675.633C237.324 672.394 199.727 649.718 166.553 662.675C133.379 675.633 76.9829 688.591 65.9249 675.633C57.0785 665.267 20.9556 671.314 4 675.633C50.0751 538.498 141.576 261.42 180.5 250.19" stroke="black" stroke-width="5"/>
<path d="M386.27 10.2111C396.034 26.1826 430.648 57.4157 473.251 54.5763C515.854 51.737 538.635 19.6757 546.919 4L609.048 23.5207C601.652 30.9149 584.551 51.0271 575.321 72.3224C566.09 93.6177 532.422 201.869 516.742 253.332C558.161 353.894 641 563.179 641 595.832C607.273 613.282 520.469 646.586 443.074 640.197C365.679 633.808 295.443 616.24 270 608.254C308.461 489.947 389.466 253.332 405.797 253.332C389.821 194.179 349.88 48.3652 325.029 31.5064L386.27 10.2111Z" fill="#FF6C9C"/>
<path d="M516.742 253.332C532.422 201.869 566.09 93.6177 575.321 72.3224C584.551 51.0271 601.652 30.9149 609.048 23.5207L546.919 4C538.635 19.6757 515.854 51.737 473.251 54.5763C430.648 57.4157 396.033 26.1826 386.27 10.2111L325.029 31.5064C349.88 48.3652 389.821 194.179 405.797 253.332M516.742 253.332C500.47 256.882 473.074 259.544 458.163 259.544C443.252 259.544 414.081 256.882 405.797 253.332M516.742 253.332C558.161 353.894 641 563.179 641 595.832C607.273 613.282 520.469 646.586 443.074 640.197C365.679 633.808 295.443 616.24 270 608.254C308.461 489.947 389.466 253.332 405.797 253.332" stroke="black" stroke-width="5"/>
</svg>
