<svg width="363" height="301" viewBox="0 0 363 301" fill="none" xmlns="http://www.w3.org/2000/svg">
<path d="M23.0713 197.074L32.0651 65.0292L88.4805 99.7779L23.0713 197.074Z" fill="#FF4C1F" stroke="black" stroke-width="3"/>
<path d="M87.254 103.866L113.009 241.227L63.952 225.691L23.7033 205.168L87.254 103.866Z" fill="#FFE640" stroke="black" stroke-width="3"/>
<path d="M187.003 113.677L232.789 243.676L206.626 248.581L175.147 248.581L142.443 246.946L111.782 241.631L187.003 113.677Z" fill="#FFE640" stroke="black" stroke-width="3"/>
<path d="M281.032 97.5646L332.539 208.112L316.595 220.376L290.84 229.779L260.18 238.772L232.381 243.269L281.032 97.5646Z" fill="#FFE640" stroke="black" stroke-width="3"/>
<path d="M113.009 233.867L85.6188 94.4634L190.273 107.545L113.009 233.867Z" fill="#FF4C1F" stroke="black" stroke-width="3"/>
<path d="M233.198 238.772L184.141 104.251L280.211 96.507L233.198 238.772Z" fill="#FF4C1F" stroke="black" stroke-width="3"/>
<path d="M333.765 205.659L278.576 94.4634L328.45 67.8909L333.765 205.659Z" fill="#FF4C1F" stroke="black" stroke-width="3"/>
<path d="M334.582 56.4447C334.582 87.6021 266.129 112.86 181.688 112.86C97.2475 112.86 28.7946 87.6021 28.7946 56.4447C28.7946 25.2873 97.2475 0.0292969 181.688 0.0292969C266.129 0.0292969 334.582 25.2873 334.582 56.4447Z" fill="white"/>
<path fill-rule="evenodd" clip-rule="evenodd" d="M318.101 73.2816C325.007 67.2566 327.787 61.5473 327.787 56.4447C327.787 51.3421 325.007 45.6329 318.101 39.6078C311.209 33.596 300.845 27.8727 287.449 22.93C260.711 13.0642 223.321 6.82633 181.688 6.82633C140.056 6.82633 102.666 13.0642 75.9279 22.93C62.5325 27.8727 52.1675 33.596 45.2762 39.6078C38.3697 45.6329 35.5898 51.3421 35.5898 56.4447C35.5898 61.5473 38.3697 67.2566 45.2762 73.2816C52.1675 79.2935 62.5325 85.0167 75.9279 89.9594C102.666 99.8252 140.056 106.063 181.688 106.063C223.321 106.063 260.711 99.8252 287.449 89.9594C300.845 85.0167 311.209 79.2935 318.101 73.2816ZM181.688 112.86C266.129 112.86 334.582 87.6021 334.582 56.4447C334.582 25.2873 266.129 0.0292969 181.688 0.0292969C97.2475 0.0292969 28.7946 25.2873 28.7946 56.4447C28.7946 87.6021 97.2475 112.86 181.688 112.86Z" fill="black"/>
<path d="M305.148 57.2623C305.148 76.6792 249.507 92.4198 180.871 92.4198C112.234 92.4198 56.5934 76.6792 56.5934 57.2623C56.5934 37.8454 112.234 22.1049 180.871 22.1049C249.507 22.1049 305.148 37.8454 305.148 57.2623Z" fill="white"/>
<path fill-rule="evenodd" clip-rule="evenodd" d="M292.352 66.4575C298.168 62.5677 299.715 59.3576 299.715 57.2623C299.715 55.167 298.168 51.957 292.352 48.0672C286.732 44.3082 278.242 40.711 267.263 37.6051C245.38 31.4145 214.834 27.5137 180.871 27.5137C146.908 27.5137 116.362 31.4145 94.4784 37.6051C83.4995 40.711 75.0095 44.3082 69.3894 48.0672C63.5737 51.957 62.0263 55.167 62.0263 57.2623C62.0263 59.3576 63.5737 62.5677 69.3894 66.4575C75.0095 70.2164 83.4995 73.8137 94.4784 76.9195C116.362 83.1102 146.908 87.0109 180.871 87.0109C214.834 87.0109 245.38 83.1102 267.263 76.9195C278.242 73.8137 286.732 70.2164 292.352 66.4575ZM180.871 92.4198C249.507 92.4198 305.148 76.6792 305.148 57.2623C305.148 37.8454 249.507 22.1049 180.871 22.1049C112.234 22.1049 56.5934 37.8454 56.5934 57.2623C56.5934 76.6792 112.234 92.4198 180.871 92.4198Z" fill="black"/>
<path fill-rule="evenodd" clip-rule="evenodd" d="M29.0239 57.2623L35.7859 57.7969L24.4022 201.739C34.4291 208.973 55.3573 219.676 82.2116 228.753C110.372 238.272 144.724 245.89 179.328 245.89C251.5 245.89 311.942 219.237 334.166 206.214L327.474 57.6822L334.25 57.377L341.123 209.939L339.408 210.982C317.932 224.053 254.976 252.672 179.328 252.672C143.788 252.672 108.684 244.86 80.0391 235.178C51.4658 225.519 28.993 213.887 18.8014 206.023L17.3479 204.901L29.0239 57.2623Z" fill="black"/>
<path fill-rule="evenodd" clip-rule="evenodd" d="M278.576 94.4638L338.671 208.482L332.633 211.584L279.906 109.653L232.569 247.767L185.484 124.242L111.881 243.528L85.9914 113.839L24.653 206.481L18.9832 202.753L89.4276 96.3574L115.164 225.282L186.93 108.973L232.229 227.813L278.576 94.4638Z" fill="black"/>
</svg>
