<svg width="1361" height="384" viewBox="0 0 1361 384" fill="none" xmlns="http://www.w3.org/2000/svg">
<path d="M18 216.031C9 221.268 4 243.309 3 257.63L4.00002 381H1358V159.526C1350.78 159.526 1321.09 137.701 1314.59 128.351C1306.47 116.663 1307.02 106.905 1306.12 60.1546C1305.4 22.754 1290.24 -1.54639 1248.42 4.94845C1265.89 21.1856 1293.94 73.1443 1270.12 114.78C1253.93 143.074 1247.68 162.83 1264.38 212.178C1281.08 261.526 1230.81 271.98 1222.4 243.994C1215.18 219.97 1228.72 190.101 1215.18 162.83C1207.18 146.734 1175.73 140.691 1166.43 142.701C1173.23 147.186 1192.7 154.648 1194.86 176.465C1197.57 203.737 1175.9 207.633 1171.39 224.515C1166.88 241.397 1179.97 275.161 1171.39 290.096C1162.2 306.091 1143.4 295.29 1140.24 275.161C1136.96 254.251 1149.72 219.97 1148.82 197.244C1147.92 174.517 1122.64 186.854 1116.77 170.622C1110.9 154.389 1134.38 134.909 1131.22 114.78C1128.06 94.6515 1112.26 93.3529 1109.1 77.12C1106.57 64.1337 1115.66 46.5155 1116.77 44.0049C1105.49 51.1474 1097.81 62.1857 1097.81 77.12C1097.81 92.0543 1106.39 104.391 1091.49 134.909C1076.6 165.427 1088.33 197.243 1097.81 219.97C1107.29 242.696 1103.9 296.018 1075.24 285.551C1046.81 275.161 1058.54 219.97 1065.77 197.244C1072.99 174.517 1053.13 151.142 1046.81 134.909C1041.75 121.923 1050.17 110.814 1053.13 104.391C1025.14 121.923 1032.36 156.986 1035.52 170.622C1038.68 184.257 1020.63 197.244 1016.56 224.515C1012.5 251.786 1036.04 283.775 1013.4 312.822C996.702 334.249 974.133 302.433 983.16 275.161C992.188 247.89 990.834 243.994 987.674 219.97C985.147 200.75 996.779 198.495 1002.12 197.244C988.577 186.205 969.619 208.282 969.619 229.709C969.619 251.137 960.778 292.057 940.278 267.37C920.868 243.994 954.723 204.33 969.619 166.67C984.515 129.01 942.535 106.933 938.021 89.4015C934.41 75.3763 945.054 43.268 948.391 34.1753C924.198 40.6701 910.015 58.2062 905.07 77.12C898.368 102.748 935.449 132.073 932.153 151.142C928.786 170.622 920.868 162.83 905.07 186.854C889.271 210.879 906.126 254.806 881.597 253.085C863.09 251.786 864.896 223.865 870.764 197.244C876.632 170.622 854.514 150.493 849.097 134.909C844.764 122.442 857.824 109.369 864.896 104.391C855.371 99.1237 836.909 108.287 833.298 123.871C828.784 143.35 850.451 162.83 833.298 186.854C816.145 210.879 797.187 183.608 797.187 162.83C797.187 145.687 811.631 116.728 813.888 93.3529C816.145 69.9776 802.603 62.1857 797.187 56.3419C792.853 51.6668 801.701 31.0186 806.666 21.2788C798.992 21.9281 774.166 50.498 781.84 77.12C789.513 103.742 793.124 123.871 778.228 134.909C763.332 145.948 766.492 208.282 770.555 248.539C774.617 288.797 739.86 288.797 723.61 257.63C710.61 232.696 729.027 194.43 739.86 178.413C715.936 183.608 715.485 208.282 710.971 229.709C706.457 251.137 687.047 235.96 687.047 218.671C687.047 190.75 697.429 197.244 715.485 143.35C729.929 100.236 683.512 65.3505 663.575 71.2762C669.894 74.9556 691.561 94.0097 691.561 112.183C691.561 134.909 674.86 152.441 658.158 168.024C641.457 183.608 640.554 208.282 648.227 243.994C655.901 279.707 641.92 332.678 627.012 312.822C614.824 296.589 621.879 272.036 614.824 249.838C607.602 227.112 582.541 226.424 609.859 178.413C630.954 141.34 592.995 114.062 574.199 123.871C580.064 125.753 588.403 126.071 591.803 143.35C595.497 162.124 566.525 173.219 564.268 208.282C562.012 243.345 566.525 268.668 545.761 281.005C524.997 293.342 506.49 239.449 514.164 197.244C521.838 155.038 550.275 129.715 553.886 104.391C557.498 79.068 538.088 62.1857 525.449 44.0049C515.338 29.4602 529.662 11.972 538.088 5.04592C520.032 -5.99245 485.275 29.7199 490.24 62.1857C495.206 94.6516 502.428 150.493 477.601 162.83C452.775 175.167 450.969 134.909 459.094 93.3529C465.594 60.1079 436.153 43.268 420.275 44.0049C428.099 51.3638 440.677 71.5359 428.4 93.3529C413.052 120.624 410.344 173.219 424.789 197.244C439.233 221.268 443.296 271.266 410.344 268.668C387.393 266.859 392.354 205.639 389.851 183.608C387.701 164.682 376.92 139.392 360.239 143.35C374 154.33 382.76 186.155 364.753 197.244C346.469 208.503 350.76 242.046 345.343 275.161C339.927 308.277 297.045 284.252 307.427 248.539C314.586 223.913 315.1 198.542 300.656 183.608C286.211 168.674 285.308 162.83 292.982 134.909C300.656 106.989 284.857 93.3529 278.989 77.12C274.294 64.1337 286.362 49.6323 292.982 44.0049C281.095 53.3118 258.496 76.211 263.19 93.3529C269.058 114.78 272.218 119.975 257.322 143.35C242.426 166.726 261.385 190.75 272.218 221.268C283.051 251.786 258.225 280.356 246.037 281.005C233.849 281.655 230.238 248.539 239.266 221.268C248.294 193.997 228.884 160.232 225.273 146.597C222.384 135.688 229.889 113.41 233.5 104.969C204.96 118.608 206.164 147.679 204.96 169.323C201.349 179.712 179.682 183.608 185.099 229.06C190.516 274.512 182.391 318.016 166.141 319.964C149.891 321.912 134.543 296.589 155.759 275.161C176.974 253.734 172.46 218.671 166.141 208.282C162.191 201.789 158.918 199.191 157.564 186.854C156.211 174.529 166.141 167.32 170.203 162.83C142.5 169.323 134.543 227.761 134.543 248.539C134.543 269.318 112.425 285.551 97.0777 257.63C81.7303 229.709 112.425 217.372 120.55 191.4C128.675 165.427 100.237 151.791 100.237 112.183C100.237 93.3529 120.55 66.0816 134.543 50.4981C77.2164 53.7446 68.503 88.6698 70.5001 120.557C72.367 150.366 42.5506 139.323 44 162.83C47 211.485 27.0001 210.794 18 216.031Z" fill="#FF4C1F" stroke="black" stroke-width="5"/>
</svg>
