<svg width="364" height="484" viewBox="0 0 364 484" fill="none" xmlns="http://www.w3.org/2000/svg">
<path fill-rule="evenodd" clip-rule="evenodd" d="M126.882 312.389C115.975 291.268 103.083 271.979 95.2449 261.998L83.9976 271.866C91.2076 281.047 103.575 299.504 114.051 319.791C119.279 329.915 123.959 340.346 127.288 350.188C130.648 360.119 132.473 368.988 132.377 376.128C132.157 392.524 129.844 412.449 127.513 431.983C127.422 432.743 127.331 433.503 127.24 434.263C125.04 452.682 122.875 470.803 122.875 483.998H137.492C137.492 471.802 139.556 454.515 141.831 435.459C141.892 434.946 141.953 434.432 142.015 433.916C144.321 414.59 146.758 393.767 146.993 376.347C147.124 366.58 144.685 355.726 141.052 344.986C137.389 334.158 132.345 322.969 126.882 312.389Z" fill="black"/>
<path fill-rule="evenodd" clip-rule="evenodd" d="M123.514 314.652C112.817 293.79 100.177 274.756 92.5681 264.998L86.9976 269.92C94.2951 279.278 106.675 297.898 117.159 318.343C122.396 328.557 127.122 339.151 130.503 349.216C133.898 359.325 135.858 368.666 135.754 376.445C135.533 393.056 133.21 413.157 130.908 432.592C130.824 433.296 130.741 434 130.657 434.703C128.461 453.221 126.342 471.085 126.342 483.998H133.582C133.582 471.584 135.651 454.136 137.884 435.3C137.952 434.72 138.021 434.139 138.09 433.556C140.381 414.224 142.765 393.676 142.993 376.554C143.114 367.465 140.851 357.133 137.319 346.621C133.773 336.065 128.868 325.092 123.514 314.652Z" fill="#019C40"/>
<path fill-rule="evenodd" clip-rule="evenodd" d="M74.2069 246.886C74.0952 246.052 74.0803 245.336 74.0828 244.86C74.0853 244.382 74.1088 243.942 74.1195 243.741L74.1213 243.708C74.1252 243.634 74.1277 243.584 74.1292 243.554C74.1267 242.621 74.0871 241.649 74.0361 240.439L74.0328 240.359C73.9837 239.195 73.9247 237.795 73.9247 236.357C73.9247 234.81 74.0864 233.406 74.1829 232.569C74.1876 232.528 74.1921 232.489 74.1964 232.452C74.264 231.862 74.3001 231.515 74.3181 231.279C74.307 231.229 74.2941 231.172 74.2786 231.103C74.2746 231.085 74.2703 231.066 74.2657 231.046C74.1959 230.737 74.0639 230.152 73.9581 229.522C73.8891 229.111 73.8199 228.62 73.7741 228.067C73.7723 228.063 73.7705 228.058 73.7687 228.054C73.7602 228.033 73.751 228.011 73.7411 227.987C73.5765 227.585 73.2339 226.75 72.9536 225.825C72.642 224.797 72.2876 223.296 72.2876 221.499C72.2876 220.246 72.3037 218.421 72.4945 216.512C72.6656 214.799 73.0326 212.364 74.0296 209.95C74.039 209.92 74.0499 209.884 74.0621 209.844C74.0664 209.83 74.0714 209.814 74.0769 209.796C74.1721 209.482 74.4353 208.614 74.8397 207.704C75.2672 206.742 76.1392 205.048 77.8193 203.52C79.5089 201.984 81.6528 200.948 84.0426 200.643C84.8067 199.977 85.7682 199.212 86.8717 198.512C88.3842 197.552 91.2604 195.998 94.9391 195.998C96.5606 195.998 98.7175 196.006 101.008 196.295C101.528 196.361 101.919 196.395 102.291 196.407C102.455 196.392 102.671 196.375 102.896 196.363C103.255 196.343 104.061 196.308 105.018 196.416C105.509 196.472 106.285 196.591 107.187 196.888C108.042 197.169 109.507 197.769 110.939 199.072C111.579 199.655 112.057 200.215 112.375 200.615C112.688 201.008 112.938 201.365 113.057 201.536C113.067 201.551 113.078 201.566 113.088 201.581C113.928 202.502 115.112 203.835 116.163 205.339C116.278 205.474 116.602 205.854 116.892 206.228C117.247 206.688 117.819 207.472 118.337 208.5C118.866 209.548 119.454 211.075 119.605 212.982C119.609 213.03 119.619 213.115 119.633 213.235C119.711 213.904 119.915 215.636 119.843 217.73C119.872 217.779 119.902 217.828 119.932 217.878C120.196 218.32 120.59 219.02 120.937 219.887C121.117 220.335 121.319 220.912 121.48 221.594C121.64 222.27 121.786 223.155 121.786 224.19C121.786 226.942 120.859 229.112 119.801 230.689C120.107 233.006 119.999 235.638 119.038 238.446C118.156 241.021 116.809 242.961 115.967 244.11C115.881 244.227 115.801 244.335 115.727 244.435H116.214C116.384 244.331 116.574 244.218 116.777 244.103C117.161 243.885 117.635 243.637 118.182 243.397C118.506 243.256 118.894 243.076 119.29 242.87C119.569 242.726 119.818 242.587 120.03 242.458C120.436 241.734 120.809 241.219 120.98 240.983L120.998 240.958C121.013 240.938 121.028 240.917 121.043 240.897C121.076 240.824 121.103 240.761 121.14 240.677C121.183 240.581 121.237 240.459 121.323 240.266C121.534 239.793 121.92 238.932 122.498 237.96C122.52 237.907 122.542 237.852 122.566 237.795C122.632 237.635 122.706 237.467 122.788 237.291C122.796 237.272 122.804 237.251 122.815 237.225C122.889 237.041 122.992 236.778 123.128 236.428C123.202 236.238 123.284 236.024 123.374 235.794C123.593 235.226 123.85 234.562 124.103 233.92C124.456 233.021 124.863 232.008 125.24 231.143C125.423 230.722 125.654 230.21 125.906 229.715C126.03 229.471 126.216 229.12 126.451 228.735L126.454 228.73C126.605 228.483 127.14 227.608 128.019 226.718C128.463 226.269 129.133 225.671 130.045 225.121C130.968 224.563 132.288 223.966 133.955 223.745C134.186 223.714 134.418 223.692 134.65 223.677C134.67 223.659 134.691 223.641 134.712 223.622C136.011 222.472 137.605 221.513 139.51 220.92C139.902 220.798 140.247 220.714 140.503 220.657C140.767 220.599 141.006 220.555 141.202 220.522C141.585 220.458 141.94 220.412 142.203 220.381C142.415 220.356 142.626 220.333 142.807 220.314C143.479 220.062 144.076 219.898 144.51 219.793C144.702 219.746 144.927 219.695 145.18 219.646C145.679 219.521 146.137 219.436 146.536 219.375C147.881 219.171 149.096 219.173 149.937 219.202C150.706 219.229 151.457 219.293 151.914 219.332C151.956 219.335 151.996 219.339 152.033 219.342C152.501 219.381 152.638 219.389 152.638 219.389L152.637 219.389H153.513L153.514 220.662C154.111 220.715 154.74 220.795 155.378 220.914C160.078 221.79 162.93 225.092 164.145 226.655C165.387 228.253 166.403 230.026 167.186 231.525C169.19 231.815 170.844 232.659 172.07 233.609C173.371 234.618 174.19 235.735 174.667 236.497C175.827 238.351 176.336 240.146 176.54 240.865L176.551 240.902C176.613 241.123 176.648 241.248 176.671 241.329C176.677 241.351 176.682 241.369 176.687 241.385C177.576 243.355 178.277 245.993 178.358 248.466C178.386 248.599 178.423 248.764 178.48 249.006C178.515 249.154 178.531 249.221 178.572 249.394C178.605 249.533 178.643 249.696 178.681 249.865C178.97 251.144 179.167 252.885 178.788 254.86C178.386 256.957 177.455 258.696 176.335 260.038C175.329 261.244 174.279 261.995 173.76 262.347C173.477 262.54 173.224 262.697 173.074 262.789C172.907 262.891 172.885 262.905 172.869 262.914C172.854 262.923 172.845 262.929 172.753 262.985C172.234 263.306 171.969 263.55 171.201 264.254C170.81 264.612 170.289 265.09 169.538 265.759C168.187 266.962 166.857 267.751 166.049 268.211C165.543 268.499 165.276 268.645 165.105 268.739C164.914 268.844 164.844 268.882 164.694 268.98C160.756 271.541 156.596 272.681 153.516 273.407C152.318 273.69 151.323 273.906 150.454 274.096C148.697 274.479 147.451 274.751 146.076 275.226C143.939 275.964 141.359 276.296 140.563 276.399C140.488 276.408 140.429 276.416 140.388 276.422C140.374 276.425 140.356 276.429 140.332 276.435C140.22 276.462 140.159 276.478 140.059 276.504C139.972 276.527 139.856 276.558 139.652 276.61C139.061 276.761 137.864 277.064 136.415 277.175C136.368 277.181 136.292 277.189 136.178 277.201C136.17 277.202 136.161 277.203 136.15 277.204C135.905 277.231 134.892 277.344 133.703 277.228C133.148 277.173 132.1 277.03 130.876 276.555C130.769 276.664 130.663 276.774 130.556 276.884C130.61 277.303 130.643 277.663 130.665 277.935C130.681 278.13 130.694 278.318 130.704 278.473C130.979 278.508 131.238 278.546 131.479 278.583C132.84 278.795 134.285 279.123 135.181 279.327C135.381 279.372 135.553 279.412 135.691 279.442C136.327 279.581 136.928 279.737 137.373 279.852C137.445 279.871 137.512 279.888 137.577 279.905C137.963 280.006 138.231 280.076 138.502 280.14C138.765 280.203 138.921 280.232 138.994 280.245C139.323 280.243 139.548 280.233 139.856 280.219C140.178 280.205 140.59 280.187 141.304 280.17C142.391 280.144 144.014 280.136 145.774 280.41C147.214 280.634 148.483 280.991 149.276 281.217C149.437 281.263 149.581 281.305 149.71 281.341C150.343 281.523 150.615 281.601 150.909 281.664C151.111 281.708 151.194 281.722 151.347 281.748C151.499 281.774 151.719 281.812 152.191 281.901C152.88 282.031 153.924 282.248 155.102 282.655C156.682 283.2 157.981 283.786 159.199 284.423C159.303 284.418 159.412 284.412 159.522 284.408C159.799 284.396 160.144 284.385 160.523 284.385C160.551 284.385 160.585 284.385 160.625 284.385C160.905 284.384 161.461 284.383 161.967 284.407C162.627 284.438 163.692 284.524 164.925 284.87C167.77 285.668 169.627 287.307 170.711 288.403C170.734 288.426 170.769 288.46 170.816 288.504C171.492 289.145 174.514 292.007 175.025 296.918C175.344 299.98 175.382 302.971 175.291 305.779C175.213 308.21 174.598 310.192 174.092 311.534C173.845 312.191 173.587 312.783 173.413 313.181C173.38 313.258 173.349 313.328 173.321 313.393C173.179 313.719 173.099 313.901 173.021 314.093C172.689 314.912 172.634 315.272 172.615 315.707C172.581 316.454 172.507 318.054 172.111 319.778C171.774 321.241 171.064 323.45 169.404 325.543C169.399 325.554 169.394 325.565 169.388 325.576L169.386 325.581C169.215 325.93 168.793 326.792 168.179 327.692C167.57 328.586 166.373 330.126 164.368 331.309C160.519 333.58 156.822 334.397 153.494 334.798C148.85 335.357 143.455 335.138 138.036 332.414C135.189 330.983 132.327 329.087 130.145 327.642C129.504 327.217 128.922 326.832 128.416 326.508C127.873 326.161 127.37 325.813 127.009 325.564L126.959 325.529C126.583 325.269 126.348 325.107 126.119 324.957C125.938 324.838 125.826 324.772 125.772 324.742C125.254 324.557 124.68 324.344 124.065 324.098C124.059 324.467 124.044 324.78 124.032 325.024C124.015 325.375 123.994 325.712 123.978 325.969L123.977 325.987C123.959 326.259 123.947 326.447 123.938 326.624C123.929 326.801 123.927 326.9 123.926 326.942C123.936 327.045 123.958 327.198 124.031 327.7L124.067 327.95C124.139 328.451 124.258 329.289 124.314 330.28C124.534 330.584 124.745 330.906 124.944 331.247C125.134 331.571 125.317 331.909 125.493 332.258C126.101 332.624 126.799 333.13 127.486 333.822C129.006 335.352 130.482 337.853 130.482 341.108C130.482 341.967 130.381 342.687 130.286 343.192C130.188 343.713 130.067 344.158 129.963 344.5C129.822 344.96 129.669 345.37 129.534 345.703C129.619 345.847 129.703 345.996 129.785 346.149C131.931 350.184 130.664 353.854 130.141 355.06C129.55 356.425 128.801 357.325 128.524 357.649C128.332 357.872 128.152 358.063 127.997 358.218C127.686 358.655 127.294 359.142 126.806 359.636C124.546 361.922 121.965 362.804 120.685 363.18C119.987 363.384 119.346 363.526 118.979 363.607C118.747 363.658 118.654 363.677 118.514 363.709C118.459 363.721 118.419 363.73 118.39 363.737L118.359 363.745C118.352 363.747 118.349 363.747 118.349 363.747C116.19 364.308 113.811 364.85 111.19 365.105C111.18 365.11 111.17 365.114 111.16 365.118C109.015 366.048 106.85 366.729 104.771 367.223C104.474 367.294 104.42 367.31 104.337 367.333C104.247 367.359 104.122 367.395 103.607 367.524C103.066 367.659 101.971 367.922 100.641 367.984C97.3183 368.14 94.6823 366.998 92.6913 365.763C91.751 365.18 91.1271 364.899 90.1729 364.469C89.3955 364.118 88.3989 363.669 86.8334 362.877C82.584 360.728 79.2445 357.757 76.6458 355.128C73.9758 352.427 73.5045 349.136 73.3777 348.223C73.1821 346.815 73.1946 345.462 73.2366 344.466C73.322 342.438 73.6225 340.151 73.8671 338.357C73.9192 337.975 73.9695 337.61 74.0176 337.262C74.0187 337.254 74.0198 337.245 74.0209 337.237C73.6117 336.518 73.198 335.619 72.9064 334.559C72.3874 332.672 72.2728 330.238 73.1797 327.786C72.987 326.385 72.8715 325.02 72.8002 323.767C72.7728 323.867 72.7442 323.973 72.7141 324.084C72.6907 324.17 72.6662 324.262 72.6403 324.358C72.1831 326.061 71.3193 329.277 69.3778 332.287C69.3759 332.29 69.3739 332.294 69.3718 332.298L69.357 332.325C69.3345 332.367 69.2994 332.432 69.2608 332.503C69.1844 332.642 69.0606 332.865 68.9048 333.122C68.5764 333.664 68.0869 334.39 67.3828 335.155C66.6712 335.929 65.8897 336.58 65.0625 337.128C64.7063 337.364 64.4452 337.555 64.0438 337.85C63.7903 338.036 63.4808 338.263 63.0561 338.568C62.1693 339.205 60.8746 340.104 59.3221 340.89C56.1041 342.517 52.5011 343.46 48.704 343.46C46.6108 343.46 44.9197 342.941 43.9474 342.591C43.4412 342.409 43.004 342.225 42.7222 342.105C42.5214 342.019 42.425 341.976 42.3566 341.947C42.2883 341.917 42.248 341.899 42.1596 341.862C41.9375 341.77 41.823 341.731 41.5576 341.642C41.3458 341.571 41.0379 341.468 40.5024 341.279C39.5507 340.944 38.0968 340.396 36.5235 339.447C36.0252 339.147 35.4482 338.863 34.3674 338.368C33.8502 338.131 33.2538 337.896 32.3923 337.572C32.2835 337.531 32.1676 337.488 32.046 337.442C31.3792 337.192 30.5365 336.876 29.6922 336.528C29.5293 336.474 29.2041 336.365 28.8571 336.232C28.4802 336.088 27.7699 335.802 26.9817 335.348C26.5739 335.114 26.0174 334.762 25.4184 334.268C24.8356 333.787 24.0178 333.014 23.2754 331.887C22.6768 330.979 22.2773 330.14 22.0196 329.544C21.8539 329.161 21.697 328.756 21.6034 328.511C19.0907 324.839 18.463 320.91 18.2204 318.505C18.2043 318.486 18.1897 318.47 18.1767 318.455L18.1695 318.447C18.0149 318.272 17.4891 317.677 16.9677 316.904C16.7194 316.535 16.2538 315.81 15.8488 314.846C15.5963 314.245 14.5222 311.679 15.2421 308.402C15.8926 305.441 17.4619 303.32 18.7389 301.999C19.3828 300.82 20.0246 299.798 20.547 299.005C21.188 298.033 22.4405 296.356 24.6049 295.093C25.7948 294.399 26.9611 294.003 27.9957 293.779C28.1816 293.607 28.3903 293.421 28.618 293.231C29.6682 292.354 31.4217 291.119 33.8823 290.497C37.5679 289.565 40.6983 288.591 43.5937 287.246C44.5274 286.813 45.3303 286.452 46.0539 286.127C47.3236 285.557 48.3491 285.096 49.4087 284.543C47.6464 285.032 45.3548 285.152 42.9519 284.18C41.0916 283.427 39.8614 282.291 39.1599 281.505C38.447 280.706 37.9923 279.947 37.7265 279.45C37.2965 278.648 37.0384 277.919 36.8937 277.456C36.6907 277.528 36.4937 277.591 36.3041 277.646C31.679 278.982 28.1452 276.713 27.3303 276.173C26.0597 275.33 25.1142 274.358 24.5659 273.755C23.3982 272.472 22.3579 270.981 21.6071 269.832C20.806 268.606 20.0767 267.371 19.5311 266.383C19.2617 265.896 18.9947 265.392 18.7692 264.929C18.664 264.714 18.5101 264.389 18.3593 264.023C18.2881 263.849 18.159 263.526 18.0307 263.121C18.03 263.119 18.0286 263.115 18.0267 263.109C17.9768 262.959 17.5376 261.638 17.5376 259.954C17.5376 257.919 18.0879 256.257 18.6364 255.087C18.5122 254.824 18.3886 254.54 18.2724 254.236C18.0561 253.671 17.7861 252.838 17.6375 251.809C17.4898 250.785 17.4217 249.284 17.869 247.565C18.7196 244.295 20.8598 242.345 22.4395 241.371C22.4592 241.359 22.4788 241.347 22.4983 241.335C22.5294 240.114 22.6105 238.838 22.7854 237.706C23.0074 236.269 23.3984 234.968 24.0069 233.698C24.2321 233.228 24.4581 232.827 24.5482 232.667C24.5528 232.659 24.5571 232.651 24.561 232.644C24.67 232.451 24.6778 232.436 24.6894 232.414C25.1995 231.429 25.7724 230.666 26.0864 230.273C27.9022 227.482 30.4554 226.09 31.8459 225.469C33.5734 224.696 35.6758 224.15 37.8586 224.15C37.9316 224.15 38.0498 224.146 38.883 224.033C38.9157 224.029 38.9499 224.024 38.9855 224.019C39.7229 223.919 41.0626 223.736 42.6105 223.736C42.63 223.736 42.6608 223.735 42.7019 223.735C43.1237 223.729 44.6304 223.708 46.0857 223.978C48.2146 224.374 49.8843 225.225 51.2231 226.105C51.286 226.147 51.3519 226.188 51.5574 226.315C51.5971 226.339 51.642 226.367 51.6931 226.399C51.9446 226.555 52.3564 226.811 52.7956 227.112C53.5435 227.623 55.0115 228.681 56.3033 230.366C57.188 230.74 57.8695 231.177 58.323 231.508C58.3323 231.513 58.3416 231.518 58.3511 231.524C58.5826 231.652 58.8941 231.833 59.2446 232.07C60.1905 232.708 60.9455 233.369 61.4684 233.855C61.8777 234.235 62.2999 234.658 62.5455 234.903C62.5914 234.949 62.6312 234.989 62.6635 235.021C62.7505 235.108 62.8181 235.174 62.8701 235.225C65.402 236.767 67.0283 239.031 67.6515 239.919C68.1998 240.701 68.7185 241.539 69.1742 242.369C70.8541 243.962 72.5207 245.473 74.2069 246.886ZM23.8885 270.374C23.8885 270.374 23.8841 270.358 23.8777 270.334C23.8857 270.364 23.8885 270.374 23.8885 270.374ZM55.0664 280.521C54.7807 280.923 54.352 281.467 53.7783 282.025C54.642 281.541 55.6507 281.011 56.7901 280.514C56.6343 280.524 56.5127 280.528 56.4743 280.53C56.4405 280.531 56.41 280.532 56.3842 280.532C56.3649 280.533 56.3482 280.533 56.3348 280.534C56.2228 280.536 56.1214 280.537 56.0608 280.537C55.824 280.537 55.4725 280.534 55.0664 280.521ZM61.0413 279.177C61.3946 279.129 61.7844 279.093 62.2009 279.084C63.0534 279.064 68.3485 279.085 71.2229 284.206C72.2892 284.14 73.2203 284.161 73.9182 284.192C74.5985 284.102 75.176 284.083 75.4926 284.077C75.7873 284.071 76.0655 284.074 76.2297 284.076C79.6756 283.873 83.2038 284.08 86.6747 284.75C88.4811 285.099 92.2798 285.838 95.6506 287.883C95.7642 287.952 95.8698 288.019 95.9637 288.08C96.0434 288.12 96.1249 288.163 96.2079 288.208C96.217 288.213 96.2276 288.219 96.2399 288.225C96.6565 288.449 98.9135 289.662 100.369 292.414C100.673 292.989 100.929 293.605 101.125 294.254C101.324 294.096 101.536 293.941 101.76 293.79C101.833 293.597 101.917 293.372 102.017 293.099C102.037 293.045 102.058 292.988 102.079 292.929C102.301 292.323 102.62 291.451 102.989 290.58C104.82 286.259 108.258 284.778 110.783 284.296C110.791 283.261 110.787 282.38 110.734 281.487C110.343 280.929 109.99 280.312 109.691 279.631C108.54 277.006 108.708 274.591 108.987 273.148C109.481 270.596 110.773 268.757 111.175 268.188C112.19 266.752 113.674 265.259 113.494 265.452C113.694 265.237 113.898 265.02 114.104 264.801H109.547C109.465 264.801 109.382 264.803 109.187 264.806L109.096 264.808C108.879 264.812 108.533 264.818 108.154 264.813C107.561 264.806 106.666 264.772 105.62 264.597C104.741 264.861 103.998 264.982 103.548 265.044C103.259 265.084 102.971 265.115 102.694 265.139C102.361 267.62 101.401 269.439 101.087 270.033C101.069 270.068 101.053 270.099 101.039 270.125C100.367 271.417 99.335 272.856 97.7672 274.059C96.1683 275.286 94.5061 275.887 93.1202 276.168C91.8697 276.42 90.8132 276.413 90.3971 276.408C90.2039 276.405 90 276.399 89.9132 276.396L89.884 276.395C89.8313 276.394 89.8057 276.393 89.7973 276.393M56.1157 280.534C56.1099 280.535 56.0591 280.535 55.9782 280.533C56.0809 280.533 56.1216 280.534 56.1157 280.534ZM61.0413 279.177C62.1355 278.368 64.0062 276.584 65.0833 274.949ZM65.0833 274.949C66.8787 273.584 68.0011 271.826 68.6272 270.14C69.0055 269.944 69.4883 269.691 69.9692 269.42C70.0705 269.362 70.1785 269.301 70.2925 269.235M110.59 279.505C110.59 279.505 110.591 279.51 110.592 279.522C110.591 279.512 110.59 279.505 110.59 279.505ZM97.006 306.691C97.1417 307.544 97.535 309.426 98.7905 311.296C98.9399 311.519 99.1159 311.763 99.3207 312.018C99.7464 312.807 100.153 313.46 100.437 313.918C100.48 313.987 100.519 314.051 100.556 314.11C100.779 314.471 100.98 314.879 101.387 315.793C101.399 315.846 101.413 315.907 101.428 315.97C101.499 316.276 101.646 316.896 101.872 317.586C101.874 317.592 101.876 317.599 101.878 317.605C101.88 317.665 101.882 317.729 101.885 317.795C101.844 317.753 101.803 317.712 101.762 317.67C100.973 316.872 99.8192 315.958 98.3847 315.258C98.2811 314.85 98.1421 314.398 97.9554 313.926C97.728 313.351 96.8898 311.44 95.0636 309.83C95.3599 309.306 95.6607 308.786 95.9658 308.271C96.3296 307.658 96.6432 307.195 97.006 306.691ZM102.039 336.832C102.04 336.802 102.039 336.783 102.039 336.776L102.039 336.773C102.039 336.781 102.039 336.792 102.039 336.806C102.039 336.814 102.039 336.823 102.039 336.832ZM126.959 303.5C125.631 302.305 126.456 302.392 126.5 302.5C126.651 302.872 119.538 304.55 119.674 305.275C119.939 306.683 120.199 300.258 118.416 303.047C108.581 292.928 120.132 307.365 119.674 307.82C117.749 307.012 121.996 311.169 121 310.5C120.679 310.284 122.823 310.224 122.5 310C122.188 309.784 121.304 311.27 120.994 311.05M76.4742 284.079C76.4742 284.079 76.4586 284.079 76.4168 284.078C76.4517 284.078 76.4742 284.079 76.4742 284.079ZM21.4467 328.111C21.4467 328.111 21.4537 328.125 21.4679 328.16C21.4538 328.129 21.4467 328.111 21.4467 328.111ZM29.8885 336.594C29.8885 336.594 29.8737 336.589 29.8496 336.581C29.8774 336.59 29.8885 336.594 29.8885 336.594ZM176.728 241.525L176.727 241.523C176.729 241.529 176.729 241.53 176.728 241.525ZM122.748 237.388C122.748 237.388 122.752 237.379 122.758 237.365C122.751 237.381 122.748 237.388 122.748 237.388ZM122.191 238.802C122.19 238.805 122.19 238.804 122.191 238.802ZM116.059 205.215C116.059 205.215 116.066 205.223 116.077 205.237C116.064 205.222 116.059 205.215 116.059 205.215ZM101.888 196.444C101.89 196.444 101.921 196.441 101.972 196.437C101.912 196.443 101.886 196.445 101.888 196.444Z" fill="#FF6C9C"/>
<path fill-rule="evenodd" clip-rule="evenodd" d="M95.4976 307.47C109.8 307.47 121.394 296.066 121.394 281.998C121.394 267.931 109.8 256.527 95.4976 256.527C81.1955 256.527 69.6013 267.931 69.6013 281.998C69.6013 296.066 81.1955 307.47 95.4976 307.47ZM95.4976 311.998C112.342 311.998 125.998 298.567 125.998 281.998C125.998 265.43 112.342 251.998 95.4976 251.998C78.6529 251.998 64.9976 265.43 64.9976 281.998C64.9976 298.567 78.6529 311.998 95.4976 311.998Z" fill="black"/>
<path fill-rule="evenodd" clip-rule="evenodd" d="M56.465 224.184C68.1138 230.8 79.4596 243.112 83.9976 256.528L78.5753 258.309C74.5401 246.379 64.224 235.092 53.6108 229.063C48.31 226.053 43.2027 224.508 38.9867 224.638C34.9324 224.764 31.6528 226.416 29.4551 230.116C22.7227 241.45 19.8102 251.469 20.9574 259.193C21.5212 262.99 23.0656 266.261 25.6822 268.968C28.3181 271.694 32.1684 273.977 37.5264 275.561C46.7122 278.277 53.9439 278.578 58.9704 278.267C61.4884 278.112 63.4777 277.801 64.9293 277.546C65.1757 277.503 65.4247 277.458 65.6649 277.415C66.0891 277.338 66.4861 277.267 66.7935 277.218C67.0448 277.179 67.3374 277.138 67.6215 277.119L67.6275 277.119C67.8172 277.107 68.4096 277.068 69.0444 277.277L67.237 282.62C67.5344 282.718 67.7674 282.734 67.8472 282.738C67.8992 282.741 67.938 282.741 67.9599 282.741C67.9731 282.741 67.9829 282.74 67.9891 282.74C67.9934 282.74 67.9958 282.74 67.9963 282.74C67.9964 282.74 67.9724 282.741 67.9158 282.748C67.8609 282.755 67.7888 282.765 67.6951 282.78C67.4435 282.82 67.1615 282.871 66.8013 282.936C66.5533 282.981 66.2681 283.033 65.9303 283.092C64.3619 283.367 62.1412 283.715 59.3283 283.889C53.693 284.237 45.7784 283.881 35.884 280.956C29.811 279.161 25.0165 276.445 21.5439 272.853C18.052 269.24 16.0242 264.872 15.302 260.009C13.8771 250.414 17.5375 239.03 24.5225 227.271C27.8117 221.733 32.9911 219.189 38.8068 219.009C44.4609 218.833 50.6347 220.872 56.465 224.184Z" fill="black"/>
<path fill-rule="evenodd" clip-rule="evenodd" d="M141.567 334.651C129.254 330.065 116.705 319.63 110.992 306.324L116.203 304.044C121.205 315.692 132.435 325.138 143.533 329.271C149.065 331.332 154.321 331.979 158.574 331.123C162.72 330.287 165.948 328.035 167.829 324.025C173.563 311.804 175.255 303.009 173.385 296.914C171.626 291.181 166.336 286.849 155.141 284.509C145.808 282.558 138.623 282.885 133.674 283.64C131.195 284.018 129.253 284.507 127.838 284.892C127.598 284.957 127.355 285.025 127.121 285.089C126.708 285.204 126.322 285.312 126.021 285.388C125.776 285.45 125.49 285.517 125.211 285.56L125.205 285.561C125.018 285.59 124.435 285.681 123.788 285.525L125.108 279.948C124.805 279.875 124.573 279.879 124.493 279.882C124.442 279.883 124.403 279.887 124.381 279.889C124.373 279.89 124.366 279.891 124.361 279.892C124.351 279.893 124.346 279.894 124.346 279.894C124.345 279.894 124.369 279.89 124.424 279.878C124.478 279.866 124.549 279.849 124.64 279.826C124.886 279.764 125.16 279.687 125.511 279.59C125.753 279.523 126.031 279.445 126.36 279.356C127.888 278.94 130.056 278.393 132.826 277.97C138.374 277.124 146.24 276.793 156.292 278.895C168.324 281.41 176.149 286.545 178.81 295.218C181.361 303.53 178.779 314.082 172.963 326.479C170.224 332.316 165.381 335.598 159.686 336.745C154.097 337.871 147.74 336.95 141.567 334.651Z" fill="black"/>
<path fill-rule="evenodd" clip-rule="evenodd" d="M70.7637 347.487C68.6928 333.596 74.2812 316.616 84.1906 305.331L88.441 309.134C79.5008 319.315 74.5911 334.632 76.3803 346.634C77.264 352.562 79.7424 357.484 83.949 360.723C88.1515 363.959 94.4653 365.812 103.602 364.83C116.339 363.463 122.734 360.819 125.789 357.489C128.64 354.381 129.148 349.988 127.846 342.981C126.242 334.34 121.908 326.033 117.824 319.629C115.795 316.447 113.859 313.781 112.399 311.818C112.124 311.448 111.859 311.094 111.611 310.763C111.218 310.238 110.869 309.772 110.597 309.399C110.373 309.092 110.161 308.793 109.993 308.533C109.909 308.404 109.812 308.246 109.722 308.076L109.721 308.074C109.662 307.964 109.472 307.606 109.378 307.141L114.944 305.995C114.897 305.763 114.831 305.595 114.802 305.526C114.768 305.445 114.74 305.39 114.729 305.371C114.721 305.355 114.716 305.347 114.716 305.347C114.716 305.347 114.726 305.363 114.749 305.398C114.826 305.518 114.96 305.71 115.171 306C115.426 306.35 115.736 306.763 116.107 307.259C116.357 307.592 116.634 307.963 116.942 308.376C118.437 310.387 120.465 313.177 122.6 316.525C126.842 323.179 131.626 332.218 133.429 341.925C134.802 349.319 134.743 356.166 129.957 361.384C125.375 366.38 117.066 369.151 104.203 370.532C94.0485 371.622 86.1619 369.638 80.5045 365.282C74.8511 360.929 71.8099 354.506 70.7637 347.487Z" fill="black"/>
<path fill-rule="evenodd" clip-rule="evenodd" d="M124.815 219.323C124.815 231.057 119.88 245.606 112.097 259.574L107.147 256.763C114.699 243.208 119.135 229.663 119.135 219.323C119.135 214.179 118.04 210.066 115.939 207.106C113.889 204.217 110.674 202.131 105.782 201.371C92.6344 199.33 83.8918 200.75 78.9457 204.699C74.2347 208.46 72.092 215.295 74.1319 226.625C75.836 236.091 78.828 242.694 81.375 247.043C82.6509 249.222 83.8275 250.856 84.711 252.036C84.861 252.237 85.0137 252.438 85.161 252.633C85.4212 252.977 85.6647 253.298 85.8469 253.551C85.9958 253.757 86.1647 254 86.3094 254.245L86.3125 254.25C86.4091 254.414 86.711 254.926 86.81 255.59L81.1935 256.444C81.2399 256.755 81.3303 256.97 81.3624 257.044C81.3833 257.092 81.4009 257.126 81.4111 257.146C81.4215 257.166 81.428 257.177 81.4286 257.178L81.4286 257.178C81.428 257.177 81.4155 257.156 81.3844 257.11C81.3535 257.064 81.3117 257.004 81.2562 256.927C81.1071 256.721 80.934 256.492 80.7129 256.2C80.5607 255.999 80.3857 255.768 80.18 255.494C79.2254 254.219 77.9109 252.395 76.4856 249.961C73.6301 245.085 70.3792 237.846 68.5436 227.651C66.342 215.422 68.3024 205.886 75.4222 200.202C82.307 194.705 93.1231 193.604 106.646 195.705C112.829 196.665 117.495 199.453 120.557 203.767C123.568 208.01 124.815 213.429 124.815 219.323Z" fill="black"/>
<path fill-rule="evenodd" clip-rule="evenodd" d="M30.3489 287.509C41.7326 282.153 56.5258 279.495 68.2682 279.286L68.3681 285.019C57.2147 285.217 43.245 287.767 32.7482 292.706C27.4965 295.176 23.3334 298.143 20.7643 301.504C18.2698 304.767 17.2443 308.423 18.1967 312.686C20.9827 325.159 29.0642 334.78 38.0989 339.032C47.0095 343.225 56.6888 342.204 63.7087 333.733C69.8112 326.369 73.1793 319.317 75.1336 314.02C76.1117 311.369 76.7387 309.149 77.185 307.51C77.2293 307.348 77.2728 307.187 77.3155 307.03C77.4802 306.421 77.632 305.86 77.7646 305.427C77.8482 305.153 77.9506 304.841 78.073 304.552C78.0751 304.547 78.0773 304.542 78.0797 304.536C78.1546 304.358 78.4319 303.699 79.036 303.186L82.6919 307.574C83.001 307.312 83.1611 307.051 83.2083 306.972C83.2414 306.917 83.2634 306.874 83.2754 306.849C83.2878 306.824 83.2944 306.809 83.2955 306.806C83.2956 306.806 83.2956 306.806 83.2955 306.806C83.2944 306.809 83.2848 306.833 83.2668 306.885C83.2472 306.941 83.2224 307.018 83.1919 307.117C83.0892 307.453 82.9711 307.89 82.8115 308.478C82.7653 308.649 82.7155 308.833 82.6617 309.031C82.1985 310.731 81.5201 313.137 80.4563 316.021C78.3266 321.794 74.6645 329.449 68.0652 337.412C59.1289 348.196 46.5456 349.333 35.6989 344.228C24.9762 339.182 15.8054 328.047 12.656 313.948C11.2913 307.838 12.8568 302.462 16.2677 298.001C19.6039 293.637 24.6604 290.185 30.3489 287.509Z" fill="black"/>
<path fill-rule="evenodd" clip-rule="evenodd" d="M163.428 274.853C151.667 280.097 136.231 282.7 124.467 282.702L124.466 276.968C135.602 276.967 150.23 274.47 161.133 269.608C166.599 267.171 170.856 264.258 173.349 261.02C175.733 257.924 176.538 254.525 175.199 250.525C171.062 238.172 163.034 228.312 154.413 223.79C150.131 221.544 145.799 220.658 141.728 221.284C137.689 221.905 133.65 224.053 129.967 228.343C123.82 235.504 120.511 243.275 118.624 249.405C117.682 252.467 117.099 255.105 116.688 257.062C116.64 257.289 116.594 257.511 116.549 257.727C116.406 258.416 116.276 259.041 116.161 259.523C116.086 259.839 115.995 260.19 115.885 260.506C115.83 260.664 115.747 260.881 115.627 261.109C115.531 261.291 115.287 261.731 114.819 262.114L111.24 257.662C110.833 257.996 110.646 258.352 110.607 258.426L110.606 258.428C110.546 258.544 110.522 258.616 110.528 258.6C110.539 258.569 110.575 258.449 110.639 258.182C110.733 257.789 110.837 257.285 110.974 256.628C111.022 256.396 111.074 256.146 111.131 255.874C111.556 253.853 112.181 251.015 113.2 247.704C115.236 241.089 118.857 232.53 125.675 224.588C130.135 219.393 135.346 216.466 140.872 215.616C146.366 214.77 151.912 216.017 157.032 218.702C167.213 224.042 176.075 235.238 180.58 248.689C182.594 254.704 181.26 260.09 177.834 264.539C174.517 268.845 169.293 272.238 163.428 274.853Z" fill="black"/>
<path d="M134.998 280.498C134.998 303.418 116.865 321.998 94.4976 321.998C72.13 321.998 53.9976 303.418 53.9976 280.498C53.9976 257.578 72.13 238.998 94.4976 238.998C116.865 238.998 134.998 257.578 134.998 280.498Z" fill="#FFE640"/>
<path fill-rule="evenodd" clip-rule="evenodd" d="M94.4976 315.742C113.493 315.742 128.892 299.963 128.892 280.498C128.892 261.034 113.493 245.255 94.4976 245.255C75.5022 245.255 60.1034 261.034 60.1034 280.498C60.1034 299.963 75.5022 315.742 94.4976 315.742ZM94.4976 321.998C116.865 321.998 134.998 303.418 134.998 280.498C134.998 257.578 116.865 238.998 94.4976 238.998C72.13 238.998 53.9976 257.578 53.9976 280.498C53.9976 303.418 72.13 321.998 94.4976 321.998Z" fill="black"/>
<path d="M86.9976 286.498C86.9976 291.193 82.9681 294.998 77.9976 294.998C73.027 294.998 68.9976 291.193 68.9976 286.498C68.9976 281.804 73.027 277.998 77.9976 277.998C82.9681 277.998 86.9976 281.804 86.9976 286.498Z" fill="#FF6C9C"/>
<path d="M119.998 286.498C119.998 291.193 116.64 294.998 112.498 294.998C108.355 294.998 104.998 291.193 104.998 286.498C104.998 281.804 108.355 277.998 112.498 277.998C116.64 277.998 119.998 281.804 119.998 286.498Z" fill="#FF6C9C"/>
<path d="M92.9976 270.998C92.9976 274.864 91.4306 277.998 89.4976 277.998C87.5646 277.998 85.9976 274.864 85.9976 270.998C85.9976 267.132 87.5646 263.998 89.4976 263.998C91.4306 263.998 92.9976 267.132 92.9976 270.998Z" fill="black"/>
<path d="M105.998 270.998C105.998 274.864 104.654 277.998 102.998 277.998C101.341 277.998 99.9976 274.864 99.9976 270.998C99.9976 267.132 101.341 263.998 102.998 263.998C104.654 263.998 105.998 267.132 105.998 270.998Z" fill="black"/>
<path fill-rule="evenodd" clip-rule="evenodd" d="M77.5636 288.008C77.8315 285.791 77.9233 283.491 77.9233 281.998H79.4838C79.4838 283.486 79.3969 285.731 79.1444 287.945C81.4067 292.167 88.0971 298.284 97.9953 298.284C106.557 298.284 111.136 291.344 112.394 289.137C112.069 287.586 111.846 286.1 111.792 285.11L113.35 285.009C113.417 286.249 113.809 288.54 114.361 290.655C114.636 291.707 114.943 292.686 115.256 293.449C115.413 293.83 115.564 294.141 115.705 294.373C115.853 294.617 115.956 294.719 115.998 294.749L115.147 296.186C114.846 295.971 114.602 295.647 114.406 295.323C114.202 294.987 114.011 294.586 113.834 294.154C113.501 293.343 113.19 292.359 112.917 291.338C110.859 294.419 106.047 299.998 97.9953 299.998C88.6604 299.998 81.929 294.866 78.7832 290.399C78.6784 290.959 78.5588 291.5 78.4224 292.005C78.1234 293.112 77.7146 294.161 77.1224 294.837L75.9976 293.649C76.3207 293.28 76.644 292.562 76.9264 291.517C77.2013 290.499 77.4101 289.278 77.5636 288.008Z" fill="black"/>
<path fill-rule="evenodd" clip-rule="evenodd" d="M163.48 189.541C152.169 153.214 138.792 120.035 130.726 102.998L116.998 109.662C124.717 125.966 137.839 158.458 148.96 194.176C160.136 230.07 168.997 268.308 168.769 296.445C168.533 325.567 166.063 360.755 163.627 394.62C163.541 395.815 163.455 397.009 163.369 398.201C161.036 430.587 158.802 461.623 158.802 483.998H174.026C174.026 462.2 176.225 431.65 178.583 398.898L178.811 395.74C181.239 361.993 183.752 326.285 183.993 296.572C184.241 265.874 174.736 225.693 163.48 189.541Z" fill="black"/>
<path fill-rule="evenodd" clip-rule="evenodd" d="M158.575 190.958C147.267 154.815 133.901 121.837 125.889 104.998L118.998 108.327C126.835 124.799 140.073 157.435 151.286 193.274C162.527 229.2 171.585 267.89 171.351 296.642C171.113 325.886 168.622 361.173 166.178 394.979C166.094 396.139 166.01 397.298 165.926 398.455C163.579 430.901 161.344 461.787 161.344 483.998H168.986C168.986 462.075 171.203 431.432 173.564 398.803C173.642 397.717 173.721 396.628 173.8 395.538C176.24 361.791 178.752 326.244 178.993 296.705C179.237 266.674 169.856 227.013 158.575 190.958Z" fill="#019C40"/>
<path fill-rule="evenodd" clip-rule="evenodd" d="M125.474 71.1592C126.092 70.6648 126.659 70.3044 127.042 70.0748C127.427 69.8441 127.791 69.6484 127.958 69.5591L127.985 69.5445C128.046 69.5113 128.088 69.489 128.113 69.4753C128.86 69.0193 129.622 68.5148 130.569 67.8854L130.632 67.8439C131.543 67.2388 132.639 66.5105 133.793 65.8101C135.035 65.0569 136.238 64.5011 136.955 64.1697C136.99 64.1537 137.023 64.1382 137.055 64.1233C137.561 63.8895 137.856 63.749 138.054 63.6482C138.089 63.6154 138.129 63.5773 138.177 63.5314C138.189 63.5196 138.202 63.5069 138.216 63.4935C138.432 63.2879 138.839 62.8991 139.295 62.509C139.593 62.2544 139.954 61.961 140.376 61.6555C140.379 61.652 140.382 61.6484 140.384 61.6449C140.397 61.628 140.411 61.6097 140.426 61.5903C140.67 61.265 141.18 60.5879 141.791 59.9166C142.47 59.1701 143.508 58.1601 144.95 57.285C145.956 56.6751 147.429 55.7989 149.051 55.02C150.506 54.321 152.633 53.4252 155.038 53.0366C155.067 53.0292 155.101 53.0206 155.139 53.0107C155.152 53.0072 155.167 53.0031 155.185 52.9986C155.481 52.9209 156.302 52.7059 157.222 52.5821C158.194 52.4512 159.963 52.3145 161.979 52.896C164.006 53.4809 165.844 54.6681 167.211 56.405C168.104 56.6835 169.17 57.0696 170.25 57.5994C171.731 58.3255 170.773 62.0976 172.5 65C173.262 66.2792 176.657 66.552 177.5 68.5C177.691 68.9422 177.848 69.2674 178.013 69.5663C178.102 69.6891 178.217 69.8512 178.333 70.0222C178.517 70.2958 178.924 70.9145 179.286 71.7224C179.472 72.137 179.741 72.8075 179.926 73.6636C180.102 74.4746 181.476 75.0952 181.102 76.8597C180.935 77.6487 180.71 78.2989 180.538 78.7446C180.369 79.1826 180.2 79.5532 180.119 79.7302C180.112 79.7461 180.105 79.7618 180.098 79.7769C179.753 80.888 179.239 82.4706 178.525 84.0329C178.471 84.1887 178.318 84.6292 178.154 85.0404C177.952 85.5446 177.591 86.3773 177.009 87.2869C176.416 88.2143 175.467 89.4216 174.007 90.4691C173.97 90.4953 173.906 90.5449 173.817 90.6144C173.316 91.0021 172.022 92.0057 170.307 92.9683C170.282 93.0155 170.256 93.0632 170.23 93.1112C170 93.5341 169.623 94.1856 169.09 94.8818C168.815 95.242 168.446 95.6824 167.975 96.1412C167.507 96.597 166.865 97.1425 166.035 97.6462C163.825 98.9863 161.648 99.3115 159.886 99.2444C158.17 100.614 156.007 101.81 153.301 102.419C150.82 102.977 148.63 102.859 147.313 102.754C147.179 102.743 147.055 102.733 146.939 102.723L147.168 103.107C147.332 103.191 147.511 103.285 147.699 103.39C148.054 103.587 148.476 103.839 148.925 104.155C149.191 104.341 149.518 104.56 149.869 104.772C150.115 104.922 150.344 105.051 150.547 105.156C151.318 105.123 151.907 105.167 152.177 105.187L152.205 105.189C152.229 105.191 152.252 105.192 152.276 105.194C152.349 105.185 152.413 105.176 152.498 105.164C152.595 105.151 152.718 105.134 152.914 105.108C153.393 105.044 154.265 104.93 155.316 104.913C155.369 104.904 155.424 104.895 155.481 104.886C155.64 104.86 155.81 104.837 155.989 104.816C156.008 104.812 156.03 104.809 156.055 104.805C156.238 104.773 156.497 104.727 156.842 104.663C157.029 104.629 157.24 104.59 157.466 104.548C158.025 104.445 158.679 104.325 159.313 104.211C160.2 104.053 161.204 103.88 162.076 103.756C162.5 103.696 163.019 103.629 163.535 103.587C163.789 103.566 164.158 103.542 164.577 103.54L164.583 103.54C164.852 103.539 165.805 103.534 166.933 103.795C167.501 103.927 168.296 104.164 169.166 104.615C170.047 105.072 171.146 105.823 172.106 107.03C172.239 107.198 172.366 107.37 172.487 107.546C172.511 107.553 172.536 107.56 172.56 107.568C174.094 108.033 175.612 108.824 176.982 110.038C177.265 110.288 177.494 110.519 177.66 110.694C177.83 110.874 177.978 111.04 178.097 111.179C178.328 111.449 178.532 111.708 178.68 111.9C178.8 112.055 178.917 112.21 179.018 112.344C179.535 112.751 179.947 113.143 180.235 113.434C180.363 113.562 180.509 113.715 180.668 113.891C181.002 114.223 181.286 114.543 181.522 114.829C182.317 115.791 182.886 116.751 183.258 117.428C183.597 118.047 183.899 118.671 184.082 119.051C184.099 119.086 184.115 119.119 184.13 119.149C184.318 119.538 184.377 119.65 184.377 119.65L184.376 119.649L184.788 120.34L183.766 120.96C184.004 121.458 184.234 121.992 184.439 122.554C185.943 126.688 184.632 130.546 183.948 132.266C183.248 134.023 182.302 135.688 181.467 137.035C182.176 138.758 182.275 140.474 182.087 141.904C181.889 143.422 181.376 144.611 180.989 145.358C180.046 147.177 178.844 148.452 178.362 148.963L178.338 148.99C178.19 149.146 178.106 149.235 178.051 149.292C178.037 149.307 178.025 149.32 178.014 149.332C176.851 150.992 175.062 152.83 173.115 154.098C173.021 154.184 172.906 154.294 172.739 154.457C172.636 154.557 172.59 154.602 172.47 154.719C172.375 154.812 172.262 154.922 172.144 155.034C171.253 155.885 169.948 156.887 168.185 157.55C166.313 158.254 164.48 158.366 162.877 158.136C161.436 157.929 160.34 157.467 159.814 157.228C159.526 157.099 159.282 156.976 159.137 156.902C158.977 156.821 158.956 156.809 158.94 156.801C158.927 156.794 158.917 156.789 158.829 156.744C158.328 156.491 158.008 156.401 157.082 156.138C156.61 156.004 155.982 155.826 155.093 155.559C153.493 155.078 152.235 154.413 151.486 154C151.017 153.741 150.775 153.601 150.619 153.512C150.446 153.413 150.382 153.376 150.232 153.305C146.328 151.445 143.459 148.718 141.43 146.642C140.641 145.834 139.999 145.155 139.439 144.561C138.306 143.361 137.503 142.511 136.476 141.657C134.88 140.331 133.402 138.457 132.946 137.879C132.903 137.825 132.869 137.782 132.845 137.752C132.836 137.743 132.824 137.73 132.809 137.714C132.734 137.64 132.692 137.599 132.625 137.533C132.565 137.476 132.486 137.399 132.349 137.263C131.95 136.87 131.145 136.073 130.375 134.985C130.348 134.95 130.306 134.894 130.243 134.81C130.238 134.805 130.233 134.798 130.227 134.79C130.09 134.61 129.524 133.865 129.059 132.87C128.842 132.406 128.465 131.51 128.271 130.312C128.134 130.282 127.996 130.251 127.857 130.22C127.546 130.467 127.273 130.668 127.064 130.818C126.916 130.925 126.771 131.027 126.651 131.11C126.752 131.345 126.843 131.567 126.926 131.776C127.396 132.952 127.811 134.252 128.068 135.059C128.125 135.238 128.175 135.393 128.215 135.517C128.402 136.086 128.56 136.637 128.676 137.044C128.695 137.109 128.712 137.171 128.729 137.23C128.83 137.584 128.9 137.83 128.975 138.075C129.048 138.312 129.098 138.45 129.122 138.514C129.278 138.772 129.392 138.945 129.547 139.181C129.71 139.429 129.917 139.745 130.267 140.3C130.799 141.145 131.567 142.421 132.174 143.943C132.67 145.188 132.979 146.364 133.17 147.099C133.209 147.249 133.243 147.382 133.274 147.502C133.425 148.09 133.49 148.342 133.578 148.605C133.638 148.785 133.665 148.858 133.716 148.992C133.767 149.124 133.84 149.316 133.99 149.732C134.209 150.339 134.525 151.268 134.752 152.395C135.056 153.907 135.196 155.217 135.257 156.488C135.309 156.568 135.365 156.652 135.42 156.736C135.56 156.949 135.731 157.216 135.909 157.515C135.922 157.537 135.938 157.564 135.956 157.595C136.089 157.816 136.351 158.254 136.569 158.664C136.854 159.2 137.285 160.083 137.587 161.224C138.282 163.857 137.839 166.12 137.468 167.508C137.46 167.538 137.45 167.582 137.436 167.641C137.24 168.486 136.361 172.264 132.659 175.058C130.351 176.8 127.968 178.286 125.671 179.582C123.683 180.704 121.804 181.183 120.489 181.438C119.846 181.562 119.249 181.648 118.848 181.704C118.771 181.715 118.7 181.725 118.635 181.734C118.307 181.781 118.123 181.806 117.932 181.839C117.119 181.975 116.804 182.107 116.445 182.304C115.83 182.641 114.511 183.362 112.941 183.888C111.609 184.335 109.502 184.85 107.043 184.56C107.032 184.561 107.021 184.562 107.009 184.563L107.004 184.563C106.643 184.599 105.753 184.685 104.743 184.64C103.739 184.594 101.941 184.399 100.05 183.393C96.4199 181.463 94.0274 178.944 92.143 176.513C89.5132 173.121 91.3587 168.601 91.0001 163C90.8116 160.056 93.0778 149.892 88.5001 152.5C88.5399 151.788 86.9983 153.249 87.0205 152.692C87.0443 152.094 87.087 151.529 87.1179 151.122L87.1222 151.066C87.1544 150.643 87.1744 150.379 87.1871 150.125C87.1972 149.924 87.1975 149.804 87.1968 149.746C87.1019 149.248 87.0032 148.69 86.9122 148.086C86.6128 148.26 86.3547 148.401 86.1534 148.511C85.8633 148.668 85.5832 148.816 85.3689 148.928L85.3541 148.936C85.1272 149.055 84.9713 149.137 84.8246 149.216C84.6788 149.295 84.5979 149.341 84.5639 149.361C84.486 149.419 85.3696 150.198 85.0001 150.5L84.5001 151C84.1318 151.301 84.59 152.166 83.8208 152.692C83.6802 153.014 82.1803 153.177 82.0001 153.5C81.8289 153.807 82.198 154.191 82.0001 154.5C81.9917 155.158 80.9459 154.641 80.7133 155.52C80.1988 157.463 78.8845 159.846 76.272 161.43C75.5822 161.849 74.9572 162.119 74.5064 162.29C74.0424 162.466 73.6285 162.588 73.3054 162.672C72.8703 162.785 72.469 162.864 72.1382 162.919C72.0626 163.057 71.9827 163.195 71.898 163.334C69.6676 166.992 66.1261 167.779 64.9125 167.954C63.5396 168.153 62.4652 168 62.0749 167.938C61.8062 167.896 61.5685 167.846 61.3712 167.8C60.8744 167.767 60.2992 167.695 59.6741 167.551C56.7775 166.881 54.8575 165.274 53.9549 164.447C53.4628 163.996 53.0479 163.559 52.811 163.309C52.6608 163.15 52.6017 163.087 52.5105 162.991C52.4748 162.954 52.449 162.927 52.4298 162.908L52.409 162.887C52.4042 162.882 52.4023 162.88 52.4023 162.88C50.938 161.45 49.3866 159.837 47.9503 157.893C47.9421 157.887 47.9339 157.881 47.9257 157.876C46.1721 156.636 44.6094 155.259 43.2357 153.86C43.0395 153.66 43.0016 153.625 42.9439 153.571C42.8806 153.513 42.7934 153.432 42.4483 153.088C42.0856 152.727 41.3606 151.992 40.686 150.972C39.0008 148.426 38.6795 145.791 38.7354 143.619C38.7617 142.593 38.6945 141.964 38.5918 141.002C38.508 140.218 38.4006 139.213 38.301 137.592C38.0307 133.194 38.8475 129.112 39.7372 125.782C40.6513 122.361 43.0718 120.386 43.7446 119.842C44.7827 119.002 45.8751 118.353 46.6944 117.901C48.3617 116.982 50.3392 116.105 51.8934 115.425C52.2249 115.28 52.5413 115.142 52.8436 115.01C52.8506 115.007 52.8577 115.004 52.8648 115.001C53.2501 114.328 53.7769 113.564 54.4911 112.818C55.762 111.49 57.6617 110.214 60.0561 109.736C61.09 108.902 62.1312 108.146 63.1039 107.48C63.0104 107.507 62.9123 107.536 62.8091 107.566C62.7288 107.59 62.6438 107.615 62.5543 107.641C60.9729 108.11 57.9852 108.994 54.658 108.928C54.6544 108.928 54.6505 108.928 54.6464 108.928L54.6173 108.93C54.5732 108.933 54.5045 108.937 54.4297 108.94C54.2818 108.948 54.0447 108.959 53.7653 108.961C53.1764 108.966 52.3633 108.933 51.4185 108.75C50.4636 108.565 49.5737 108.266 48.7457 107.88C48.3892 107.714 48.1128 107.601 47.688 107.428C47.4196 107.318 47.0921 107.185 46.6477 106.998C45.7199 106.609 44.3899 106.025 43.0306 105.183C40.213 103.436 37.7646 101.053 35.9815 98.0568C34.9985 96.4053 34.6209 94.8185 34.4448 93.8813C34.3531 93.3934 34.2954 92.9589 34.26 92.6778C34.2348 92.4775 34.2233 92.3809 34.2152 92.3124C34.2071 92.2439 34.2023 92.2036 34.1904 92.1159C34.1605 91.8955 34.1376 91.7865 34.0843 91.5339C34.0418 91.3322 33.98 91.0391 33.88 90.5247C33.7022 89.6106 33.4594 88.1967 33.4821 86.4936C33.4893 85.9542 33.4464 85.3606 33.336 84.2671C33.2832 83.7437 33.1915 83.159 33.0474 82.3213C33.0292 82.2154 33.0097 82.1029 32.9892 81.9847C32.8768 81.3369 32.7347 80.5182 32.6172 79.6829C32.5842 79.528 32.5193 79.2181 32.463 78.8797C32.4018 78.5122 32.2976 77.8127 32.2915 76.97C32.2884 76.534 32.3095 75.9237 32.4246 75.2106C32.5365 74.5169 32.7735 73.4951 33.3291 72.3609C33.7771 71.4464 34.2632 70.7226 34.6202 70.2293C34.8496 69.9122 35.1009 69.5913 35.254 69.398C37.0214 65.6278 39.88 63.2199 41.6972 61.8572C41.7042 61.8356 41.7106 61.8161 41.7163 61.7986L41.7194 61.7891C41.7872 61.582 42.0182 60.8773 42.394 60.0894C42.5729 59.7144 42.9365 58.9938 43.5202 58.2049C43.8841 57.713 45.4392 55.6164 48.408 54.5888C51.0899 53.6605 53.5291 53.866 55.1891 54.2304C56.4375 54.1645 57.5598 54.1731 58.4413 54.1993C59.5229 54.2315 61.4573 54.4032 63.4868 55.4962C64.6027 56.0971 65.4682 56.8244 66.1344 57.5313C66.3595 57.5943 66.6065 57.6687 66.8661 57.7557C68.0635 58.157 69.878 58.9394 71.5329 60.5777C74.0118 63.0316 76.2633 65.0274 78.7025 66.6569C79.489 67.1824 80.1555 67.6403 80.7562 68.0529C81.8103 68.777 82.6616 69.3618 83.6032 69.9284C82.3832 68.776 87.3082 67.7478 86.9602 65.3786C86.6908 63.5445 82.6427 61.4022 82.9443 60.466C83.2508 59.5145 81.9311 58.6838 82.2047 58.2325C82.6472 57.5024 83.1111 56.9439 83.4149 56.6042C83.2615 56.4794 83.1184 56.3546 82.9854 56.2317C79.7405 53.2336 84.4489 49.406 84.5 48.5C84.5796 47.0874 82.2737 45.226 82.5 44.5C82.9819 42.9538 81.7862 41.9838 82.3556 40.8322C82.9632 39.6036 83.6122 38.4268 84.1489 37.5154C84.4137 37.0655 84.6928 36.6095 84.9581 36.2065C85.0818 36.0185 85.2699 35.7391 85.4935 35.4416C85.5991 35.3011 85.7982 35.0417 86.063 34.7433C86.0644 34.7417 86.0671 34.7386 86.0709 34.7342C86.1678 34.6218 87.0216 33.6323 88.3732 32.8126C90.0067 31.8217 91.5994 31.4466 92.7961 31.3097C92.9485 31.0839 93.1188 30.8478 93.3079 30.6084C93.6597 30.1627 94.2016 29.5442 94.9582 28.9257C95.7109 28.3105 96.8832 27.5264 98.4733 27.0422C101.497 26.1215 104.068 26.8601 105.591 27.6326C105.61 27.6422 105.629 27.6518 105.648 27.6615C106.642 27.0916 107.705 26.5341 108.696 26.1208C109.953 25.5963 111.181 25.2716 112.486 25.1334C112.969 25.0822 113.397 25.0653 113.568 25.0585C113.577 25.0582 113.585 25.0579 113.592 25.0576C113.799 25.0493 113.814 25.0482 113.838 25.0465C114.868 24.9693 115.749 25.0498 116.212 25.1066C119.305 25.18 121.621 26.5169 122.773 27.3113C124.204 28.2982 125.63 29.6908 126.655 31.4128C126.689 31.4705 126.748 31.5621 127.23 32.1643C127.249 32.188 127.268 32.2127 127.289 32.2384C127.716 32.7712 128.492 33.7391 129.219 34.9603C129.228 34.9757 129.243 34.9998 129.263 35.0319C129.465 35.3619 130.19 36.5404 130.656 37.8203C131.338 39.6924 131.439 41.4241 131.361 42.9088C131.358 42.9786 131.356 43.0505 131.35 43.2746C131.349 43.3179 131.348 43.3669 131.346 43.4226C131.339 43.6969 131.327 44.1465 131.292 44.6394C131.232 45.4786 131.073 47.1519 130.327 48.991C130.442 49.8714 130.412 50.6216 130.359 51.1407C130.359 51.1505 130.359 51.1604 130.359 51.1704C130.365 51.4155 130.366 51.7497 130.341 52.1412C130.273 53.1981 130.097 54.1157 129.952 54.7648C129.839 55.2729 129.698 55.8117 129.616 56.125C129.601 56.1837 129.588 56.2344 129.577 56.2756C129.548 56.3863 129.527 56.4719 129.511 56.5376C129.462 59.2858 128.408 61.6713 127.988 62.5955C127.618 63.4085 130.068 65.0465 129.616 65.8101C129.126 67.9113 125.817 69.1409 125.474 71.1592ZM82.9915 42.8964C82.9915 42.8964 83.0024 42.885 83.0186 42.8683C82.9986 42.889 82.9915 42.8964 82.9915 42.8964ZM89.4882 72.434C89.0317 72.404 88.3932 72.3311 87.6762 72.1499C88.47 72.5958 89.3692 73.1336 90.3034 73.7903C90.222 73.6724 90.1615 73.5786 90.1423 73.5489C90.1255 73.5228 90.1105 73.4992 90.0978 73.4792C90.0883 73.4642 90.0802 73.4512 90.0737 73.4408C90.0191 73.3536 89.9711 73.2739 89.9425 73.2261C89.8309 73.0396 89.6687 72.7605 89.4882 72.434ZM93.3728 76.4935C93.5776 76.7486 93.789 77.0389 93.9922 77.3629C94.4082 78.026 96.8781 82.2136 94.1173 86.9746C94.6713 87.7836 95.0917 88.5284 95.3943 89.0943C95.7861 89.5871 96.0723 90.0336 96.226 90.2803C96.3691 90.51 96.4977 90.7307 96.573 90.8614C98.3538 93.4814 99.8449 96.3654 100.937 99.43C101.505 101.025 102.696 104.382 102.637 108.037C102.635 108.16 102.631 108.276 102.626 108.38C102.631 108.462 102.635 108.547 102.638 108.635C102.638 108.644 102.639 108.656 102.639 108.668C102.655 109.106 102.741 111.478 101.216 113.966C100.898 114.485 100.523 114.987 100.094 115.457C100.314 115.538 100.538 115.629 100.765 115.733C100.954 115.697 101.174 115.653 101.44 115.599C101.493 115.589 101.548 115.577 101.606 115.565C102.196 115.445 103.046 115.273 103.918 115.14C108.247 114.48 111.05 116.472 112.622 118.23C113.457 117.732 114.163 117.299 114.855 116.823C115.118 116.243 115.448 115.664 115.854 115.096C117.421 112.91 119.438 111.867 120.727 111.385C123.008 110.532 125.09 110.656 125.736 110.696C127.365 110.798 129.261 111.242 129.021 111.194C129.288 111.247 129.557 111.302 129.83 111.358L127.69 107.763C127.651 107.698 127.611 107.634 127.517 107.481L127.473 107.411C127.368 107.241 127.2 106.971 127.026 106.669C126.754 106.198 126.36 105.475 126.01 104.565C125.385 104 124.939 103.472 124.678 103.148C124.51 102.94 124.35 102.728 124.2 102.52C122.053 103.466 120.142 103.594 119.518 103.636C119.481 103.638 119.449 103.641 119.422 103.643C118.069 103.741 116.429 103.628 114.727 102.977C112.992 102.312 111.728 101.294 110.852 100.337C110.062 99.4733 109.572 98.6361 109.381 98.3053C109.292 98.1517 109.202 97.9877 109.163 97.9179L109.15 97.8945C109.126 97.8521 109.115 97.8317 109.111 97.825M89.9703 73.2682C89.9672 73.2639 89.9434 73.2238 89.9067 73.1591C89.9549 73.2402 89.9733 73.2727 89.9703 73.2682ZM93.3728 76.4935C94.5363 76.9626 96.8463 77.5703 98.6642 77.6241ZM98.6642 77.6241C100.604 78.3757 102.542 78.4054 104.189 78.0783C104.524 78.2816 104.953 78.5394 105.397 78.7866C105.491 78.8386 105.591 78.8938 105.698 78.9515M116.377 115.745C116.377 115.745 116.374 115.747 116.365 115.754C116.372 115.748 116.377 115.745 116.377 115.745ZM88.1768 118.263C87.556 118.786 86.2299 120.012 85.3183 121.913C85.2099 122.139 85.0971 122.397 84.9882 122.683C84.555 123.403 84.2212 124.041 83.9872 124.489C83.9523 124.556 83.9196 124.618 83.8891 124.676C83.7042 125.028 83.471 125.385 82.9281 126.151C82.8915 126.186 82.849 126.227 82.8055 126.269C82.5932 126.475 82.1642 126.892 81.7169 127.406C81.7128 127.411 81.7086 127.416 81.7045 127.42C81.657 127.451 81.6071 127.484 81.555 127.519C81.5695 127.466 81.5839 127.413 81.598 127.36C81.868 126.35 82.0598 124.994 81.9477 123.522C82.2265 123.242 82.5247 122.911 82.8159 122.534C83.1707 122.075 84.3108 120.483 84.7451 118.259C85.3053 118.237 85.8639 118.222 86.42 118.212C87.0831 118.2 87.6018 118.222 88.1768 118.263ZM66.3472 136.908C66.3721 136.894 66.3868 136.885 66.3924 136.881L66.3948 136.879C66.388 136.883 66.379 136.889 66.3679 136.896C66.3616 136.899 66.3547 136.904 66.3472 136.908ZM105 142C105.179 140.429 103.066 140.913 103 141C102.772 141.3 100.476 134.997 99.9589 135.457C98.953 136.352 104.232 133.429 101.156 133.38C104.66 120.694 98.4961 136.836 97.9155 136.697C97.6602 134.785 95.71 142.562 95.7794 141.451C95.8018 141.093 95.8275 140.73 95.8556 140.366C95.8827 140.015 95.9121 139.662 95.9431 139.31M96.6856 91.0556C96.6856 91.0556 96.6781 91.0434 96.6588 91.0102C96.6753 91.0377 96.6856 91.0556 96.6856 91.0556ZM35.5016 69.0795C35.5016 69.0795 35.4932 69.0922 35.4722 69.1202C35.4904 69.094 35.5016 69.0795 35.5016 69.0795ZM32.6563 79.87C32.6563 79.87 32.6534 79.8559 32.6489 79.8327C32.6543 79.8592 32.6563 79.87 32.6563 79.87ZM177.921 149.433L177.922 149.431C177.918 149.435 177.918 149.436 177.921 149.433ZM155.893 104.831C155.893 104.831 155.902 104.83 155.916 104.828C155.9 104.83 155.893 104.831 155.893 104.831ZM178.576 83.8904C178.576 83.8904 178.573 83.8994 178.567 83.9149C178.573 83.8977 178.576 83.8904 178.576 83.8904ZM177.794 69.267C177.795 69.2685 177.812 69.2909 177.839 69.3293C177.806 69.2846 177.793 69.2655 177.794 69.267Z" fill="#FF4C1F"/>
<path fill-rule="evenodd" clip-rule="evenodd" d="M87.9016 117.994C94.5488 129.161 109.025 132.702 120.235 125.903C131.446 119.103 135.145 104.538 128.498 93.3702C121.85 82.2026 107.374 78.6617 96.1638 85.4613C84.9536 92.261 81.2545 106.826 87.9016 117.994ZM84.2931 120.183C92.122 133.336 109.172 137.506 122.375 129.497C135.578 121.489 139.935 104.334 132.106 91.1814C124.277 78.0285 107.227 73.8581 94.0241 81.8665C80.8209 89.875 76.4642 107.03 84.2931 120.183Z" fill="black"/>
<path fill-rule="evenodd" clip-rule="evenodd" d="M135.068 46.7773C135.299 59.1831 130.99 74.0908 122.705 84.1413L118.841 80.7067C126.208 71.7697 130.198 58.1701 129.988 46.8673C129.883 41.222 128.734 36.4357 126.699 33.1615C124.742 30.0129 121.961 28.2122 118.094 28.2536C106.248 28.3807 97.1703 30.8985 91.7277 35.525C89.0524 37.7991 87.2337 40.596 86.3425 43.9702C85.4446 47.3692 85.4468 51.5159 86.6806 56.5195C88.7958 65.0979 91.8803 70.9671 94.4262 74.7962C95.7016 76.7144 96.8541 78.1394 97.7166 79.166C97.863 79.3402 98.012 79.5157 98.1557 79.6849C98.4094 79.9838 98.6469 80.2636 98.8253 80.4836C98.9711 80.6634 99.1371 80.8753 99.2816 81.0913L99.2847 81.0959C99.3812 81.2401 99.6827 81.6905 99.8127 82.2934L94.8548 83.435C94.9157 83.7175 95.0099 83.9097 95.0432 83.975C95.0649 84.0175 95.0827 84.0482 95.093 84.0654C95.0992 84.0757 95.104 84.0833 95.1071 84.088C95.1092 84.0913 95.1104 84.0932 95.1107 84.0936C95.1107 84.0936 95.0984 84.0755 95.067 84.0341C95.0365 83.9939 94.9955 83.9418 94.9411 83.8748C94.7951 83.6946 94.6263 83.496 94.4107 83.2423C94.2622 83.0675 94.0915 82.8667 93.8908 82.6278C92.9589 81.5187 91.6714 79.9284 90.2467 77.7856C87.3924 73.4927 84.0369 67.0566 81.7585 57.8166C80.3601 52.1451 80.2594 47.0427 81.4422 42.5647C82.6316 38.0619 85.0769 34.3538 88.5033 31.4412C95.264 25.6942 105.74 23.1113 118.03 22.9795C123.818 22.9174 128.16 25.7924 130.967 30.309C133.696 34.7 134.953 40.5683 135.068 46.7773Z" fill="black"/>
<path fill-rule="evenodd" clip-rule="evenodd" d="M88.9177 166.525C86.6753 154.6 88.8715 139.729 96.5264 128.922L100.759 131.977C94.0582 141.438 92.0088 154.798 94.0298 165.545C95.0373 170.903 97.0137 175.375 99.6869 178.342C102.293 181.234 105.568 182.73 109.575 182.33C121.787 181.109 129.427 178.3 133.286 173.942C136.916 169.842 137.789 163.605 134.328 153.626C131.442 145.308 127.797 139.766 124.875 136.199C123.411 134.412 122.114 133.104 121.147 132.164C120.983 132.004 120.817 131.844 120.656 131.689C120.371 131.415 120.105 131.16 119.905 130.958C119.741 130.792 119.553 130.597 119.388 130.396L119.384 130.392C119.273 130.258 118.928 129.838 118.744 129.252L123.705 127.667C123.618 127.392 123.506 127.21 123.467 127.148C123.441 127.108 123.42 127.079 123.408 127.063C123.403 127.057 123.4 127.052 123.396 127.048C123.391 127.041 123.388 127.037 123.388 127.037C123.388 127.037 123.402 127.054 123.437 127.092C123.472 127.129 123.518 127.177 123.579 127.238C123.743 127.404 123.933 127.585 124.174 127.817C124.34 127.977 124.531 128.161 124.757 128.38C125.801 129.395 127.25 130.855 128.885 132.852C132.161 136.85 136.13 142.93 139.239 151.89C142.959 162.615 142.657 171.24 137.166 177.442C131.903 183.386 122.477 186.318 110.088 187.557C104.256 188.14 99.4174 185.85 95.8373 181.876C92.3244 177.977 90.0419 172.503 88.9177 166.525Z" fill="black"/>
<path fill-rule="evenodd" clip-rule="evenodd" d="M45.5237 116.454C55.3528 108.258 71.1984 104.676 84.6528 107.207L83.6997 112.371C71.5611 110.088 57.3299 113.422 48.8376 120.504C44.6429 124.002 41.9832 128.289 41.4486 133.152C40.9145 138.01 42.4523 143.889 47.5268 150.669C54.6003 160.12 59.6744 163.943 63.7064 164.793C67.4694 165.586 71.1264 163.916 75.9627 159.578C81.9273 154.229 86.3447 146.874 89.3998 140.615C90.9173 137.506 92.0775 134.712 92.9157 132.629C93.0738 132.236 93.2243 131.859 93.3647 131.507C93.588 130.947 93.7857 130.451 93.9478 130.059C94.081 129.737 94.2133 129.427 94.3362 129.171C94.3971 129.045 94.474 128.892 94.5635 128.741L94.5644 128.739C94.6229 128.641 94.8115 128.322 95.1292 128.027L98.6466 131.898C98.8051 131.752 98.9041 131.62 98.9443 131.565C98.9915 131.5 99.0206 131.452 99.031 131.434C99.0391 131.42 99.0433 131.413 99.0433 131.413C99.0434 131.413 99.0354 131.428 99.0186 131.462C98.9622 131.58 98.8759 131.777 98.7501 132.081C98.5984 132.449 98.4228 132.889 98.2124 133.417C98.0707 133.772 97.9133 134.167 97.7366 134.606C96.878 136.74 95.6644 139.664 94.0674 142.936C90.8935 149.439 86.119 157.496 79.4187 163.505C74.3146 168.083 68.9603 171.266 62.6428 169.934C56.5943 168.66 50.5188 163.38 43.3751 153.835C37.7355 146.3 35.5578 139.112 36.2769 132.572C36.9954 126.037 40.5577 120.595 45.5237 116.454Z" fill="black"/>
<path fill-rule="evenodd" clip-rule="evenodd" d="M170.728 98.8287C161.6 104.365 147.953 107.318 133.415 107.739L133.266 102.488C147.374 102.08 160.004 99.2054 168.048 94.3263C172.049 91.8992 174.732 89.0899 176.043 86.0284C177.323 83.0399 177.428 79.5072 175.711 75.2707C171.096 63.8851 165.866 57.6248 160.46 55.5673C155.312 53.6075 148.984 55.1339 141.132 62.097C134.573 67.9142 130.848 73.4016 128.667 77.4727C127.574 79.5122 126.858 81.2161 126.357 82.4732C126.272 82.6866 126.187 82.9029 126.105 83.1115C125.96 83.48 125.825 83.8248 125.714 84.0883C125.624 84.3037 125.515 84.552 125.392 84.7826L125.39 84.7874C125.308 84.9414 125.052 85.4221 124.583 85.8138L121.268 81.7644C121.048 81.9479 120.923 82.1214 120.881 82.1815C120.854 82.2206 120.835 82.2509 120.825 82.2681C120.814 82.2858 120.809 82.2962 120.808 82.2971L120.808 82.2971C120.809 82.2961 120.819 82.2764 120.84 82.2301C120.861 82.1838 120.888 82.1226 120.922 82.0423C121.012 81.8266 121.108 81.5816 121.231 81.2686C121.315 81.0531 121.413 80.8054 121.529 80.5128C122.07 79.1546 122.869 77.2519 124.09 74.9736C126.536 70.4093 130.633 64.4168 137.698 58.1509C146.172 50.636 154.515 47.6904 162.296 50.6523C169.821 53.5163 175.78 61.5711 180.527 73.2814C182.698 78.6364 182.73 83.6506 180.819 88.1129C178.939 92.5023 175.312 96.0479 170.728 98.8287Z" fill="black"/>
<path fill-rule="evenodd" clip-rule="evenodd" d="M73.1127 56.1166C82.6501 62.6137 91.6982 73.0861 97.4009 82.2961L92.9884 85.0802C87.5718 76.3323 78.9964 66.4616 70.202 60.4707C65.8021 57.4734 61.5301 55.573 57.7036 55.1221C53.9883 54.6844 50.6606 55.5964 47.7931 58.3632C39.4052 66.4567 35.7344 77.4025 36.6897 86.5707C37.6318 95.613 42.993 102.804 52.8949 104.372C61.5028 105.735 68.5781 105.077 73.6208 104.127C76.1448 103.651 78.1672 103.101 79.6525 102.682C79.7997 102.64 79.9453 102.599 80.088 102.558C80.6389 102.402 81.147 102.258 81.5468 102.158C81.7991 102.095 82.0903 102.029 82.373 101.99C82.3777 101.989 82.3828 101.988 82.3885 101.988C82.5623 101.963 83.2058 101.872 83.8898 102.109L82.2013 107.077C82.5513 107.198 82.8295 107.202 82.9133 107.203C82.9719 107.203 83.0158 107.2 83.0405 107.198C83.0659 107.196 83.081 107.194 83.0836 107.193C83.0839 107.193 83.0839 107.193 83.0835 107.193C83.0808 107.194 83.0579 107.197 83.009 107.208C82.9555 107.219 82.8846 107.235 82.7925 107.258C82.4827 107.335 82.0877 107.447 81.5543 107.599C81.3997 107.643 81.2334 107.69 81.0541 107.741C79.5127 108.176 77.3209 108.773 74.5757 109.291C69.0801 110.326 61.3973 111.035 52.0887 109.561C39.4836 107.566 32.6616 98.1272 31.5147 87.1202C30.381 76.239 34.7154 63.7155 44.1977 54.5661C48.3064 50.6016 53.2267 49.3062 58.3069 49.9048C63.2759 50.4903 68.3468 52.87 73.1127 56.1166Z" fill="black"/>
<path fill-rule="evenodd" clip-rule="evenodd" d="M145.749 155.639C136.12 148.791 126.812 137.782 121.26 128.458L125.72 125.752C130.975 134.578 139.819 144.996 148.746 151.345C153.221 154.528 157.495 156.528 161.191 156.977C164.724 157.406 167.748 156.44 170.227 153.491C177.885 144.383 181.768 133.367 181.218 124.399C180.944 119.945 179.589 116.092 177.182 113.161C174.793 110.253 171.216 108.065 166.141 107.169C157.67 105.675 150.063 106.718 144.405 108.115C141.578 108.813 139.251 109.595 137.534 110.193C137.336 110.262 137.141 110.331 136.952 110.397C136.348 110.609 135.801 110.801 135.371 110.937C135.09 111.026 134.775 111.12 134.476 111.181C134.327 111.212 134.12 111.249 133.886 111.262C133.699 111.272 133.242 111.286 132.723 111.095L134.497 106.157C134.046 105.992 133.681 106.012 133.605 106.016L133.603 106.017C133.484 106.023 133.416 106.039 133.431 106.036C133.461 106.03 133.571 106.002 133.809 105.927C134.159 105.815 134.601 105.661 135.176 105.459C135.379 105.388 135.599 105.311 135.837 105.228C137.609 104.61 140.112 103.767 143.169 103.013C149.275 101.505 157.642 100.337 167.037 101.995C173.182 103.079 177.918 105.829 181.187 109.808C184.437 113.764 186.084 118.749 186.411 124.074C187.061 134.665 182.533 146.973 174.194 156.89C170.466 161.325 165.647 162.809 160.569 162.192C155.655 161.595 150.551 159.054 145.749 155.639Z" fill="black"/>
<path d="M127.65 137.238C110.133 147.862 87.4017 142.141 76.8768 124.459C66.352 106.777 72.0197 83.8295 89.5359 73.205C107.052 62.5804 129.784 68.3018 140.309 85.984C150.834 103.666 145.166 126.613 127.65 137.238Z" fill="#FFE640"/>
<path fill-rule="evenodd" clip-rule="evenodd" d="M80.7913 122.085C90.0172 137.584 109.943 142.6 125.298 133.286C140.652 123.973 145.62 103.858 136.394 88.3584C127.169 72.8586 107.242 67.8433 91.888 77.1566C76.5337 86.4698 71.5655 106.585 80.7913 122.085ZM76.8768 124.459C87.4017 142.141 110.133 147.862 127.65 137.238C145.166 126.613 150.834 103.666 140.309 85.984C129.784 68.3018 107.052 62.5804 89.5359 73.205C72.0197 83.8295 66.352 106.777 76.8768 124.459Z" fill="black"/>
<path d="M128.998 114.998C128.998 119.969 125.416 123.998 120.998 123.998C116.579 123.998 112.998 119.969 112.998 114.998C112.998 110.028 116.579 105.998 120.998 105.998C125.416 105.998 128.998 110.028 128.998 114.998Z" fill="#FF6C9C"/>
<path d="M101.998 114.998C101.998 119.969 98.8636 123.998 94.9976 123.998C91.1316 123.998 87.9976 119.969 87.9976 114.998C87.9976 110.028 91.1316 105.998 94.9976 105.998C98.8636 105.998 101.998 110.028 101.998 114.998Z" fill="#FF6C9C"/>
<path d="M104.998 97.4983C104.998 101.64 103.431 104.998 101.498 104.998C99.5646 104.998 97.9976 101.64 97.9976 97.4983C97.9976 93.3562 99.5646 89.9983 101.498 89.9983C103.431 89.9983 104.998 93.3562 104.998 97.4983Z" fill="black"/>
<path d="M118.998 97.4983C118.998 101.64 117.431 104.998 115.498 104.998C113.565 104.998 111.998 101.64 111.998 97.4983C111.998 93.3562 113.565 89.9983 115.498 89.9983C117.431 89.9983 118.998 93.3562 118.998 97.4983Z" fill="black"/>
<path fill-rule="evenodd" clip-rule="evenodd" d="M94.9744 116.612C95.1457 114.91 95.2044 113.144 95.2044 111.998H96.6741C96.6741 113.139 96.6187 114.859 96.4581 116.557C97.9031 119.773 102.117 124.351 108.294 124.351C114.01 124.351 116.984 120.341 117.523 119.154L117.62 119.21C117.607 119.15 117.594 119.089 117.58 119.029C117.215 117.349 116.944 115.483 116.895 114.393L118.362 114.31C118.405 115.259 118.655 117.016 119.008 118.638C119.184 119.446 119.38 120.194 119.578 120.775C119.678 121.067 119.773 121.299 119.859 121.469C119.937 121.624 119.986 121.684 119.996 121.696C119.998 121.698 119.998 121.698 119.997 121.697L119.104 123.005C118.876 122.81 118.706 122.531 118.58 122.28C118.445 122.014 118.321 121.7 118.206 121.365C118.176 121.276 118.146 121.185 118.116 121.091C116.679 123.073 113.448 125.998 108.294 125.998C102.515 125.998 98.2866 122.397 96.1219 119.07C96.0817 119.287 96.0387 119.499 95.9927 119.703C95.8021 120.55 95.5369 121.381 95.1355 121.931L93.9976 120.889C94.1823 120.636 94.3859 120.108 94.5677 119.301C94.7428 118.523 94.8762 117.587 94.9744 116.612Z" fill="black"/>
<path fill-rule="evenodd" clip-rule="evenodd" d="M207.882 243.344C220.106 216.522 234.16 191.748 244.875 177.998L256.998 187.448C247.348 199.829 233.876 223.37 221.867 249.719C209.859 276.065 199.718 304.341 196.282 326.105C192.436 350.467 194.969 380.33 198.667 409.241C199.626 416.743 200.674 424.23 201.695 431.527C204.516 451.686 207.134 470.4 207.134 483.998H191.765C191.765 471.553 189.384 454.528 186.634 434.863C185.58 427.324 184.471 419.397 183.422 411.192C179.723 382.27 176.878 350.455 181.101 323.708C184.856 299.919 195.655 270.169 207.882 243.344Z" fill="black"/>
<path fill-rule="evenodd" clip-rule="evenodd" d="M212.485 243.865C224.634 217.042 238.518 192.466 248.947 178.998L254.998 183.744C245.1 196.525 231.506 220.481 219.465 247.067C207.424 273.651 197.137 302.424 193.627 324.795C189.694 349.865 192.301 380.352 195.993 409.396C196.972 417.103 198.033 424.732 199.06 432.124C201.859 452.258 204.413 470.629 204.413 483.998H196.743C196.743 471.209 194.307 453.686 191.543 433.799C190.499 426.286 189.408 418.435 188.384 410.375C184.692 381.326 181.929 349.859 186.05 323.591C189.72 300.203 200.335 270.69 212.485 243.865Z" fill="#019C40"/>
<path fill-rule="evenodd" clip-rule="evenodd" d="M294.02 161.275C294.809 161.028 295.499 160.896 295.959 160.821C296.422 160.745 296.851 160.697 297.048 160.675L297.079 160.671C297.152 160.663 297.201 160.657 297.231 160.653C298.132 160.499 299.066 160.301 300.228 160.053L300.304 160.036C301.421 159.798 302.766 159.511 304.157 159.276C305.653 159.023 307.037 158.953 307.863 158.912C307.902 158.91 307.941 158.908 307.978 158.906C308.559 158.877 308.901 158.856 309.132 158.835C309.178 158.816 309.232 158.794 309.296 158.767C309.313 158.76 309.33 158.753 309.349 158.745C309.637 158.625 310.18 158.4 310.772 158.192C311.159 158.057 311.622 157.908 312.149 157.773C312.153 157.77 312.157 157.768 312.161 157.765C312.18 157.754 312.2 157.741 312.222 157.727C312.583 157.499 313.335 157.024 314.183 156.596C315.126 156.121 316.519 155.526 318.258 155.232C319.469 155.027 321.237 154.745 323.115 154.621C324.8 154.511 327.214 154.475 329.712 155.065C329.743 155.07 329.779 155.075 329.819 155.08C329.834 155.082 329.85 155.084 329.869 155.087C330.188 155.13 331.071 155.248 332.017 155.498C333.017 155.763 334.797 156.348 336.55 157.757C338.313 159.175 339.665 161.123 340.352 163.433C341.121 164.079 342.018 164.903 342.876 165.879C344.051 167.216 346.025 169.802 346.627 173.435C346.893 175.036 347.239 177.167 347.334 179.477C347.355 180.001 347.387 180.393 347.436 180.762C347.477 180.922 347.529 181.132 347.578 181.352C347.655 181.703 347.822 182.494 347.873 183.456C347.9 183.951 347.911 184.736 347.772 185.676C347.641 186.566 347.3 188.11 346.274 189.737C345.815 190.465 345.351 191.029 345.017 191.408C344.688 191.781 344.384 192.086 344.238 192.231C344.225 192.244 344.212 192.257 344.2 192.27C343.447 193.25 342.351 194.636 341.068 195.921C340.957 196.056 340.643 196.438 340.328 196.785C339.941 197.211 339.277 197.904 338.367 198.584C337.44 199.277 336.06 200.107 334.24 200.568C334.195 200.579 334.114 200.603 334 200.637C333.366 200.824 331.724 201.307 329.687 201.578C329.645 201.616 329.602 201.653 329.559 201.691C329.175 202.024 328.563 202.527 327.781 203.012C327.377 203.262 326.852 203.556 326.219 203.827C325.591 204.095 324.759 204.383 323.758 204.552C321.097 205.002 318.847 204.441 317.149 203.654C314.958 204.335 312.395 204.658 309.522 204.168C306.887 203.718 304.79 202.704 303.541 202.06C303.414 201.995 303.297 201.934 303.188 201.877L303.267 202.358C303.397 202.509 303.536 202.677 303.681 202.86C303.954 203.203 304.272 203.63 304.593 204.132C304.783 204.428 305.021 204.782 305.284 205.14C305.47 205.392 305.645 205.615 305.804 205.804C306.571 206.085 307.129 206.37 307.387 206.501L307.413 206.514C307.435 206.525 307.458 206.537 307.48 206.548C307.555 206.569 307.621 206.586 307.708 206.609C307.808 206.635 307.935 206.668 308.136 206.722C308.628 206.853 309.524 207.094 310.558 207.506C310.613 207.518 310.67 207.532 310.729 207.546C310.894 207.585 311.069 207.63 311.252 207.683C311.272 207.687 311.295 207.692 311.321 207.698C311.511 207.741 311.782 207.8 312.143 207.877C312.339 207.919 312.559 207.966 312.797 208.016C313.381 208.14 314.066 208.286 314.728 208.43C315.655 208.633 316.702 208.868 317.6 209.099C318.037 209.212 318.569 209.356 319.09 209.524C319.346 209.607 319.716 209.733 320.126 209.902L320.132 209.905C320.396 210.013 321.329 210.398 322.334 211.122C322.841 211.486 323.529 212.05 324.211 212.861C324.901 213.681 325.694 214.887 326.181 216.497C326.248 216.72 326.308 216.946 326.36 217.173C326.381 217.19 326.402 217.207 326.424 217.225C327.749 218.32 328.937 219.737 329.822 221.521C330.005 221.889 330.142 222.216 330.239 222.46C330.338 222.711 330.42 222.939 330.484 223.128C330.609 223.495 330.711 223.838 330.785 224.093C330.844 224.298 330.9 224.503 330.948 224.679C331.302 225.301 331.558 225.864 331.731 226.275C331.807 226.457 331.894 226.671 331.983 226.913C332.185 227.385 332.343 227.823 332.467 228.208C332.884 229.503 333.081 230.703 333.19 231.538C333.291 232.301 333.352 233.054 333.389 233.512C333.393 233.554 333.396 233.594 333.399 233.631C333.437 234.099 333.452 234.236 333.452 234.236L333.452 234.235L333.596 235.1L332.365 235.309C332.411 235.907 332.436 236.541 332.426 237.191C332.348 241.975 329.622 245.332 328.309 246.787C326.967 248.274 325.419 249.567 324.097 250.585C324.145 252.612 323.6 254.383 322.881 255.749C322.118 257.199 321.172 258.189 320.513 258.785C318.91 260.234 317.258 261.03 316.595 261.349L316.561 261.365C316.359 261.463 316.243 261.518 316.168 261.553C316.149 261.563 316.132 261.571 316.117 261.578C314.358 262.778 311.921 263.902 309.543 264.386C309.418 264.434 309.265 264.498 309.04 264.594C308.903 264.653 308.841 264.68 308.68 264.748C308.551 264.804 308.4 264.868 308.242 264.933C307.053 265.428 305.402 265.906 303.429 265.855C301.335 265.801 299.501 265.165 298.02 264.279C296.689 263.482 295.791 262.568 295.365 262.112C295.133 261.864 294.94 261.64 294.826 261.507C294.7 261.359 294.683 261.34 294.671 261.325C294.661 261.312 294.653 261.304 294.584 261.222C294.189 260.762 293.909 260.54 293.103 259.897C292.692 259.569 292.144 259.133 291.375 258.501C289.99 257.363 289.01 256.179 288.432 255.456C288.071 255.003 287.886 254.763 287.767 254.61C287.635 254.439 287.586 254.375 287.467 254.243C284.346 250.772 282.562 246.851 281.356 243.928C280.886 242.791 280.514 241.844 280.188 241.016C279.53 239.344 279.063 238.158 278.379 236.877C277.315 234.888 276.571 232.394 276.342 231.625C276.32 231.553 276.303 231.496 276.291 231.456C276.286 231.443 276.279 231.425 276.269 231.403C276.224 231.297 276.199 231.239 276.157 231.145C276.121 231.063 276.072 230.953 275.989 230.76C275.746 230.201 275.257 229.068 274.912 227.656C274.899 227.61 274.879 227.536 274.848 227.426C274.846 227.418 274.843 227.409 274.841 227.399C274.774 227.161 274.5 226.179 274.417 224.985C274.379 224.429 274.346 223.371 274.605 222.084C274.482 221.997 274.358 221.909 274.234 221.822C273.838 221.944 273.495 222.035 273.235 222.101C273.05 222.149 272.87 222.192 272.722 222.227C272.733 222.505 272.739 222.767 272.742 223.011C272.76 224.389 272.679 225.87 272.629 226.788C272.618 226.993 272.608 227.17 272.601 227.311C272.571 227.962 272.519 228.581 272.48 229.039C272.474 229.113 272.468 229.183 272.462 229.249C272.428 229.646 272.404 229.923 272.386 230.201C272.369 230.47 272.366 230.63 272.365 230.704C272.422 231.028 272.468 231.249 272.531 231.551C272.598 231.867 272.682 232.27 272.816 232.973C273.02 234.042 273.293 235.643 273.316 237.427C273.335 238.885 273.198 240.197 273.108 241.016C273.09 241.183 273.074 241.332 273.059 241.465C272.987 242.12 272.956 242.401 272.943 242.702C272.934 242.908 272.934 242.993 272.934 243.149C272.934 243.303 272.933 243.527 272.924 244.007C272.911 244.709 272.873 245.775 272.672 247.005C272.403 248.654 272.049 250.033 271.633 251.339C271.655 251.441 271.678 251.549 271.7 251.656C271.756 251.928 271.824 252.267 271.886 252.641C271.89 252.669 271.896 252.702 271.903 252.742C271.949 253.018 272.042 253.567 272.101 254.07C272.179 254.727 272.27 255.793 272.138 257.067C271.831 260.007 270.551 262.109 269.668 263.358C269.65 263.384 269.623 263.425 269.588 263.478C269.079 264.251 266.805 267.703 262.14 269.01C259.23 269.825 256.344 270.351 253.614 270.72C251.25 271.04 249.233 270.756 247.852 270.476C247.176 270.339 246.561 270.182 246.148 270.075C246.068 270.054 245.995 270.036 245.928 270.018C245.59 269.931 245.4 269.882 245.202 269.837C244.356 269.643 243.998 269.647 243.574 269.699C242.846 269.788 241.287 269.976 239.555 269.866C238.085 269.773 235.832 269.432 233.537 268.135C233.525 268.132 233.514 268.128 233.502 268.125L233.497 268.123C233.131 268.011 232.228 267.735 231.258 267.277C230.294 266.821 228.608 265.89 227.136 264.104C224.31 260.674 222.914 257.156 221.982 253.935C220.68 249.44 220.01 244.077 221.756 238.281C222.674 235.235 224.039 232.099 225.08 229.708C225.385 229.006 225.663 228.368 225.893 227.816C226.14 227.223 226.394 226.669 226.576 226.272L226.602 226.217C226.791 225.803 226.91 225.545 227.017 225.294C227.102 225.096 227.148 224.975 227.169 224.916C227.262 224.375 227.375 223.772 227.512 223.126C227.154 223.179 226.849 223.216 226.611 223.244C226.268 223.285 225.939 223.319 225.688 223.345L225.67 223.346C225.404 223.374 225.221 223.393 225.048 223.413C224.876 223.433 224.779 223.447 224.739 223.453C224.641 223.48 224.497 223.526 224.022 223.68L223.787 223.756C223.314 223.909 222.523 224.164 221.574 224.381C221.316 224.648 221.039 224.909 220.742 225.161C220.459 225.401 220.163 225.637 219.854 225.868C219.599 226.528 219.224 227.301 218.668 228.093C217.437 229.843 215.26 231.71 212.112 232.241C211.281 232.382 210.569 232.399 210.064 232.388C209.544 232.376 209.094 232.33 208.747 232.282C208.279 232.219 207.857 232.134 207.513 232.055C207.387 232.164 207.257 232.271 207.123 232.376C203.572 235.155 199.815 234.503 198.563 234.184C197.146 233.824 196.153 233.231 195.795 233.009C195.548 232.857 195.334 232.71 195.158 232.582C194.685 232.347 194.149 232.039 193.592 231.638C191.011 229.78 189.736 227.375 189.163 226.172C188.851 225.516 188.608 224.906 188.471 224.557C188.383 224.336 188.349 224.248 188.296 224.114C188.275 224.062 188.259 224.025 188.248 223.997L188.236 223.967C188.233 223.961 188.232 223.958 188.232 223.958C187.336 221.917 186.423 219.657 185.746 217.11C185.74 217.101 185.735 217.091 185.729 217.082C184.478 215.116 183.466 213.089 182.647 211.117C182.53 210.835 182.506 210.784 182.47 210.707C182.43 210.622 182.375 210.505 182.166 210.017C181.947 209.505 181.513 208.467 181.235 207.163C180.541 203.907 181.214 201.117 182.082 198.949C182.491 197.926 182.661 197.264 182.921 196.251C183.133 195.426 183.404 194.368 183.914 192.693C185.297 188.146 187.623 184.362 189.74 181.366C191.915 178.288 195.021 177.285 195.883 177.011C197.212 176.588 198.523 176.379 199.493 176.258C201.468 176.011 203.73 175.934 205.504 175.883C205.882 175.872 206.243 175.862 206.588 175.852C206.596 175.852 206.604 175.852 206.612 175.852C207.241 175.33 208.042 174.775 209.02 174.313C210.76 173.493 213.095 172.982 215.615 173.477C216.938 173.058 218.239 172.721 219.44 172.445C219.338 172.435 219.231 172.424 219.119 172.412C219.032 172.403 218.939 172.394 218.842 172.384C217.12 172.211 213.868 171.883 210.64 170.457C210.636 170.456 210.632 170.455 210.628 170.453L210.599 170.443C210.555 170.428 210.486 170.404 210.412 170.377C210.264 170.325 210.028 170.239 209.754 170.127C209.177 169.891 208.394 169.526 207.539 168.956C206.675 168.38 205.917 167.714 205.252 166.987C204.965 166.674 204.737 166.447 204.387 166.099C204.165 165.879 203.895 165.61 203.531 165.241C202.769 164.469 201.687 163.338 200.674 161.933C198.573 159.021 197.072 155.617 196.45 151.867C196.108 149.8 196.333 148.045 196.511 147.028C196.604 146.498 196.711 146.036 196.781 145.738C196.832 145.526 196.857 145.424 196.874 145.351C196.892 145.279 196.902 145.236 196.924 145.143C196.977 144.908 196.995 144.789 197.038 144.513C197.072 144.292 197.121 143.971 197.216 143.411C197.384 142.417 197.676 140.891 198.336 139.183C198.545 138.641 198.726 138.025 199.027 136.877C199.172 136.328 199.301 135.7 199.474 134.797C199.496 134.682 199.519 134.561 199.543 134.433C199.676 133.734 199.843 132.85 200.041 131.96C200.067 131.79 200.119 131.451 200.191 131.086C200.269 130.691 200.429 129.943 200.739 129.09C200.899 128.649 201.148 128.042 201.527 127.37C201.897 126.716 202.511 125.782 203.479 124.865C204.259 124.125 205.006 123.593 205.539 123.242C205.882 123.016 206.248 122.794 206.47 122.662C209.61 119.581 213.307 118.319 215.594 117.686C215.609 117.667 215.622 117.65 215.634 117.635L215.641 117.627C215.785 117.445 216.274 116.829 216.937 116.188C217.252 115.882 217.878 115.304 218.744 114.747C219.284 114.399 221.589 112.919 224.877 113.095C227.846 113.253 230.154 114.457 231.641 115.502C232.886 115.945 233.98 116.412 234.832 116.798C235.878 117.272 237.705 118.235 239.28 120.167C240.146 121.228 240.719 122.315 241.106 123.3C241.303 123.456 241.516 123.632 241.737 123.825C242.758 124.719 244.239 126.249 245.244 128.577C246.748 132.065 248.202 134.997 249.977 137.637C250.549 138.488 251.029 139.222 251.462 139.883C252.222 141.044 252.835 141.982 253.543 142.938C252.782 141.277 252.29 139.034 252.837 136.502C253.261 134.542 254.158 133.141 254.804 132.32C255.46 131.486 256.119 130.913 256.556 130.569C257.262 130.013 257.924 129.639 258.349 129.421C258.245 129.232 258.152 129.048 258.068 128.87C256.018 124.521 257.634 120.66 258.024 119.767C258.63 118.375 259.416 117.282 259.909 116.642C260.959 115.279 262.231 114.008 263.219 113.079C264.273 112.088 265.348 111.166 266.214 110.466C266.642 110.12 267.085 109.774 267.495 109.476C267.687 109.337 267.975 109.132 268.305 108.923C268.461 108.824 268.753 108.644 269.124 108.451C269.126 108.45 269.129 108.448 269.135 108.445C269.272 108.371 270.477 107.722 272.105 107.447C274.073 107.114 275.771 107.386 276.992 107.737C277.226 107.571 277.481 107.403 277.755 107.238C278.266 106.932 279.028 106.53 279.999 106.215C280.965 105.901 282.405 105.589 284.141 105.75C287.442 106.056 289.679 107.851 290.879 109.252C290.894 109.269 290.909 109.286 290.924 109.304C292.109 109.135 293.357 109.007 294.481 108.994C295.907 108.979 297.229 109.153 298.556 109.546C299.048 109.692 299.473 109.849 299.642 109.912C299.651 109.915 299.659 109.918 299.666 109.921C299.871 109.997 299.887 110.002 299.91 110.01C300.946 110.353 301.778 110.794 302.209 111.04C305.206 112.377 306.97 114.671 307.798 115.943C308.828 117.523 309.701 119.51 310.058 121.665C310.07 121.737 310.093 121.853 310.338 122.658C310.348 122.689 310.358 122.722 310.369 122.757C310.587 123.468 310.983 124.762 311.236 126.29C311.24 126.309 311.245 126.34 311.252 126.38C311.327 126.796 311.594 128.28 311.571 129.762C311.536 131.929 310.987 133.717 310.355 135.182C310.325 135.251 310.296 135.323 310.207 135.547C310.189 135.59 310.17 135.639 310.148 135.695C310.038 135.968 309.858 136.417 309.639 136.9C309.267 137.722 308.484 139.345 307.066 140.895C306.849 141.83 306.538 142.575 306.292 143.076C306.289 143.087 306.285 143.097 306.282 143.107C306.196 143.356 306.071 143.694 305.9 144.078C305.438 145.117 304.922 145.97 304.537 146.566C304.237 147.032 303.897 147.518 303.7 147.801C303.663 147.854 303.631 147.9 303.605 147.937C303.536 148.037 303.482 148.114 303.442 148.174C302.365 150.926 300.442 152.902 299.685 153.663C299.019 154.332 298.293 154.981 297.565 155.567C296.299 157.486 295.111 159.379 294.02 161.275ZM263.068 115.421C263.069 115.42 263.083 115.414 263.105 115.404C263.077 115.416 263.066 115.421 263.068 115.421ZM258.359 147.868C257.924 147.651 257.327 147.317 256.694 146.841C257.303 147.615 257.981 148.525 258.648 149.569C258.613 149.417 258.589 149.297 258.581 149.259C258.574 149.226 258.569 149.196 258.564 149.171C258.56 149.152 258.557 149.136 258.554 149.122C258.534 149.012 258.517 148.912 258.507 148.852C258.467 148.619 258.413 148.271 258.359 147.868ZM260.637 153.549C260.742 153.89 260.84 154.269 260.917 154.678C261.075 155.517 261.922 160.75 257.44 164.425C257.679 165.467 257.811 166.39 257.895 167.084C258.093 167.741 258.206 168.308 258.264 168.62C258.318 168.91 258.361 169.185 258.386 169.348C259.146 172.718 259.524 176.236 259.444 179.773C259.402 181.614 259.309 185.486 257.883 189.149C257.835 189.272 257.788 189.387 257.744 189.49C257.718 189.575 257.69 189.663 257.66 189.752C257.657 189.762 257.653 189.773 257.649 189.787C257.5 190.234 256.696 192.662 254.273 194.549C253.768 194.943 253.213 195.296 252.618 195.595C252.803 195.766 252.988 195.95 253.171 196.147C253.369 196.188 253.601 196.234 253.881 196.288C253.936 196.299 253.995 196.31 254.056 196.322C254.678 196.442 255.573 196.614 256.476 196.836C260.955 197.938 262.95 201.092 263.829 203.507C264.832 203.346 265.683 203.197 266.538 203C267.013 202.522 267.553 202.072 268.162 201.666C270.512 200.101 272.875 199.872 274.316 199.912C276.865 199.983 278.855 200.958 279.472 201.262C281.026 202.03 282.713 203.252 282.497 203.105C282.738 203.268 282.981 203.433 283.226 203.601L282.48 199.101C282.467 199.02 282.452 198.939 282.416 198.746L282.4 198.657C282.36 198.443 282.298 198.102 282.241 197.727C282.151 197.14 282.036 196.251 282.035 195.189C281.635 194.365 281.397 193.65 281.263 193.216C281.177 192.938 281.1 192.658 281.032 192.388C278.578 192.465 276.661 191.814 276.036 191.602C275.999 191.589 275.967 191.578 275.939 191.569C274.58 191.116 273.018 190.332 271.598 188.98C270.15 187.602 269.297 186.059 268.799 184.736C268.349 183.542 268.184 182.498 268.121 182.086C268.092 181.895 268.064 181.692 268.053 181.606L268.049 181.577C268.042 181.525 268.038 181.5 268.037 181.491M258.518 148.906C258.517 148.9 258.508 148.85 258.497 148.77C258.513 148.872 258.519 148.912 258.518 148.906ZM260.637 153.549C261.599 154.497 263.63 156.053 265.387 156.849ZM265.387 156.849C267.002 158.399 268.885 159.221 270.619 159.563C270.87 159.905 271.193 160.341 271.535 160.771C271.607 160.862 271.684 160.958 271.767 161.06M268.431 202.533C268.431 202.533 268.427 202.534 268.415 202.538C268.425 202.535 268.431 202.533 268.431 202.533ZM239.916 193.56C239.113 193.833 237.357 194.529 235.754 196.074C235.564 196.258 235.357 196.472 235.143 196.716C234.45 197.265 233.885 197.773 233.488 198.129C233.429 198.182 233.374 198.232 233.322 198.278C233.01 198.557 232.648 198.822 231.83 199.373C231.781 199.394 231.725 199.418 231.666 199.443C231.382 199.563 230.806 199.809 230.176 200.145C230.17 200.148 230.165 200.151 230.159 200.154C230.101 200.166 230.04 200.178 229.976 200.192C230.01 200.145 230.044 200.097 230.077 200.05C230.72 199.141 231.415 197.852 231.856 196.321C232.234 196.152 232.649 195.941 233.075 195.679C233.594 195.361 235.305 194.221 236.562 192.154C237.118 192.361 237.67 192.573 238.217 192.791C238.87 193.05 239.369 193.284 239.916 193.56ZM237.969 168.905C237.969 168.905 237.97 168.908 237.972 168.915C237.97 168.909 237.969 168.905 237.969 168.905ZM211.591 203.454C211.621 203.45 211.639 203.446 211.646 203.445C211.647 203.444 211.648 203.444 211.648 203.444C211.64 203.445 211.629 203.447 211.616 203.45C211.608 203.451 211.6 203.452 211.591 203.454ZM247.575 225.078C247.513 225.121 247.433 225.175 247.336 225.236C247.001 225.446 245.675 215.461 244.997 215.714C243.678 216.206 249.934 215.412 246.945 214.107C255.121 202.742 243.05 216.507 242.535 216.13C243.001 214.097 238.182 221.145 238.666 220.053C238.822 219.701 238.983 219.346 239.147 218.99C239.305 218.647 239.466 218.303 239.628 217.961M258.423 169.59C258.423 169.592 258.42 169.574 258.414 169.533C258.42 169.567 258.423 169.588 258.423 169.59ZM223.599 163.536L223.594 163.535C223.596 163.535 223.598 163.535 223.599 163.536ZM206.832 122.442C206.832 122.442 206.819 122.451 206.788 122.471C206.815 122.452 206.832 122.442 206.832 122.442ZM200.009 132.164C200.009 132.164 200.012 132.149 200.016 132.124C200.011 132.153 200.009 132.164 200.009 132.164ZM217.994 224.828C217.976 224.831 217.966 224.832 217.966 224.832C217.966 224.832 217.975 224.831 217.994 224.828ZM315.988 261.642L315.99 261.64C315.985 261.644 315.984 261.644 315.988 261.642ZM311.153 207.659C311.153 207.659 311.161 207.661 311.176 207.665C311.16 207.661 311.153 207.659 311.153 207.659ZM309.694 207.34C309.691 207.34 309.692 207.34 309.694 207.34ZM341.171 195.798C341.171 195.798 341.165 195.805 341.153 195.819C341.166 195.804 341.171 195.798 341.171 195.798ZM347.334 180.37C347.335 180.372 347.342 180.402 347.354 180.451C347.339 180.393 347.333 180.368 347.334 180.37Z" fill="#FFBACB"/>
<path fill-rule="evenodd" clip-rule="evenodd" d="M238.281 193.427C240.598 207.406 253.852 216.816 267.884 214.446C281.916 212.075 291.413 198.822 289.095 184.843C286.778 170.864 273.524 161.454 259.492 163.824C245.46 166.195 235.963 179.448 238.281 193.427ZM233.764 194.19C236.493 210.654 252.103 221.737 268.63 218.945C285.156 216.153 296.341 200.544 293.612 184.08C290.883 167.616 275.273 156.533 258.746 159.325C242.22 162.117 231.035 177.726 233.764 194.19Z" fill="black"/>
<path fill-rule="evenodd" clip-rule="evenodd" d="M312.907 140.111C308.301 152.754 298.034 166.044 285.561 172.773L282.915 167.698C294.007 161.714 303.434 149.614 307.63 138.095C309.726 132.342 310.409 127.025 309.588 122.869C308.798 118.873 306.631 115.899 302.625 114.337C290.353 109.553 280.003 108.335 272.581 110.757C268.932 111.948 265.964 114.022 263.727 117.065C261.473 120.131 259.856 124.326 259.176 129.898C258.009 139.451 258.9 146.666 260.031 151.595C260.598 154.064 261.231 155.983 261.72 157.379C261.803 157.616 261.889 157.855 261.971 158.086C262.116 158.494 262.252 158.875 262.35 159.171C262.43 159.414 262.519 159.697 262.583 159.975L262.585 159.981C262.628 160.167 262.763 160.748 262.662 161.411L257.101 160.51C257.053 160.821 257.075 161.054 257.084 161.134C257.09 161.186 257.096 161.225 257.1 161.246C257.103 161.259 257.105 161.269 257.106 161.275C257.107 161.279 257.107 161.282 257.107 161.282C257.107 161.282 257.102 161.259 257.086 161.204C257.07 161.151 257.048 161.081 257.018 160.991C256.938 160.748 256.841 160.477 256.718 160.131C256.633 159.893 256.535 159.619 256.421 159.294C255.893 157.786 255.185 155.643 254.552 152.885C253.283 147.36 252.334 139.459 253.59 129.169C254.362 122.853 256.25 117.65 259.219 113.612C262.205 109.551 266.176 106.815 270.848 105.29C280.068 102.281 291.886 104.013 304.619 108.976C310.615 111.314 313.972 116.022 315.105 121.754C316.206 127.327 315.212 133.783 312.907 140.111Z" fill="black"/>
<path fill-rule="evenodd" clip-rule="evenodd" d="M220.14 242.955C222.58 229.983 230.676 215.815 242.693 207.958L245.77 212.753C235.251 219.632 227.901 232.33 225.701 244.021C224.605 249.849 224.839 255.171 226.373 259.25C227.868 263.227 230.592 266.059 234.807 267.266C247.649 270.945 256.492 271.177 262.118 268.319C267.412 265.631 270.759 259.669 271.196 248.176C271.561 238.595 270.061 231.519 268.512 226.733C267.736 224.335 266.94 222.488 266.333 221.148C266.23 220.92 266.124 220.691 266.023 220.469C265.843 220.078 265.675 219.712 265.551 219.427C265.451 219.194 265.338 218.921 265.25 218.651L265.248 218.645C265.189 218.464 265.004 217.901 265.05 217.233L270.697 217.626C270.718 217.313 270.677 217.083 270.661 217.005C270.651 216.954 270.641 216.916 270.635 216.895C270.633 216.887 270.631 216.88 270.63 216.875C270.627 216.866 270.625 216.861 270.625 216.86C270.625 216.86 270.633 216.883 270.654 216.936C270.674 216.987 270.702 217.054 270.739 217.141C270.84 217.375 270.96 217.635 271.113 217.967C271.218 218.196 271.339 218.459 271.48 218.771C272.137 220.219 273.026 222.28 273.893 224.958C275.629 230.324 277.245 238.075 276.853 248.395C276.383 260.748 272.67 269.357 264.663 273.424C256.989 277.322 246.29 276.496 233.261 272.763C227.128 271.006 223.135 266.741 221.081 261.278C219.065 255.917 218.917 249.458 220.14 242.955Z" fill="black"/>
<path fill-rule="evenodd" clip-rule="evenodd" d="M195.995 174.811C209.181 170.471 226.634 173.223 239.252 181.2L236.248 186.043C224.864 178.846 209.142 176.494 197.75 180.244C192.123 182.096 187.738 185.365 185.276 190.071C182.816 194.773 182.051 201.343 184.509 210.248C187.936 222.66 191.562 228.572 195.307 231.055C198.803 233.372 203.164 233.154 209.772 230.71C217.922 227.696 225.298 222.03 230.862 216.924C233.626 214.388 235.904 212.028 237.575 210.257C237.89 209.923 238.191 209.601 238.472 209.301C238.92 208.825 239.316 208.402 239.635 208.071C239.897 207.798 240.153 207.538 240.378 207.329C240.49 207.225 240.628 207.102 240.778 206.984L240.78 206.983C240.878 206.907 241.195 206.66 241.633 206.49L243.664 211.824C243.882 211.739 244.034 211.646 244.097 211.606C244.17 211.559 244.219 211.522 244.236 211.508C244.25 211.498 244.257 211.492 244.257 211.492C244.257 211.492 244.243 211.504 244.213 211.532C244.109 211.628 243.944 211.793 243.696 212.051C243.398 212.361 243.046 212.736 242.625 213.186C242.341 213.488 242.026 213.825 241.673 214.198C239.962 216.012 237.578 218.484 234.67 221.153C228.889 226.457 220.874 232.69 211.719 236.076C204.745 238.655 198.068 239.722 192.2 235.831C186.582 232.107 182.517 224.318 179.056 211.782C176.324 201.885 176.959 193.733 180.27 187.403C183.578 181.078 189.333 177.004 195.995 174.811Z" fill="black"/>
<path fill-rule="evenodd" clip-rule="evenodd" d="M329.681 207.363C318.256 209.293 303.277 206.789 288.396 201.364L290.319 195.989C304.76 201.254 318.678 203.428 328.747 201.727C333.756 200.881 337.581 199.117 340.117 196.546C342.593 194.036 344.095 190.503 344.03 185.524C343.855 172.143 341.035 163.701 336.376 159.443C331.938 155.387 324.931 154.386 314.234 158.273C305.297 161.521 299.36 165.576 295.544 168.819C293.632 170.443 292.235 171.88 291.231 172.95C291.061 173.132 290.889 173.317 290.724 173.495C290.432 173.81 290.159 174.104 289.943 174.327C289.767 174.508 289.558 174.716 289.343 174.9L289.338 174.904C289.195 175.026 288.746 175.41 288.116 175.618L286.361 170.185C286.066 170.282 285.87 170.407 285.804 170.451C285.761 170.48 285.73 170.503 285.713 170.516C285.695 170.53 285.686 170.538 285.685 170.539L285.685 170.539C285.686 170.538 285.704 170.522 285.744 170.484C285.783 170.446 285.835 170.395 285.9 170.327C286.077 170.145 286.271 169.936 286.519 169.668C286.689 169.484 286.886 169.272 287.119 169.023C288.203 167.866 289.763 166.262 291.899 164.447C296.177 160.812 302.691 156.395 312.316 152.897C323.861 148.701 333.469 149.078 340.175 155.207C346.66 161.135 349.511 171.686 349.69 185.449C349.772 191.743 347.825 196.831 344.128 200.578C340.491 204.264 335.42 206.393 329.681 207.363Z" fill="black"/>
<path fill-rule="evenodd" clip-rule="evenodd" d="M247.75 124.845C254.837 135.26 259.859 149.501 261.993 161.118L256.428 162.16C254.4 151.126 249.619 137.684 243.084 128.081C239.814 123.276 236.241 119.633 232.546 117.637C228.958 115.698 225.23 115.282 221.235 116.928C209.549 121.744 201.51 131.346 198.856 141.01C196.238 150.541 198.824 159.978 208.227 165.55C216.402 170.394 223.823 172.576 229.302 173.644C232.044 174.178 234.309 174.435 235.978 174.608C236.143 174.626 236.307 174.642 236.467 174.659C237.087 174.722 237.658 174.78 238.102 174.841C238.382 174.879 238.703 174.929 239.005 175.003C239.01 175.004 239.015 175.005 239.021 175.007C239.207 175.052 239.894 175.219 240.493 175.734L236.821 180.083C237.128 180.347 237.408 180.463 237.493 180.496C237.552 180.52 237.597 180.535 237.623 180.543C237.65 180.551 237.666 180.555 237.669 180.556C237.669 180.556 237.669 180.556 237.669 180.556C237.666 180.555 237.641 180.549 237.587 180.54C237.529 180.53 237.451 180.518 237.348 180.504C237.004 180.457 236.56 180.412 235.961 180.35C235.787 180.333 235.6 180.313 235.398 180.293C233.666 180.113 231.212 179.835 228.229 179.254C222.258 178.09 214.201 175.716 205.362 170.478C193.392 163.384 190.215 151.086 193.401 139.483C196.551 128.014 205.884 117.082 219.096 111.638C224.82 109.279 230.312 109.948 235.217 112.599C240.015 115.191 244.208 119.641 247.75 124.845Z" fill="black"/>
<path fill-rule="evenodd" clip-rule="evenodd" d="M281.962 254.811C274.922 244.005 269.848 229.116 267.911 217.443L273.494 216.5C275.327 227.549 280.164 241.652 286.692 251.671C289.964 256.694 293.5 260.439 297.064 262.38C300.47 264.237 303.912 264.476 307.587 262.489C318.935 256.353 327.216 246.765 330.201 237.467C331.683 232.849 331.833 228.404 330.554 224.468C329.285 220.563 326.529 216.909 321.746 213.96C313.762 209.038 305.651 207.032 299.372 206.169C296.236 205.738 293.571 205.593 291.597 205.507C291.369 205.497 291.145 205.488 290.927 205.479C290.233 205.45 289.603 205.424 289.114 205.389C288.794 205.367 288.438 205.334 288.112 205.277C287.949 205.248 287.724 205.201 287.483 205.12C287.289 205.055 286.821 204.885 286.371 204.484L290.117 200.2C289.725 199.851 289.348 199.724 289.269 199.698L289.267 199.697C289.144 199.656 289.07 199.645 289.087 199.648C289.119 199.654 289.241 199.67 289.512 199.689C289.91 199.718 290.418 199.739 291.081 199.766C291.314 199.776 291.566 199.786 291.84 199.798C293.878 199.887 296.744 200.041 300.136 200.507C306.912 201.439 315.842 203.624 324.696 209.083C330.488 212.654 334.196 217.343 335.932 222.687C337.659 227.999 337.358 233.707 335.585 239.229C332.06 250.209 322.617 260.845 310.26 267.527C304.735 270.514 299.271 270.077 294.375 267.409C289.636 264.827 285.474 260.201 281.962 254.811Z" fill="black"/>
<path d="M270.91 228.902C248.985 232.605 228.236 217.665 224.567 195.532C220.898 173.399 235.698 152.454 257.623 148.751C279.549 145.047 300.297 159.987 303.966 182.12C307.635 204.253 292.836 225.198 270.91 228.902Z" fill="#FFE640"/>
<path fill-rule="evenodd" clip-rule="evenodd" d="M230.573 194.518C233.687 213.303 251.297 225.983 269.905 222.839C288.514 219.696 301.075 201.919 297.961 183.134C294.847 164.349 277.237 151.669 258.628 154.813C240.02 157.956 227.459 175.733 230.573 194.518ZM224.567 195.532C228.236 217.665 248.985 232.605 270.91 228.902C292.836 225.198 307.635 204.253 303.966 182.12C300.297 159.987 279.549 145.047 257.623 148.751C235.698 152.454 220.898 173.399 224.567 195.532Z" fill="black"/>
<path d="M261.998 177.498C261.998 182.193 260.654 185.998 258.998 185.998C257.341 185.998 255.998 182.193 255.998 177.498C255.998 172.804 257.341 168.998 258.998 168.998C260.654 168.998 261.998 172.804 261.998 177.498Z" fill="black"/>
<path d="M274.998 177.498C274.998 182.193 273.654 185.998 271.998 185.998C270.341 185.998 268.998 182.193 268.998 177.498C268.998 172.804 270.341 168.998 271.998 168.998C273.654 168.998 274.998 172.804 274.998 177.498Z" fill="black"/>
<path d="M258.998 194.498C258.998 199.193 254.52 202.998 248.998 202.998C243.475 202.998 238.998 199.193 238.998 194.498C238.998 189.804 243.475 185.998 248.998 185.998C254.52 185.998 258.998 189.804 258.998 194.498Z" fill="#FF6C9C"/>
<path d="M285.998 194.498C285.998 199.193 282.864 202.998 278.998 202.998C275.132 202.998 271.998 199.193 271.998 194.498C271.998 189.804 275.132 185.998 278.998 185.998C282.864 185.998 285.998 189.804 285.998 194.498Z" fill="#FF6C9C"/>
<path fill-rule="evenodd" clip-rule="evenodd" d="M245.358 194.862C245.602 193.438 245.686 191.956 245.686 190.998H247.275C247.275 191.952 247.199 193.37 246.98 194.789C249.104 197.476 255.238 201.398 264.356 201.398C272.862 201.398 277.243 197.907 278.019 196.92C277.517 195.524 277.141 193.992 277.069 193.06L278.654 192.937C278.712 193.7 279.063 195.162 279.569 196.529C279.82 197.205 280.097 197.827 280.375 198.305C280.677 198.822 280.903 199.035 280.998 199.083L280.287 200.514C279.746 200.242 279.323 199.661 279.005 199.114C278.897 198.928 278.791 198.73 278.689 198.522C276.889 200.184 272.171 202.998 264.356 202.998C255.779 202.998 249.536 199.68 246.575 196.721C246.484 197.048 246.382 197.365 246.268 197.664C245.98 198.417 245.577 199.15 244.99 199.623L243.998 198.374C244.259 198.163 244.535 197.743 244.785 197.088C245.029 196.452 245.218 195.679 245.358 194.862Z" fill="black"/>
</svg>
