<svg width="455" height="196" viewBox="0 0 455 196" fill="none" xmlns="http://www.w3.org/2000/svg">
<path d="M189.452 119.343L197.106 93.0508C219.85 80.52 252.508 91.1861 265.993 98.0855L269.274 127.734C263.078 122.886 246.639 112.294 230.457 108.714C214.274 105.134 196.378 114.308 189.452 119.343Z" fill="#FFC6DE" stroke="black" stroke-width="5"/>
<path d="M150.96 38.2286C179.893 39.9069 196.27 61.5374 201.729 74.0309C223.565 116.546 177.163 169.131 162.424 181.438C144.955 196.024 112.746 196.542 87.6351 181.438C49.8631 158.718 -19.3617 41.5851 10.117 10.8176C33.7 -13.7965 88.363 27.0405 112.747 50.5357C119.843 45.501 123.459 36.6334 150.96 38.2286Z" fill="#FFC6DE" stroke="black" stroke-width="5"/>
<path d="M304.466 37.9656C275.533 39.6413 259.156 61.2377 253.697 73.7115C231.861 116.16 278.262 168.662 293.001 180.949C310.47 195.512 342.679 196.03 367.79 180.949C405.562 158.265 474.787 41.3168 445.308 10.5977C421.725 -13.9776 367.062 26.7951 342.679 50.2533C335.582 45.2266 331.966 36.3729 304.466 37.9656Z" fill="#FFC6DE" stroke="black" stroke-width="5"/>
<path d="M138.354 71.0884C155.837 72.0997 165.733 85.1342 169.032 92.6628C182.227 118.282 154.188 149.97 145.281 157.386C134.725 166.176 115.262 166.488 100.088 157.386C77.2632 143.695 35.4321 73.111 53.2455 54.5705C67.4961 39.738 100.528 64.3464 115.262 78.5046C119.551 75.4707 121.736 70.1271 138.354 71.0884Z" fill="#C1F4FF" stroke="black" stroke-width="5"/>
<path d="M314.905 71.0884C297.422 72.0997 287.525 85.1342 284.227 92.6628C271.032 118.282 299.071 149.97 307.978 157.386C318.534 166.176 337.997 166.488 353.171 157.386C375.996 143.695 417.827 73.111 400.013 54.5705C385.763 39.738 352.731 64.3464 337.997 78.5046C333.708 75.4707 331.523 70.1271 314.905 71.0884Z" fill="#C1F4FF" stroke="black" stroke-width="5"/>
<path d="M157 80L122.393 107.333L149.213 126.125L119.798 128.688L112.876 162L99.0337 112.458L80 137.229" stroke="black" stroke-width="2"/>
<path d="M296 79L326.471 120.143L356.941 91.8571L370 145" stroke="black" stroke-width="2"/>
</svg>
