<svg width="482" height="238" viewBox="0 0 482 238" fill="none" xmlns="http://www.w3.org/2000/svg">
<path d="M35.9858 6.54615C76.4827 -0.954426 186.782 62.0278 236.87 94.4565C303.741 77.6534 444.568 50.3872 472.903 75.7471C508.322 107.447 363.03 214.885 329.426 215.65C295.823 216.415 270.85 192.893 259.203 175.829C247.556 158.765 241.965 130.92 230.756 133.058C219.546 135.196 198.25 173.567 142.782 186.088C87.3144 198.61 -14.6353 15.9219 35.9858 6.54615Z" fill="white" stroke="black" stroke-width="5"/>
<path d="M81.6757 44.6561C127.719 41.9474 175.861 72.6184 206.689 108.374C219.594 125.637 202.179 141.472 191.495 149.451C172.28 163.801 150.728 171.665 127.978 163.742C91.3361 150.981 22.8914 48.1143 81.6757 44.6561Z" fill="#C1F4FF" stroke="black" stroke-width="5"/>
<path d="M411.064 96.5778C368.108 79.7944 312.852 94.0395 272.494 118.455C254.891 130.853 266.566 151.255 274.265 162.125C288.111 181.674 306.182 195.789 330.266 195.293C369.055 194.495 465.907 118.005 411.064 96.5778Z" fill="#C1F4FF" stroke="black" stroke-width="5"/>
</svg>
