<svg width="482" height="238" viewBox="0 0 482 238" fill="none" xmlns="http://www.w3.org/2000/svg">
<path d="M11.3398 75.2786C47.5368 55.6309 171.9 81.4462 229.557 96.8098C287.964 60.1646 413.472 -9.28494 448.257 6.07769C491.738 25.281 386.757 172.358 355.035 183.47C323.313 194.582 292.293 179.928 275.943 167.298C259.593 154.668 245.671 129.914 235.671 135.411C225.671 140.909 217.274 183.982 168.391 213.032C119.507 242.081 -33.9065 99.8382 11.3398 75.2786Z" fill="#FFE640" stroke="black" stroke-width="5"/>
<path d="M66.57 97.4043C109.523 80.6 164.786 94.8933 205.155 119.373C222.763 131.803 211.093 152.244 203.398 163.134C189.558 182.72 171.491 196.858 147.405 196.353C108.614 195.54 11.7314 118.859 66.57 97.4043Z" fill="#C1F4FF" stroke="black" stroke-width="5"/>
<path d="M395.882 44.9982C349.842 42.3104 301.692 72.9333 270.854 108.625C257.944 125.856 275.352 141.651 286.034 149.611C305.242 163.924 326.791 171.764 349.543 163.85C386.187 151.104 454.662 48.4298 395.882 44.9982Z" fill="#C1F4FF" stroke="black" stroke-width="5"/>
</svg>
