<svg width="482" height="238" viewBox="0 0 482 238" fill="none" xmlns="http://www.w3.org/2000/svg">
<path d="M11.3398 75.2785C47.5368 55.6308 171.9 81.446 229.557 96.8096C287.964 60.1645 413.472 -9.28506 448.257 6.07757C491.738 25.2809 386.757 172.358 355.035 183.47C323.313 194.582 292.293 179.928 275.943 167.298C259.593 154.668 245.671 129.914 235.671 135.411C225.671 140.908 217.274 183.982 168.391 213.032C119.507 242.081 -33.9065 99.8381 11.3398 75.2785Z" fill="#FFE640" stroke="black" stroke-width="5"/>
<path d="M66.5701 97.4042C109.523 80.5998 164.786 94.8931 205.155 119.373C222.763 131.803 211.094 152.243 203.398 163.134C189.558 182.719 171.491 196.858 147.405 196.353C108.614 195.54 11.7315 118.858 66.5701 97.4042Z" fill="#C1F4FF" stroke="black" stroke-width="5"/>
<path d="M395.882 44.9981C349.842 42.3103 301.692 72.9332 270.854 108.625C257.944 125.856 275.352 141.651 286.034 149.611C305.242 163.924 326.791 171.764 349.543 163.85C386.187 151.104 454.662 48.4296 395.882 44.9981Z" fill="#C1F4FF" stroke="black" stroke-width="5"/>
<path d="M85 90.9999L124.84 119.857L124.84 155.374L168 155.374L129.267 192" stroke="black" stroke-width="2"/>
<path d="M360.306 47.9999L345 75.747L377.653 81.4596L372.551 104.31L395 119" stroke="black" stroke-width="2"/>
<path d="M284 147L308 119L317 137.4L344 125.4L379 142.2" stroke="black" stroke-width="2"/>
</svg>
