<svg width="798" height="274" viewBox="0 0 798 274" fill="none" xmlns="http://www.w3.org/2000/svg">
<path d="M94.5005 49.9633L115.175 69.274L101.356 116.941L89.4555 120.02L77.5554 123.1L66.3553 125.998L30.4741 91.1929L38.5001 64.4552L57.4002 59.5641L75.9504 54.7637L94.5005 49.9633Z" fill="#C1F4FF"/>
<path d="M115.175 69.274L94.5005 49.9633L75.9504 54.7637M115.175 69.274L101.356 116.941L89.4555 120.02M115.175 69.274L87.1745 76.5199M30.4741 91.1929L38.5001 64.4552L57.4002 59.5641M30.4741 91.1929L66.3553 125.998L77.5554 123.1M30.4741 91.1929L59.1743 83.7659M57.4002 59.5641L59.1743 83.7659M57.4002 59.5641L75.9504 54.7637M59.1743 83.7659L77.5554 123.1M59.1743 83.7659L87.1745 76.5199M77.5554 123.1L89.4555 120.02M75.9504 54.7637L87.1745 76.5199M87.1745 76.5199L89.4555 120.02" stroke="black" stroke-width="4"/>
<path d="M169.672 168.76C179.225 205.722 157.024 243.433 120.088 252.991C83.1528 262.55 45.4645 240.337 35.9115 203.375C26.3584 166.413 48.5593 128.702 85.4949 119.144C122.431 109.585 160.119 131.798 169.672 168.76Z" fill="#FFE640" stroke="black" stroke-width="5"/>
<path d="M152.872 173.108C160.025 200.786 143.401 229.023 115.744 236.181C88.0865 243.338 59.8652 226.705 52.7117 199.027C45.5582 171.349 62.1826 143.111 89.8398 135.954C117.497 128.797 145.718 145.43 152.872 173.108Z" fill="#FF6C9C" stroke="black" stroke-width="5"/>
<path d="M752.977 63.0226L761.688 89.938L726.481 124.917L714.581 121.837L702.681 118.757L691.481 115.859L676.988 68.0173L696.977 48.5295L715.877 53.4209L734.427 58.2217L752.977 63.0226Z" fill="#C1F4FF"/>
<path d="M761.688 89.938L752.977 63.0226L734.427 58.2217M761.688 89.938L726.481 124.917L714.581 121.837M761.688 89.938L733.688 82.6915M676.988 68.0173L696.977 48.5295L715.877 53.4209M676.988 68.0173L691.481 115.859L702.681 118.757M676.988 68.0173L705.688 75.4449M715.877 53.4209L705.688 75.4449M715.877 53.4209L734.427 58.2217M705.688 75.4449L702.681 118.757M705.688 75.4449L733.688 82.6915M702.681 118.757L714.581 121.837M734.427 58.2217L733.688 82.6915M733.688 82.6915L714.581 121.837" stroke="black" stroke-width="4"/>
<path d="M761.084 203.371C751.507 240.327 713.8 262.534 676.864 252.975C639.929 243.416 617.747 205.71 627.324 168.754C636.9 131.797 674.607 109.59 711.543 119.149C748.478 128.708 770.66 166.415 761.084 203.371Z" fill="#FFE640" stroke="black" stroke-width="5"/>
<path d="M744.284 199.023C737.113 226.697 708.877 243.325 681.22 236.167C653.563 229.01 636.953 200.775 644.124 173.102C651.295 145.428 679.53 128.8 707.188 135.957C734.845 143.115 751.455 171.35 744.284 199.023Z" fill="#FF6C9C" stroke="black" stroke-width="5"/>
<path d="M589.962 11.7977L610.804 30.9268L597.402 78.7125L585.53 81.896L573.657 85.0795L562.483 88.0758L526.298 53.5858L534.09 26.7789L552.947 21.7227L571.454 16.7602L589.962 11.7977Z" fill="#FFC6DE"/>
<path d="M610.804 30.9268L589.962 11.7977L571.454 16.7602M610.804 30.9268L597.402 78.7125L585.53 81.896M610.804 30.9268L582.868 38.4174M526.298 53.5858L534.09 26.7789L552.947 21.7227M526.298 53.5858L562.483 88.0758L573.657 85.0795M526.298 53.5858L554.933 45.908M552.947 21.7227L554.933 45.908M552.947 21.7227L571.454 16.7602M554.933 45.908L573.657 85.0795M554.933 45.908L582.868 38.4174M573.657 85.0795L585.53 81.896M571.454 16.7602L582.868 38.4174M582.868 38.4174L585.53 81.896" stroke="black" stroke-width="4"/>
<path d="M666.169 129.932C676.045 166.81 654.175 204.713 617.325 214.594C580.474 224.475 542.593 202.593 532.717 165.716C522.841 128.838 544.711 90.9349 581.562 81.0539C618.412 71.1729 656.293 93.0549 666.169 129.932Z" fill="#FFE640" stroke="black" stroke-width="5"/>
<path d="M649.408 134.427C656.803 162.041 640.427 190.423 612.833 197.822C585.239 205.221 556.874 188.836 549.478 161.221C542.083 133.607 558.46 105.225 586.053 97.8261C613.647 90.4273 642.013 106.812 649.408 134.427Z" fill="#FF6C9C" stroke="black" stroke-width="5"/>
<path d="M284.431 27.6973L292.922 54.6914L257.437 89.3692L245.564 86.1859L233.691 83.0025L222.517 80.0065L208.415 32.0337L228.559 12.717L247.416 17.7729L265.923 22.7351L284.431 27.6973Z" fill="#FFC6DE"/>
<path d="M292.922 54.6914L284.431 27.6973L265.923 22.7351M292.922 54.6914L257.437 89.3692L245.564 86.1859M292.922 54.6914L264.986 47.2013M208.415 32.0337L228.559 12.717L247.416 17.7729M208.415 32.0337L222.517 80.0065L233.691 83.0025M208.415 32.0337L237.05 39.7111M247.416 17.7729L237.05 39.7111M247.416 17.7729L265.923 22.7351M237.05 39.7111L233.691 83.0025M237.05 39.7111L264.986 47.2013M233.691 83.0025L245.564 86.1859M265.923 22.7351L264.986 47.2013M264.986 47.2013L245.564 86.1859" stroke="black" stroke-width="4"/>
<path d="M291.395 168.133C281.52 205.01 243.639 226.893 206.788 217.012C169.937 207.132 148.066 169.229 157.941 132.351C167.816 95.4738 205.697 73.5912 242.548 83.4716C279.398 93.352 301.27 131.255 291.395 168.133Z" fill="#FFE640" stroke="black" stroke-width="5"/>
<path d="M274.634 163.638C267.239 191.253 238.874 207.638 211.28 200.24C183.686 192.842 167.309 164.46 174.703 136.845C182.098 109.231 210.463 92.8452 238.057 100.244C265.651 107.642 282.028 136.024 274.634 163.638Z" fill="#FF6C9C" stroke="black" stroke-width="5"/>
<path fill-rule="evenodd" clip-rule="evenodd" d="M354.351 34.2786V89.7773H346.134V34.2786H354.351Z" fill="black"/>
<path fill-rule="evenodd" clip-rule="evenodd" d="M352.296 37.3618V89.7773H348.188V37.3618H352.296Z" fill="#FFE640"/>
<path fill-rule="evenodd" clip-rule="evenodd" d="M374.364 72.5732C379.076 71.7071 383.774 72.9311 388.108 76.4321C393.78 81.0143 394.92 88.4347 394.226 95.5772C393.514 102.898 390.782 111.311 386.955 119.72C379.298 136.541 366.669 154.612 354.252 165.896L350.931 168.915L347.609 165.896C335.13 154.555 322.895 136.074 316.003 119.026C312.558 110.505 310.293 101.97 310.189 94.6143C310.085 87.3211 312.152 80.0439 318.742 76.0541C322.649 73.6887 326.698 73.2439 330.583 74.3796C334.206 75.4386 337.33 77.7657 339.968 80.2431C342.64 82.7531 345.191 85.7892 347.57 88.7081C348.091 89.3474 348.603 89.9802 349.109 90.6052C349.674 91.3033 350.231 91.9916 350.783 92.6681C350.813 92.6296 350.842 92.591 350.872 92.5524C351.874 91.2462 352.943 89.8531 354.136 88.3487C356.736 85.072 359.693 81.5865 362.916 78.7421C366.096 75.9359 369.941 73.3862 374.364 72.5732Z" fill="#FFC6DE"/>
<path fill-rule="evenodd" clip-rule="evenodd" d="M374.765 70.5521C380.179 69.5657 385.531 70.9944 390.338 74.8434C396.905 80.1018 398.023 88.4597 397.297 95.866C396.545 103.528 393.682 112.2 389.761 120.739C381.916 137.823 368.982 156.187 356.179 167.72L351.429 171.998L346.68 167.72C333.787 156.106 321.243 137.299 314.171 119.961C310.637 111.298 308.246 102.467 308.135 94.7274C308.026 87.0763 310.213 78.856 317.796 74.3049C322.238 71.6393 326.93 71.1106 331.421 72.4119C335.541 73.6056 338.986 76.1907 341.753 78.7661C344.567 81.3864 347.225 84.5268 349.633 87.4555C350.162 88.0991 350.682 88.7357 351.192 89.3612L351.194 89.3634C351.208 89.3807 351.222 89.398 351.236 89.4153C351.811 88.6789 352.414 87.9132 353.052 87.1163C355.701 83.806 358.785 80.1944 362.188 77.2177C365.531 74.294 369.76 71.464 374.765 70.5521ZM353.011 93.9018L351.331 96.0731L349.678 94.0674C349.116 93.3848 348.549 92.6909 347.978 91.9915C347.466 91.3644 346.95 90.7326 346.426 90.0948C344.021 87.1696 341.516 84.221 338.924 81.8074C336.354 79.4145 333.476 77.3325 330.266 76.4023C326.896 75.426 323.395 75.7893 319.932 77.8676C314.183 81.318 312.187 87.6922 312.287 94.6679C312.388 101.68 314.579 109.966 318.015 118.391C324.889 135.245 337.101 153.501 349.458 164.632L351.429 166.408L353.4 164.632C365.721 153.534 378.341 135.657 385.988 119.005C389.811 110.679 392.476 102.48 393.164 95.4604C393.843 88.5423 392.654 82.0185 387.744 78.0871C383.782 74.9149 379.628 73.8889 375.509 74.6393C371.564 75.358 368.013 77.6413 364.921 80.3456C361.802 83.0735 358.903 86.4521 356.293 89.7132C355.098 91.2066 354.026 92.5909 353.011 93.9018C353.011 93.9018 353.011 93.9018 353.011 93.9018Z" fill="black"/>
<path d="M364.622 29.1397C364.622 37.6539 357.954 44.556 349.729 44.556C341.503 44.556 334.836 37.6539 334.836 29.1397C334.836 20.6255 341.503 13.7234 349.729 13.7234C357.954 13.7234 364.622 20.6255 364.622 29.1397Z" fill="#FFE640"/>
<path fill-rule="evenodd" clip-rule="evenodd" d="M349.729 40.3516C355.711 40.3516 360.56 35.3319 360.56 29.1397C360.56 22.9476 355.711 17.9278 349.729 17.9278C343.747 17.9278 338.897 22.9476 338.897 29.1397C338.897 35.3319 343.747 40.3516 349.729 40.3516ZM349.729 44.556C357.954 44.556 364.622 37.6539 364.622 29.1397C364.622 20.6255 357.954 13.7234 349.729 13.7234C341.503 13.7234 334.836 20.6255 334.836 29.1397C334.836 37.6539 341.503 44.556 349.729 44.556Z" fill="black"/>
<path fill-rule="evenodd" clip-rule="evenodd" d="M398.516 92.8605V148.359H390.299V92.8605H398.516Z" fill="black"/>
<path fill-rule="evenodd" clip-rule="evenodd" d="M396.461 95.9437V148.359H392.353V95.9437H396.461Z" fill="#FFE640"/>
<path fill-rule="evenodd" clip-rule="evenodd" d="M418.53 131.155C423.242 130.289 427.94 131.513 432.274 135.014C437.946 139.596 439.086 147.017 438.392 154.159C437.68 161.48 434.948 169.892 431.121 178.301C423.464 195.123 410.835 213.194 398.418 224.478L395.097 227.496L391.775 224.478C379.296 213.137 367.061 194.656 360.169 177.607C356.724 169.087 354.459 160.551 354.355 153.196C354.251 145.903 356.318 138.626 362.908 134.636C366.815 132.27 370.864 131.826 374.749 132.961C378.372 134.02 381.496 136.348 384.134 138.825C386.806 141.335 389.357 144.371 391.736 147.29C392.257 147.929 392.769 148.562 393.275 149.187C393.84 149.885 394.397 150.573 394.949 151.25C394.979 151.211 395.008 151.173 395.038 151.134C396.04 149.828 397.109 148.435 398.302 146.93C400.902 143.654 403.859 140.168 407.082 137.324C410.262 134.518 414.107 131.968 418.53 131.155Z" fill="#FFC6DE"/>
<path fill-rule="evenodd" clip-rule="evenodd" d="M418.93 129.134C424.344 128.148 429.696 129.576 434.503 133.425C441.07 138.684 442.188 147.042 441.462 154.448C440.71 162.11 437.847 170.782 433.926 179.321C426.081 196.405 413.147 214.769 400.344 226.302L395.594 230.58L390.845 226.301C377.952 214.688 365.408 195.881 358.336 178.543C354.802 169.88 352.411 161.049 352.3 153.309C352.191 145.658 354.378 137.438 361.961 132.887C366.403 130.221 371.095 129.693 375.586 130.994C379.706 132.188 383.152 134.773 385.918 137.348C388.732 139.968 391.39 143.109 393.798 146.037C394.327 146.681 394.847 147.318 395.357 147.943L395.359 147.945C395.373 147.963 395.387 147.98 395.402 147.997C395.976 147.261 396.579 146.495 397.217 145.698C399.866 142.388 402.95 138.776 406.353 135.8C409.696 132.876 413.925 130.046 418.93 129.134ZM397.176 152.484L395.496 154.655L393.843 152.649C393.281 151.967 392.714 151.273 392.143 150.573C391.631 149.946 391.115 149.314 390.591 148.677C388.186 145.752 385.681 142.803 383.089 140.389C380.519 137.996 377.641 135.914 374.431 134.984C371.061 134.008 367.561 134.371 364.097 136.45C358.348 139.9 356.352 146.274 356.452 153.25C356.553 160.262 358.744 168.548 362.18 176.973C369.054 193.827 381.266 212.083 393.623 223.214L395.594 224.99L397.566 223.214C409.887 212.116 422.506 194.239 430.153 177.587C433.976 169.261 436.641 161.062 437.329 154.042C438.008 147.124 436.819 140.6 431.909 136.669C427.947 133.497 423.793 132.471 419.674 133.221C415.729 133.94 412.178 136.223 409.086 138.927C405.967 141.655 403.068 145.034 400.458 148.295C399.263 149.789 398.191 151.173 397.176 152.484C397.176 152.484 397.176 152.484 397.176 152.484Z" fill="black"/>
<path d="M408.787 87.7217C408.787 96.2359 402.12 103.138 393.894 103.138C385.669 103.138 379.001 96.2359 379.001 87.7217C379.001 79.2075 385.669 72.3054 393.894 72.3054C402.12 72.3054 408.787 79.2075 408.787 87.7217Z" fill="#FFE640"/>
<path fill-rule="evenodd" clip-rule="evenodd" d="M393.894 98.9336C399.876 98.9336 404.726 93.9139 404.726 87.7217C404.726 81.5296 399.876 76.5099 393.894 76.5099C387.912 76.5099 383.063 81.5296 383.063 87.7217C383.063 93.9139 387.912 98.9336 393.894 98.9336ZM393.894 103.138C402.12 103.138 408.787 96.2359 408.787 87.7217C408.787 79.2075 402.12 72.3054 393.894 72.3054C385.669 72.3054 379.001 79.2075 379.001 87.7217C379.001 96.2359 385.669 103.138 393.894 103.138Z" fill="black"/>
<path d="M470.24 199.054C477.827 141.869 470.241 -17.6864 574.84 28.6951C725.813 95.64 517.545 157.168 491.141 206.659" stroke="black" stroke-width="9"/>
<path d="M470.055 199.315C477.642 142.13 470.056 -17.4255 574.655 28.9561C725.628 95.901 517.36 157.429 490.956 206.92" stroke="#FFE640" stroke-width="3"/>
<path d="M513.634 216.403C513.634 236.317 497.501 252.457 477.604 252.457C457.707 252.457 441.574 236.317 441.574 216.403C441.574 196.488 457.707 180.348 477.604 180.348C497.501 180.348 513.634 196.488 513.634 216.403Z" fill="#C1F4FF" stroke="black" stroke-width="6"/>
</svg>
