<svg width="350" height="230" viewBox="0 0 350 230" fill="none" xmlns="http://www.w3.org/2000/svg">
<path d="M2 118L85.5598 68L148 105.158L180.5 124.498L248 164.667V182.667L165.777 228L100.5 190.534L67.5 171.594L2 134V118Z" fill="#019C40"/>
<path d="M2 118L85.5598 68L148 105.158M2 118V134L67.5 171.594M2 118L67.5 155.327M248 164.667L165.777 211.333M248 164.667V182.667L165.777 228M248 164.667L180.5 124.498M165.777 211.333V228M165.777 211.333L100.5 174.133M165.777 228L100.5 190.534M67.5 171.594V155.327M67.5 171.594L100.5 190.534M67.5 155.327L148 105.158M67.5 155.327L100.5 174.133M148 105.158L180.5 124.498M180.5 124.498L100.5 174.133M100.5 174.133V190.534" stroke="black" stroke-width="3"/>
<path d="M68.5 155.5L149 105.5L180.5 125.5L101 173.5L99 188.5L68.5 172V155.5Z" fill="black"/>
<path d="M101 106L184.56 56L247 93.1576L279.5 112.498L347 152.667V170.667L264.777 216L199.5 178.534L166.5 159.594L101 122V106Z" fill="#019C40"/>
<path d="M101 106L184.56 56L247 93.1576M101 106V122L166.5 159.594M101 106L166.5 143.327M347 152.667L264.777 199.333M347 152.667V170.667L264.777 216M347 152.667L279.5 112.498M264.777 199.333V216M264.777 199.333L199.5 162.133M264.777 216L199.5 178.534M166.5 159.594V143.327M166.5 159.594L199.5 178.534M166.5 143.327L247 93.1576M166.5 143.327L199.5 162.133M247 93.1576L279.5 112.498M279.5 112.498L199.5 162.133M199.5 162.133V178.534" stroke="black" stroke-width="3"/>
<path d="M167.5 143.5L248 93.5L279.5 113.5L200 161.5L198 176.5L167.5 160V143.5Z" fill="black"/>
<path d="M102 79L185.56 29L248 66.1576L280.5 85.498L348 125.667V143.667L265.777 189L200.5 151.534L167.5 132.594L102 95V79Z" fill="#019C40"/>
<path d="M102 79L185.56 29L248 66.1576M102 79V95L167.5 132.594M102 79L167.5 116.327M348 125.667L265.777 172.333M348 125.667V143.667L265.777 189M348 125.667L280.5 85.498M265.777 172.333V189M265.777 172.333L200.5 135.133M265.777 189L200.5 151.534M167.5 132.594V116.327M167.5 132.594L200.5 151.534M167.5 116.327L248 66.1576M167.5 116.327L200.5 135.133M248 66.1576L280.5 85.498M280.5 85.498L200.5 135.133M200.5 135.133V151.534" stroke="black" stroke-width="3"/>
<path d="M168.5 116.5L249 66.5L280.5 86.5L201 134.5L199 149.5L168.5 133V116.5Z" fill="black"/>
<path d="M45 91L128.56 41L191 78.1576L223.5 97.498L291 137.667V155.667L208.777 201L143.5 163.534L110.5 144.594L45 107V91Z" fill="#019C40"/>
<path d="M45 91L128.56 41L191 78.1576M45 91V107L110.5 144.594M45 91L110.5 128.327M291 137.667L208.777 184.333M291 137.667V155.667L208.777 201M291 137.667L223.5 97.498M208.777 184.333V201M208.777 184.333L143.5 147.133M208.777 201L143.5 163.534M110.5 144.594V128.327M110.5 144.594L143.5 163.534M110.5 128.327L191 78.1576M110.5 128.327L143.5 147.133M191 78.1576L223.5 97.498M223.5 97.498L143.5 147.133M143.5 147.133V163.534" stroke="black" stroke-width="3"/>
<path d="M111.5 128.5L192 78.5L223.5 98.5L144 146.5L142 161.5L111.5 145V128.5Z" fill="black"/>
<path d="M45 52L128.56 2L191 39.1576L223.5 58.498L291 98.6667V116.667L208.777 162L143.5 124.534L110.5 105.594L45 68V52Z" fill="#019C40"/>
<path d="M45 52L128.56 2L191 39.1576M45 52V68L110.5 105.594M45 52L110.5 89.3271M291 98.6667L208.777 145.333M291 98.6667V116.667L208.777 162M291 98.6667L223.5 58.498M208.777 145.333V162M208.777 145.333L143.5 108.133M208.777 162L143.5 124.534M110.5 105.594V89.3271M110.5 105.594L143.5 124.534M110.5 89.3271L191 39.1576M110.5 89.3271L143.5 108.133M191 39.1576L223.5 58.498M223.5 58.498L143.5 108.133M143.5 108.133V124.534" stroke="black" stroke-width="3"/>
<path d="M111.5 89.5L192 39.5L223.5 59.5L144 107.5L142 122.5L111.5 106V89.5Z" fill="black"/>
</svg>
