<svg width="113" height="418" viewBox="0 0 113 418" fill="none" xmlns="http://www.w3.org/2000/svg">
<path fill-rule="evenodd" clip-rule="evenodd" d="M92.1422 122.563C80.8312 86.2355 67.4542 53.0565 59.3882 36.0195L45.6602 42.6835C53.3792 58.9875 66.5012 91.4795 77.6222 127.198C88.7982 163.092 97.6592 201.33 97.4312 229.467C97.1952 258.589 94.7252 293.777 92.2892 327.642C92.2032 328.837 92.1172 330.031 92.0312 331.223C89.6982 363.609 87.4642 394.645 87.4642 417.02H102.688C102.688 395.222 104.887 364.672 107.245 331.92L107.473 328.762C109.901 295.015 112.414 259.307 112.655 229.594C112.903 198.896 103.398 158.715 92.1422 122.563Z" fill="black"/>
<path fill-rule="evenodd" clip-rule="evenodd" d="M88.2391 123.981C76.9311 87.8385 63.5651 54.8605 55.5531 38.0215L48.6621 41.3505C56.4991 57.8225 69.7371 90.4585 80.9501 126.297C92.1911 162.223 101.249 200.913 101.015 229.665C100.777 258.909 98.2861 294.197 95.8421 328.003C95.7581 329.163 95.6741 330.321 95.5901 331.478C93.2431 363.924 91.0081 394.81 91.0081 417.021H98.6501C98.6501 395.098 100.867 364.455 103.228 331.826C103.306 330.74 103.385 329.651 103.464 328.561C105.904 294.814 108.416 259.267 108.657 229.728C108.901 199.697 99.5201 160.036 88.2391 123.981Z" fill="#019C40"/>
<path fill-rule="evenodd" clip-rule="evenodd" d="M16.5641 51.0156C23.2113 62.1826 37.6875 65.7236 48.8975 58.9246C60.1085 52.1246 63.8075 37.5596 57.1605 26.3918C50.5125 15.2242 36.0365 11.6833 24.8263 18.4829C13.6161 25.2826 9.91695 39.8476 16.5641 51.0156ZM12.9555 53.2046C20.7844 66.3576 37.8345 70.5276 51.0375 62.5186C64.2405 54.5106 68.5975 37.3556 60.7685 24.203C52.9395 11.0501 35.8895 6.87971 22.6866 14.8881C9.48335 22.8966 5.12665 40.0516 12.9555 53.2046Z" fill="black"/>
<path d="M56.3117 70.2594C38.7947 80.8834 16.0634 75.1624 5.53853 57.4804C-4.98627 39.7984 0.681431 16.8509 18.1976 6.22641C35.7137 -4.39819 58.4457 1.32321 68.9707 19.0054C79.4957 36.6874 73.8277 59.6344 56.3117 70.2594Z" fill="#FFE640"/>
<path fill-rule="evenodd" clip-rule="evenodd" d="M9.45303 55.1064C18.6789 70.6054 38.6047 75.6214 53.9597 66.3074C69.3137 56.9944 74.2817 36.8794 65.0557 21.3798C55.8307 5.88001 35.9037 0.86471 20.5497 10.178C5.19543 19.4912 0.227233 39.6064 9.45303 55.1064ZM5.53853 57.4804C16.0634 75.1624 38.7947 80.8834 56.3117 70.2594C73.8277 59.6344 79.4957 36.6874 68.9707 19.0054C58.4457 1.32321 35.7137 -4.39819 18.1976 6.22641C0.681431 16.8509 -4.98627 39.7984 5.53853 57.4804Z" fill="black"/>
<path d="M57.6602 48.0195C57.6602 52.9905 54.0782 57.0195 49.6602 57.0195C45.2412 57.0195 41.6602 52.9905 41.6602 48.0195C41.6602 43.0495 45.2412 39.0195 49.6602 39.0195C54.0782 39.0195 57.6602 43.0495 57.6602 48.0195Z" fill="#FF6C9C"/>
<path d="M30.6606 48.0195C30.6606 52.9905 27.5262 57.0195 23.6602 57.0195C19.7942 57.0195 16.6602 52.9905 16.6602 48.0195C16.6602 43.0495 19.7942 39.0195 23.6602 39.0195C27.5262 39.0195 30.6606 43.0495 30.6606 48.0195Z" fill="#FF6C9C"/>
<path d="M33.6606 30.5198C33.6606 34.6615 32.0936 38.0195 30.1606 38.0195C28.2272 38.0195 26.6602 34.6615 26.6602 30.5198C26.6602 26.3777 28.2272 23.0198 30.1606 23.0198C32.0936 23.0198 33.6606 26.3777 33.6606 30.5198Z" fill="black"/>
<path d="M47.6602 30.5198C47.6602 34.6615 46.0932 38.0195 44.1602 38.0195C42.2272 38.0195 40.6602 34.6615 40.6602 30.5198C40.6602 26.3777 42.2272 23.0198 44.1602 23.0198C46.0932 23.0198 47.6602 26.3777 47.6602 30.5198Z" fill="black"/>
<path fill-rule="evenodd" clip-rule="evenodd" d="M27.7551 24.1491C28.9859 22.7682 30.1212 21.0897 30.7829 19.9731L33 21.3284C32.2773 22.5479 31.0454 24.3736 29.6736 25.9128C28.9888 26.6811 28.2366 27.415 27.4663 27.9666C26.7242 28.4979 25.81 28.9731 24.8312 28.9731C22.3638 28.9731 20.689 28.4301 20 27.9995L21.3562 25.7612C21.356 25.7611 21.3561 25.7612 21.3563 25.7613C21.3587 25.7627 21.3798 25.7751 21.4246 25.7962C21.4723 25.8186 21.5381 25.8469 21.6233 25.8788C21.7939 25.9428 22.0287 26.0166 22.3278 26.0863C22.9253 26.2257 23.7625 26.345 24.8312 26.345C25.0153 26.345 25.392 26.2362 25.9754 25.8185C26.5306 25.421 27.1386 24.8408 27.7551 24.1491Z" fill="black"/>
<path fill-rule="evenodd" clip-rule="evenodd" d="M48.1381 23.7745C50.0229 23.8535 52.0984 23.6661 53.425 23.4674L53.8073 26.0639C52.3685 26.2794 50.1225 26.485 48.03 26.3972C46.9862 26.3535 45.9285 26.2349 45.0092 25.9842C44.1307 25.7446 43.1623 25.3276 42.5521 24.5256C41.0672 22.5736 40.508 20.8895 40.4529 20.0543L43.0496 19.8799C43.0496 19.8795 43.0496 19.8793 43.0496 19.8793C43.0496 19.8793 43.0516 19.9015 43.0605 19.9486C43.0699 19.998 43.0852 20.0655 43.1089 20.1506C43.1564 20.321 43.2337 20.548 43.3524 20.8231C43.5896 21.3725 43.9851 22.0972 44.6169 22.9276C44.701 23.0382 44.988 23.2591 45.6885 23.4502C46.3482 23.6301 47.1932 23.7349 48.1381 23.7745Z" fill="black"/>
<path d="M46.3874 53.924C47.2201 58.0166 43.7735 62.5211 38.1469 63.6658C32.5202 64.8106 27.5876 62.0109 26.755 57.9183C25.9223 53.8257 29.3689 49.3212 34.9955 48.1765C40.6222 47.0317 45.5548 49.8314 46.3874 53.924Z" fill="#FFE640" stroke="black" stroke-width="2"/>
</svg>
