<svg width="156" height="462" viewBox="0 0 156 462" fill="none" xmlns="http://www.w3.org/2000/svg">
<path fill-rule="evenodd" clip-rule="evenodd" d="M132.142 166.563C120.831 130.236 107.454 97.0565 99.3882 80.0195L85.6602 86.6835C93.3792 102.988 106.501 135.48 117.622 171.198C128.798 207.092 137.659 245.33 137.431 273.467C137.195 302.589 134.725 337.777 132.289 371.642C132.203 372.837 132.117 374.031 132.031 375.223C129.698 407.609 127.464 438.645 127.464 461.02H142.688C142.688 439.222 144.887 408.672 147.245 375.92L147.473 372.762C149.901 339.015 152.414 303.307 152.655 273.594C152.903 242.896 143.398 202.715 132.142 166.563Z" fill="black"/>
<path fill-rule="evenodd" clip-rule="evenodd" d="M128.239 167.981C116.931 131.838 103.565 98.8605 95.5531 82.0215L88.6621 85.3505C96.4991 101.822 109.737 134.458 120.95 170.297C132.191 206.223 141.249 244.913 141.015 273.665C140.777 302.909 138.286 338.197 135.842 372.003C135.758 373.163 135.674 374.321 135.59 375.478C133.243 407.924 131.008 438.81 131.008 461.021H138.65C138.65 439.098 140.867 408.455 143.228 375.826C143.306 374.74 143.385 373.651 143.464 372.561C145.904 338.814 148.416 303.267 148.657 273.728C148.901 243.697 139.52 204.036 128.239 167.981Z" fill="#019C40"/>
<path fill-rule="evenodd" clip-rule="evenodd" d="M94.1359 48.1806C94.7539 47.6862 95.3209 47.3258 95.7039 47.0962C96.0889 46.8655 96.4529 46.6698 96.6199 46.5805L96.6469 46.5659C96.7079 46.5327 96.7499 46.5104 96.7749 46.4967C97.5219 46.0407 98.2839 45.5362 99.2309 44.9068L99.2939 44.8653C100.205 44.2602 101.301 43.5319 102.455 42.8315C103.697 42.0783 104.9 41.5225 105.617 41.1911C105.652 41.1751 105.685 41.1596 105.717 41.1447C106.223 40.9109 106.518 40.7704 106.716 40.6696C106.751 40.6368 106.791 40.5987 106.839 40.5528C106.851 40.541 106.864 40.5283 106.878 40.5149C107.094 40.3093 107.501 39.9205 107.957 39.5304C108.255 39.2758 108.616 38.9824 109.038 38.6769C109.041 38.6734 109.044 38.6698 109.046 38.6663C109.059 38.6494 109.073 38.6311 109.088 38.6117C109.332 38.2864 109.842 37.6093 110.453 36.938C111.132 36.1915 112.17 35.1815 113.612 34.3064C114.618 33.6965 116.091 32.8203 117.713 32.0414C119.168 31.3424 121.295 30.4466 123.7 30.058C123.729 30.0506 123.763 30.042 123.801 30.0321C123.814 30.0286 123.829 30.0245 123.847 30.02C124.143 29.9423 124.964 29.7273 125.884 29.6035C126.856 29.4726 128.625 29.3359 130.641 29.9174C132.668 30.5023 134.506 31.6895 135.873 33.4264C136.766 33.7049 137.832 34.091 138.912 34.6208C140.393 35.3469 139.435 39.119 141.162 42.0214C141.924 43.3006 145.319 43.5734 146.162 45.5214C146.353 45.9636 146.51 46.2888 146.675 46.5877C146.764 46.7105 146.879 46.8726 146.995 47.0436C147.179 47.3172 147.586 47.9359 147.948 48.7438C148.134 49.1584 148.403 49.8289 148.588 50.685C148.764 51.496 150.138 52.1166 149.764 53.8811C149.597 54.6701 149.372 55.3203 149.2 55.766C149.031 56.204 148.862 56.5746 148.781 56.7516C148.774 56.7675 148.767 56.7832 148.76 56.7983C148.415 57.9094 147.901 59.492 147.187 61.0543C147.133 61.2101 146.98 61.6506 146.816 62.0618C146.614 62.566 146.253 63.3987 145.671 64.3083C145.078 65.2357 144.129 66.443 142.669 67.4905C142.632 67.5167 142.568 67.5663 142.479 67.6358C141.978 68.0235 140.684 69.0271 138.969 69.9897C138.944 70.0369 138.918 70.0846 138.892 70.1326C138.662 70.5555 138.285 71.207 137.752 71.9032C137.477 72.2634 137.108 72.7038 136.637 73.1626C136.169 73.6184 135.527 74.1639 134.697 74.6676C132.487 76.0077 130.31 76.3329 128.548 76.2658C126.832 77.6354 124.669 78.8314 121.963 79.4404C119.482 79.9984 117.292 79.8804 115.975 79.7754C115.841 79.7644 115.717 79.7544 115.601 79.7444L115.83 80.1284C115.994 80.2124 116.173 80.3064 116.361 80.4114C116.716 80.6084 117.138 80.8604 117.587 81.1764C117.853 81.3624 118.18 81.5814 118.531 81.7934C118.777 81.9434 119.006 82.0724 119.209 82.1774C119.98 82.1444 120.569 82.1884 120.839 82.2084L120.867 82.2104C120.891 82.2124 120.914 82.2134 120.938 82.2154C121.011 82.2064 121.075 82.1974 121.16 82.1854C121.257 82.1724 121.38 82.1554 121.576 82.1294C122.055 82.0654 122.927 81.9514 123.978 81.9344C124.031 81.9254 124.086 81.9164 124.143 81.9074C124.302 81.8814 124.472 81.8584 124.651 81.8374C124.67 81.8334 124.692 81.8304 124.717 81.8264C124.9 81.7944 125.159 81.7484 125.504 81.6844C125.691 81.6504 125.902 81.6114 126.128 81.5694C126.687 81.4664 127.341 81.3464 127.975 81.2324C128.862 81.0744 129.866 80.9014 130.738 80.7774C131.162 80.7174 131.681 80.6504 132.197 80.6084C132.451 80.5874 132.82 80.5634 133.239 80.5614H133.245C133.514 80.5604 134.467 80.5554 135.595 80.8164C136.163 80.9484 136.958 81.1854 137.828 81.6364C138.709 82.0934 139.808 82.8444 140.768 84.0514C140.901 84.2194 141.028 84.3914 141.149 84.5674C141.173 84.5744 141.198 84.5814 141.222 84.5894C142.756 85.0544 144.274 85.8454 145.644 87.0594C145.927 87.3094 146.156 87.5404 146.322 87.7154C146.492 87.8954 146.64 88.0614 146.759 88.2004C146.99 88.4704 147.194 88.7294 147.342 88.9214C147.462 89.0764 147.579 89.2314 147.68 89.3654C148.197 89.7724 148.609 90.1644 148.897 90.4554C149.025 90.5834 149.171 90.7364 149.33 90.9124C149.664 91.2444 149.948 91.5644 150.184 91.8504C150.979 92.8124 151.548 93.7724 151.92 94.4494C152.259 95.0684 152.561 95.6924 152.744 96.0724C152.761 96.1074 152.777 96.1404 152.792 96.1704C152.98 96.5594 153.039 96.6714 153.039 96.6714L153.038 96.6704L153.45 97.3614L152.428 97.9814C152.666 98.4794 152.896 99.0134 153.101 99.5754C154.605 103.709 153.294 107.567 152.61 109.287C151.91 111.044 150.964 112.709 150.129 114.056C150.838 115.779 150.937 117.495 150.749 118.925C150.551 120.443 150.038 121.632 149.651 122.379C148.708 124.198 147.506 125.473 147.024 125.984L147 126.011C146.852 126.167 146.768 126.256 146.713 126.313C146.699 126.328 146.687 126.341 146.676 126.353C145.513 128.013 143.724 129.851 141.777 131.119C141.683 131.205 141.568 131.315 141.401 131.478C141.298 131.578 141.252 131.623 141.132 131.74C141.037 131.833 140.924 131.943 140.806 132.055C139.915 132.906 138.61 133.908 136.847 134.571C134.975 135.275 133.142 135.387 131.539 135.157C130.098 134.95 129.002 134.488 128.476 134.249C128.188 134.12 127.944 133.997 127.799 133.923C127.639 133.842 127.618 133.83 127.602 133.822C127.589 133.815 127.579 133.81 127.491 133.765C126.99 133.512 126.67 133.422 125.744 133.159C125.272 133.025 124.644 132.847 123.755 132.58C122.155 132.099 120.897 131.434 120.148 131.021C119.679 130.762 119.437 130.622 119.281 130.533C119.108 130.434 119.044 130.397 118.894 130.326C114.99 128.466 112.121 125.739 110.092 123.663C109.303 122.855 108.661 122.176 108.101 121.582C106.968 120.382 106.165 119.532 105.138 118.678C103.542 117.352 102.064 115.478 101.608 114.9C101.565 114.846 101.531 114.803 101.507 114.773C101.498 114.764 101.486 114.751 101.471 114.735C101.396 114.661 101.354 114.62 101.287 114.554C101.227 114.497 101.148 114.42 101.011 114.284C100.612 113.891 99.8069 113.094 99.0369 112.006C99.0099 111.971 98.9679 111.915 98.9049 111.831C98.8999 111.826 98.8949 111.819 98.8889 111.811C98.7519 111.631 98.1859 110.886 97.7209 109.891C97.5039 109.427 97.1269 108.531 96.9329 107.333C96.7959 107.303 96.6579 107.272 96.5189 107.241C96.2079 107.488 95.9349 107.689 95.7259 107.839C95.5779 107.946 95.4329 108.048 95.3129 108.131C95.4139 108.366 95.5049 108.588 95.5879 108.797C96.0579 109.973 96.4729 111.273 96.7299 112.08C96.7869 112.259 96.8369 112.414 96.8769 112.538C97.0639 113.107 97.2219 113.658 97.3379 114.065C97.3569 114.13 97.3739 114.192 97.3909 114.251C97.4919 114.605 97.5619 114.851 97.6369 115.096C97.7099 115.333 97.7599 115.471 97.7839 115.535C97.9399 115.793 98.0539 115.966 98.2089 116.202C98.3719 116.45 98.5789 116.766 98.9289 117.321C99.4609 118.166 100.229 119.442 100.836 120.964C101.332 122.209 101.641 123.385 101.832 124.12C101.871 124.27 101.905 124.403 101.936 124.523C102.087 125.111 102.152 125.363 102.24 125.626C102.3 125.806 102.327 125.879 102.378 126.013C102.429 126.145 102.502 126.337 102.652 126.753C102.871 127.36 103.187 128.289 103.414 129.416C103.718 130.928 103.858 132.238 103.919 133.509C103.971 133.589 104.027 133.673 104.082 133.757C104.222 133.97 104.393 134.237 104.571 134.536C104.584 134.558 104.6 134.585 104.618 134.616C104.751 134.837 105.013 135.275 105.231 135.685C105.516 136.221 105.947 137.104 106.249 138.245C106.944 140.878 106.501 143.141 106.13 144.529C106.122 144.559 106.112 144.603 106.098 144.662C105.902 145.507 105.023 149.285 101.321 152.079C99.0129 153.821 96.6299 155.307 94.3329 156.603C92.3449 157.725 90.4659 158.204 89.1509 158.459C88.5079 158.583 87.9109 158.669 87.5099 158.725C87.4329 158.736 87.3619 158.746 87.2969 158.755C86.9689 158.802 86.7849 158.827 86.5939 158.86C85.7809 158.996 85.4659 159.128 85.1069 159.325C84.4919 159.662 83.1729 160.383 81.6029 160.909C80.2709 161.356 78.1639 161.871 75.7049 161.581C75.6939 161.582 75.6829 161.583 75.6709 161.584H75.6659C75.3049 161.62 74.4149 161.706 73.4049 161.661C72.4009 161.615 70.6029 161.42 68.7119 160.414C65.0818 158.484 62.6893 155.965 60.8049 153.534C58.1751 150.142 60.0206 145.622 59.662 140.021C59.4735 137.077 61.7397 126.913 57.162 129.521C57.2018 128.809 55.6602 130.27 55.6824 129.713C55.7062 129.115 55.7489 128.55 55.7798 128.143L55.7841 128.087C55.8163 127.664 55.8363 127.4 55.849 127.146C55.8591 126.945 55.8594 126.825 55.8587 126.767C55.7638 126.269 55.6651 125.711 55.5741 125.107C55.2747 125.281 55.0166 125.422 54.8153 125.532C54.5252 125.689 54.2451 125.837 54.0308 125.949L54.016 125.957C53.7891 126.076 53.6332 126.158 53.4865 126.237C53.3407 126.316 53.2598 126.362 53.2258 126.382C53.1479 126.44 54.0315 127.219 53.662 127.521L53.162 128.021C52.7937 128.322 53.2519 129.187 52.4827 129.713C52.3421 130.035 50.8422 130.198 50.662 130.521C50.4908 130.828 50.8599 131.212 50.662 131.521C50.6536 132.179 49.6078 131.662 49.3752 132.541C48.8607 134.484 47.5464 136.867 44.9339 138.451C44.2441 138.87 43.6191 139.14 43.1683 139.311C42.7043 139.487 42.2904 139.609 41.9673 139.693C41.5322 139.806 41.1309 139.885 40.8001 139.94C40.7245 140.078 40.6446 140.216 40.5599 140.355C38.3295 144.013 34.788 144.8 33.5744 144.975C32.2015 145.174 31.1271 145.021 30.7368 144.959C30.4681 144.917 30.2304 144.867 30.0331 144.821C29.5363 144.788 28.9611 144.716 28.336 144.572C25.4394 143.902 23.5194 142.295 22.6168 141.468C22.1247 141.017 21.7098 140.58 21.4729 140.33C21.3227 140.171 21.2636 140.108 21.1724 140.012C21.1367 139.975 21.1109 139.948 21.0917 139.929L21.0709 139.908C21.0661 139.903 21.0642 139.901 21.0642 139.901C19.5999 138.471 18.0485 136.858 16.6122 134.914C16.604 134.908 16.5958 134.902 16.5876 134.897C14.834 133.657 13.2713 132.28 11.8976 130.881C11.7014 130.681 11.6635 130.646 11.6058 130.592C11.5425 130.534 11.4553 130.453 11.1102 130.109C10.7475 129.748 10.0225 129.013 9.34791 127.993C7.66271 125.447 7.34141 122.812 7.39731 120.64C7.42361 119.614 7.35641 118.985 7.25371 118.023C7.16991 117.239 7.06251 116.234 6.96291 114.613C6.69261 110.215 7.50941 106.133 8.39911 102.803C9.31321 99.3824 11.7337 97.4074 12.4065 96.8634C13.4446 96.0234 14.537 95.3744 15.3563 94.9224C17.0236 94.0034 19.0011 93.1264 20.5553 92.4464C20.8868 92.3014 21.2032 92.1634 21.5055 92.0314C21.5125 92.0284 21.5196 92.0254 21.5267 92.0224C21.912 91.3494 22.4388 90.5854 23.153 89.8394C24.4239 88.5114 26.3236 87.2354 28.718 86.7574C29.7519 85.9234 30.7931 85.1674 31.7658 84.5014C31.6723 84.5284 31.5742 84.5574 31.471 84.5874C31.3907 84.6114 31.3057 84.6364 31.2162 84.6624C29.6348 85.1314 26.6471 86.0154 23.3199 85.9494C23.3163 85.9494 23.3124 85.9494 23.3083 85.9494L23.2792 85.9514C23.2351 85.9544 23.1664 85.9584 23.0916 85.9614C22.9437 85.9694 22.7066 85.9804 22.4272 85.9824C21.8383 85.9874 21.0252 85.9544 20.0804 85.7714C19.1255 85.5864 18.2356 85.2874 17.4076 84.9014C17.0511 84.7354 16.7747 84.6224 16.3499 84.4494C16.0815 84.3394 15.754 84.2064 15.3096 84.0194C14.3818 83.6304 13.0518 83.0464 11.6925 82.2044C8.87491 80.4574 6.42651 78.0744 4.64341 75.0782C3.66041 73.4267 3.28281 71.8399 3.10671 70.9027C3.01501 70.4148 2.9573 69.9803 2.9219 69.6992C2.8967 69.4989 2.88521 69.4023 2.87711 69.3338C2.86901 69.2653 2.86421 69.225 2.85231 69.1373C2.82241 68.9169 2.79951 68.8079 2.74621 68.5553C2.70371 68.3536 2.64191 68.0605 2.54191 67.5461C2.36411 66.632 2.12131 65.2181 2.14401 63.515C2.15121 62.9756 2.10831 62.382 1.99791 61.2885C1.94511 60.7651 1.85341 60.1804 1.70931 59.3427C1.69111 59.2368 1.67161 59.1243 1.65111 59.0061C1.53871 58.3583 1.39661 57.5396 1.27911 56.7043C1.24611 56.5494 1.18121 56.2395 1.12491 55.9011C1.06371 55.5336 0.959507 54.8341 0.953407 53.9914C0.950307 53.5554 0.971405 52.9451 1.08651 52.232C1.19841 51.5383 1.43541 50.5165 1.99101 49.3823C2.43901 48.4678 2.92511 47.744 3.28211 47.2507C3.51151 46.9336 3.76281 46.6127 3.91591 46.4194C5.68331 42.6492 8.54191 40.2413 10.3591 38.8786C10.3661 38.857 10.3725 38.8375 10.3782 38.82L10.3813 38.8105C10.4491 38.6034 10.6801 37.8987 11.0559 37.1108C11.2348 36.7358 11.5984 36.0152 12.1821 35.2263C12.546 34.7344 14.1011 32.6378 17.0699 31.6102C19.7518 30.6819 22.191 30.8874 23.851 31.2518C25.0994 31.1859 26.2217 31.1945 27.1032 31.2207C28.1848 31.2529 30.1192 31.4246 32.1487 32.5176C33.2646 33.1185 34.1301 33.8458 34.7963 34.5527C35.0214 34.6157 35.2684 34.6901 35.528 34.7771C36.7254 35.1784 38.5399 35.9608 40.1948 37.5991C42.6737 40.053 44.9252 42.0488 47.3644 43.6783C48.1509 44.2038 48.8174 44.6617 49.4181 45.0743C50.4722 45.7984 51.3235 46.3832 52.2651 46.9498C51.0451 45.7974 55.9701 44.7692 55.6221 42.4C55.3527 40.5659 51.3046 38.4236 51.6062 37.4874C51.9127 36.5359 50.593 35.7052 50.8666 35.2539C51.3091 34.5238 51.773 33.9653 52.0768 33.6256C51.9234 33.5008 51.7803 33.376 51.6473 33.2531C48.4024 30.255 53.1108 26.4274 53.1619 25.5214C53.2415 24.1088 50.9356 22.2474 51.1619 21.5214C51.6438 19.9752 50.4481 19.0052 51.0175 17.8536C51.6251 16.625 52.2741 15.4482 52.8108 14.5368C53.0756 14.0869 53.3547 13.6309 53.62 13.2279C53.7437 13.0399 53.9318 12.7605 54.1554 12.463C54.261 12.3225 54.4601 12.0631 54.7249 11.7647C54.7263 11.7631 54.729 11.76 54.7328 11.7556C54.8297 11.6432 55.6835 10.6537 57.0351 9.83404C58.6686 8.84314 60.2613 8.46804 61.458 8.33114C61.6104 8.10534 61.7807 7.86924 61.9698 7.62984C62.3216 7.18414 62.8635 6.56564 63.6201 5.94714C64.3728 5.33194 65.5451 4.54784 67.1352 4.06364C70.1589 3.14294 72.7299 3.88154 74.2529 4.65404C74.2719 4.66364 74.2909 4.67324 74.3099 4.68294C75.3039 4.11304 76.3669 3.55554 77.3579 3.14224C78.6149 2.61774 79.8429 2.29304 81.1479 2.15484C81.6309 2.10364 82.0589 2.08674 82.2299 2.07994C82.2389 2.07964 82.2469 2.07934 82.2539 2.07904C82.4609 2.07074 82.4759 2.06964 82.4999 2.06794C83.5299 1.99074 84.4109 2.07124 84.8739 2.12804C87.9669 2.20144 90.2829 3.53834 91.4349 4.33274C92.8659 5.31964 94.2919 6.71224 95.3169 8.43424C95.3509 8.49194 95.4099 8.58354 95.8919 9.18574C95.9109 9.20944 95.9299 9.23414 95.9509 9.25984C96.3779 9.79264 97.1539 10.7605 97.8809 11.9817C97.8899 11.9971 97.9049 12.0212 97.9249 12.0533C98.1269 12.3833 98.8519 13.5618 99.3179 14.8417C99.9999 16.7138 100.101 18.4455 100.023 19.9302C100.02 20 100.018 20.0719 100.012 20.296C100.011 20.3393 100.01 20.3883 100.008 20.444C100.001 20.7183 99.9889 21.1679 99.9539 21.6608C99.8939 22.5 99.7349 24.1733 98.9889 26.0124C99.1039 26.8928 99.0739 27.643 99.0209 28.1621C99.0209 28.1719 99.0209 28.1818 99.0209 28.1918C99.0269 28.4369 99.0279 28.7711 99.0029 29.1626C98.9349 30.2195 98.7589 31.1371 98.6139 31.7862C98.5009 32.2943 98.3599 32.8331 98.2779 33.1464C98.2629 33.2051 98.2499 33.2558 98.2389 33.297C98.2099 33.4077 98.1889 33.4933 98.1729 33.559C98.1239 36.3072 97.0699 38.6927 96.6499 39.6169C96.2799 40.4299 98.7299 42.0679 98.2779 42.8315C97.7879 44.9327 94.4789 46.1623 94.1359 48.1806ZM51.6534 19.9178C51.6534 19.9178 51.6643 19.9064 51.6805 19.8897C51.6605 19.9104 51.6534 19.9178 51.6534 19.9178ZM58.1501 49.4554C57.6936 49.4254 57.0551 49.3525 56.3381 49.1713C57.1319 49.6172 58.0311 50.155 58.9653 50.8117C58.8839 50.6938 58.8234 50.6 58.8042 50.5703C58.7874 50.5442 58.7724 50.5206 58.7597 50.5006C58.7502 50.4856 58.7421 50.4726 58.7356 50.4622C58.681 50.375 58.633 50.2953 58.6044 50.2475C58.4928 50.061 58.3306 49.7819 58.1501 49.4554ZM62.0347 53.5149C62.2395 53.77 62.4509 54.0603 62.6541 54.3843C63.0701 55.0474 65.54 59.235 62.7792 63.996C63.3332 64.805 63.7536 65.5498 64.0562 66.1157C64.448 66.6085 64.7342 67.055 64.8879 67.3017C65.031 67.5314 65.1596 67.7521 65.2349 67.8828C67.0157 70.5028 68.5068 73.3868 69.5989 76.4514C70.1669 78.0464 71.3579 81.4034 71.2989 85.0584C71.2969 85.1814 71.2929 85.2974 71.2879 85.4014C71.2929 85.4834 71.2969 85.5684 71.2999 85.6564C71.2999 85.6654 71.3009 85.6774 71.3009 85.6894C71.3169 86.1274 71.4029 88.4994 69.8779 90.9874C69.5599 91.5064 69.1849 92.0084 68.7559 92.4784C68.9759 92.5594 69.1999 92.6504 69.4269 92.7544C69.6159 92.7184 69.8359 92.6744 70.1019 92.6204C70.1549 92.6104 70.2099 92.5984 70.2679 92.5864C70.8579 92.4664 71.7079 92.2944 72.5799 92.1614C76.9089 91.5014 79.7119 93.4934 81.2839 95.2514C82.1189 94.7534 82.8249 94.3204 83.5169 93.8444C83.7799 93.2644 84.1099 92.6854 84.5159 92.1174C86.0829 89.9314 88.0999 88.8884 89.3889 88.4064C91.6699 87.5534 93.7519 87.6774 94.3979 87.7174C96.0269 87.8194 97.9229 88.2634 97.6829 88.2154C97.9499 88.2684 98.2189 88.3234 98.4919 88.3794L96.3519 84.7844C96.3129 84.7194 96.2729 84.6554 96.1789 84.5024L96.1349 84.4324C96.0299 84.2624 95.8619 83.9924 95.6879 83.6904C95.4159 83.2194 95.0219 82.4964 94.6719 81.5864C94.0469 81.0214 93.6009 80.4934 93.3399 80.1694C93.1719 79.9614 93.0119 79.7494 92.8619 79.5414C90.7149 80.4874 88.8039 80.6154 88.1799 80.6574C88.1429 80.6594 88.1109 80.6624 88.0839 80.6644C86.7309 80.7624 85.0909 80.6494 83.3889 79.9984C81.6539 79.3334 80.3899 78.3154 79.5139 77.3584C78.7239 76.4947 78.2339 75.6575 78.0429 75.3267C77.9539 75.1731 77.8639 75.0091 77.8249 74.9393L77.8119 74.9159C77.7879 74.8735 77.7769 74.8531 77.7729 74.8464M58.6322 50.2896C58.6291 50.2853 58.6053 50.2452 58.5686 50.1805C58.6168 50.2616 58.6352 50.2941 58.6322 50.2896ZM62.0347 53.5149C63.1982 53.984 65.5082 54.5917 67.3261 54.6455L62.0347 53.5149ZM67.3261 54.6455C69.2659 55.3971 71.2039 55.4268 72.8509 55.0997C73.1859 55.303 73.6149 55.5608 74.0589 55.808C74.1529 55.86 74.2529 55.9152 74.3599 55.9729M85.0389 92.7664C85.0389 92.7664 85.0359 92.7684 85.0269 92.7754C85.0339 92.7694 85.0389 92.7664 85.0389 92.7664ZM56.8387 95.2844C56.2179 95.8074 54.8918 97.0334 53.9802 98.9344C53.8718 99.1604 53.759 99.4184 53.6501 99.7044C53.2169 100.424 52.8831 101.062 52.6491 101.51C52.6142 101.577 52.5815 101.639 52.551 101.697C52.3661 102.049 52.1329 102.406 51.59 103.172C51.5534 103.207 51.5109 103.248 51.4674 103.29C51.2551 103.496 50.8261 103.913 50.3788 104.427C50.3747 104.432 50.3705 104.437 50.3664 104.441C50.3189 104.472 50.269 104.505 50.2169 104.54C50.2314 104.487 50.2458 104.434 50.2599 104.381C50.5299 103.371 50.7217 102.015 50.6096 100.543C50.8884 100.263 51.1866 99.9324 51.4778 99.5554C51.8326 99.0964 52.9727 97.5044 53.407 95.2804C53.9672 95.2584 54.5258 95.2434 55.0819 95.2334C55.745 95.2214 56.2637 95.2434 56.8387 95.2844ZM35.0091 113.929C35.034 113.915 35.0487 113.906 35.0543 113.902L35.0567 113.9C35.0499 113.904 35.0409 113.91 35.0298 113.917C35.0235 113.92 35.0166 113.925 35.0091 113.929ZM73.6619 119.021C73.8409 117.45 71.7279 117.934 71.6619 118.021C71.4339 118.321 69.1379 112.018 68.6208 112.478C67.6149 113.373 72.8939 110.45 69.8179 110.401C73.3219 97.7154 67.158 113.857 66.5774 113.718C66.3221 111.806 64.3719 119.583 64.4413 118.472C64.4637 118.114 64.4894 117.751 64.5175 117.387C64.5446 117.036 64.574 116.683 64.605 116.331M65.3475 68.077C65.3475 68.077 65.34 68.0648 65.3207 68.0316C65.3372 68.0591 65.3475 68.077 65.3475 68.077ZM4.1635 46.1009C4.1635 46.1009 4.1551 46.1136 4.1341 46.1416C4.1523 46.1154 4.1635 46.1009 4.1635 46.1009ZM1.31821 56.8914C1.31821 56.8914 1.31531 56.8773 1.31081 56.8541C1.31621 56.8806 1.31821 56.8914 1.31821 56.8914ZM146.583 126.454L146.584 126.452C146.58 126.456 146.58 126.457 146.583 126.454ZM124.555 81.8524C124.555 81.8524 124.564 81.8514 124.578 81.8494C124.562 81.8514 124.555 81.8524 124.555 81.8524ZM147.238 60.9118C147.238 60.9118 147.235 60.9208 147.229 60.9363C147.235 60.9191 147.238 60.9118 147.238 60.9118ZM146.456 46.2884C146.457 46.2899 146.474 46.3123 146.501 46.3507C146.468 46.306 146.455 46.2869 146.456 46.2884Z" fill="#FF4C1F"/>
<path fill-rule="evenodd" clip-rule="evenodd" d="M56.5641 95.0156C63.2113 106.183 77.6875 109.724 88.8975 102.925C100.108 96.1246 103.807 81.5596 97.1605 70.3918C90.5125 59.2242 76.0365 55.6833 64.8263 62.4829C53.6161 69.2826 49.917 83.8476 56.5641 95.0156ZM52.9555 97.2046C60.7844 110.358 77.8345 114.528 91.0375 106.519C104.24 98.5106 108.597 81.3556 100.768 68.203C92.9395 55.0501 75.8895 50.8797 62.6866 58.8881C49.4834 66.8966 45.1266 84.0516 52.9555 97.2046Z" fill="black"/>
<path fill-rule="evenodd" clip-rule="evenodd" d="M103.73 23.7988C103.961 36.2046 99.652 51.1123 91.367 61.1628L87.503 57.7282C94.87 48.7912 98.86 35.1916 98.65 23.8888C98.545 18.2435 97.396 13.4572 95.361 10.183C93.404 7.03439 90.623 5.23369 86.756 5.27509C74.91 5.40219 65.8323 7.91999 60.3897 12.5465C57.7144 14.8206 55.8957 17.6175 55.0045 20.9917C54.1066 24.3907 54.1088 28.5374 55.3426 33.541C57.4578 42.1194 60.5423 47.9886 63.0882 51.8177C64.3636 53.7359 65.5161 55.1609 66.3786 56.1875C66.525 56.3617 66.674 56.5372 66.8177 56.7064C67.0714 57.0053 67.3089 57.2851 67.4873 57.5051C67.6331 57.6849 67.7991 57.8968 67.9436 58.1128L67.9467 58.1174C68.0432 58.2616 68.3447 58.712 68.4747 59.3149L63.5168 60.4565C63.5777 60.739 63.6719 60.9312 63.7052 60.9965C63.7269 61.039 63.7447 61.0697 63.755 61.0869C63.7612 61.0972 63.766 61.1048 63.7691 61.1095C63.7712 61.1128 63.7727 61.1151 63.7727 61.1151C63.7727 61.1151 63.7604 61.097 63.729 61.0556C63.6985 61.0154 63.6575 60.9633 63.6031 60.8963C63.4571 60.7161 63.2883 60.5175 63.0727 60.2638C62.9242 60.089 62.7535 59.8882 62.5528 59.6493C61.6209 58.5402 60.3334 56.9499 58.9087 54.8071C56.0544 50.5142 52.6989 44.0781 50.4205 34.8381C49.0221 29.1666 48.9214 24.0642 50.1042 19.5862C51.2936 15.0834 53.7389 11.3753 57.1653 8.46269C63.926 2.71569 74.402 0.132786 86.692 0.000986285C92.48 -0.0611137 96.822 2.81389 99.629 7.33049C102.358 11.7215 103.615 17.5898 103.73 23.7988Z" fill="black"/>
<path fill-rule="evenodd" clip-rule="evenodd" d="M57.58 143.547C55.3376 131.622 57.5338 116.751 65.1887 105.944L69.4213 108.999C62.7205 118.46 60.6711 131.82 62.6921 142.567C63.6996 147.925 65.676 152.397 68.3492 155.364C70.9553 158.256 74.2303 159.752 78.2373 159.352C90.4493 158.131 98.0893 155.322 101.948 150.964C105.578 146.864 106.451 140.627 102.99 130.648C100.104 122.33 96.4593 116.788 93.5373 113.221C92.0733 111.434 90.7763 110.126 89.8093 109.186C89.6453 109.026 89.4793 108.866 89.3183 108.711C89.0333 108.437 88.7673 108.182 88.5673 107.98C88.4033 107.814 88.2153 107.619 88.0503 107.418L88.0463 107.414C87.9353 107.28 87.5903 106.86 87.4063 106.274L92.3673 104.689C92.2803 104.414 92.1683 104.232 92.1293 104.17C92.1033 104.13 92.0823 104.101 92.0703 104.085C92.0653 104.079 92.0623 104.074 92.0583 104.07C92.0533 104.063 92.0503 104.059 92.0503 104.059C92.0503 104.059 92.0643 104.076 92.0993 104.114C92.1343 104.151 92.1803 104.199 92.2413 104.26C92.4053 104.426 92.5953 104.607 92.8363 104.839C93.0023 104.999 93.1933 105.183 93.4193 105.402C94.4633 106.417 95.9123 107.877 97.5473 109.874C100.823 113.872 104.792 119.952 107.901 128.912C111.621 139.637 111.319 148.262 105.828 154.464C100.565 160.408 91.1393 163.34 78.7503 164.579C72.9183 165.162 68.0797 162.872 64.4996 158.898C60.9867 154.999 58.7042 149.525 57.58 143.547Z" fill="black"/>
<path fill-rule="evenodd" clip-rule="evenodd" d="M14.1863 93.4755C24.0154 85.2795 39.861 81.6975 53.3154 84.2285L52.3623 89.3925C40.2237 87.1095 25.9925 90.4435 17.5002 97.5255C13.3055 101.023 10.6458 105.31 10.1112 110.173C9.57706 115.031 11.1149 120.91 16.1894 127.69C23.2629 137.141 28.337 140.964 32.369 141.814C36.132 142.607 39.789 140.937 44.6253 136.599C50.5899 131.25 55.0073 123.895 58.0624 117.636C59.5799 114.527 60.7401 111.733 61.5783 109.65C61.7364 109.257 61.8869 108.88 62.0273 108.528C62.2506 107.968 62.4483 107.472 62.6104 107.08C62.7436 106.758 62.8759 106.448 62.9988 106.192C63.0597 106.066 63.1366 105.913 63.2261 105.762L63.227 105.76C63.2855 105.662 63.4741 105.343 63.7918 105.048L67.3092 108.919C67.4677 108.773 67.5667 108.641 67.6069 108.586C67.6541 108.521 67.6832 108.473 67.6936 108.455C67.7017 108.441 67.7059 108.434 67.7059 108.434C67.7059 108.434 67.698 108.449 67.6812 108.483C67.6248 108.601 67.5385 108.798 67.4127 109.102C67.261 109.47 67.0854 109.91 66.875 110.438C66.7333 110.793 66.5759 111.188 66.3992 111.627C65.5406 113.761 64.327 116.685 62.73 119.957C59.5561 126.46 54.7816 134.517 48.0813 140.526C42.9772 145.104 37.6229 148.287 31.3054 146.955C25.2569 145.681 19.1814 140.401 12.0377 130.856C6.39806 123.321 4.22036 116.133 4.93946 109.593C5.65796 103.058 9.22026 97.6165 14.1863 93.4755Z" fill="black"/>
<path fill-rule="evenodd" clip-rule="evenodd" d="M139.39 75.8503C130.262 81.3866 116.615 84.3396 102.077 84.7606L101.928 79.5096C116.036 79.1016 128.666 76.227 136.71 71.3479C140.711 68.9208 143.394 66.1115 144.705 63.05C145.985 60.0615 146.09 56.5288 144.373 52.2923C139.758 40.9067 134.528 34.6464 129.122 32.5889C123.974 30.6291 117.646 32.1555 109.794 39.1186C103.235 44.9358 99.5097 50.4232 97.3287 54.4943C96.2357 56.5338 95.5197 58.2377 95.0187 59.4948C94.9337 59.7082 94.8487 59.9245 94.7667 60.1331C94.6217 60.5016 94.4867 60.8464 94.3757 61.1099C94.2857 61.3253 94.1767 61.5736 94.0537 61.8042L94.0517 61.809C93.9697 61.963 93.7137 62.4437 93.2447 62.8354L89.9297 58.786C89.7097 58.9695 89.5847 59.143 89.5427 59.2031C89.5157 59.2422 89.4967 59.2725 89.4867 59.2897C89.4757 59.3074 89.4697 59.3187 89.4697 59.3187C89.4697 59.3187 89.4807 59.298 89.5017 59.2517C89.5227 59.2054 89.5497 59.1442 89.5837 59.0639C89.6737 58.8482 89.7697 58.6032 89.8927 58.2902C89.9767 58.0747 90.0747 57.827 90.1907 57.5344C90.7317 56.1762 91.5307 54.2735 92.7517 51.9952C95.1977 47.4309 99.2947 41.4384 106.36 35.1725C114.834 27.6576 123.177 24.712 130.958 27.6739C138.483 30.5379 144.442 38.5927 149.189 50.303C151.36 55.658 151.392 60.6722 149.481 65.1345C147.601 69.5239 143.974 73.0695 139.39 75.8503Z" fill="black"/>
<path fill-rule="evenodd" clip-rule="evenodd" d="M41.7746 33.1381C51.312 39.6352 60.3602 50.1076 66.0629 59.3176L61.6503 62.1017C56.2337 53.3538 47.6583 43.4831 38.8639 37.4922C34.464 34.4949 30.192 32.5945 26.3655 32.1436C22.6502 31.7059 19.3225 32.6179 16.455 35.3847C8.06714 43.4782 4.39635 54.424 5.35165 63.5922C6.29375 72.6345 11.6549 79.8255 21.5568 81.3935C30.1647 82.7565 37.24 82.0985 42.2827 81.1485C44.8067 80.6725 46.8291 80.1225 48.3144 79.7035C48.4616 79.6615 48.6072 79.6205 48.7499 79.5795C49.3008 79.4235 49.8089 79.2795 50.2087 79.1795C50.461 79.1165 50.7522 79.0505 51.0349 79.0115C51.0396 79.0105 51.0447 79.0095 51.0504 79.0095C51.2242 78.9845 51.8677 78.8935 52.5517 79.1305L50.8632 84.0985C51.2132 84.2195 51.4914 84.2235 51.5752 84.2245C51.6338 84.2245 51.6777 84.2215 51.7024 84.2195C51.7278 84.2175 51.7429 84.2155 51.7455 84.2145C51.7459 84.2145 51.7458 84.2145 51.7455 84.2145C51.7428 84.2155 51.7198 84.2185 51.6709 84.2295C51.6174 84.2405 51.5465 84.2565 51.4544 84.2795C51.1446 84.3565 50.7496 84.4685 50.2162 84.6205C50.0616 84.6645 49.8953 84.7115 49.716 84.7625C48.1746 85.1975 45.9828 85.7945 43.2376 86.3125C37.742 87.3475 30.0592 88.0565 20.7506 86.5825C8.14555 84.5875 1.32355 75.1487 0.176646 64.1417C-0.957054 53.2605 3.37735 40.737 12.8596 31.5876C16.9683 27.6231 21.8886 26.3277 26.9688 26.9263C31.9378 27.5118 37.0087 29.8915 41.7746 33.1381Z" fill="black"/>
<path fill-rule="evenodd" clip-rule="evenodd" d="M114.411 132.661C104.782 125.813 95.4739 114.804 89.9219 105.48L94.3819 102.774C99.6369 111.6 108.481 122.018 117.408 128.367C121.883 131.55 126.157 133.55 129.853 133.999C133.386 134.428 136.41 133.462 138.889 130.513C146.547 121.405 150.43 110.389 149.88 101.421C149.606 96.9665 148.251 93.1135 145.844 90.1825C143.455 87.2745 139.878 85.0865 134.803 84.1905C126.332 82.6965 118.725 83.7395 113.067 85.1365C110.24 85.8345 107.913 86.6165 106.196 87.2145C105.998 87.2835 105.803 87.3525 105.614 87.4185C105.01 87.6305 104.463 87.8225 104.033 87.9585C103.752 88.0475 103.437 88.1415 103.138 88.2025C102.989 88.2335 102.782 88.2705 102.548 88.2835C102.361 88.2935 101.904 88.3075 101.385 88.1165L103.159 83.1785C102.708 83.0135 102.343 83.0335 102.267 83.0375L102.265 83.0385C102.146 83.0445 102.078 83.0605 102.093 83.0575C102.123 83.0515 102.233 83.0235 102.471 82.9485C102.821 82.8365 103.263 82.6825 103.838 82.4805C104.041 82.4095 104.261 82.3325 104.499 82.2495C106.271 81.6315 108.774 80.7885 111.831 80.0345C117.937 78.5265 126.304 77.3585 135.699 79.0165C141.844 80.1005 146.58 82.8505 149.849 86.8295C153.099 90.7855 154.746 95.7705 155.073 101.096C155.723 111.687 151.195 123.995 142.856 133.912C139.128 138.347 134.309 139.831 129.231 139.214C124.317 138.617 119.213 136.076 114.411 132.661Z" fill="black"/>
<path d="M96.3117 114.259C78.7947 124.883 56.0634 119.162 45.5385 101.48C35.0137 83.7984 40.6814 60.8509 58.1976 50.2264C75.7137 39.6018 98.4457 45.3232 108.971 63.0054C119.496 80.6874 113.828 103.634 96.3117 114.259Z" fill="#FFE640"/>
<path fill-rule="evenodd" clip-rule="evenodd" d="M49.453 99.1064C58.6789 114.605 78.6047 119.621 93.9597 110.307C109.314 100.994 114.282 80.8794 105.056 65.3798C95.8307 49.88 75.9037 44.8647 60.5497 54.178C45.1954 63.4912 40.2272 83.6064 49.453 99.1064ZM45.5385 101.48C56.0634 119.162 78.7947 124.883 96.3117 114.259C113.828 103.634 119.496 80.6874 108.971 63.0054C98.4457 45.3232 75.7137 39.6018 58.1976 50.2264C40.6814 60.8509 35.0137 83.7984 45.5385 101.48Z" fill="black"/>
<path d="M97.6602 92.0195C97.6602 96.9905 94.0782 101.02 89.6602 101.02C85.2412 101.02 81.6602 96.9905 81.6602 92.0195C81.6602 87.0495 85.2412 83.0195 89.6602 83.0195C94.0782 83.0195 97.6602 87.0495 97.6602 92.0195Z" fill="#FF6C9C"/>
<path d="M70.6606 92.0195C70.6606 96.9905 67.5262 101.02 63.6602 101.02C59.7942 101.02 56.6602 96.9905 56.6602 92.0195C56.6602 87.0495 59.7942 83.0195 63.6602 83.0195C67.5262 83.0195 70.6606 87.0495 70.6606 92.0195Z" fill="#FF6C9C"/>
<path d="M73.6606 74.5198C73.6606 78.6615 72.0936 82.0195 70.1606 82.0195C68.2272 82.0195 66.6602 78.6615 66.6602 74.5198C66.6602 70.3777 68.2272 67.0198 70.1606 67.0198C72.0936 67.0198 73.6606 70.3777 73.6606 74.5198Z" fill="black"/>
<path d="M87.6602 74.5198C87.6602 78.6615 86.0932 82.0195 84.1602 82.0195C82.2272 82.0195 80.6602 78.6615 80.6602 74.5198C80.6602 70.3777 82.2272 67.0198 84.1602 67.0198C86.0932 67.0198 87.6602 70.3777 87.6602 74.5198Z" fill="black"/>
<path fill-rule="evenodd" clip-rule="evenodd" d="M63.637 93.6335C63.8083 91.9315 63.867 90.1655 63.867 89.0195H65.3367C65.3367 90.1605 65.2813 91.8805 65.1207 93.5785C66.5657 96.7945 70.7796 101.373 76.9566 101.373C82.6726 101.373 85.6466 97.3625 86.1856 96.1755L86.2826 96.2315C86.2696 96.1715 86.2566 96.1105 86.2426 96.0505C85.8776 94.3705 85.6066 92.5045 85.5576 91.4145L87.0246 91.3315C87.0676 92.2805 87.3176 94.0375 87.6706 95.6595C87.8466 96.4675 88.0426 97.2155 88.2406 97.7965C88.3406 98.0885 88.4356 98.3205 88.5216 98.4905C88.5996 98.6455 88.6486 98.7055 88.6586 98.7175C88.6606 98.7195 88.6596 98.7185 88.6596 98.7185L87.7666 100.027C87.5386 99.8315 87.3686 99.5525 87.2426 99.3015C87.1076 99.0355 86.9836 98.7215 86.8686 98.3865C86.8386 98.2975 86.8086 98.2065 86.7786 98.1125C85.3416 100.095 82.1106 103.02 76.9566 103.02C71.1776 103.02 66.9492 99.4185 64.7845 96.0915C64.7443 96.3085 64.7013 96.5205 64.6553 96.7245C64.4647 97.5715 64.1995 98.4025 63.7981 98.9525L62.6602 97.9105C62.8449 97.6575 63.0485 97.1295 63.2303 96.3225C63.4054 95.5445 63.5388 94.6085 63.637 93.6335Z" fill="black"/>
</svg>
