<svg width="293" height="432" viewBox="0 0 293 432" fill="none" xmlns="http://www.w3.org/2000/svg">
<path d="M62.5742 386.889C41.1638 379.878 28.2906 356.34 33.8212 334.314L105.779 47.7487C111.309 25.7233 133.149 13.5517 154.56 20.5624L253.522 52.9674C274.933 59.9782 287.806 83.5167 282.275 105.542L210.318 392.108C204.787 414.133 182.947 426.305 161.537 419.294L62.5742 386.889Z" fill="#FFE640"/>
<path fill-rule="evenodd" clip-rule="evenodd" d="M109.655 49.0181L37.6979 335.584C32.7204 355.407 44.3062 376.591 63.5756 382.901L162.538 415.306C181.808 421.616 201.464 410.661 206.441 390.838L278.399 104.273C283.376 84.4498 271.79 63.2652 252.521 56.9555L153.558 24.5505C134.289 18.2408 114.633 29.1953 109.655 49.0181ZM33.8212 334.314C28.2906 356.34 41.1638 379.878 62.5742 386.889L161.537 419.294C182.947 426.305 204.787 414.133 210.318 392.108L282.275 105.542C287.806 83.5167 274.933 59.9782 253.522 52.9674L154.56 20.5624C133.149 13.5517 111.309 25.7233 105.779 47.7487L33.8212 334.314Z" fill="black"/>
<path d="M38.7671 378.57C17.3566 371.559 4.48346 348.021 10.0141 325.996L81.8584 39.8805C87.389 17.8552 109.229 5.68346 130.64 12.6942L238.404 47.9815C259.815 54.9923 272.688 78.5308 267.157 100.556L195.313 386.671C189.782 408.696 167.942 420.868 146.532 413.857L38.7671 378.57Z" fill="white"/>
<path fill-rule="evenodd" clip-rule="evenodd" d="M88.0611 41.9116L16.2168 328.027C11.5711 346.528 22.3845 366.3 40.3693 372.189L148.134 407.477C166.119 413.366 184.465 403.141 189.11 384.64L260.955 98.5251C265.6 80.0238 254.787 60.2515 236.802 54.3624L129.037 19.0751C111.053 13.1861 92.7069 23.4103 88.0611 41.9116ZM10.0141 325.996C4.48346 348.021 17.3566 371.559 38.7671 378.57L146.532 413.857C167.942 420.868 189.782 408.696 195.313 386.671L267.157 100.556C272.688 78.5308 259.815 54.9923 238.404 47.9815L130.64 12.6942C109.229 5.68346 87.389 17.8552 81.8584 39.8805L10.0141 325.996Z" fill="black"/>
<path d="M150.636 38.5092C146.672 37.2113 144.289 32.8538 145.313 28.7764V28.7764C146.337 24.699 150.38 22.4458 154.343 23.7436L220.934 45.5486C224.898 46.8464 227.281 51.2039 226.257 55.2813V55.2813C225.233 59.3587 221.19 61.612 217.226 60.3141L150.636 38.5092Z" fill="black"/>
<path d="M60.3478 370.588C58.4061 369.952 57.2386 367.818 57.7402 365.82V365.82C58.2418 363.823 60.2224 362.719 62.1641 363.355L123.533 383.45C125.475 384.086 126.642 386.22 126.14 388.218V388.218C125.639 390.215 123.658 391.319 121.717 390.683L60.3478 370.588Z" fill="black"/>
<path fill-rule="evenodd" clip-rule="evenodd" d="M123.333 384.247L61.9638 364.152C60.4503 363.657 58.9065 364.517 58.5155 366.074C58.1246 367.631 59.0346 369.295 60.548 369.791L121.917 389.886C123.43 390.381 124.974 389.521 125.365 387.964C125.756 386.407 124.846 384.743 123.333 384.247ZM57.7402 365.82C57.2386 367.818 58.4061 369.952 60.3478 370.588L121.717 390.683C123.658 391.319 125.639 390.215 126.14 388.218C126.642 386.22 125.475 384.086 123.533 383.45L62.1641 363.355C60.2224 362.719 58.2418 363.823 57.7402 365.82Z" fill="black"/>
<path d="M126.797 133.544C125.944 133.264 125.046 132.884 124.104 132.403C123.169 131.895 122.588 131.59 122.362 131.487C122.272 131.4 122.215 131.295 122.19 131.172L122.582 129.444L122.982 127.849C124.124 123.303 125.336 118.809 126.62 114.366C126.699 114.162 126.775 113.914 126.849 113.621L126.879 113.501L124.966 114.602L124.84 114.603C124.743 114.543 124.609 114.355 124.436 114.04L124.09 113.581C123.77 113.073 123.415 112.482 123.025 111.808C122.667 111.115 122.512 110.676 122.558 110.49L122.676 110.356L123.613 109.799L123.73 109.665C123.737 109.639 124.245 109.344 125.253 108.783C125.434 108.727 125.802 108.545 126.355 108.237C126.355 108.237 126.875 107.947 127.916 107.367C128.924 106.805 129.428 106.524 129.428 106.524C130.111 106.144 130.933 105.765 131.894 105.39L131.972 105.415C132.101 105.457 132.422 105.85 132.935 106.594L133.78 107.906C133.844 107.985 133.918 108.081 134.001 108.194C134.11 108.316 134.197 108.417 134.261 108.495C134.416 108.546 134.464 108.691 134.404 108.93C134.377 109.037 134.337 109.139 134.285 109.237C134.239 109.308 134.203 109.397 134.176 109.503L132.86 113.906L132.682 114.452C131.431 117.984 130.4 121.2 129.588 124.099L127.588 131.731L127.18 133.022L127.149 133.141C127.136 133.195 127.136 133.252 127.148 133.314C127.161 133.375 127.164 133.419 127.157 133.446C127.124 133.579 127.003 133.611 126.797 133.544Z" fill="#FFE640"/>
<path d="M132.687 135.818C132.299 135.691 131.831 135.494 131.283 135.228C130.734 134.963 130.48 134.75 130.52 134.59L131.471 130.802C131.492 130.607 131.546 130.337 131.633 129.991L131.663 129.872L131.76 129.817C132.917 130.225 134.187 130.569 135.571 130.849C135.681 130.856 135.869 130.889 136.134 130.947C136.405 130.979 136.655 130.988 136.882 130.976C137.569 130.914 138.16 130.676 138.655 130.262C139.176 129.857 139.517 129.336 139.677 128.698C139.857 127.98 139.635 127.361 139.011 126.84C138.387 126.319 137.674 125.927 136.873 125.665L136.32 125.527L136.155 125.516C136.077 125.491 136.029 125.403 136.011 125.253C136.164 124.756 136.348 123.968 136.563 122.888L136.975 121.08L137.095 120.602C137.18 120.486 137.304 120.44 137.465 120.464C137.627 120.488 137.721 120.504 137.747 120.513L138.522 120.767C138.962 120.911 139.46 120.987 140.017 120.997C140.58 120.98 140.933 120.966 141.076 120.956C142.332 120.964 143.38 120.804 144.218 120.474C145.056 120.144 145.602 119.474 145.855 118.464C146.062 117.639 145.945 116.882 145.503 116.19C145.061 115.499 144.45 114.925 143.67 114.468C143.547 114.399 143.328 114.27 143.012 114.08C142.722 113.899 142.435 113.761 142.151 113.668C141.427 113.431 140.551 113.245 139.522 113.11C139.412 113.102 139.273 113.1 139.104 113.102C138.942 113.078 138.807 113.062 138.696 113.055C138.567 113.013 138.516 112.938 138.543 112.832C138.599 112.275 138.692 111.514 138.822 110.55C138.959 109.559 139.036 108.807 139.053 108.295L139.044 108.162L139.084 108.003C139.124 107.843 139.215 107.758 139.358 107.747C139.533 107.718 139.685 107.725 139.814 107.767C139.976 107.792 140.083 107.812 140.135 107.829C140.717 107.962 141.563 108.21 142.675 108.574C145.078 109.361 147.118 110.648 148.796 112.435C150.479 114.194 151.341 116.275 151.382 118.676C151.428 119.382 151.375 120.041 151.221 120.652C151.101 121.131 150.897 121.611 150.608 122.092C150.352 122.554 150.181 122.844 150.096 122.96C149.598 123.832 148.945 124.539 148.137 125.081C147.33 125.622 146.437 126.005 145.457 126.231C145.34 126.251 145.123 126.28 144.805 126.32C144.494 126.333 144.283 126.394 144.173 126.501C144.198 126.625 144.245 126.827 144.314 127.109C144.39 127.364 144.437 127.566 144.455 127.716C144.486 127.927 144.469 128.44 144.405 129.253C144.34 130.067 144.278 130.593 144.218 130.832C143.991 131.736 143.57 132.577 142.955 133.354C142.347 134.104 141.621 134.715 140.775 135.186C140.144 135.584 139.63 135.847 139.234 135.976C138.864 136.114 138.335 136.214 137.648 136.277C136.709 136.343 135.841 136.347 135.044 136.288C134.274 136.237 133.488 136.08 132.687 135.818Z" fill="#FFE640"/>
<path d="M155.322 126.829C154.624 126.6 154.115 126.29 153.794 125.897C153.499 125.512 153.292 124.941 153.175 124.184C153.075 123.691 153.075 123.245 153.175 122.846C153.322 122.261 153.654 121.607 154.171 120.884C154.721 120.144 155.236 119.708 155.716 119.578L156.154 119.505C156.251 119.451 156.326 119.432 156.378 119.449C157.437 119.796 158.286 120.261 158.922 120.843C159.566 121.399 159.903 122.172 159.935 123.16C159.918 123.673 159.886 124.022 159.84 124.208C159.593 125.192 159.01 125.951 158.093 126.485C157.202 127.027 156.278 127.142 155.322 126.829ZM153.055 136.358C152.124 136.054 151.484 135.484 151.134 134.651C150.81 133.825 150.775 132.907 151.028 131.897C151.222 131.126 151.593 130.485 152.141 129.974C152.688 129.462 153.341 129.202 154.099 129.191C154.487 129.318 154.736 129.385 154.846 129.392C155.673 129.663 156.359 130.218 156.903 131.058C157.48 131.88 157.664 132.703 157.458 133.527C157.204 134.538 156.65 135.349 155.797 135.962C154.951 136.548 154.037 136.68 153.055 136.358Z" fill="#FFE640"/>
<path d="M168.003 147.598C167.383 147.395 166.485 147.072 165.309 146.629C164.082 146.17 163.171 145.843 162.577 145.648C161.491 145.293 160.713 145.052 160.241 144.926C160.176 144.963 160.104 144.968 160.027 144.943C159.872 144.892 159.814 144.787 159.854 144.627C159.861 144.601 159.884 144.565 159.923 144.52C159.962 144.476 159.989 144.427 160.002 144.374C160.129 143.868 160.241 143.2 160.338 142.369C160.467 141.519 160.537 140.851 160.547 140.365L160.538 140.233C160.578 140.074 160.699 139.926 160.901 139.791C161.129 139.664 161.278 139.569 161.35 139.506C161.493 139.381 161.758 139.108 162.143 138.687C162.554 138.275 162.969 137.85 163.386 137.411L165.629 134.995L167.118 133.411C169.273 131.066 170.857 129.269 171.87 128.018C172.445 127.401 172.822 126.733 173.003 126.015C173.263 124.978 172.993 124.329 172.192 124.066C171.261 123.761 170.308 123.881 169.332 124.425C168.389 124.95 167.691 125.671 167.237 126.587C167.158 126.791 167.075 127.066 166.988 127.412L166.848 127.97C166.86 128.032 166.87 128.107 166.875 128.195C166.881 128.283 166.871 128.381 166.844 128.487C166.804 128.646 166.664 128.701 166.425 128.652C166.212 128.611 166.079 128.582 166.027 128.565C165.872 128.514 165.736 128.498 165.62 128.518C164.804 128.423 163.64 128.157 162.128 127.72C162.03 127.774 161.917 127.78 161.788 127.738C161.581 127.67 161.538 127.397 161.658 126.918C162.039 125.403 162.853 123.886 164.101 122.367C165.101 121.169 166.174 120.24 167.319 119.579C168.464 118.918 169.752 118.577 171.183 118.557C172.732 118.517 173.971 118.65 174.902 118.954C175.522 119.157 176.099 119.476 176.633 119.91C177.194 120.352 177.64 120.858 177.973 121.427C178.03 121.533 178.126 121.708 178.26 121.953C178.42 122.207 178.528 122.444 178.585 122.664C178.88 123.94 178.861 125.243 178.527 126.572C178.18 127.955 177.613 129.208 176.827 130.332C176.068 131.464 175.028 132.764 173.709 134.231C173.467 134.526 172.811 135.188 171.741 136.219L169.773 138.208C168.305 139.712 167.316 140.697 166.807 141.164L166.797 141.204L171.837 142.854C172.147 142.956 172.554 143.118 173.058 143.34C173.458 143.529 173.735 143.648 173.89 143.699L174.966 144.094C175.043 144.12 175.127 144.176 175.217 144.263C175.333 144.358 175.378 144.459 175.351 144.566C175.153 145.019 175.001 145.458 174.894 145.884L174.586 146.775C174.534 146.873 174.353 147.26 174.043 147.936C173.766 148.593 173.605 148.957 173.559 149.029C173.52 149.073 173.462 149.083 173.384 149.058C173.048 148.948 172.563 148.818 171.93 148.668C171.451 148.568 171.095 148.481 170.863 148.405C170.223 148.281 169.269 148.012 168.003 147.598Z" fill="#FFE640"/>
<path d="M178.837 150.929C178.449 150.802 177.981 150.606 177.432 150.34C176.884 150.074 176.629 149.861 176.669 149.702L177.621 145.913C177.642 145.719 177.695 145.448 177.782 145.103L177.812 144.983L177.91 144.929C179.066 145.336 180.336 145.68 181.72 145.961C181.83 145.968 182.018 146.001 182.283 146.059C182.555 146.09 182.804 146.1 183.031 146.088C183.718 146.025 184.309 145.787 184.805 145.374C185.326 144.969 185.666 144.448 185.827 143.809C186.007 143.092 185.785 142.472 185.161 141.951C184.536 141.43 183.823 141.039 183.022 140.776L182.469 140.638L182.304 140.628C182.227 140.602 182.179 140.515 182.161 140.365C182.313 139.868 182.497 139.079 182.713 137.999L183.125 136.192L183.245 135.713C183.33 135.597 183.453 135.551 183.615 135.575C183.777 135.6 183.87 135.616 183.896 135.624L184.672 135.878C185.111 136.022 185.609 136.099 186.166 136.109C186.73 136.092 187.083 136.078 187.225 136.067C188.482 136.076 189.529 135.915 190.367 135.585C191.205 135.255 191.751 134.585 192.005 133.575C192.212 132.751 192.094 131.993 191.653 131.302C191.211 130.61 190.6 130.036 189.819 129.579C189.697 129.511 189.478 129.381 189.162 129.191C188.872 129.01 188.584 128.873 188.3 128.78C187.576 128.543 186.7 128.357 185.671 128.221C185.561 128.214 185.422 128.211 185.254 128.214C185.092 128.19 184.956 128.174 184.846 128.167C184.717 128.124 184.665 128.05 184.692 127.944C184.748 127.387 184.841 126.626 184.972 125.661C185.109 124.67 185.185 123.919 185.202 123.406L185.193 123.274L185.234 123.114C185.274 122.955 185.365 122.87 185.507 122.859C185.683 122.83 185.835 122.837 185.964 122.879C186.126 122.903 186.232 122.924 186.284 122.941C186.866 123.074 187.713 123.322 188.824 123.686C191.228 124.473 193.268 125.76 194.945 127.546C196.629 129.306 197.491 131.386 197.531 133.788C197.578 134.494 197.524 135.152 197.371 135.764C197.251 136.242 197.046 136.722 196.758 137.203C196.501 137.666 196.331 137.955 196.246 138.071C195.747 138.944 195.094 139.651 194.287 140.192C193.48 140.733 192.586 141.117 191.606 141.343C191.49 141.362 191.273 141.392 190.955 141.432C190.644 141.445 190.433 141.505 190.322 141.613C190.347 141.736 190.394 141.939 190.463 142.22C190.539 142.475 190.586 142.678 190.604 142.827C190.635 143.039 190.618 143.551 190.554 144.365C190.49 145.178 190.427 145.704 190.367 145.944C190.14 146.848 189.72 147.688 189.105 148.465C188.497 149.216 187.77 149.826 186.925 150.298C186.293 150.695 185.78 150.959 185.384 151.088C185.013 151.225 184.485 151.326 183.798 151.389C182.858 151.455 181.99 151.458 181.194 151.399C180.423 151.348 179.638 151.192 178.837 150.929Z" fill="#FFE640"/>
<path fill-rule="evenodd" clip-rule="evenodd" d="M123.777 133.147L123.767 133.142C122.821 132.628 122.271 132.34 122.078 132.252L121.945 132.191L121.837 132.087C121.616 131.874 121.468 131.604 121.407 131.302L121.37 131.117L121.804 129.2L122.207 127.595C123.25 123.442 124.352 119.332 125.513 115.265L125.216 115.436L124.663 115.444L124.458 115.316C124.258 115.191 124.117 115.008 124.035 114.894C123.95 114.775 123.864 114.635 123.78 114.484L123.449 114.046L123.429 114.014C123.101 113.494 122.74 112.893 122.346 112.211L122.335 112.192L122.325 112.173C122.138 111.811 121.989 111.486 121.891 111.21C121.842 111.072 121.799 110.927 121.774 110.782C121.751 110.649 121.73 110.448 121.783 110.236L121.831 110.048L122.151 109.682L123.088 109.126L123.105 109.106C123.116 109.093 123.124 109.084 123.128 109.08C123.128 109.079 123.129 109.078 123.129 109.078C123.162 109.04 123.192 109.013 123.207 109.001C123.238 108.974 123.267 108.953 123.283 108.942C123.317 108.917 123.356 108.892 123.392 108.87C123.466 108.823 123.57 108.762 123.699 108.687C123.958 108.537 124.341 108.32 124.846 108.039L124.915 108.001L124.99 107.978C125.082 107.95 125.379 107.811 125.948 107.493L126.355 108.237C125.802 108.545 125.435 108.727 125.253 108.782C124.245 109.344 123.738 109.639 123.731 109.665L123.613 109.799L122.676 110.356L122.559 110.49C122.512 110.676 122.667 111.115 123.025 111.808C123.415 112.482 123.77 113.073 124.09 113.581L124.436 114.04C124.609 114.355 124.744 114.543 124.84 114.603L124.967 114.602L126.879 113.501L126.849 113.621C126.776 113.913 126.699 114.162 126.62 114.366C126.59 114.471 126.56 114.575 126.529 114.68C125.28 119.02 124.097 123.41 122.983 127.849L122.582 129.444L122.19 131.172C122.215 131.295 122.273 131.4 122.363 131.487C122.589 131.59 123.169 131.895 124.105 132.403C124.886 132.802 125.636 133.132 126.356 133.392C126.358 133.392 126.359 133.393 126.361 133.393C126.393 133.405 126.425 133.417 126.457 133.428C126.571 133.468 126.685 133.507 126.797 133.544C127.004 133.611 127.124 133.579 127.157 133.446C127.164 133.419 127.161 133.375 127.149 133.314C127.136 133.252 127.136 133.194 127.15 133.141L127.18 133.022L127.588 131.731L129.588 124.099C130.4 121.2 131.431 117.984 132.682 114.452L132.861 113.906L134.176 109.503C134.203 109.397 134.239 109.308 134.285 109.237C134.338 109.139 134.377 109.037 134.404 108.93C134.464 108.691 134.417 108.546 134.262 108.495C134.197 108.417 134.111 108.316 134.001 108.194C133.918 108.081 133.844 107.985 133.78 107.906L132.935 106.594C132.422 105.85 132.102 105.457 131.972 105.415L131.895 105.39C130.933 105.765 130.111 106.144 129.428 106.524L129.022 105.781C129.741 105.38 130.595 104.988 131.578 104.604L131.83 104.505L132.173 104.617C132.402 104.693 132.569 104.853 132.631 104.913C132.723 105.001 132.816 105.108 132.907 105.219C133.09 105.443 133.314 105.75 133.576 106.129L133.584 106.141L134.41 107.425C134.47 107.499 134.534 107.583 134.601 107.673C134.653 107.732 134.702 107.787 134.746 107.839C134.931 107.967 135.087 108.158 135.17 108.411C135.27 108.716 135.225 109.001 135.179 109.184C135.136 109.358 135.072 109.522 134.989 109.676L134.974 109.704L134.962 109.722C134.96 109.727 134.956 109.739 134.952 109.757L134.947 109.775L133.623 114.206L133.438 114.771L133.435 114.78C132.19 118.297 131.165 121.492 130.36 124.368L128.356 132.013L127.951 133.295C127.964 133.397 127.971 133.545 127.933 133.7C127.852 134.021 127.625 134.288 127.283 134.381C127.012 134.455 126.756 134.393 126.597 134.341C125.697 134.047 124.76 133.649 123.786 133.151L123.777 133.147ZM129.428 106.524L129.022 105.781L129.021 105.781L125.951 107.492L125.95 107.493L125.948 107.493L126.355 108.237L129.428 106.524ZM139.044 108.162L139.084 108.003C139.124 107.843 139.216 107.758 139.358 107.747C139.533 107.718 139.686 107.725 139.815 107.767C139.977 107.792 140.083 107.812 140.135 107.829C140.717 107.962 141.564 108.21 142.675 108.574C145.078 109.361 147.119 110.648 148.796 112.435C150.48 114.194 151.342 116.275 151.382 118.676C151.429 119.382 151.375 120.041 151.222 120.652C151.101 121.131 150.897 121.611 150.608 122.092C150.352 122.554 150.182 122.844 150.097 122.96C149.598 123.832 148.945 124.539 148.138 125.081C147.331 125.622 146.437 126.005 145.457 126.231C145.341 126.251 145.123 126.28 144.806 126.32C144.495 126.333 144.284 126.394 144.173 126.501C144.198 126.625 144.245 126.827 144.314 127.109C144.39 127.364 144.437 127.566 144.455 127.716C144.486 127.927 144.469 128.44 144.405 129.253C144.341 130.067 144.278 130.593 144.218 130.832C143.991 131.736 143.57 132.577 142.956 133.354C142.348 134.104 141.621 134.715 140.775 135.186C140.144 135.584 139.631 135.847 139.234 135.976C138.864 136.114 138.336 136.214 137.649 136.277C136.709 136.343 135.841 136.347 135.045 136.288C134.274 136.237 133.489 136.08 132.687 135.818C132.3 135.691 131.832 135.494 131.283 135.228C130.734 134.962 130.48 134.75 130.52 134.59L131.472 130.802C131.493 130.607 131.546 130.337 131.633 129.991L131.663 129.872L131.761 129.817C132.917 130.225 134.187 130.569 135.571 130.849C135.681 130.856 135.869 130.889 136.134 130.947C136.406 130.979 136.655 130.988 136.882 130.976C137.569 130.913 138.16 130.675 138.655 130.262C139.177 129.857 139.517 129.336 139.678 128.698C139.858 127.98 139.636 127.361 139.011 126.84C138.387 126.319 137.674 125.927 136.873 125.665L136.32 125.527L136.155 125.516C136.078 125.491 136.03 125.403 136.011 125.253C136.058 125.1 136.108 124.92 136.161 124.712C136.164 124.702 136.166 124.692 136.169 124.681C136.286 124.217 136.418 123.619 136.564 122.888L136.975 121.08L137.096 120.602C137.181 120.486 137.304 120.44 137.466 120.464C137.628 120.488 137.721 120.504 137.747 120.513L138.523 120.767C138.962 120.911 139.46 120.987 140.017 120.997C140.581 120.98 140.934 120.966 141.076 120.956C142.333 120.964 143.38 120.804 144.218 120.474C145.056 120.144 145.602 119.474 145.856 118.464C146.063 117.639 145.945 116.882 145.503 116.19C145.062 115.499 144.451 114.925 143.67 114.468C143.548 114.399 143.329 114.27 143.013 114.08C142.722 113.899 142.435 113.761 142.151 113.668C141.427 113.431 140.551 113.245 139.522 113.11C139.412 113.102 139.273 113.1 139.105 113.102C138.943 113.078 138.807 113.062 138.697 113.055C138.568 113.013 138.516 112.938 138.543 112.832C138.599 112.275 138.692 111.514 138.822 110.55C138.959 109.559 139.036 108.807 139.053 108.295L139.044 108.162ZM138.251 108.262L138.237 108.038L138.309 107.749C138.357 107.56 138.451 107.35 138.632 107.181C138.806 107.018 139.015 106.939 139.218 106.916C139.445 106.881 139.691 106.88 139.939 106.947C140.058 106.965 140.185 106.988 140.289 107.017C140.907 107.16 141.773 107.416 142.875 107.777C145.402 108.604 147.567 109.965 149.349 111.862C151.181 113.778 152.133 116.069 152.182 118.687C152.232 119.465 152.172 120.207 151.997 120.906C151.855 121.469 151.62 122.018 151.301 122.552C151.074 122.961 150.891 123.277 150.771 123.452C150.217 124.41 149.49 125.193 148.596 125.792C147.712 126.385 146.735 126.804 145.671 127.049L145.648 127.054L145.625 127.058C145.521 127.075 145.358 127.098 145.141 127.126C145.191 127.312 145.228 127.488 145.248 127.646C145.275 127.836 145.274 128.083 145.266 128.334C145.257 128.609 145.236 128.955 145.203 129.368C145.14 130.165 145.074 130.766 144.994 131.086C144.736 132.111 144.261 133.052 143.584 133.908L143.579 133.915C142.914 134.736 142.119 135.404 141.199 135.92C140.564 136.319 140 136.615 139.525 136.772C139.067 136.94 138.467 137.046 137.762 137.111L137.754 137.112L137.746 137.112C136.778 137.181 135.873 137.185 135.035 137.123C134.196 137.067 133.346 136.897 132.487 136.615C132.052 136.473 131.548 136.26 130.98 135.984C130.687 135.843 130.411 135.687 130.202 135.512C130.098 135.425 129.966 135.297 129.865 135.122C129.756 134.931 129.666 134.649 129.745 134.336L130.683 130.6C130.714 130.358 130.775 130.066 130.858 129.737L130.971 129.287L131.649 128.909L131.978 129.026C133.082 129.414 134.301 129.746 135.637 130.019C135.795 130.034 135.996 130.072 136.215 130.119C136.43 130.143 136.619 130.149 136.783 130.141C137.323 130.089 137.766 129.905 138.135 129.597L138.145 129.589L138.155 129.581C138.547 129.276 138.787 128.902 138.902 128.444C138.958 128.224 138.941 128.069 138.898 127.95C138.854 127.826 138.754 127.667 138.533 127.483C138.004 127.041 137.396 126.703 136.7 126.471L136.244 126.358L136.05 126.345L135.955 126.314C135.358 126.118 135.242 125.515 135.217 125.314L135.195 125.13L135.248 124.958C135.387 124.503 135.565 123.75 135.779 122.674L135.781 122.663L136.198 120.835L136.359 120.194L136.45 120.07C136.725 119.695 137.138 119.576 137.536 119.635C137.619 119.648 137.69 119.659 137.746 119.669L137.751 119.67C137.786 119.676 137.872 119.691 137.947 119.715L138.723 119.969C139.068 120.082 139.48 120.15 139.968 120.16C140.527 120.143 140.854 120.13 140.974 120.121L141.006 120.118L141.037 120.119C142.231 120.127 143.177 119.973 143.9 119.688C144.484 119.458 144.88 119.005 145.08 118.21C145.233 117.6 145.145 117.097 144.845 116.628C144.489 116.071 143.989 115.592 143.315 115.196C143.18 115.12 142.953 114.986 142.643 114.8L142.637 114.796L142.63 114.792C142.391 114.642 142.164 114.536 141.951 114.466C141.294 114.251 140.478 114.075 139.493 113.944C139.412 113.939 139.303 113.937 139.16 113.939L139.097 113.94L139.034 113.931C138.885 113.908 138.772 113.896 138.691 113.89L138.592 113.884L138.497 113.853C138.349 113.804 138.102 113.694 137.921 113.432C137.737 113.166 137.714 112.882 137.75 112.661C137.808 112.094 137.902 111.335 138.029 110.388L138.03 110.386C138.162 109.431 138.233 108.728 138.251 108.262ZM153.189 126.409L153.18 126.398C152.757 125.847 152.517 125.112 152.388 124.293C152.271 123.703 152.265 123.13 152.4 122.592C152.581 121.872 152.973 121.126 153.521 120.36L153.525 120.354L153.529 120.349C154.106 119.571 154.748 118.964 155.475 118.767L155.512 118.757L155.881 118.696C155.934 118.673 155.993 118.652 156.056 118.636C156.173 118.607 156.362 118.58 156.578 118.651C157.711 119.022 158.672 119.535 159.422 120.219C160.28 120.965 160.698 121.991 160.736 123.179L160.736 123.207L160.736 123.235C160.719 123.741 160.687 124.177 160.615 124.462C160.312 125.669 159.592 126.591 158.518 127.218C157.456 127.862 156.307 128.015 155.122 127.626C154.342 127.371 153.664 126.991 153.197 126.42L153.189 126.409ZM158.094 126.485C159.011 125.951 159.593 125.192 159.84 124.208C159.887 124.022 159.918 123.673 159.935 123.16C159.904 122.172 159.566 121.399 158.923 120.843C158.286 120.261 157.438 119.796 156.378 119.449C156.326 119.432 156.252 119.451 156.154 119.505L155.716 119.578C155.236 119.708 154.721 120.144 154.172 120.884C153.654 121.607 153.322 122.261 153.176 122.846C153.075 123.245 153.075 123.691 153.175 124.184C153.293 124.941 153.499 125.512 153.794 125.897C154.115 126.29 154.624 126.6 155.322 126.829C156.278 127.142 157.202 127.027 158.094 126.485ZM150.4 134.941L150.396 134.931C149.991 133.899 149.965 132.79 150.253 131.643C150.484 130.726 150.93 129.951 151.59 129.336C152.273 128.698 153.102 128.367 154.044 128.354L154.174 128.352L154.3 128.393C154.487 128.454 154.631 128.498 154.736 128.526C154.789 128.541 154.826 128.549 154.851 128.555C154.858 128.556 154.863 128.557 154.866 128.558L154.951 128.563L155.046 128.594C156.073 128.931 156.909 129.62 157.549 130.602C158.243 131.597 158.51 132.679 158.233 133.781C157.931 134.983 157.268 135.947 156.276 136.66L156.27 136.664L156.265 136.667C155.232 137.383 154.074 137.555 152.855 137.156C151.722 136.785 150.867 136.053 150.404 134.951L150.4 134.941ZM156.903 131.058C156.359 130.218 155.673 129.663 154.846 129.392C154.736 129.385 154.487 129.318 154.1 129.191C153.342 129.202 152.689 129.462 152.141 129.974C151.593 130.485 151.222 131.126 151.029 131.897C150.775 132.907 150.81 133.825 151.134 134.651C151.484 135.484 152.125 136.054 153.055 136.358C154.037 136.68 154.951 136.548 155.798 135.962C156.651 135.349 157.204 134.538 157.458 133.527C157.665 132.703 157.48 131.88 156.903 131.058ZM160.901 139.791C161.129 139.664 161.279 139.569 161.35 139.506C161.494 139.381 161.758 139.108 162.143 138.687C162.555 138.275 162.969 137.85 163.387 137.411L165.63 134.995L167.118 133.411C169.273 131.066 170.858 129.269 171.871 128.018C172.445 127.401 172.823 126.733 173.003 126.015C173.263 124.978 172.993 124.328 172.192 124.066C171.261 123.761 170.308 123.881 169.333 124.425C168.39 124.95 167.691 125.671 167.238 126.587C167.158 126.791 167.075 127.066 166.988 127.412L166.848 127.97C166.861 128.032 166.87 128.107 166.876 128.195C166.882 128.283 166.871 128.381 166.844 128.487C166.804 128.646 166.665 128.701 166.425 128.652C166.212 128.611 166.079 128.582 166.028 128.565C165.873 128.514 165.737 128.498 165.62 128.518C164.805 128.423 163.641 128.157 162.128 127.72C162.031 127.774 161.917 127.78 161.788 127.738C161.581 127.67 161.538 127.397 161.658 126.918C162.039 125.403 162.853 123.886 164.102 122.367C165.102 121.169 166.174 120.24 167.319 119.579C168.464 118.918 169.752 118.577 171.184 118.557C172.732 118.517 173.972 118.65 174.902 118.954C175.522 119.157 176.1 119.476 176.634 119.91C177.194 120.352 177.64 120.858 177.973 121.427L178.26 121.953C178.42 122.207 178.529 122.444 178.585 122.664C178.88 123.94 178.861 125.243 178.527 126.572C178.18 127.955 177.614 129.208 176.828 130.332C176.068 131.464 175.028 132.764 173.709 134.231C173.467 134.526 172.811 135.188 171.741 136.219L169.774 138.208C168.777 139.228 168.002 140.01 167.447 140.553C167.184 140.81 166.971 141.014 166.808 141.164L166.798 141.204L171.837 142.854C172.148 142.956 172.554 143.118 173.058 143.34C173.458 143.529 173.736 143.648 173.891 143.699L174.966 144.094C175.044 144.12 175.128 144.176 175.218 144.263C175.334 144.358 175.378 144.459 175.351 144.566C175.154 145.019 175.001 145.458 174.895 145.884L174.587 146.775C174.534 146.873 174.353 147.26 174.044 147.936C173.767 148.593 173.605 148.957 173.559 149.029C173.52 149.073 173.462 149.083 173.384 149.058C173.048 148.948 172.564 148.818 171.93 148.668C171.451 148.568 171.096 148.481 170.863 148.405C170.223 148.281 169.27 148.012 168.003 147.598C167.383 147.395 166.485 147.072 165.31 146.629C164.082 146.17 163.172 145.843 162.577 145.648C161.727 145.37 161.065 145.162 160.591 145.024C160.587 145.023 160.583 145.022 160.579 145.021C160.51 145.001 160.445 144.982 160.384 144.965C160.334 144.951 160.286 144.938 160.241 144.926C160.176 144.963 160.105 144.968 160.027 144.943C159.872 144.892 159.815 144.787 159.855 144.627C159.861 144.601 159.884 144.565 159.923 144.52C159.945 144.496 159.963 144.47 159.976 144.443C159.988 144.42 159.996 144.397 160.002 144.374C160.022 144.294 160.042 144.21 160.061 144.122C160.067 144.097 160.072 144.073 160.077 144.048C160.174 143.592 160.261 143.032 160.338 142.369C160.467 141.519 160.537 140.851 160.547 140.365L160.539 140.233C160.579 140.074 160.699 139.926 160.901 139.791ZM159.746 140.338C159.734 140.766 159.671 141.38 159.547 142.193L159.545 142.207L159.543 142.222C159.455 142.978 159.356 143.574 159.251 144.02C159.193 144.099 159.118 144.22 159.079 144.373C159.028 144.576 159.003 144.891 159.178 145.21C159.353 145.53 159.63 145.676 159.827 145.74C159.973 145.788 160.125 145.806 160.275 145.789C160.735 145.919 161.433 146.137 162.377 146.446C162.954 146.635 163.851 146.957 165.076 147.415C166.254 147.859 167.166 148.187 167.803 148.395C169.047 148.803 170.023 149.081 170.713 149.218C170.984 149.303 171.354 149.392 171.805 149.486C172.427 149.633 172.882 149.756 173.184 149.855C173.438 149.938 173.856 149.963 174.163 149.612L174.201 149.57L174.232 149.522C174.296 149.422 174.376 149.243 174.445 149.088C174.528 148.901 174.638 148.644 174.775 148.319C175.088 147.635 175.253 147.284 175.29 147.215L175.321 147.159L175.661 146.172L175.67 146.137C175.764 145.762 175.901 145.365 176.083 144.947L176.11 144.886L176.127 144.82C176.186 144.585 176.166 144.331 176.062 144.095C175.972 143.892 175.84 143.745 175.72 143.641C175.585 143.514 175.406 143.379 175.184 143.303L174.105 142.906L174.091 142.901C173.991 142.869 173.757 142.77 173.353 142.58L173.344 142.576L173.334 142.572C172.82 142.344 172.385 142.17 172.038 142.056L168.347 140.848C168.872 140.327 169.54 139.651 170.348 138.823C170.349 138.822 170.35 138.822 170.35 138.821L172.308 136.843C173.348 135.84 174.034 135.151 174.318 134.81C175.644 133.334 176.703 132.011 177.488 130.844C178.327 129.641 178.932 128.3 179.302 126.826C179.667 125.375 179.692 123.932 179.363 122.51L179.361 122.499L179.358 122.488C179.274 122.163 179.125 121.847 178.937 121.545L178.657 121.032L178.65 121.021C178.257 120.347 177.735 119.759 177.098 119.256C176.487 118.76 175.82 118.392 175.102 118.157C174.05 117.812 172.712 117.68 171.124 117.72C169.576 117.743 168.164 118.113 166.903 118.841C165.671 119.552 164.533 120.543 163.486 121.797L163.482 121.801C162.181 123.384 161.3 125.004 160.883 126.664C160.814 126.938 160.761 127.261 160.811 127.574C160.837 127.741 160.899 127.944 161.038 128.134C161.185 128.334 161.38 128.467 161.588 128.535C161.772 128.596 161.973 128.62 162.174 128.588C163.596 128.993 164.737 129.252 165.576 129.35L165.683 129.362L165.77 129.347C165.779 129.349 165.798 129.353 165.827 129.362C165.937 129.398 166.125 129.437 166.318 129.474C166.505 129.512 166.767 129.536 167.028 129.433C167.338 129.311 167.542 129.052 167.62 128.741C167.663 128.57 167.688 128.382 167.675 128.184C167.672 128.143 167.669 128.103 167.664 128.062L167.764 127.666C167.841 127.358 167.91 127.13 167.969 126.971C168.349 126.221 168.929 125.62 169.739 125.168C170.567 124.707 171.303 124.638 171.992 124.864C172.218 124.938 172.252 125.018 172.264 125.047C172.294 125.12 172.337 125.327 172.228 125.761C172.086 126.326 171.783 126.879 171.282 127.418L171.264 127.437L171.248 127.457C170.25 128.688 168.68 130.47 166.529 132.81C166.528 132.811 166.527 132.812 166.526 132.813L165.043 134.392L162.801 136.808C162.388 137.241 161.979 137.661 161.573 138.068L161.561 138.079L161.551 138.091C161.161 138.516 160.924 138.759 160.816 138.853C160.817 138.852 160.818 138.851 160.818 138.851C160.818 138.851 160.797 138.867 160.742 138.902C160.683 138.94 160.601 138.988 160.495 139.047L160.468 139.062L160.443 139.079C160.165 139.265 159.871 139.55 159.763 139.979L159.731 140.109L159.746 140.338ZM185.194 123.274L185.234 123.114C185.274 122.955 185.365 122.87 185.508 122.859C185.683 122.83 185.835 122.837 185.964 122.879C186.126 122.903 186.233 122.924 186.284 122.941C186.866 123.074 187.713 123.322 188.824 123.686C191.228 124.473 193.268 125.76 194.945 127.546C196.629 129.306 197.491 131.386 197.532 133.788C197.578 134.494 197.525 135.152 197.371 135.764C197.251 136.242 197.047 136.722 196.758 137.203C196.502 137.666 196.331 137.955 196.246 138.071C195.747 138.944 195.094 139.651 194.287 140.192C193.48 140.733 192.587 141.117 191.607 141.343C191.49 141.362 191.273 141.392 190.955 141.432C190.644 141.445 190.433 141.505 190.322 141.613C190.347 141.736 190.394 141.939 190.464 142.22C190.539 142.475 190.586 142.678 190.605 142.827C190.636 143.039 190.619 143.551 190.554 144.365C190.49 145.178 190.428 145.704 190.368 145.944C190.141 146.848 189.72 147.688 189.105 148.465C188.497 149.215 187.77 149.826 186.925 150.298C186.294 150.695 185.78 150.958 185.384 151.088C185.014 151.225 184.485 151.326 183.798 151.388C182.858 151.455 181.99 151.458 181.194 151.399C180.424 151.348 179.638 151.192 178.837 150.929C178.449 150.802 177.981 150.606 177.433 150.34C176.884 150.074 176.63 149.861 176.67 149.702L177.621 145.913C177.642 145.719 177.696 145.448 177.783 145.103L177.813 144.983L177.91 144.929C179.067 145.336 180.337 145.68 181.721 145.961C181.831 145.968 182.018 146.001 182.283 146.059C182.555 146.09 182.805 146.1 183.031 146.088C183.718 146.025 184.31 145.787 184.805 145.374C185.326 144.969 185.667 144.447 185.827 143.809C186.007 143.092 185.785 142.472 185.161 141.951C184.537 141.43 183.824 141.039 183.023 140.776L182.47 140.638L182.305 140.628C182.227 140.602 182.179 140.515 182.161 140.365C182.208 140.212 182.258 140.032 182.311 139.824C182.313 139.813 182.316 139.803 182.319 139.793C182.436 139.329 182.567 138.731 182.713 137.999L183.125 136.192L183.245 135.713C183.33 135.597 183.454 135.551 183.615 135.575C183.777 135.6 183.871 135.616 183.897 135.624L184.672 135.878C185.111 136.022 185.61 136.099 186.166 136.109C186.73 136.092 187.083 136.078 187.226 136.067C188.482 136.076 189.529 135.915 190.367 135.585C191.205 135.255 191.751 134.585 192.005 133.575C192.212 132.751 192.095 131.993 191.653 131.302C191.211 130.61 190.6 130.036 189.82 129.579C189.697 129.51 189.478 129.381 189.162 129.191C188.872 129.01 188.585 128.873 188.3 128.78C187.577 128.543 186.701 128.357 185.672 128.221C185.562 128.214 185.422 128.211 185.254 128.214C185.092 128.19 184.956 128.174 184.846 128.167C184.717 128.124 184.666 128.05 184.693 127.944C184.749 127.387 184.842 126.626 184.972 125.661C185.109 124.67 185.186 123.919 185.203 123.406L185.194 123.274ZM184.401 123.373L184.386 123.149L184.459 122.861C184.506 122.672 184.601 122.461 184.781 122.293C184.956 122.13 185.164 122.05 185.367 122.028C185.594 121.993 185.841 121.992 186.089 122.059C186.207 122.077 186.334 122.099 186.439 122.129C187.056 122.272 187.922 122.527 189.025 122.888C191.552 123.716 193.716 125.076 195.499 126.974C197.33 128.89 198.283 131.18 198.332 133.798C198.381 134.577 198.322 135.319 198.146 136.018C198.005 136.581 197.769 137.129 197.45 137.663C197.224 138.073 197.041 138.389 196.92 138.563C196.366 139.521 195.64 140.304 194.746 140.904C193.861 141.497 192.885 141.915 191.82 142.161L191.797 142.166L191.774 142.17C191.671 142.187 191.507 142.21 191.291 142.238C191.34 142.424 191.378 142.599 191.398 142.758C191.424 142.948 191.424 143.194 191.416 143.445C191.407 143.72 191.385 144.066 191.352 144.479C191.289 145.276 191.223 145.877 191.143 146.197C190.886 147.222 190.411 148.163 189.734 149.019L189.728 149.026C189.063 149.847 188.269 150.516 187.349 151.031C186.713 151.431 186.15 151.726 185.675 151.883C185.216 152.052 184.616 152.158 183.911 152.222L183.904 152.223L183.896 152.224C182.927 152.292 182.023 152.296 181.185 152.234C180.345 152.178 179.495 152.008 178.637 151.727C178.202 151.584 177.697 151.371 177.129 151.096C176.837 150.954 176.561 150.798 176.351 150.623C176.248 150.536 176.115 150.408 176.015 150.233C175.905 150.043 175.816 149.761 175.894 149.448L176.833 145.712C176.863 145.47 176.925 145.178 177.007 144.849L177.12 144.399L177.798 144.021L178.128 144.137C179.232 144.526 180.451 144.858 181.787 145.13C181.945 145.146 182.145 145.184 182.365 145.231C182.58 145.254 182.768 145.26 182.932 145.253C183.473 145.201 183.916 145.016 184.285 144.708L184.295 144.7L184.305 144.692C184.697 144.388 184.937 144.013 185.052 143.556C185.107 143.335 185.09 143.181 185.048 143.061C185.003 142.937 184.904 142.778 184.683 142.594C184.154 142.152 183.545 141.814 182.849 141.583L182.394 141.469L182.2 141.456L182.104 141.425C181.507 141.23 181.391 140.626 181.367 140.425L181.344 140.241L181.397 140.069C181.537 139.615 181.714 138.861 181.929 137.785L181.931 137.774L182.347 135.947L182.508 135.306L182.6 135.181C182.874 134.807 183.288 134.687 183.685 134.747C183.769 134.759 183.84 134.771 183.896 134.78L183.9 134.781C183.935 134.787 184.022 134.802 184.097 134.827L184.872 135.081C185.217 135.194 185.63 135.261 186.118 135.271C186.677 135.255 187.004 135.241 187.124 135.232L187.155 135.23L187.187 135.23C188.381 135.238 189.326 135.084 190.05 134.8C190.633 134.57 191.03 134.117 191.23 133.321C191.383 132.711 191.294 132.208 190.995 131.739C190.639 131.183 190.138 130.703 189.464 130.308C189.329 130.232 189.103 130.098 188.793 129.911L188.786 129.908L188.78 129.904C188.54 129.754 188.314 129.647 188.1 129.577C187.444 129.362 186.627 129.186 185.642 129.055C185.562 129.051 185.452 129.049 185.309 129.051L185.247 129.052L185.184 129.042C185.034 129.02 184.921 129.007 184.84 129.002L184.741 128.996L184.646 128.964C184.499 128.916 184.251 128.806 184.07 128.543C183.887 128.278 183.863 127.993 183.9 127.773C183.958 127.205 184.051 126.446 184.179 125.5L184.179 125.497C184.311 124.542 184.383 123.84 184.401 123.373Z" fill="black"/>
<mask id="path-10-outside-1_153_263" maskUnits="userSpaceOnUse" x="79.5305" y="270.65" width="83.2865" height="46.8551" fill="black">
<rect fill="white" x="79.5305" y="270.65" width="83.2865" height="46.8551"/>
<path d="M81.6415 291.586C81.4089 291.51 81.2171 291.439 81.066 291.372C81.008 291.336 80.9715 291.281 80.9565 291.207C80.953 291.154 80.9495 291.101 80.946 291.048C80.9581 291 80.9681 290.96 80.9761 290.928C81.2105 289.728 81.4664 288.508 81.7438 287.269L82.6811 283.537C83.6184 279.804 84.3292 277.007 84.8133 275.145L85.0229 274.411C85.0269 274.395 85.0311 274.345 85.0357 274.26C85.0557 274.18 85.0967 274.151 85.1587 274.171L85.3913 274.247L85.8858 274.383L86.5836 274.612L87.1186 274.787L91.5365 276.441C91.7691 276.517 92.081 276.645 92.4722 276.825C92.8633 277.004 93.0624 277.147 93.0694 277.253L93.0333 277.397C93.0013 277.524 92.9477 277.671 92.8726 277.836C92.8016 277.986 92.7503 278.09 92.7187 278.148C92.6121 278.372 92.5248 278.62 92.4567 278.891L92.284 279.378C92.28 279.394 92.2384 279.493 92.1594 279.674C92.0998 279.845 92.004 279.926 91.8719 279.917L91.5463 279.81C91.0655 279.653 90.3485 279.401 89.3951 279.054C88.4417 278.707 87.7246 278.455 87.2439 278.298L87.1741 278.275L86.6041 280.445C86.3247 281.424 86.1229 282.16 85.9988 282.655C85.9948 282.671 86.1263 282.748 86.3934 282.888C86.676 283.032 86.8676 283.138 86.9681 283.205C87.7724 283.745 88.3656 284.457 88.7476 285.342C89.1296 286.226 89.2064 287.123 88.9781 288.033C88.7297 289.022 88.2243 289.832 87.4618 290.462C86.7032 291.077 85.7964 291.514 84.7413 291.773C83.7758 292.009 82.7425 291.947 81.6415 291.586ZM84.4666 288.757C84.8318 288.773 85.1645 288.718 85.4647 288.591C85.7688 288.449 85.961 288.219 86.0411 287.9C86.1332 287.533 86.0973 287.141 85.9333 286.725C85.7848 286.314 85.5403 286.018 85.1996 285.837L84.4666 288.757Z"/>
<path d="M98.8302 296.231C98.5821 296.15 98.4701 296.061 98.4941 295.965C98.5261 295.838 98.5659 295.713 98.6135 295.59C98.6805 295.457 98.7301 295.326 98.7621 295.199L101.317 285.625L101.642 284.333C101.838 283.551 102.152 282.368 102.583 280.783C102.615 280.724 102.648 280.657 102.684 280.583C102.735 280.513 102.801 280.483 102.883 280.492C102.902 280.482 103.005 280.507 103.191 280.568L104.99 280.923C105.16 280.979 105.286 281.012 105.368 281.021C105.414 281.037 105.463 281.113 105.512 281.25L103.967 287.503L103.883 287.838C103.727 288.46 103.601 288.928 103.505 289.242L102.093 294.865C102.069 294.961 101.999 295.24 101.883 295.702C101.771 296.149 101.638 296.546 101.483 296.892C101.456 296.935 101.403 296.978 101.325 297.022C100.933 296.911 100.342 296.726 99.5513 296.467L98.8302 296.231ZM91.4806 294.523C90.7827 294.295 90.4404 294.088 90.4534 293.902L90.6525 293.009L90.7314 292.595L91.6146 289.077L93.854 281.161C94.299 279.857 94.6477 278.702 94.9001 277.697L95.0051 277.68L95.3075 277.779C95.9743 277.997 96.8092 278.348 97.8121 278.832C97.8701 278.868 97.9026 278.939 97.9096 279.045L97.8735 279.189L97.8315 279.356C97.3689 280.931 97.0394 282.11 96.8432 282.891L96.8011 283.059C97.3353 283.337 97.793 283.72 98.1741 284.207C98.5707 284.7 98.9432 285.288 99.2917 285.972C99.5408 286.45 99.6707 287.002 99.6816 287.627C99.7079 288.257 99.649 288.86 99.5048 289.434C99.3005 290.247 99.033 290.945 98.7022 291.528C98.3244 292.163 97.7542 292.797 96.9916 293.428C96.2446 294.063 95.5439 294.481 94.8895 294.681C94.3677 294.821 93.8077 294.88 93.2094 294.856C92.6151 294.817 92.0388 294.706 91.4806 294.523ZM94.2442 291.337C94.3297 291.33 94.4233 291.292 94.5249 291.221C94.6264 291.151 94.6967 291.105 94.7358 291.083C95.1265 290.797 95.4753 290.411 95.782 289.924C96.1083 289.427 96.3316 288.939 96.4517 288.46C96.644 287.694 96.5208 287.015 96.0822 286.423L95.9382 286.194L95.915 286.187C95.7673 286.708 95.5147 287.48 95.1573 288.502C94.7288 289.674 94.4365 290.571 94.2802 291.193L94.2442 291.337Z"/>
<path d="M102.945 298.303C102.867 298.278 102.845 298.201 102.877 298.074C102.893 298.01 102.919 297.941 102.954 297.866C102.994 297.775 103.027 297.709 103.055 297.666L105.671 289.252C106.047 288.287 106.554 286.805 107.191 284.803C107.414 284.048 107.589 283.484 107.716 283.111L107.895 282.6C107.994 282.339 108.253 282.242 108.672 282.311C108.766 282.341 108.884 282.371 109.027 282.401C109.175 282.415 109.297 282.429 109.394 282.443C109.522 282.468 109.635 282.488 109.732 282.502C109.829 282.517 109.934 282.534 110.046 282.553L110.628 282.744C111.403 282.998 112.021 283.278 112.481 283.584C112.957 283.895 113.462 284.354 113.998 284.961C114.376 285.395 114.641 285.81 114.793 286.205C114.95 286.584 115.095 287.107 115.23 287.773C115.399 288.639 115.369 289.527 115.14 290.436C114.976 291.09 114.663 291.704 114.2 292.278C113.737 292.851 113.219 293.243 112.646 293.452C112.518 293.496 112.243 293.553 111.823 293.623L111.811 293.671C111.914 293.998 111.966 294.291 111.968 294.551C111.974 294.794 111.935 295.084 111.85 295.419C111.714 295.961 111.454 296.497 111.069 297.027C110.704 297.546 110.295 297.939 109.842 298.205C109.506 298.406 109.213 298.569 108.964 298.694C108.734 298.809 108.486 298.892 108.222 298.943C107.342 299.104 106.425 299.08 105.471 298.871C105.343 298.847 105.172 298.825 104.958 298.807C104.764 298.778 104.603 298.751 104.475 298.726L103.824 298.513C103.684 298.468 103.542 298.43 103.399 298.4C103.251 298.386 103.1 298.354 102.945 298.303ZM108.749 290.027C109.105 290.143 109.55 290.211 110.082 290.23C110.315 290.237 110.525 290.203 110.713 290.126C110.915 290.054 111.145 289.94 111.403 289.782C111.719 289.592 111.951 289.202 112.1 288.612C112.136 288.468 112.154 288.362 112.154 288.293C112.114 287.918 111.888 287.55 111.475 287.19C111.077 286.836 110.677 286.592 110.274 286.46L110.064 286.392C109.845 287.131 109.618 287.8 109.385 288.396L108.832 289.795L108.749 290.027ZM107.049 295.193C107.297 295.274 107.557 295.273 107.83 295.19C108.122 295.096 108.32 294.841 108.424 294.426C108.476 294.219 108.443 294.052 108.323 293.927C108.219 293.807 108.094 293.705 107.947 293.622C107.819 293.529 107.726 293.464 107.668 293.428C107.645 293.454 107.621 293.516 107.597 293.611C107.565 293.67 107.536 293.755 107.508 293.867C107.483 293.963 107.45 294.064 107.406 294.171L107.215 294.73C107.203 294.777 107.178 294.847 107.138 294.937C107.118 295.017 107.094 295.078 107.067 295.121L107.049 295.193Z"/>
<path d="M124.529 304.542C124.296 304.466 124.056 304.318 123.809 304.099C123.349 303.724 123.026 303.308 122.839 302.849C122.656 302.375 122.484 301.723 122.323 300.894C122.312 300.804 122.305 300.698 122.302 300.576C122.303 300.438 122.298 300.324 122.287 300.235L122.258 300.251C121.709 300.9 121.086 301.412 120.387 301.788C119.693 302.147 118.997 302.213 118.299 301.984C117.12 301.598 116.349 300.759 115.986 299.466C115.638 298.178 115.528 296.778 115.656 295.266C115.752 294.348 115.94 293.331 116.221 292.214C116.609 290.667 117.108 289.182 117.717 287.758C117.753 287.684 117.991 287.235 118.433 286.413C118.437 286.397 118.455 286.36 118.486 286.301C118.522 286.226 118.572 286.191 118.638 286.195L118.831 286.232C119.203 286.354 119.933 286.654 121.021 287.131L121.115 287.162C121.456 287.273 121.602 287.425 121.554 287.616C121.518 287.76 121.461 287.922 121.381 288.104C121.322 288.274 121.28 288.407 121.256 288.503C121.221 288.577 121.181 288.668 121.137 288.775C121.094 288.881 121.052 289.014 121.012 289.174L120.755 289.996C120.242 291.572 119.837 292.95 119.541 294.13C119.317 295.024 119.167 295.82 119.092 296.521C119.016 297.221 119.078 297.846 119.276 298.394C119.272 298.41 119.268 298.426 119.264 298.442C119.279 298.447 119.295 298.452 119.31 298.457C119.372 298.477 119.472 298.415 119.609 298.27C119.75 298.109 119.848 297.986 119.903 297.9C120.882 296.408 121.977 294.419 123.189 291.932C123.351 291.623 123.481 291.303 123.581 290.973C123.648 290.84 123.729 290.65 123.824 290.405C123.919 290.16 124.012 289.958 124.103 289.797C124.158 289.712 124.224 289.682 124.302 289.707L124.395 289.738C124.515 289.794 124.672 289.871 124.865 289.969C125.063 290.051 125.223 290.113 125.348 290.153C126.103 290.487 126.636 290.704 126.946 290.806L127.062 290.844C127.155 290.875 127.219 290.921 127.253 290.984L127.229 291.08L127.044 291.719C126.941 291.996 126.871 292.206 126.835 292.349L126.481 293.761L126.12 295.197C125.931 296.084 125.763 297.186 125.617 298.502C125.475 299.802 125.548 300.551 125.834 300.748C126.118 300.617 126.405 300.279 126.692 299.735C126.881 299.451 127.208 298.851 127.673 297.933C128.245 296.859 128.755 295.766 129.202 294.652C129.669 293.528 130.141 292.284 130.617 290.921C130.665 290.798 130.813 290.743 131.062 290.755C131.314 290.752 131.534 290.78 131.72 290.841C132.324 291.039 132.772 291.195 133.063 291.307C133.171 291.343 133.284 291.397 133.4 291.469C133.458 291.505 133.486 291.558 133.486 291.627C133.485 291.696 133.483 291.738 133.479 291.754C133.235 292.727 132.992 293.96 132.752 295.452L131.12 303.256C131.03 303.814 130.947 304.244 130.871 304.547C130.843 304.659 130.772 305.007 130.659 305.591C130.635 305.687 130.543 305.717 130.384 305.683C130.241 305.653 130.154 305.633 130.123 305.623C129.281 305.433 128.604 305.255 128.092 305.087C127.968 305.047 127.895 304.971 127.872 304.86C127.993 304.244 128.064 303.896 128.084 303.816C128.097 303.699 128.121 303.569 128.157 303.425C128.197 303.266 128.234 303.053 128.267 302.788C127.855 303.292 127.485 303.697 127.156 304.004C126.831 304.295 126.468 304.504 126.067 304.631C125.849 304.698 125.6 304.72 125.32 304.698C125.041 304.675 124.777 304.623 124.529 304.542Z"/>
<path d="M135.618 308.458C135.479 308.412 135.276 308.286 135.009 308.077C134.155 307.401 133.652 306.33 133.5 304.864C133.363 303.404 133.424 301.991 133.683 300.626L134.641 295.708L134.791 295.11C134.939 294.52 135.181 293.624 135.517 292.421C135.564 292.299 135.615 292.229 135.67 292.213C135.74 292.201 135.854 292.213 136.014 292.247C136.549 292.388 136.94 292.499 137.189 292.58C137.747 292.763 138.161 292.916 138.433 293.04C138.479 293.055 138.514 293.083 138.537 293.125C138.56 293.168 138.567 293.204 138.559 293.236C138.527 293.364 138.478 293.495 138.411 293.628C138.359 293.766 138.317 293.899 138.285 294.027C137.877 295.654 137.533 297.121 137.256 298.429C136.997 299.725 136.799 301.016 136.661 302.3C136.619 302.735 136.623 303.22 136.674 303.754C136.724 304.288 136.873 304.596 137.121 304.678C137.183 304.698 137.286 304.688 137.43 304.649C138.051 304.317 138.64 303.708 139.199 302.82C139.348 302.558 139.51 302.283 139.683 301.995C139.876 301.695 140.013 301.481 140.096 301.353L140.462 300.696C141.412 298.918 142.27 297.205 143.036 295.557L143.593 294.341C143.695 294.271 143.893 294.284 144.188 294.38C144.56 294.502 145.099 294.696 145.804 294.961C146.068 295.048 146.257 295.127 146.373 295.199C146.431 295.236 146.46 295.288 146.46 295.357C146.459 295.426 146.457 295.469 146.453 295.484C146.128 296.777 145.846 298.169 145.606 299.661L143.973 307.465C143.822 308.469 143.616 309.489 143.356 310.526C143.332 310.621 143.24 310.652 143.081 310.617C142.937 310.587 142.85 310.567 142.819 310.557C141.977 310.368 141.223 310.164 140.556 309.946C140.432 309.905 140.359 309.829 140.336 309.718L140.585 308.427C140.794 307.46 140.932 306.745 140.997 306.283L140.927 306.364C140.542 306.894 140.082 307.356 139.547 307.751C139.031 308.134 138.49 308.415 137.926 308.592C137.633 308.686 137.38 308.759 137.166 308.81C136.956 308.844 136.758 308.831 136.572 308.77L135.618 308.458Z"/>
<path d="M153.772 297.985C153.524 297.904 153.342 297.827 153.226 297.754C152.913 297.531 152.678 297.229 152.522 296.85C152.369 296.455 152.237 295.98 152.124 295.425C152.117 295.388 152.093 295.251 152.052 295.013C152.011 294.775 152.008 294.585 152.044 294.441C152.068 294.345 152.274 294.326 152.663 294.384C153.055 294.427 153.352 294.481 153.553 294.547C153.631 294.572 153.689 294.643 153.727 294.759C153.765 294.875 153.783 295.002 153.782 295.139C153.797 295.282 153.813 295.383 153.832 295.441C153.9 295.705 154.033 295.912 154.23 296.063L154.3 296.086C154.517 296.157 154.727 296.053 154.931 295.775C155.151 295.501 155.332 295.215 155.474 294.917C155.521 294.863 155.576 294.846 155.638 294.867L155.702 294.913L156.669 295.774C156.758 295.82 156.79 295.891 156.766 295.987C156.734 296.115 156.569 296.371 156.271 296.757C155.494 297.711 154.747 298.148 154.028 298.069L153.772 297.985ZM148.498 312.675C148.358 312.63 148.155 312.503 147.888 312.295C147.035 311.618 146.532 310.547 146.379 309.082C146.243 307.621 146.304 306.208 146.563 304.843L147.521 299.926L147.671 299.327C147.819 298.737 148.061 297.841 148.396 296.639C148.444 296.516 148.495 296.447 148.549 296.43C148.619 296.418 148.734 296.43 148.893 296.465C149.428 296.605 149.82 296.716 150.068 296.798C150.626 296.981 151.041 297.134 151.312 297.257C151.359 297.272 151.393 297.301 151.416 297.343C151.439 297.385 151.447 297.422 151.439 297.454C151.407 297.581 151.357 297.712 151.29 297.845C151.239 297.984 151.197 298.117 151.165 298.244C150.756 299.872 150.413 301.339 150.135 302.646C149.877 303.943 149.678 305.233 149.541 306.517C149.498 306.952 149.503 307.437 149.553 307.971C149.603 308.506 149.753 308.814 150.001 308.895C150.063 308.915 150.166 308.906 150.31 308.867C150.93 308.535 151.52 307.925 152.078 307.037C152.228 306.776 152.389 306.5 152.562 306.212C152.755 305.912 152.893 305.699 152.975 305.57L153.342 304.913C154.292 303.135 155.15 301.422 155.916 299.774L156.473 298.558C156.574 298.488 156.773 298.501 157.067 298.598C157.439 298.719 157.978 298.913 158.683 299.179C158.947 299.265 159.137 299.344 159.253 299.417C159.311 299.453 159.34 299.506 159.339 299.575C159.339 299.643 159.336 299.686 159.332 299.702C159.008 300.994 158.725 302.386 158.485 303.878L156.853 311.682C156.701 312.686 156.496 313.706 156.235 314.743C156.211 314.839 156.12 314.869 155.961 314.834C155.817 314.805 155.73 314.785 155.699 314.774C154.857 314.585 154.102 314.381 153.436 314.163C153.312 314.122 153.238 314.047 153.216 313.936L153.464 312.645C153.674 311.677 153.811 310.963 153.877 310.501L153.806 310.581C153.422 311.111 152.961 311.573 152.426 311.968C151.91 312.351 151.37 312.632 150.805 312.81C150.513 312.904 150.26 312.976 150.046 313.027C149.836 313.062 149.637 313.049 149.451 312.988L148.498 312.675Z"/>
</mask>
<path d="M81.6415 291.586C81.4089 291.51 81.2171 291.439 81.066 291.372C81.008 291.336 80.9715 291.281 80.9565 291.207C80.953 291.154 80.9495 291.101 80.946 291.048C80.9581 291 80.9681 290.96 80.9761 290.928C81.2105 289.728 81.4664 288.508 81.7438 287.269L82.6811 283.537C83.6184 279.804 84.3292 277.007 84.8133 275.145L85.0229 274.411C85.0269 274.395 85.0311 274.345 85.0357 274.26C85.0557 274.18 85.0967 274.151 85.1587 274.171L85.3913 274.247L85.8858 274.383L86.5836 274.612L87.1186 274.787L91.5365 276.441C91.7691 276.517 92.081 276.645 92.4722 276.825C92.8633 277.004 93.0624 277.147 93.0694 277.253L93.0333 277.397C93.0013 277.524 92.9477 277.671 92.8726 277.836C92.8016 277.986 92.7503 278.09 92.7187 278.148C92.6121 278.372 92.5248 278.62 92.4567 278.891L92.284 279.378C92.28 279.394 92.2384 279.493 92.1594 279.674C92.0998 279.845 92.004 279.926 91.8719 279.917L91.5463 279.81C91.0655 279.653 90.3485 279.401 89.3951 279.054C88.4417 278.707 87.7246 278.455 87.2439 278.298L87.1741 278.275L86.6041 280.445C86.3247 281.424 86.1229 282.16 85.9988 282.655C85.9948 282.671 86.1263 282.748 86.3934 282.888C86.676 283.032 86.8676 283.138 86.9681 283.205C87.7724 283.745 88.3656 284.457 88.7476 285.342C89.1296 286.226 89.2064 287.123 88.9781 288.033C88.7297 289.022 88.2243 289.832 87.4618 290.462C86.7032 291.077 85.7964 291.514 84.7413 291.773C83.7758 292.009 82.7425 291.947 81.6415 291.586ZM84.4666 288.757C84.8318 288.773 85.1645 288.718 85.4647 288.591C85.7688 288.449 85.961 288.219 86.0411 287.9C86.1332 287.533 86.0973 287.141 85.9333 286.725C85.7848 286.314 85.5403 286.018 85.1996 285.837L84.4666 288.757Z" fill="#FFE640"/>
<path d="M98.8302 296.231C98.5821 296.15 98.4701 296.061 98.4941 295.965C98.5261 295.838 98.5659 295.713 98.6135 295.59C98.6805 295.457 98.7301 295.326 98.7621 295.199L101.317 285.625L101.642 284.333C101.838 283.551 102.152 282.368 102.583 280.783C102.615 280.724 102.648 280.657 102.684 280.583C102.735 280.513 102.801 280.483 102.883 280.492C102.902 280.482 103.005 280.507 103.191 280.568L104.99 280.923C105.16 280.979 105.286 281.012 105.368 281.021C105.414 281.037 105.463 281.113 105.512 281.25L103.967 287.503L103.883 287.838C103.727 288.46 103.601 288.928 103.505 289.242L102.093 294.865C102.069 294.961 101.999 295.24 101.883 295.702C101.771 296.149 101.638 296.546 101.483 296.892C101.456 296.935 101.403 296.978 101.325 297.022C100.933 296.911 100.342 296.726 99.5513 296.467L98.8302 296.231ZM91.4806 294.523C90.7827 294.295 90.4404 294.088 90.4534 293.902L90.6525 293.009L90.7314 292.595L91.6146 289.077L93.854 281.161C94.299 279.857 94.6477 278.702 94.9001 277.697L95.0051 277.68L95.3075 277.779C95.9743 277.997 96.8092 278.348 97.8121 278.832C97.8701 278.868 97.9026 278.939 97.9096 279.045L97.8735 279.189L97.8315 279.356C97.3689 280.931 97.0394 282.11 96.8432 282.891L96.8011 283.059C97.3353 283.337 97.793 283.72 98.1741 284.207C98.5707 284.7 98.9432 285.288 99.2917 285.972C99.5408 286.45 99.6707 287.002 99.6816 287.627C99.7079 288.257 99.649 288.86 99.5048 289.434C99.3005 290.247 99.033 290.945 98.7022 291.528C98.3244 292.163 97.7542 292.797 96.9916 293.428C96.2446 294.063 95.5439 294.481 94.8895 294.681C94.3677 294.821 93.8077 294.88 93.2094 294.856C92.6151 294.817 92.0388 294.706 91.4806 294.523ZM94.2442 291.337C94.3297 291.33 94.4233 291.292 94.5249 291.221C94.6264 291.151 94.6967 291.105 94.7358 291.083C95.1265 290.797 95.4753 290.411 95.782 289.924C96.1083 289.427 96.3316 288.939 96.4517 288.46C96.644 287.694 96.5208 287.015 96.0822 286.423L95.9382 286.194L95.915 286.187C95.7673 286.708 95.5147 287.48 95.1573 288.502C94.7288 289.674 94.4365 290.571 94.2802 291.193L94.2442 291.337Z" fill="#FFE640"/>
<path d="M102.945 298.303C102.867 298.278 102.845 298.201 102.877 298.074C102.893 298.01 102.919 297.941 102.954 297.866C102.994 297.775 103.027 297.709 103.055 297.666L105.671 289.252C106.047 288.287 106.554 286.805 107.191 284.803C107.414 284.048 107.589 283.484 107.716 283.111L107.895 282.6C107.994 282.339 108.253 282.242 108.672 282.311C108.766 282.341 108.884 282.371 109.027 282.401C109.175 282.415 109.297 282.429 109.394 282.443C109.522 282.468 109.635 282.488 109.732 282.502C109.829 282.517 109.934 282.534 110.046 282.553L110.628 282.744C111.403 282.998 112.021 283.278 112.481 283.584C112.957 283.895 113.462 284.354 113.998 284.961C114.376 285.395 114.641 285.81 114.793 286.205C114.95 286.584 115.095 287.107 115.23 287.773C115.399 288.639 115.369 289.527 115.14 290.436C114.976 291.09 114.663 291.704 114.2 292.278C113.737 292.851 113.219 293.243 112.646 293.452C112.518 293.496 112.243 293.553 111.823 293.623L111.811 293.671C111.914 293.998 111.966 294.291 111.968 294.551C111.974 294.794 111.935 295.084 111.85 295.419C111.714 295.961 111.454 296.497 111.069 297.027C110.704 297.546 110.295 297.939 109.842 298.205C109.506 298.406 109.213 298.569 108.964 298.694C108.734 298.809 108.486 298.892 108.222 298.943C107.342 299.104 106.425 299.08 105.471 298.871C105.343 298.847 105.172 298.825 104.958 298.807C104.764 298.778 104.603 298.751 104.475 298.726L103.824 298.513C103.684 298.468 103.542 298.43 103.399 298.4C103.251 298.386 103.1 298.354 102.945 298.303ZM108.749 290.027C109.105 290.143 109.55 290.211 110.082 290.23C110.315 290.237 110.525 290.203 110.713 290.126C110.915 290.054 111.145 289.94 111.403 289.782C111.719 289.592 111.951 289.202 112.1 288.612C112.136 288.468 112.154 288.362 112.154 288.293C112.114 287.918 111.888 287.55 111.475 287.19C111.077 286.836 110.677 286.592 110.274 286.46L110.064 286.392C109.845 287.131 109.618 287.8 109.385 288.396L108.832 289.795L108.749 290.027ZM107.049 295.193C107.297 295.274 107.557 295.273 107.83 295.19C108.122 295.096 108.32 294.841 108.424 294.426C108.476 294.219 108.443 294.052 108.323 293.927C108.219 293.807 108.094 293.705 107.947 293.622C107.819 293.529 107.726 293.464 107.668 293.428C107.645 293.454 107.621 293.516 107.597 293.611C107.565 293.67 107.536 293.755 107.508 293.867C107.483 293.963 107.45 294.064 107.406 294.171L107.215 294.73C107.203 294.777 107.178 294.847 107.138 294.937C107.118 295.017 107.094 295.078 107.067 295.121L107.049 295.193Z" fill="#FFE640"/>
<path d="M124.529 304.542C124.296 304.466 124.056 304.318 123.809 304.099C123.349 303.724 123.026 303.308 122.839 302.849C122.656 302.375 122.484 301.723 122.323 300.894C122.312 300.804 122.305 300.698 122.302 300.576C122.303 300.438 122.298 300.324 122.287 300.235L122.258 300.251C121.709 300.9 121.086 301.412 120.387 301.788C119.693 302.147 118.997 302.213 118.299 301.984C117.12 301.598 116.349 300.759 115.986 299.466C115.638 298.178 115.528 296.778 115.656 295.266C115.752 294.348 115.94 293.331 116.221 292.214C116.609 290.667 117.108 289.182 117.717 287.758C117.753 287.684 117.991 287.235 118.433 286.413C118.437 286.397 118.455 286.36 118.486 286.301C118.522 286.226 118.572 286.191 118.638 286.195L118.831 286.232C119.203 286.354 119.933 286.654 121.021 287.131L121.115 287.162C121.456 287.273 121.602 287.425 121.554 287.616C121.518 287.76 121.461 287.922 121.381 288.104C121.322 288.274 121.28 288.407 121.256 288.503C121.221 288.577 121.181 288.668 121.137 288.775C121.094 288.881 121.052 289.014 121.012 289.174L120.755 289.996C120.242 291.572 119.837 292.95 119.541 294.13C119.317 295.024 119.167 295.82 119.092 296.521C119.016 297.221 119.078 297.846 119.276 298.394C119.272 298.41 119.268 298.426 119.264 298.442C119.279 298.447 119.295 298.452 119.31 298.457C119.372 298.477 119.472 298.415 119.609 298.27C119.75 298.109 119.848 297.986 119.903 297.9C120.882 296.408 121.977 294.419 123.189 291.932C123.351 291.623 123.481 291.303 123.581 290.973C123.648 290.84 123.729 290.65 123.824 290.405C123.919 290.16 124.012 289.958 124.103 289.797C124.158 289.712 124.224 289.682 124.302 289.707L124.395 289.738C124.515 289.794 124.672 289.871 124.865 289.969C125.063 290.051 125.223 290.113 125.348 290.153C126.103 290.487 126.636 290.704 126.946 290.806L127.062 290.844C127.155 290.875 127.219 290.921 127.253 290.984L127.229 291.08L127.044 291.719C126.941 291.996 126.871 292.206 126.835 292.349L126.481 293.761L126.12 295.197C125.931 296.084 125.763 297.186 125.617 298.502C125.475 299.802 125.548 300.551 125.834 300.748C126.118 300.617 126.405 300.279 126.692 299.735C126.881 299.451 127.208 298.851 127.673 297.933C128.245 296.859 128.755 295.766 129.202 294.652C129.669 293.528 130.141 292.284 130.617 290.921C130.665 290.798 130.813 290.743 131.062 290.755C131.314 290.752 131.534 290.78 131.72 290.841C132.324 291.039 132.772 291.195 133.063 291.307C133.171 291.343 133.284 291.397 133.4 291.469C133.458 291.505 133.486 291.558 133.486 291.627C133.485 291.696 133.483 291.738 133.479 291.754C133.235 292.727 132.992 293.96 132.752 295.452L131.12 303.256C131.03 303.814 130.947 304.244 130.871 304.547C130.843 304.659 130.772 305.007 130.659 305.591C130.635 305.687 130.543 305.717 130.384 305.683C130.241 305.653 130.154 305.633 130.123 305.623C129.281 305.433 128.604 305.255 128.092 305.087C127.968 305.047 127.895 304.971 127.872 304.86C127.993 304.244 128.064 303.896 128.084 303.816C128.097 303.699 128.121 303.569 128.157 303.425C128.197 303.266 128.234 303.053 128.267 302.788C127.855 303.292 127.485 303.697 127.156 304.004C126.831 304.295 126.468 304.504 126.067 304.631C125.849 304.698 125.6 304.72 125.32 304.698C125.041 304.675 124.777 304.623 124.529 304.542Z" fill="#FFE640"/>
<path d="M135.618 308.458C135.479 308.412 135.276 308.286 135.009 308.077C134.155 307.401 133.652 306.33 133.5 304.864C133.363 303.404 133.424 301.991 133.683 300.626L134.641 295.708L134.791 295.11C134.939 294.52 135.181 293.624 135.517 292.421C135.564 292.299 135.615 292.229 135.67 292.213C135.74 292.201 135.854 292.213 136.014 292.247C136.549 292.388 136.94 292.499 137.189 292.58C137.747 292.763 138.161 292.916 138.433 293.04C138.479 293.055 138.514 293.083 138.537 293.125C138.56 293.168 138.567 293.204 138.559 293.236C138.527 293.364 138.478 293.495 138.411 293.628C138.359 293.766 138.317 293.899 138.285 294.027C137.877 295.654 137.533 297.121 137.256 298.429C136.997 299.725 136.799 301.016 136.661 302.3C136.619 302.735 136.623 303.22 136.674 303.754C136.724 304.288 136.873 304.596 137.121 304.678C137.183 304.698 137.286 304.688 137.43 304.649C138.051 304.317 138.64 303.708 139.199 302.82C139.348 302.558 139.51 302.283 139.683 301.995C139.876 301.695 140.013 301.481 140.096 301.353L140.462 300.696C141.412 298.918 142.27 297.205 143.036 295.557L143.593 294.341C143.695 294.271 143.893 294.284 144.188 294.38C144.56 294.502 145.099 294.696 145.804 294.961C146.068 295.048 146.257 295.127 146.373 295.199C146.431 295.236 146.46 295.288 146.46 295.357C146.459 295.426 146.457 295.469 146.453 295.484C146.128 296.777 145.846 298.169 145.606 299.661L143.973 307.465C143.822 308.469 143.616 309.489 143.356 310.526C143.332 310.621 143.24 310.652 143.081 310.617C142.937 310.587 142.85 310.567 142.819 310.557C141.977 310.368 141.223 310.164 140.556 309.946C140.432 309.905 140.359 309.829 140.336 309.718L140.585 308.427C140.794 307.46 140.932 306.745 140.997 306.283L140.927 306.364C140.542 306.894 140.082 307.356 139.547 307.751C139.031 308.134 138.49 308.415 137.926 308.592C137.633 308.686 137.38 308.759 137.166 308.81C136.956 308.844 136.758 308.831 136.572 308.77L135.618 308.458Z" fill="#FFE640"/>
<path d="M153.772 297.985C153.524 297.904 153.342 297.827 153.226 297.754C152.913 297.531 152.678 297.229 152.522 296.85C152.369 296.455 152.237 295.98 152.124 295.425C152.117 295.388 152.093 295.251 152.052 295.013C152.011 294.775 152.008 294.585 152.044 294.441C152.068 294.345 152.274 294.326 152.663 294.384C153.055 294.427 153.352 294.481 153.553 294.547C153.631 294.572 153.689 294.643 153.727 294.759C153.765 294.875 153.783 295.002 153.782 295.139C153.797 295.282 153.813 295.383 153.832 295.441C153.9 295.705 154.033 295.912 154.23 296.063L154.3 296.086C154.517 296.157 154.727 296.053 154.931 295.775C155.151 295.501 155.332 295.215 155.474 294.917C155.521 294.863 155.576 294.846 155.638 294.867L155.702 294.913L156.669 295.774C156.758 295.82 156.79 295.891 156.766 295.987C156.734 296.115 156.569 296.371 156.271 296.757C155.494 297.711 154.747 298.148 154.028 298.069L153.772 297.985ZM148.498 312.675C148.358 312.63 148.155 312.503 147.888 312.295C147.035 311.618 146.532 310.547 146.379 309.082C146.243 307.621 146.304 306.208 146.563 304.843L147.521 299.926L147.671 299.327C147.819 298.737 148.061 297.841 148.396 296.639C148.444 296.516 148.495 296.447 148.549 296.43C148.619 296.418 148.734 296.43 148.893 296.465C149.428 296.605 149.82 296.716 150.068 296.798C150.626 296.981 151.041 297.134 151.312 297.257C151.359 297.272 151.393 297.301 151.416 297.343C151.439 297.385 151.447 297.422 151.439 297.454C151.407 297.581 151.357 297.712 151.29 297.845C151.239 297.984 151.197 298.117 151.165 298.244C150.756 299.872 150.413 301.339 150.135 302.646C149.877 303.943 149.678 305.233 149.541 306.517C149.498 306.952 149.503 307.437 149.553 307.971C149.603 308.506 149.753 308.814 150.001 308.895C150.063 308.915 150.166 308.906 150.31 308.867C150.93 308.535 151.52 307.925 152.078 307.037C152.228 306.776 152.389 306.5 152.562 306.212C152.755 305.912 152.893 305.699 152.975 305.57L153.342 304.913C154.292 303.135 155.15 301.422 155.916 299.774L156.473 298.558C156.574 298.488 156.773 298.501 157.067 298.598C157.439 298.719 157.978 298.913 158.683 299.179C158.947 299.265 159.137 299.344 159.253 299.417C159.311 299.453 159.34 299.506 159.339 299.575C159.339 299.643 159.336 299.686 159.332 299.702C159.008 300.994 158.725 302.386 158.485 303.878L156.853 311.682C156.701 312.686 156.496 313.706 156.235 314.743C156.211 314.839 156.12 314.869 155.961 314.834C155.817 314.805 155.73 314.785 155.699 314.774C154.857 314.585 154.102 314.381 153.436 314.163C153.312 314.122 153.238 314.047 153.216 313.936L153.464 312.645C153.674 311.677 153.811 310.963 153.877 310.501L153.806 310.581C153.422 311.111 152.961 311.573 152.426 311.968C151.91 312.351 151.37 312.632 150.805 312.81C150.513 312.904 150.26 312.976 150.046 313.027C149.836 313.062 149.637 313.049 149.451 312.988L148.498 312.675Z" fill="#FFE640"/>
<path d="M81.6415 291.586C81.4089 291.51 81.2171 291.439 81.066 291.372C81.008 291.336 80.9715 291.281 80.9565 291.207C80.953 291.154 80.9495 291.101 80.946 291.048C80.9581 291 80.9681 290.96 80.9761 290.928C81.2105 289.728 81.4664 288.508 81.7438 287.269L82.6811 283.537C83.6184 279.804 84.3292 277.007 84.8133 275.145L85.0229 274.411C85.0269 274.395 85.0311 274.345 85.0357 274.26C85.0557 274.18 85.0967 274.151 85.1587 274.171L85.3913 274.247L85.8858 274.383L86.5836 274.612L87.1186 274.787L91.5365 276.441C91.7691 276.517 92.081 276.645 92.4722 276.825C92.8633 277.004 93.0624 277.147 93.0694 277.253L93.0333 277.397C93.0013 277.524 92.9477 277.671 92.8726 277.836C92.8016 277.986 92.7503 278.09 92.7187 278.148C92.6121 278.372 92.5248 278.62 92.4567 278.891L92.284 279.378C92.28 279.394 92.2384 279.493 92.1594 279.674C92.0998 279.845 92.004 279.926 91.8719 279.917L91.5463 279.81C91.0655 279.653 90.3485 279.401 89.3951 279.054C88.4417 278.707 87.7246 278.455 87.2439 278.298L87.1741 278.275L86.6041 280.445C86.3247 281.424 86.1229 282.16 85.9988 282.655C85.9948 282.671 86.1263 282.748 86.3934 282.888C86.676 283.032 86.8676 283.138 86.9681 283.205C87.7724 283.745 88.3656 284.457 88.7476 285.342C89.1296 286.226 89.2064 287.123 88.9781 288.033C88.7297 289.022 88.2243 289.832 87.4618 290.462C86.7032 291.077 85.7964 291.514 84.7413 291.773C83.7758 292.009 82.7425 291.947 81.6415 291.586ZM84.4666 288.757C84.8318 288.773 85.1645 288.718 85.4647 288.591C85.7688 288.449 85.961 288.219 86.0411 287.9C86.1332 287.533 86.0973 287.141 85.9333 286.725C85.7848 286.314 85.5403 286.018 85.1996 285.837L84.4666 288.757Z" stroke="black" stroke-width="2" mask="url(#path-10-outside-1_153_263)"/>
<path d="M98.8302 296.231C98.5821 296.15 98.4701 296.061 98.4941 295.965C98.5261 295.838 98.5659 295.713 98.6135 295.59C98.6805 295.457 98.7301 295.326 98.7621 295.199L101.317 285.625L101.642 284.333C101.838 283.551 102.152 282.368 102.583 280.783C102.615 280.724 102.648 280.657 102.684 280.583C102.735 280.513 102.801 280.483 102.883 280.492C102.902 280.482 103.005 280.507 103.191 280.568L104.99 280.923C105.16 280.979 105.286 281.012 105.368 281.021C105.414 281.037 105.463 281.113 105.512 281.25L103.967 287.503L103.883 287.838C103.727 288.46 103.601 288.928 103.505 289.242L102.093 294.865C102.069 294.961 101.999 295.24 101.883 295.702C101.771 296.149 101.638 296.546 101.483 296.892C101.456 296.935 101.403 296.978 101.325 297.022C100.933 296.911 100.342 296.726 99.5513 296.467L98.8302 296.231ZM91.4806 294.523C90.7827 294.295 90.4404 294.088 90.4534 293.902L90.6525 293.009L90.7314 292.595L91.6146 289.077L93.854 281.161C94.299 279.857 94.6477 278.702 94.9001 277.697L95.0051 277.68L95.3075 277.779C95.9743 277.997 96.8092 278.348 97.8121 278.832C97.8701 278.868 97.9026 278.939 97.9096 279.045L97.8735 279.189L97.8315 279.356C97.3689 280.931 97.0394 282.11 96.8432 282.891L96.8011 283.059C97.3353 283.337 97.793 283.72 98.1741 284.207C98.5707 284.7 98.9432 285.288 99.2917 285.972C99.5408 286.45 99.6707 287.002 99.6816 287.627C99.7079 288.257 99.649 288.86 99.5048 289.434C99.3005 290.247 99.033 290.945 98.7022 291.528C98.3244 292.163 97.7542 292.797 96.9916 293.428C96.2446 294.063 95.5439 294.481 94.8895 294.681C94.3677 294.821 93.8077 294.88 93.2094 294.856C92.6151 294.817 92.0388 294.706 91.4806 294.523ZM94.2442 291.337C94.3297 291.33 94.4233 291.292 94.5249 291.221C94.6264 291.151 94.6967 291.105 94.7358 291.083C95.1265 290.797 95.4753 290.411 95.782 289.924C96.1083 289.427 96.3316 288.939 96.4517 288.46C96.644 287.694 96.5208 287.015 96.0822 286.423L95.9382 286.194L95.915 286.187C95.7673 286.708 95.5147 287.48 95.1573 288.502C94.7288 289.674 94.4365 290.571 94.2802 291.193L94.2442 291.337Z" stroke="black" stroke-width="2" mask="url(#path-10-outside-1_153_263)"/>
<path d="M102.945 298.303C102.867 298.278 102.845 298.201 102.877 298.074C102.893 298.01 102.919 297.941 102.954 297.866C102.994 297.775 103.027 297.709 103.055 297.666L105.671 289.252C106.047 288.287 106.554 286.805 107.191 284.803C107.414 284.048 107.589 283.484 107.716 283.111L107.895 282.6C107.994 282.339 108.253 282.242 108.672 282.311C108.766 282.341 108.884 282.371 109.027 282.401C109.175 282.415 109.297 282.429 109.394 282.443C109.522 282.468 109.635 282.488 109.732 282.502C109.829 282.517 109.934 282.534 110.046 282.553L110.628 282.744C111.403 282.998 112.021 283.278 112.481 283.584C112.957 283.895 113.462 284.354 113.998 284.961C114.376 285.395 114.641 285.81 114.793 286.205C114.95 286.584 115.095 287.107 115.23 287.773C115.399 288.639 115.369 289.527 115.14 290.436C114.976 291.09 114.663 291.704 114.2 292.278C113.737 292.851 113.219 293.243 112.646 293.452C112.518 293.496 112.243 293.553 111.823 293.623L111.811 293.671C111.914 293.998 111.966 294.291 111.968 294.551C111.974 294.794 111.935 295.084 111.85 295.419C111.714 295.961 111.454 296.497 111.069 297.027C110.704 297.546 110.295 297.939 109.842 298.205C109.506 298.406 109.213 298.569 108.964 298.694C108.734 298.809 108.486 298.892 108.222 298.943C107.342 299.104 106.425 299.08 105.471 298.871C105.343 298.847 105.172 298.825 104.958 298.807C104.764 298.778 104.603 298.751 104.475 298.726L103.824 298.513C103.684 298.468 103.542 298.43 103.399 298.4C103.251 298.386 103.1 298.354 102.945 298.303ZM108.749 290.027C109.105 290.143 109.55 290.211 110.082 290.23C110.315 290.237 110.525 290.203 110.713 290.126C110.915 290.054 111.145 289.94 111.403 289.782C111.719 289.592 111.951 289.202 112.1 288.612C112.136 288.468 112.154 288.362 112.154 288.293C112.114 287.918 111.888 287.55 111.475 287.19C111.077 286.836 110.677 286.592 110.274 286.46L110.064 286.392C109.845 287.131 109.618 287.8 109.385 288.396L108.832 289.795L108.749 290.027ZM107.049 295.193C107.297 295.274 107.557 295.273 107.83 295.19C108.122 295.096 108.32 294.841 108.424 294.426C108.476 294.219 108.443 294.052 108.323 293.927C108.219 293.807 108.094 293.705 107.947 293.622C107.819 293.529 107.726 293.464 107.668 293.428C107.645 293.454 107.621 293.516 107.597 293.611C107.565 293.67 107.536 293.755 107.508 293.867C107.483 293.963 107.45 294.064 107.406 294.171L107.215 294.73C107.203 294.777 107.178 294.847 107.138 294.937C107.118 295.017 107.094 295.078 107.067 295.121L107.049 295.193Z" stroke="black" stroke-width="2" mask="url(#path-10-outside-1_153_263)"/>
<path d="M124.529 304.542C124.296 304.466 124.056 304.318 123.809 304.099C123.349 303.724 123.026 303.308 122.839 302.849C122.656 302.375 122.484 301.723 122.323 300.894C122.312 300.804 122.305 300.698 122.302 300.576C122.303 300.438 122.298 300.324 122.287 300.235L122.258 300.251C121.709 300.9 121.086 301.412 120.387 301.788C119.693 302.147 118.997 302.213 118.299 301.984C117.12 301.598 116.349 300.759 115.986 299.466C115.638 298.178 115.528 296.778 115.656 295.266C115.752 294.348 115.94 293.331 116.221 292.214C116.609 290.667 117.108 289.182 117.717 287.758C117.753 287.684 117.991 287.235 118.433 286.413C118.437 286.397 118.455 286.36 118.486 286.301C118.522 286.226 118.572 286.191 118.638 286.195L118.831 286.232C119.203 286.354 119.933 286.654 121.021 287.131L121.115 287.162C121.456 287.273 121.602 287.425 121.554 287.616C121.518 287.76 121.461 287.922 121.381 288.104C121.322 288.274 121.28 288.407 121.256 288.503C121.221 288.577 121.181 288.668 121.137 288.775C121.094 288.881 121.052 289.014 121.012 289.174L120.755 289.996C120.242 291.572 119.837 292.95 119.541 294.13C119.317 295.024 119.167 295.82 119.092 296.521C119.016 297.221 119.078 297.846 119.276 298.394C119.272 298.41 119.268 298.426 119.264 298.442C119.279 298.447 119.295 298.452 119.31 298.457C119.372 298.477 119.472 298.415 119.609 298.27C119.75 298.109 119.848 297.986 119.903 297.9C120.882 296.408 121.977 294.419 123.189 291.932C123.351 291.623 123.481 291.303 123.581 290.973C123.648 290.84 123.729 290.65 123.824 290.405C123.919 290.16 124.012 289.958 124.103 289.797C124.158 289.712 124.224 289.682 124.302 289.707L124.395 289.738C124.515 289.794 124.672 289.871 124.865 289.969C125.063 290.051 125.223 290.113 125.348 290.153C126.103 290.487 126.636 290.704 126.946 290.806L127.062 290.844C127.155 290.875 127.219 290.921 127.253 290.984L127.229 291.08L127.044 291.719C126.941 291.996 126.871 292.206 126.835 292.349L126.481 293.761L126.12 295.197C125.931 296.084 125.763 297.186 125.617 298.502C125.475 299.802 125.548 300.551 125.834 300.748C126.118 300.617 126.405 300.279 126.692 299.735C126.881 299.451 127.208 298.851 127.673 297.933C128.245 296.859 128.755 295.766 129.202 294.652C129.669 293.528 130.141 292.284 130.617 290.921C130.665 290.798 130.813 290.743 131.062 290.755C131.314 290.752 131.534 290.78 131.72 290.841C132.324 291.039 132.772 291.195 133.063 291.307C133.171 291.343 133.284 291.397 133.4 291.469C133.458 291.505 133.486 291.558 133.486 291.627C133.485 291.696 133.483 291.738 133.479 291.754C133.235 292.727 132.992 293.96 132.752 295.452L131.12 303.256C131.03 303.814 130.947 304.244 130.871 304.547C130.843 304.659 130.772 305.007 130.659 305.591C130.635 305.687 130.543 305.717 130.384 305.683C130.241 305.653 130.154 305.633 130.123 305.623C129.281 305.433 128.604 305.255 128.092 305.087C127.968 305.047 127.895 304.971 127.872 304.86C127.993 304.244 128.064 303.896 128.084 303.816C128.097 303.699 128.121 303.569 128.157 303.425C128.197 303.266 128.234 303.053 128.267 302.788C127.855 303.292 127.485 303.697 127.156 304.004C126.831 304.295 126.468 304.504 126.067 304.631C125.849 304.698 125.6 304.72 125.32 304.698C125.041 304.675 124.777 304.623 124.529 304.542Z" stroke="black" stroke-width="2" mask="url(#path-10-outside-1_153_263)"/>
<path d="M135.618 308.458C135.479 308.412 135.276 308.286 135.009 308.077C134.155 307.401 133.652 306.33 133.5 304.864C133.363 303.404 133.424 301.991 133.683 300.626L134.641 295.708L134.791 295.11C134.939 294.52 135.181 293.624 135.517 292.421C135.564 292.299 135.615 292.229 135.67 292.213C135.74 292.201 135.854 292.213 136.014 292.247C136.549 292.388 136.94 292.499 137.189 292.58C137.747 292.763 138.161 292.916 138.433 293.04C138.479 293.055 138.514 293.083 138.537 293.125C138.56 293.168 138.567 293.204 138.559 293.236C138.527 293.364 138.478 293.495 138.411 293.628C138.359 293.766 138.317 293.899 138.285 294.027C137.877 295.654 137.533 297.121 137.256 298.429C136.997 299.725 136.799 301.016 136.661 302.3C136.619 302.735 136.623 303.22 136.674 303.754C136.724 304.288 136.873 304.596 137.121 304.678C137.183 304.698 137.286 304.688 137.43 304.649C138.051 304.317 138.64 303.708 139.199 302.82C139.348 302.558 139.51 302.283 139.683 301.995C139.876 301.695 140.013 301.481 140.096 301.353L140.462 300.696C141.412 298.918 142.27 297.205 143.036 295.557L143.593 294.341C143.695 294.271 143.893 294.284 144.188 294.38C144.56 294.502 145.099 294.696 145.804 294.961C146.068 295.048 146.257 295.127 146.373 295.199C146.431 295.236 146.46 295.288 146.46 295.357C146.459 295.426 146.457 295.469 146.453 295.484C146.128 296.777 145.846 298.169 145.606 299.661L143.973 307.465C143.822 308.469 143.616 309.489 143.356 310.526C143.332 310.621 143.24 310.652 143.081 310.617C142.937 310.587 142.85 310.567 142.819 310.557C141.977 310.368 141.223 310.164 140.556 309.946C140.432 309.905 140.359 309.829 140.336 309.718L140.585 308.427C140.794 307.46 140.932 306.745 140.997 306.283L140.927 306.364C140.542 306.894 140.082 307.356 139.547 307.751C139.031 308.134 138.49 308.415 137.926 308.592C137.633 308.686 137.38 308.759 137.166 308.81C136.956 308.844 136.758 308.831 136.572 308.77L135.618 308.458Z" stroke="black" stroke-width="2" mask="url(#path-10-outside-1_153_263)"/>
<path d="M153.772 297.985C153.524 297.904 153.342 297.827 153.226 297.754C152.913 297.531 152.678 297.229 152.522 296.85C152.369 296.455 152.237 295.98 152.124 295.425C152.117 295.388 152.093 295.251 152.052 295.013C152.011 294.775 152.008 294.585 152.044 294.441C152.068 294.345 152.274 294.326 152.663 294.384C153.055 294.427 153.352 294.481 153.553 294.547C153.631 294.572 153.689 294.643 153.727 294.759C153.765 294.875 153.783 295.002 153.782 295.139C153.797 295.282 153.813 295.383 153.832 295.441C153.9 295.705 154.033 295.912 154.23 296.063L154.3 296.086C154.517 296.157 154.727 296.053 154.931 295.775C155.151 295.501 155.332 295.215 155.474 294.917C155.521 294.863 155.576 294.846 155.638 294.867L155.702 294.913L156.669 295.774C156.758 295.82 156.79 295.891 156.766 295.987C156.734 296.115 156.569 296.371 156.271 296.757C155.494 297.711 154.747 298.148 154.028 298.069L153.772 297.985ZM148.498 312.675C148.358 312.63 148.155 312.503 147.888 312.295C147.035 311.618 146.532 310.547 146.379 309.082C146.243 307.621 146.304 306.208 146.563 304.843L147.521 299.926L147.671 299.327C147.819 298.737 148.061 297.841 148.396 296.639C148.444 296.516 148.495 296.447 148.549 296.43C148.619 296.418 148.734 296.43 148.893 296.465C149.428 296.605 149.82 296.716 150.068 296.798C150.626 296.981 151.041 297.134 151.312 297.257C151.359 297.272 151.393 297.301 151.416 297.343C151.439 297.385 151.447 297.422 151.439 297.454C151.407 297.581 151.357 297.712 151.29 297.845C151.239 297.984 151.197 298.117 151.165 298.244C150.756 299.872 150.413 301.339 150.135 302.646C149.877 303.943 149.678 305.233 149.541 306.517C149.498 306.952 149.503 307.437 149.553 307.971C149.603 308.506 149.753 308.814 150.001 308.895C150.063 308.915 150.166 308.906 150.31 308.867C150.93 308.535 151.52 307.925 152.078 307.037C152.228 306.776 152.389 306.5 152.562 306.212C152.755 305.912 152.893 305.699 152.975 305.57L153.342 304.913C154.292 303.135 155.15 301.422 155.916 299.774L156.473 298.558C156.574 298.488 156.773 298.501 157.067 298.598C157.439 298.719 157.978 298.913 158.683 299.179C158.947 299.265 159.137 299.344 159.253 299.417C159.311 299.453 159.34 299.506 159.339 299.575C159.339 299.643 159.336 299.686 159.332 299.702C159.008 300.994 158.725 302.386 158.485 303.878L156.853 311.682C156.701 312.686 156.496 313.706 156.235 314.743C156.211 314.839 156.12 314.869 155.961 314.834C155.817 314.805 155.73 314.785 155.699 314.774C154.857 314.585 154.102 314.381 153.436 314.163C153.312 314.122 153.238 314.047 153.216 313.936L153.464 312.645C153.674 311.677 153.811 310.963 153.877 310.501L153.806 310.581C153.422 311.111 152.961 311.573 152.426 311.968C151.91 312.351 151.37 312.632 150.805 312.81C150.513 312.904 150.26 312.976 150.046 313.027C149.836 313.062 149.637 313.049 149.451 312.988L148.498 312.675Z" stroke="black" stroke-width="2" mask="url(#path-10-outside-1_153_263)"/>
<path d="M138.83 204.226C138.83 205.668 129.945 204.226 125.502 209.935C121.059 218.348 130.712 247.406 135.319 248.496C141.67 249.998 150.735 246.027 154.881 246.027C159.028 246.027 163.249 258.246 163.709 261.016C164.094 263.33 164.005 269.129 158.97 270.631C153.935 272.134 136.868 270.631 127.983 261.016C113.105 244.916 109.212 204.226 115.135 190.404C121.059 176.582 134.387 181.69 137.053 183.192C139.719 184.695 138.83 202.423 138.83 204.226Z" fill="black"/>
<path fill-rule="evenodd" clip-rule="evenodd" d="M127.244 179.819C131.948 179.539 136.179 181.286 137.649 182.115C138.39 182.533 138.795 183.35 139.042 184.027C139.313 184.769 139.512 185.684 139.663 186.67C139.967 188.652 140.107 191.129 140.163 193.568C140.249 197.284 140.137 201.13 140.081 203.061C140.064 203.64 140.053 204.046 140.053 204.226C140.053 205.203 139.259 205.638 138.924 205.784C138.527 205.957 138.035 206.061 137.58 206.14C137.207 206.205 136.776 206.266 136.327 206.33C136.204 206.347 136.081 206.365 135.957 206.382C135.364 206.468 134.727 206.565 134.06 206.693C131.395 207.205 128.472 208.181 126.532 210.61C125.641 212.386 125.388 215.42 125.731 219.245C126.074 223.069 126.989 227.443 128.191 231.617C129.392 235.791 130.868 239.717 132.311 242.644C133.034 244.112 133.732 245.292 134.362 246.119C134.676 246.533 134.954 246.833 135.189 247.032C135.431 247.239 135.567 247.287 135.598 247.294C138.473 247.974 142.079 247.426 145.661 246.62C146.544 246.422 147.411 246.211 148.257 246.005L148.453 245.957C149.226 245.768 149.983 245.583 150.699 245.42C152.229 245.072 153.693 244.793 154.881 244.793C156.497 244.793 157.855 245.948 158.883 247.187C159.961 248.488 160.943 250.204 161.778 251.945C163.441 255.413 164.66 259.275 164.915 260.812C165.13 262.103 165.215 264.338 164.538 266.5C163.846 268.709 162.322 270.918 159.317 271.815C157.875 272.245 155.714 272.43 153.214 272.348C150.688 272.266 147.727 271.908 144.647 271.196C138.514 269.777 131.762 266.915 127.089 261.858C119.394 253.531 114.654 239.028 112.55 225.041C111.493 218.015 111.091 211.051 111.33 204.955C111.568 198.886 112.444 193.574 114.013 189.914C115.574 186.271 117.659 183.8 120.002 182.21C122.341 180.623 124.867 179.961 127.244 179.819ZM121.366 184.259C119.461 185.551 117.658 187.626 116.258 190.894C114.865 194.144 114.007 199.102 113.773 205.053C113.541 210.977 113.932 217.783 114.967 224.67C117.049 238.509 121.694 252.401 128.877 260.174C133.089 264.732 139.313 267.429 145.193 268.79C148.121 269.467 150.925 269.804 153.293 269.881C155.687 269.959 157.548 269.769 158.624 269.448C160.654 268.842 161.691 267.401 162.206 265.756C162.736 264.065 162.673 262.243 162.503 261.22C162.298 259.987 161.176 256.355 159.577 253.021C158.781 251.361 157.901 249.849 157.008 248.772C156.064 247.634 155.339 247.261 154.881 247.261C153.996 247.261 152.772 247.479 151.237 247.828C150.54 247.987 149.801 248.167 149.023 248.357L148.831 248.404C147.986 248.61 147.099 248.826 146.193 249.03C142.618 249.834 138.515 250.52 135.04 249.697C134.494 249.568 134.015 249.262 133.612 248.919C133.201 248.569 132.804 248.124 132.422 247.623C131.659 246.62 130.882 245.285 130.122 243.744C128.598 240.654 127.074 236.584 125.842 232.306C124.611 228.028 123.657 223.492 123.296 219.467C122.941 215.512 123.132 211.8 124.423 209.354L124.474 209.258L124.54 209.172C127.043 205.956 130.747 204.816 133.603 204.268C134.326 204.129 135.007 204.026 135.612 203.939C135.75 203.919 135.882 203.9 136.01 203.882C136.452 203.819 136.832 203.765 137.165 203.707C137.35 203.675 137.499 203.645 137.618 203.617C137.624 203.382 137.632 203.099 137.642 202.777C137.699 200.782 137.802 197.243 137.719 193.625C137.664 191.219 137.526 188.869 137.247 187.048C137.107 186.133 136.938 185.402 136.747 184.88C136.568 184.39 136.434 184.264 136.437 184.26C136.438 184.259 136.438 184.26 136.439 184.26C135.224 183.581 131.475 182.04 127.388 182.283C125.359 182.405 123.276 182.963 121.366 184.259ZM137.988 203.502C137.989 203.502 137.985 203.504 137.976 203.508C137.984 203.504 137.988 203.502 137.988 203.502Z" fill="black"/>
<path fill-rule="evenodd" clip-rule="evenodd" d="M166.299 196.15C166.739 196.667 166.681 197.446 166.169 197.891L151.688 210.461C151.176 210.906 150.404 210.847 149.964 210.33C149.524 209.813 149.582 209.034 150.094 208.59L164.575 196.019C165.086 195.574 165.858 195.633 166.299 196.15Z" fill="black"/>
<path fill-rule="evenodd" clip-rule="evenodd" d="M174.229 210.726C174.384 211.389 173.976 212.054 173.318 212.209L154.724 216.61C154.066 216.765 153.408 216.354 153.254 215.69C153.1 215.026 153.508 214.362 154.165 214.207L172.76 209.806C173.417 209.65 174.075 210.062 174.229 210.726Z" fill="black"/>
<path fill-rule="evenodd" clip-rule="evenodd" d="M174.692 226.706C174.548 227.372 173.897 227.794 173.237 227.648L154.577 223.539C153.918 223.394 153.499 222.736 153.643 222.07C153.787 221.405 154.439 220.982 155.098 221.128L173.758 225.237C174.418 225.382 174.836 226.04 174.692 226.706Z" fill="black"/>
</svg>
