<svg width="170" height="290" viewBox="0 0 170 290" fill="none" xmlns="http://www.w3.org/2000/svg">
<path fill-rule="evenodd" clip-rule="evenodd" d="M114.717 117.679C103.81 96.5584 90.9184 77.2693 83.0803 67.2883L71.833 77.1563C79.043 86.3373 91.4104 104.794 101.886 125.081C107.114 135.205 111.794 145.636 115.123 155.478C118.483 165.409 120.308 174.278 120.212 181.418C119.992 197.814 117.679 217.739 115.348 237.273C115.257 238.033 115.166 238.793 115.075 239.553C112.875 257.972 110.71 276.093 110.71 289.288H125.327C125.327 277.092 127.391 259.805 129.666 240.749C129.727 240.236 129.788 239.722 129.85 239.206C132.156 219.88 134.593 199.057 134.828 181.637C134.959 171.87 132.52 161.016 128.887 150.276C125.224 139.448 120.18 128.259 114.717 117.679Z" fill="black"/>
<path fill-rule="evenodd" clip-rule="evenodd" d="M111.349 119.942C100.652 99.0804 88.0124 80.0463 80.4035 70.2883L74.833 75.2104C82.1305 84.5684 94.5104 103.188 104.994 123.633C110.231 133.847 114.957 144.441 118.338 154.506C121.733 164.615 123.693 173.956 123.589 181.735C123.368 198.346 121.045 218.447 118.743 237.882C118.659 238.586 118.576 239.29 118.492 239.993C116.296 258.511 114.177 276.375 114.177 289.288H121.417C121.417 276.874 123.486 259.426 125.719 240.59C125.787 240.01 125.856 239.429 125.925 238.846C128.216 219.514 130.6 198.966 130.828 181.844C130.949 172.755 128.686 162.423 125.154 151.911C121.608 141.355 116.703 130.382 111.349 119.942Z" fill="#019C40"/>
<path fill-rule="evenodd" clip-rule="evenodd" d="M62.0424 52.1763C61.9307 51.3423 61.9158 50.6263 61.9183 50.1503C61.9208 49.6723 61.9442 49.2323 61.9549 49.0313L61.9567 48.9983C61.9606 48.9243 61.9632 48.8743 61.9647 48.8443C61.9622 47.9113 61.9226 46.9393 61.8716 45.7293L61.8682 45.6493C61.8191 44.4853 61.7601 43.0853 61.7601 41.6473C61.7601 40.1003 61.9218 38.6963 62.0183 37.8593C62.023 37.8183 62.0276 37.7793 62.0319 37.7423C62.0995 37.1523 62.1355 36.8053 62.1535 36.5693C62.1424 36.5193 62.1296 36.4623 62.1141 36.3933C62.1101 36.3753 62.1058 36.3563 62.1012 36.3363C62.0314 36.0273 61.8993 35.4423 61.7935 34.8123C61.7245 34.4013 61.6554 33.9103 61.6096 33.3573C61.6078 33.3533 61.6059 33.3483 61.6041 33.3443C61.5956 33.3233 61.5864 33.3013 61.5765 33.2773C61.4119 32.8753 61.0693 32.0403 60.789 31.1153C60.4774 30.0873 60.123 28.5863 60.123 26.7893C60.123 25.5363 60.1391 23.7113 60.3299 21.8023C60.501 20.0893 60.8681 17.6543 61.8651 15.2403C61.8745 15.2103 61.8854 15.1743 61.8976 15.1343C61.9019 15.1203 61.9068 15.1043 61.9123 15.0863C62.0075 14.7723 62.2707 13.9043 62.6751 12.9943C63.1026 12.0323 63.9746 10.3383 65.6547 8.81033C67.3443 7.27433 69.4883 6.23833 71.8781 5.93333C72.6422 5.26733 73.6036 4.50232 74.7071 3.80232C76.2196 2.84232 79.0959 1.28833 82.7746 1.28833C84.3961 1.28833 86.553 1.29633 88.8435 1.58533C89.3635 1.65133 89.7544 1.68533 90.1264 1.69733C90.2904 1.68233 90.5065 1.66534 90.7315 1.65334C91.0905 1.63334 91.8964 1.59833 92.8534 1.70633C93.3444 1.76233 94.1204 1.88133 95.0224 2.17833C95.8774 2.45933 97.3425 3.05934 98.7745 4.36234C99.4145 4.94534 99.8924 5.50533 100.21 5.90533C100.523 6.29833 100.773 6.65532 100.892 6.82632C100.902 6.84132 100.913 6.85632 100.923 6.87132C101.763 7.79232 102.947 9.12533 103.998 10.6293C104.113 10.7643 104.437 11.1443 104.727 11.5183C105.082 11.9783 105.654 12.7623 106.172 13.7903C106.701 14.8383 107.289 16.3653 107.44 18.2723C107.444 18.3203 107.454 18.4053 107.468 18.5253C107.546 19.1943 107.75 20.9263 107.678 23.0203C107.707 23.0693 107.737 23.1183 107.767 23.1683C108.031 23.6103 108.425 24.3103 108.772 25.1773C108.952 25.6253 109.154 26.2023 109.315 26.8843C109.475 27.5603 109.621 28.4453 109.621 29.4803C109.621 32.2323 108.694 34.4023 107.636 35.9793C107.942 38.2963 107.834 40.9283 106.873 43.7363C105.991 46.3113 104.644 48.2513 103.802 49.4003C103.716 49.5173 103.636 49.6253 103.562 49.7253H104.049C104.219 49.6213 104.409 49.5083 104.612 49.3933C104.996 49.1753 105.47 48.9273 106.017 48.6873C106.341 48.5463 106.729 48.3663 107.125 48.1603C107.404 48.0163 107.653 47.8773 107.865 47.7483C108.271 47.0243 108.644 46.5093 108.815 46.2733L108.833 46.2483C108.848 46.2283 108.863 46.2073 108.878 46.1873C108.911 46.1143 108.938 46.0513 108.975 45.9673C109.018 45.8713 109.072 45.7493 109.158 45.5563C109.369 45.0833 109.755 44.2223 110.333 43.2503C110.355 43.1973 110.377 43.1423 110.401 43.0853C110.467 42.9253 110.541 42.7573 110.623 42.5813C110.631 42.5623 110.639 42.5413 110.65 42.5153C110.724 42.3313 110.827 42.0683 110.963 41.7183C111.037 41.5283 111.119 41.3143 111.209 41.0843C111.428 40.5163 111.685 39.8523 111.938 39.2103C112.291 38.3113 112.698 37.2983 113.075 36.4333C113.258 36.0123 113.489 35.5003 113.741 35.0053C113.865 34.7613 114.051 34.4103 114.286 34.0253L114.289 34.0203C114.44 33.7733 114.975 32.8983 115.854 32.0083C116.298 31.5593 116.968 30.9613 117.88 30.4113C118.803 29.8533 120.123 29.2563 121.79 29.0353C122.021 29.0043 122.253 28.9823 122.485 28.9673C122.505 28.9493 122.526 28.9313 122.547 28.9123C123.846 27.7623 125.44 26.8033 127.345 26.2103C127.737 26.0883 128.082 26.0043 128.338 25.9473C128.602 25.8893 128.841 25.8453 129.037 25.8123C129.42 25.7483 129.775 25.7023 130.038 25.6713C130.25 25.6463 130.461 25.6233 130.642 25.6043C131.314 25.3523 131.911 25.1883 132.345 25.0833C132.537 25.0363 132.762 24.9853 133.015 24.9363C133.514 24.8113 133.972 24.7263 134.371 24.6653C135.716 24.4613 136.931 24.4633 137.772 24.4923C138.541 24.5193 139.292 24.5833 139.749 24.6223C139.791 24.6253 139.831 24.6293 139.868 24.6323C140.336 24.6713 140.473 24.6793 140.473 24.6793H140.472H141.348L141.349 25.9523C141.946 26.0053 142.575 26.0853 143.213 26.2043C147.913 27.0803 150.765 30.3823 151.98 31.9453C153.222 33.5433 154.238 35.3163 155.021 36.8153C157.025 37.1053 158.679 37.9493 159.905 38.8993C161.206 39.9083 162.025 41.0253 162.502 41.7873C163.662 43.6413 164.171 45.4363 164.375 46.1553L164.386 46.1923C164.448 46.4133 164.483 46.5383 164.506 46.6193C164.512 46.6413 164.517 46.6593 164.522 46.6753C165.411 48.6453 166.112 51.2833 166.193 53.7563C166.221 53.8893 166.258 54.0543 166.315 54.2963C166.35 54.4443 166.366 54.5113 166.407 54.6843C166.44 54.8233 166.478 54.9863 166.516 55.1553C166.805 56.4343 167.002 58.1753 166.623 60.1503C166.221 62.2473 165.29 63.9863 164.17 65.3283C163.164 66.5343 162.114 67.2853 161.595 67.6373C161.312 67.8303 161.059 67.9873 160.909 68.0793C160.742 68.1813 160.72 68.1953 160.704 68.2043C160.689 68.2133 160.68 68.2193 160.588 68.2753C160.069 68.5963 159.804 68.8403 159.036 69.5443C158.645 69.9023 158.124 70.3803 157.373 71.0493C156.022 72.2523 154.692 73.0413 153.884 73.5013C153.378 73.7893 153.111 73.9353 152.94 74.0293C152.749 74.1343 152.679 74.1723 152.529 74.2703C148.591 76.8313 144.431 77.9713 141.351 78.6973C140.153 78.9803 139.158 79.1963 138.289 79.3863C136.532 79.7693 135.286 80.0413 133.911 80.5163C131.774 81.2543 129.194 81.5863 128.398 81.6893C128.323 81.6983 128.264 81.7063 128.223 81.7123C128.209 81.7153 128.191 81.7193 128.167 81.7253C128.055 81.7523 127.994 81.7683 127.894 81.7943C127.807 81.8173 127.691 81.8483 127.487 81.9003C126.896 82.0513 125.699 82.3543 124.25 82.4653C124.203 82.4713 124.127 82.4793 124.013 82.4913C124.005 82.4923 123.996 82.4933 123.985 82.4943C123.74 82.5213 122.727 82.6343 121.538 82.5183C120.983 82.4633 119.935 82.3203 118.711 81.8453C118.604 81.9543 118.498 82.0643 118.391 82.1743C118.445 82.5933 118.478 82.9533 118.5 83.2253C118.516 83.4203 118.529 83.6083 118.539 83.7633C118.814 83.7983 119.073 83.8363 119.314 83.8733C120.675 84.0853 122.12 84.4133 123.016 84.6173C123.216 84.6623 123.388 84.7023 123.526 84.7323C124.162 84.8713 124.763 85.0273 125.208 85.1423C125.28 85.1613 125.347 85.1783 125.412 85.1953C125.798 85.2963 126.066 85.3663 126.337 85.4303C126.6 85.4933 126.756 85.5223 126.829 85.5353C127.158 85.5333 127.383 85.5233 127.691 85.5093C128.013 85.4953 128.425 85.4773 129.139 85.4603C130.226 85.4343 131.849 85.4263 133.609 85.7003C135.049 85.9243 136.318 86.2813 137.111 86.5073C137.272 86.5533 137.416 86.5953 137.545 86.6313C138.178 86.8133 138.45 86.8913 138.744 86.9543C138.946 86.9983 139.029 87.0123 139.182 87.0383C139.334 87.0643 139.554 87.1023 140.026 87.1913C140.715 87.3213 141.759 87.5383 142.937 87.9453C144.517 88.4903 145.816 89.0763 147.034 89.7133C147.138 89.7083 147.247 89.7023 147.357 89.6983C147.634 89.6863 147.979 89.6753 148.358 89.6753C148.386 89.6753 148.42 89.6753 148.46 89.6753C148.74 89.6743 149.296 89.6733 149.802 89.6973C150.462 89.7283 151.527 89.8143 152.76 90.1603C155.605 90.9583 157.462 92.5973 158.546 93.6933C158.569 93.7163 158.604 93.7503 158.651 93.7943C159.327 94.4353 162.349 97.2973 162.86 102.208C163.179 105.27 163.217 108.261 163.126 111.069C163.048 113.5 162.433 115.482 161.927 116.824C161.68 117.481 161.422 118.073 161.248 118.471C161.215 118.548 161.184 118.618 161.156 118.683C161.014 119.009 160.934 119.191 160.856 119.383C160.524 120.202 160.469 120.562 160.45 120.997C160.416 121.744 160.342 123.344 159.946 125.068C159.609 126.531 158.899 128.74 157.239 130.833C157.234 130.844 157.229 130.855 157.223 130.866L157.221 130.871C157.05 131.22 156.628 132.082 156.014 132.982C155.405 133.876 154.208 135.416 152.203 136.599C148.354 138.87 144.657 139.687 141.329 140.088C136.685 140.647 131.29 140.428 125.871 137.704C123.024 136.273 120.162 134.377 117.98 132.932C117.339 132.507 116.757 132.122 116.251 131.798C115.708 131.451 115.205 131.103 114.844 130.854L114.794 130.819C114.418 130.559 114.183 130.397 113.954 130.247C113.773 130.128 113.661 130.062 113.607 130.032C113.089 129.847 112.515 129.634 111.9 129.388C111.894 129.757 111.879 130.07 111.867 130.314C111.85 130.665 111.829 131.002 111.813 131.259L111.812 131.277C111.794 131.549 111.782 131.737 111.773 131.914C111.764 132.091 111.762 132.19 111.761 132.232C111.771 132.335 111.793 132.488 111.866 132.99L111.902 133.24C111.974 133.741 112.093 134.579 112.149 135.57C112.369 135.874 112.58 136.196 112.779 136.537C112.969 136.861 113.152 137.199 113.328 137.548C113.936 137.914 114.634 138.42 115.321 139.112C116.841 140.642 118.317 143.143 118.317 146.398C118.317 147.257 118.216 147.977 118.121 148.482C118.023 149.003 117.902 149.448 117.798 149.79C117.657 150.25 117.504 150.66 117.369 150.993C117.454 151.137 117.538 151.286 117.62 151.439C119.766 155.474 118.499 159.144 117.976 160.35C117.385 161.715 116.636 162.615 116.359 162.939C116.167 163.162 115.987 163.353 115.832 163.508C115.521 163.945 115.129 164.432 114.641 164.926C112.381 167.212 109.8 168.094 108.52 168.47C107.822 168.674 107.181 168.816 106.814 168.897C106.582 168.948 106.489 168.967 106.349 168.999C106.294 169.011 106.254 169.02 106.225 169.027L106.194 169.035C106.187 169.037 106.184 169.037 106.184 169.037C104.025 169.598 101.646 170.14 99.0255 170.395C99.0155 170.4 99.0055 170.404 98.9955 170.408C96.8505 171.338 94.6855 172.019 92.6065 172.513C92.3095 172.584 92.2554 172.6 92.1724 172.623C92.0824 172.649 91.9575 172.685 91.4425 172.814C90.9015 172.949 89.8064 173.212 88.4764 173.274C85.1537 173.43 82.5177 172.288 80.5267 171.053C79.5864 170.47 78.9625 170.189 78.0083 169.759C77.2309 169.408 76.2343 168.959 74.6688 168.167C70.4194 166.018 67.0799 163.047 64.4812 160.418C61.8112 157.717 61.34 154.426 61.2132 153.513C61.0176 152.105 61.0301 150.752 61.0721 149.756C61.1575 147.728 61.458 145.441 61.7026 143.647C61.7547 143.265 61.805 142.9 61.8531 142.552C61.8542 142.544 61.8552 142.535 61.8563 142.527C61.4471 141.808 61.0335 140.909 60.7419 139.849C60.2229 137.962 60.1083 135.528 61.0152 133.076C60.8225 131.675 60.707 130.31 60.6357 129.057C60.6083 129.157 60.5797 129.263 60.5496 129.374C60.5262 129.46 60.5016 129.552 60.4757 129.648C60.0185 131.351 59.1547 134.567 57.2132 137.577C57.2113 137.58 57.2094 137.584 57.2073 137.588L57.1925 137.615C57.17 137.657 57.1349 137.722 57.0963 137.793C57.0199 137.932 56.896 138.155 56.7402 138.412C56.4118 138.954 55.9223 139.68 55.2182 140.445C54.5066 141.219 53.7251 141.87 52.8979 142.418C52.5417 142.654 52.2806 142.845 51.8792 143.14C51.6257 143.326 51.3162 143.553 50.8915 143.858C50.0047 144.495 48.7101 145.394 47.1576 146.18C43.9396 147.807 40.3365 148.75 36.5394 148.75C34.4462 148.75 32.7551 148.231 31.7828 147.881C31.2766 147.699 30.8394 147.515 30.5576 147.395C30.3568 147.309 30.2605 147.266 30.1921 147.237C30.1238 147.207 30.0834 147.189 29.995 147.152C29.7729 147.06 29.6584 147.021 29.393 146.932C29.1812 146.861 28.8733 146.758 28.3378 146.569C27.3861 146.234 25.9322 145.686 24.3589 144.737C23.8606 144.437 23.2837 144.153 22.2029 143.658C21.6857 143.421 21.0892 143.186 20.2277 142.862C20.1189 142.821 20.0031 142.778 19.8815 142.732C19.2147 142.482 18.3719 142.166 17.5276 141.818C17.3647 141.764 17.0395 141.655 16.6925 141.522C16.3156 141.378 15.6053 141.092 14.8171 140.638C14.4093 140.404 13.8528 140.052 13.2538 139.558C12.671 139.077 11.8532 138.304 11.1108 137.177C10.5122 136.269 10.1127 135.43 9.85505 134.834C9.68935 134.451 9.53245 134.046 9.43885 133.801C6.92615 130.129 6.29845 126.2 6.05585 123.795C6.03975 123.776 6.02515 123.76 6.01215 123.745L6.00495 123.737C5.85035 123.562 5.32455 122.967 4.80315 122.194C4.55485 121.825 4.08925 121.1 3.68425 120.136C3.43175 119.535 2.35765 116.969 3.07755 113.692C3.72805 110.731 5.29735 108.61 6.57435 107.289C7.21825 106.11 7.86005 105.088 8.38245 104.295C9.02345 103.323 10.2759 101.646 12.4403 100.383C13.6302 99.6893 14.7965 99.2933 15.8311 99.0693C16.017 98.8973 16.2257 98.7113 16.4534 98.5213C17.5036 97.6443 19.2572 96.4093 21.7178 95.7873C25.4034 94.8553 28.5337 93.8813 31.4291 92.5363C32.3628 92.1033 33.1658 91.7423 33.8894 91.4173C35.1591 90.8473 36.1845 90.3863 37.2441 89.8333C35.4818 90.3223 33.1902 90.4423 30.7873 89.4703C28.927 88.7173 27.6968 87.5813 26.9953 86.7953C26.2824 85.9963 25.8278 85.2373 25.562 84.7403C25.132 83.9383 24.8738 83.2093 24.7291 82.7463C24.5261 82.8183 24.3291 82.8813 24.1395 82.9363C19.5144 84.2723 15.9806 82.0033 15.1657 81.4633C13.8951 80.6203 12.9496 79.6483 12.4013 79.0453C11.2336 77.7623 10.1933 76.2713 9.44255 75.1223C8.64145 73.8963 7.91215 72.6613 7.36655 71.6733C7.09715 71.1863 6.83015 70.6823 6.60465 70.2193C6.49945 70.0043 6.34555 69.6793 6.19475 69.3133C6.12355 69.1393 5.99445 68.8163 5.86615 68.4113C5.86545 68.4093 5.86405 68.4053 5.86215 68.3993C5.81225 68.2493 5.37305 66.9283 5.37305 65.2443C5.37305 63.2093 5.92335 61.5473 6.47185 60.3773C6.34765 60.1143 6.22405 59.8303 6.10785 59.5263C5.89155 58.9613 5.62155 58.1283 5.47295 57.0993C5.32525 56.0753 5.25715 54.5743 5.70445 52.8553C6.55505 49.5853 8.69525 47.6353 10.2749 46.6613C10.2946 46.6493 10.3142 46.6373 10.3337 46.6253C10.3648 45.4043 10.4459 44.1283 10.6208 42.9963C10.8428 41.5593 11.2338 40.2583 11.8423 38.9883C12.0675 38.5183 12.2935 38.1173 12.3836 37.9573C12.3882 37.9493 12.3925 37.9413 12.3964 37.9343C12.5054 37.7413 12.5132 37.7263 12.5248 37.7043C13.0349 36.7193 13.6078 35.9563 13.9218 35.5633C15.7376 32.7723 18.2908 31.3803 19.6813 30.7593C21.4088 29.9863 23.5112 29.4403 25.694 29.4403C25.767 29.4403 25.8852 29.4363 26.7184 29.3233C26.7511 29.3193 26.7853 29.3143 26.8209 29.3093C27.5583 29.2093 28.898 29.0263 30.4459 29.0263C30.4654 29.0263 30.4962 29.0253 30.5373 29.0253C30.9591 29.0193 32.4659 28.9983 33.9212 29.2683C36.0501 29.6643 37.7197 30.5153 39.0585 31.3953C39.1214 31.4373 39.1873 31.4783 39.3928 31.6053C39.4325 31.6293 39.4774 31.6573 39.5285 31.6893C39.78 31.8453 40.1919 32.1013 40.6311 32.4023C41.379 32.9133 42.8469 33.9713 44.1387 35.6563C45.0234 36.0303 45.705 36.4673 46.1585 36.7983C46.1678 36.8033 46.1771 36.8083 46.1866 36.8143C46.4181 36.9423 46.7295 37.1233 47.08 37.3603C48.0259 37.9983 48.7809 38.6593 49.3038 39.1453C49.7131 39.5253 50.1354 39.9483 50.381 40.1933C50.4269 40.2393 50.4667 40.2793 50.499 40.3113C50.586 40.3983 50.6535 40.4643 50.7055 40.5153C53.2374 42.0573 54.8637 44.3213 55.4869 45.2093C56.0352 45.9913 56.554 46.8293 57.0097 47.6593C58.6896 49.2523 60.3562 50.7633 62.0424 52.1763ZM11.7239 75.6643C11.7239 75.6643 11.7195 75.6483 11.7131 75.6243C11.7211 75.6543 11.7239 75.6643 11.7239 75.6643ZM42.9018 85.8113C42.6161 86.2133 42.1875 86.7573 41.6138 87.3153C42.4775 86.8313 43.4861 86.3013 44.6255 85.8043C44.4697 85.8143 44.3481 85.8183 44.3097 85.8203C44.2759 85.8213 44.2455 85.8223 44.2197 85.8223C44.2004 85.8233 44.1836 85.8233 44.1702 85.8243C44.0582 85.8263 43.9568 85.8273 43.8962 85.8273C43.6594 85.8273 43.3079 85.8243 42.9018 85.8113ZM48.8768 84.4673C49.2301 84.4193 49.6199 84.3833 50.0364 84.3743C50.8889 84.3543 56.1839 84.3753 59.0583 89.4963C60.1246 89.4303 61.0557 89.4513 61.7536 89.4823C62.4339 89.3923 63.0114 89.3733 63.328 89.3673C63.6227 89.3613 63.9009 89.3643 64.0651 89.3663C67.511 89.1633 71.0392 89.3703 74.5101 90.0403C76.3165 90.3893 80.1152 91.1283 83.486 93.1733C83.5996 93.2423 83.7052 93.3093 83.7991 93.3703C83.8788 93.4103 83.9604 93.4533 84.0434 93.4983C84.0525 93.5033 84.063 93.5093 84.0753 93.5153C84.4919 93.7393 86.749 94.9523 88.2045 97.7043C88.5085 98.2793 88.7644 98.8953 88.9604 99.5443C89.1594 99.3863 89.3715 99.2313 89.5955 99.0803C89.6685 98.8873 89.7524 98.6623 89.8524 98.3893C89.8724 98.3353 89.8935 98.2783 89.9145 98.2193C90.1365 97.6133 90.4554 96.7413 90.8244 95.8703C92.6554 91.5493 96.0934 90.0683 98.6184 89.5863C98.6264 88.5513 98.6225 87.6703 98.5695 86.7773C98.1785 86.2193 97.8255 85.6023 97.5265 84.9213C96.3755 82.2963 96.5434 79.8813 96.8224 78.4383C97.3164 75.8863 98.6085 74.0473 99.0105 73.4783C100.025 72.0423 101.509 70.5493 101.329 70.7423C101.529 70.5273 101.733 70.3103 101.939 70.0913H97.3824C97.3004 70.0913 97.2174 70.0933 97.0224 70.0963L96.9314 70.0983C96.7144 70.1023 96.3684 70.1083 95.9894 70.1033C95.3964 70.0963 94.5015 70.0623 93.4555 69.8873C92.5765 70.1513 91.8334 70.2723 91.3834 70.3343C91.0944 70.3743 90.8064 70.4053 90.5294 70.4293C90.1964 72.9103 89.2364 74.7293 88.9224 75.3233C88.9044 75.3583 88.8885 75.3893 88.8745 75.4153C88.2025 76.7073 87.1704 78.1463 85.6026 79.3493C84.0037 80.5763 82.3416 81.1773 80.9557 81.4583C79.7052 81.7103 78.6487 81.7033 78.2326 81.6983C78.0394 81.6953 77.8354 81.6893 77.7486 81.6863L77.7195 81.6853C77.6668 81.6843 77.6412 81.6833 77.6328 81.6833M43.9511 85.8243C43.9453 85.8253 43.8945 85.8253 43.8136 85.8233C43.9163 85.8233 43.957 85.8243 43.9511 85.8243ZM48.8768 84.4673C49.971 83.6583 51.8416 81.8743 52.9187 80.2393L48.8768 84.4673ZM52.9187 80.2393C54.7141 78.8743 55.8365 77.1163 56.4626 75.4303C56.8409 75.2343 57.3237 74.9813 57.8046 74.7103C57.9059 74.6523 58.014 74.5913 58.128 74.5253M98.4254 84.7953C98.4254 84.7953 98.4265 84.8003 98.4275 84.8123C98.4265 84.8023 98.4254 84.7953 98.4254 84.7953ZM84.8414 111.981C84.9771 112.834 85.3704 114.716 86.6259 116.586C86.7753 116.809 86.9514 117.053 87.1562 117.308C87.5819 118.097 87.9884 118.75 88.2724 119.208C88.3154 119.277 88.3544 119.341 88.3914 119.4C88.6144 119.761 88.8155 120.169 89.2225 121.083C89.2345 121.136 89.2485 121.197 89.2635 121.26C89.3345 121.566 89.4815 122.186 89.7075 122.876C89.7095 122.882 89.7114 122.889 89.7134 122.895C89.7154 122.955 89.7175 123.019 89.7205 123.085C89.6795 123.043 89.6385 123.002 89.5975 122.96C88.8085 122.162 87.6546 121.248 86.2201 120.548C86.1165 120.14 85.9775 119.688 85.7908 119.216C85.5634 118.641 84.7252 116.73 82.899 115.12C83.1953 114.596 83.4961 114.076 83.8012 113.561C84.165 112.948 84.4786 112.485 84.8414 111.981ZM89.8745 142.122C89.8755 142.092 89.8745 142.073 89.8745 142.066V142.063C89.8745 142.071 89.8745 142.082 89.8745 142.096C89.8745 142.104 89.8745 142.113 89.8745 142.122ZM114.794 108.79C113.466 107.595 114.291 107.682 114.335 107.79C114.486 108.162 107.373 109.84 107.509 110.565C107.774 111.973 108.034 105.548 106.251 108.337C96.4164 98.2183 107.967 112.655 107.509 113.11C105.584 112.302 109.831 116.459 108.835 115.79C108.514 115.574 110.658 115.514 110.335 115.29C110.023 115.074 109.139 116.56 108.829 116.34M64.3096 89.3693C64.3096 89.3693 64.2941 89.3693 64.2523 89.3683C64.2872 89.3683 64.3096 89.3693 64.3096 89.3693ZM9.28215 133.401C9.28215 133.401 9.28915 133.415 9.30335 133.45C9.28925 133.419 9.28215 133.401 9.28215 133.401ZM17.7239 141.884C17.7239 141.884 17.7091 141.879 17.685 141.871C17.7128 141.88 17.7239 141.884 17.7239 141.884ZM164.563 46.8153L164.562 46.8133C164.564 46.8193 164.564 46.8203 164.563 46.8153ZM110.583 42.6783C110.583 42.6783 110.587 42.6693 110.593 42.6553C110.586 42.6713 110.583 42.6783 110.583 42.6783ZM110.026 44.0923C110.025 44.0953 110.025 44.0943 110.026 44.0923ZM103.894 10.5053C103.894 10.5053 103.901 10.5133 103.912 10.5273C103.899 10.5123 103.894 10.5053 103.894 10.5053ZM89.7234 1.73433C89.7254 1.73433 89.7564 1.73133 89.8074 1.72733C89.7474 1.73333 89.7214 1.73533 89.7234 1.73433Z" fill="#FF6C9C"/>
<path fill-rule="evenodd" clip-rule="evenodd" d="M83.333 112.76C97.6354 112.76 109.229 101.356 109.229 87.2883C109.229 73.2213 97.6354 61.8173 83.333 61.8173C69.0309 61.8173 57.4367 73.2213 57.4367 87.2883C57.4367 101.356 69.0309 112.76 83.333 112.76ZM83.333 117.288C100.177 117.288 113.833 103.857 113.833 87.2883C113.833 70.7203 100.177 57.2883 83.333 57.2883C66.4883 57.2883 52.833 70.7203 52.833 87.2883C52.833 103.857 66.4883 117.288 83.333 117.288Z" fill="black"/>
<path fill-rule="evenodd" clip-rule="evenodd" d="M44.3005 29.4744C55.9493 36.0904 67.2951 48.4024 71.8331 61.8184L66.4108 63.5994C62.3756 51.6694 52.0595 40.3824 41.4463 34.3534C36.1455 31.3434 31.0382 29.7984 26.8222 29.9284C22.7679 30.0544 19.4883 31.7064 17.2906 35.4064C10.5582 46.7404 7.64568 56.7594 8.79288 64.4834C9.35668 68.2804 10.9011 71.5514 13.5177 74.2584C16.1536 76.9844 20.0039 79.2674 25.3619 80.8514C34.5477 83.5674 41.7794 83.8684 46.8059 83.5574C49.3239 83.4024 51.3132 83.0914 52.7648 82.8364C53.0112 82.7934 53.2602 82.7484 53.5004 82.7054C53.9246 82.6284 54.3216 82.5574 54.629 82.5084C54.8803 82.4694 55.1729 82.4284 55.457 82.4094H55.463C55.6527 82.3974 56.2451 82.3584 56.8799 82.5674L55.0725 87.9104C55.3699 88.0084 55.6029 88.0244 55.6827 88.0284C55.7347 88.0314 55.7735 88.0314 55.7954 88.0314C55.8086 88.0314 55.8184 88.0304 55.8246 88.0304C55.8289 88.0304 55.8318 88.0304 55.8318 88.0304C55.8318 88.0304 55.8079 88.0313 55.7513 88.0383C55.6964 88.0453 55.6243 88.0554 55.5306 88.0704C55.279 88.1104 54.997 88.1614 54.6368 88.2264C54.3888 88.2714 54.1036 88.3234 53.7658 88.3824C52.1974 88.6574 49.9767 89.0054 47.1638 89.1794C41.5285 89.5274 33.6139 89.1714 23.7195 86.2464C17.6465 84.4514 12.852 81.7354 9.37938 78.1434C5.88748 74.5304 3.85968 70.1624 3.13748 65.2994C1.71258 55.7044 5.37298 44.3204 12.358 32.5614C15.6472 27.0234 20.8266 24.4794 26.6423 24.2994C32.2964 24.1234 38.4702 26.1624 44.3005 29.4744Z" fill="black"/>
<path fill-rule="evenodd" clip-rule="evenodd" d="M129.403 139.941C117.09 135.355 104.541 124.92 98.8281 111.614L104.039 109.334C109.041 120.982 120.271 130.428 131.369 134.561C136.901 136.622 142.157 137.269 146.41 136.413C150.556 135.577 153.784 133.325 155.665 129.315C161.399 117.094 163.091 108.299 161.221 102.204C159.462 96.4712 154.172 92.1392 142.977 89.7992C133.644 87.8482 126.459 88.1752 121.51 88.9302C119.031 89.3082 117.089 89.7972 115.674 90.1822C115.434 90.2472 115.191 90.3152 114.957 90.3792C114.544 90.4942 114.158 90.6022 113.857 90.6782C113.612 90.7402 113.326 90.8072 113.047 90.8502L113.041 90.8512C112.854 90.8802 112.271 90.9712 111.624 90.8152L112.944 85.2382C112.641 85.1652 112.409 85.1692 112.329 85.1722C112.278 85.1732 112.239 85.1772 112.217 85.1792C112.209 85.1802 112.202 85.1812 112.197 85.1822C112.187 85.1832 112.182 85.1842 112.182 85.1842C112.182 85.1842 112.205 85.1802 112.26 85.1682C112.314 85.1562 112.385 85.1392 112.476 85.1162C112.722 85.0542 112.996 84.9772 113.347 84.8802C113.589 84.8132 113.867 84.7352 114.196 84.6462C115.724 84.2302 117.892 83.6832 120.662 83.2602C126.21 82.4142 134.076 82.0832 144.128 84.1852C156.16 86.7002 163.985 91.8352 166.646 100.508C169.197 108.82 166.615 119.372 160.799 131.769C158.06 137.606 153.217 140.888 147.522 142.035C141.933 143.161 135.576 142.24 129.403 139.941Z" fill="black"/>
<path fill-rule="evenodd" clip-rule="evenodd" d="M58.5985 152.777C56.5276 138.886 62.116 121.906 72.0254 110.621L76.2758 114.424C67.3356 124.605 62.4259 139.922 64.2151 151.924C65.0988 157.852 67.5772 162.774 71.7838 166.013C75.9863 169.249 82.3001 171.102 91.4368 170.12C104.174 168.753 110.569 166.109 113.624 162.779C116.475 159.671 116.983 155.278 115.681 148.271C114.077 139.63 109.743 131.323 105.659 124.919C103.63 121.737 101.694 119.071 100.234 117.108C99.9588 116.738 99.6938 116.384 99.4458 116.053C99.0528 115.528 98.7038 115.062 98.4318 114.689C98.2078 114.382 97.9958 114.083 97.8278 113.823C97.7438 113.694 97.6468 113.536 97.5568 113.366L97.5558 113.364C97.4968 113.254 97.3068 112.896 97.2128 112.431L102.779 111.285C102.732 111.053 102.666 110.885 102.637 110.816C102.603 110.735 102.575 110.68 102.564 110.661C102.556 110.645 102.551 110.637 102.551 110.637C102.551 110.637 102.561 110.653 102.584 110.688C102.661 110.808 102.795 111 103.006 111.29C103.261 111.64 103.571 112.053 103.942 112.549C104.192 112.882 104.469 113.253 104.777 113.666C106.272 115.677 108.3 118.467 110.435 121.815C114.677 128.469 119.461 137.508 121.264 147.215C122.637 154.609 122.578 161.456 117.792 166.674C113.21 171.67 104.901 174.441 92.0378 175.822C81.8833 176.912 73.9967 174.928 68.3393 170.572C62.6859 166.219 59.6447 159.796 58.5985 152.777Z" fill="black"/>
<path fill-rule="evenodd" clip-rule="evenodd" d="M112.651 24.6132C112.651 36.3472 107.716 50.8962 99.9327 64.8642L94.9827 62.0532C102.535 48.4982 106.971 34.9532 106.971 24.6132C106.971 19.4692 105.876 15.3562 103.775 12.3962C101.725 9.50723 98.5096 7.42122 93.6176 6.66122C80.47 4.62022 71.7275 6.04023 66.7814 9.98923C62.0704 13.7502 59.9276 20.5852 61.9675 31.9152C63.6716 41.3812 66.6637 47.9842 69.2107 52.3332C70.4866 54.5122 71.6632 56.1462 72.5467 57.3262C72.6967 57.5272 72.8494 57.7282 72.9967 57.9232C73.2569 58.2672 73.5004 58.5882 73.6826 58.8412C73.8315 59.0472 74.0004 59.2902 74.1451 59.5352L74.1482 59.5402C74.2448 59.7042 74.5467 60.2162 74.6457 60.8802L69.0292 61.7342C69.0756 62.0452 69.1659 62.2602 69.198 62.3342C69.2189 62.3822 69.2366 62.4162 69.2468 62.4362C69.2572 62.4562 69.2642 62.4682 69.2642 62.4682C69.2642 62.4682 69.2512 62.4462 69.2201 62.4002C69.1892 62.3542 69.1474 62.2942 69.0919 62.2172C68.9428 62.0112 68.7697 61.7822 68.5486 61.4902C68.3964 61.2892 68.2214 61.0582 68.0157 60.7842C67.0611 59.5092 65.7466 57.6852 64.3213 55.2512C61.4658 50.3752 58.2149 43.1362 56.3793 32.9412C54.1777 20.7122 56.1381 11.1762 63.2579 5.49222C70.1427 -0.00478172 80.9588 -1.10578 94.4817 0.995225C100.665 1.95522 105.331 4.74322 108.393 9.05722C111.404 13.3002 112.651 18.7192 112.651 24.6132Z" fill="black"/>
<path fill-rule="evenodd" clip-rule="evenodd" d="M18.1843 92.7994C29.568 87.4434 44.3612 84.7854 56.1036 84.5764L56.2035 90.3094C45.0501 90.5074 31.0804 93.0574 20.5836 97.9964C15.3319 100.466 11.1688 103.433 8.59966 106.794C6.10516 110.057 5.07966 113.713 6.03206 117.976C8.81806 130.449 16.8996 140.07 25.9343 144.322C34.8449 148.515 44.5242 147.494 51.5441 139.023C57.6466 131.659 61.0147 124.607 62.969 119.31C63.9471 116.659 64.5741 114.439 65.0204 112.8C65.0647 112.638 65.1082 112.477 65.1509 112.32C65.3156 111.711 65.4674 111.15 65.6 110.717C65.6836 110.443 65.786 110.131 65.9084 109.842C65.9105 109.837 65.9127 109.832 65.9151 109.826C65.99 109.648 66.2673 108.989 66.8714 108.476L70.5273 112.864C70.8364 112.602 70.9965 112.341 71.0437 112.262C71.0768 112.207 71.0988 112.164 71.1108 112.139C71.1232 112.114 71.1298 112.099 71.1309 112.096C71.131 112.096 71.131 112.096 71.1309 112.096C71.1298 112.099 71.1202 112.123 71.1022 112.175C71.0826 112.231 71.0578 112.308 71.0273 112.407C70.9246 112.743 70.8065 113.18 70.6469 113.768C70.6007 113.939 70.5509 114.123 70.4971 114.321C70.0339 116.021 69.3555 118.427 68.2917 121.311C66.162 127.084 62.4999 134.739 55.9006 142.702C46.9643 153.486 34.381 154.623 23.5343 149.518C12.8116 144.472 3.64076 133.337 0.491362 119.238C-0.873338 113.128 0.692162 107.752 4.10306 103.291C7.43926 98.9274 12.4958 95.4754 18.1843 92.7994Z" fill="black"/>
<path fill-rule="evenodd" clip-rule="evenodd" d="M151.264 80.1432C139.503 85.3872 124.067 87.9902 112.303 87.9922L112.302 82.2582C123.438 82.2572 138.066 79.7602 148.969 74.8982C154.435 72.4612 158.692 69.5482 161.185 66.3102C163.569 63.2142 164.374 59.8152 163.035 55.8152C158.898 43.4622 150.87 33.6022 142.249 29.0802C137.967 26.8342 133.635 25.9482 129.564 26.5742C125.525 27.1952 121.486 29.3432 117.803 33.6332C111.656 40.7942 108.347 48.5652 106.46 54.6952C105.518 57.7572 104.935 60.3952 104.524 62.3522C104.476 62.5792 104.43 62.8012 104.385 63.0172C104.242 63.7062 104.112 64.3312 103.997 64.8132C103.922 65.1292 103.831 65.4802 103.721 65.7962C103.666 65.9542 103.583 66.1712 103.463 66.3992C103.367 66.5812 103.123 67.0212 102.655 67.4042L99.0762 62.9522C98.6692 63.2862 98.4822 63.6422 98.4432 63.7162L98.4422 63.7182C98.3822 63.8342 98.3582 63.9062 98.3642 63.8902C98.3752 63.8592 98.4112 63.7392 98.4752 63.4722C98.5692 63.0792 98.6732 62.5752 98.8102 61.9182C98.8582 61.6862 98.9102 61.4362 98.9672 61.1642C99.3922 59.1432 100.017 56.3052 101.036 52.9942C103.072 46.3792 106.693 37.8202 113.511 29.8782C117.971 24.6832 123.182 21.7562 128.708 20.9062C134.202 20.0602 139.748 21.3072 144.868 23.9922C155.049 29.3322 163.911 40.5282 168.416 53.9792C170.43 59.9942 169.096 65.3802 165.67 69.8292C162.353 74.1352 157.129 77.5282 151.264 80.1432Z" fill="black"/>
<path d="M122.833 85.7883C122.833 108.708 104.7 127.288 82.333 127.288C59.9654 127.288 41.833 108.708 41.833 85.7883C41.833 62.8683 59.9654 44.2883 82.333 44.2883C104.7 44.2883 122.833 62.8683 122.833 85.7883Z" fill="#FFE640"/>
<path d="M74.833 91.7883C74.833 96.4833 70.8035 100.288 65.833 100.288C60.8624 100.288 56.833 96.4833 56.833 91.7883C56.833 87.0943 60.8624 83.2883 65.833 83.2883C70.8035 83.2883 74.833 87.0943 74.833 91.7883Z" fill="#FF6C9C"/>
<path d="M107.834 91.7883C107.834 96.4833 104.476 100.288 100.334 100.288C96.191 100.288 92.834 96.4833 92.834 91.7883C92.834 87.0943 96.191 83.2883 100.334 83.2883C104.476 83.2883 107.834 87.0943 107.834 91.7883Z" fill="#FF6C9C"/>
<path d="M80.833 76.2883C80.833 80.1543 79.266 83.2883 77.333 83.2883C75.4 83.2883 73.833 80.1543 73.833 76.2883C73.833 72.4223 75.4 69.2883 77.333 69.2883C79.266 69.2883 80.833 72.4223 80.833 76.2883Z" fill="black"/>
<path d="M93.8344 76.2883C93.8344 80.1543 92.4904 83.2883 90.8344 83.2883C89.1774 83.2883 87.834 80.1543 87.834 76.2883C87.834 72.4223 89.1774 69.2883 90.8344 69.2883C92.4904 69.2883 93.8344 72.4223 93.8344 76.2883Z" fill="black"/>
<path fill-rule="evenodd" clip-rule="evenodd" d="M51.9099 104.25C62.0067 121.675 83.8134 127.315 100.618 116.843C117.421 106.373 122.858 83.7575 112.761 66.3315C102.666 48.9053 80.8575 43.2666 64.0541 53.7375C47.2504 64.2082 41.8132 86.8234 51.9099 104.25ZM47.6258 106.919C59.1443 126.799 84.0214 133.231 103.192 121.286C122.361 109.341 128.565 83.5416 117.046 63.662C105.527 43.7821 80.6495 37.3496 61.4799 49.2947C42.3102 61.2397 36.1075 87.0393 47.6258 106.919Z" fill="black"/>
<path fill-rule="evenodd" clip-rule="evenodd" d="M73.7551 69.4572C74.9859 68.0763 76.1212 66.3978 76.7829 65.2812L79 66.6365C78.2773 67.856 77.0454 69.6817 75.6736 71.2209C74.9888 71.9893 74.2366 72.7232 73.4663 73.2747C72.7242 73.806 71.81 74.2813 70.8312 74.2813C68.3638 74.2813 66.689 73.7382 66 73.3076L67.3562 71.0694C67.356 71.0692 67.3561 71.0693 67.3563 71.0694C67.3587 71.0708 67.3798 71.0832 67.4246 71.1043C67.4723 71.1267 67.5381 71.155 67.6233 71.1869C67.7939 71.2509 68.0287 71.3247 68.3278 71.3944C68.9253 71.5338 69.7625 71.6531 70.8312 71.6531C71.0153 71.6531 71.392 71.5443 71.9754 71.1266C72.5306 70.7291 73.1386 70.1489 73.7551 69.4572Z" fill="black"/>
<path fill-rule="evenodd" clip-rule="evenodd" d="M95.2894 68.7745C97.1742 68.8535 99.2498 68.6661 100.576 68.4674L100.959 71.0639C99.5199 71.2794 97.2739 71.485 95.1813 71.3972C94.1375 71.3535 93.0799 71.2349 92.1606 70.9842C91.2821 70.7446 90.3136 70.3276 89.7035 69.5256C88.2185 67.5736 87.6594 65.8895 87.6042 65.0543L90.201 64.8799C90.201 64.8795 90.201 64.8793 90.201 64.8793C90.201 64.8793 90.2029 64.9015 90.2119 64.9486C90.2212 64.998 90.2365 65.0655 90.2602 65.1506C90.3077 65.321 90.385 65.548 90.5038 65.8231C90.741 66.3725 91.1365 67.0972 91.7682 67.9276C91.8524 68.0382 92.1393 68.2591 92.8399 68.4502C93.4996 68.6301 94.3446 68.7349 95.2894 68.7745Z" fill="black"/>
<path fill-rule="evenodd" clip-rule="evenodd" d="M64.4888 98.182C64.758 99.5893 64.8506 101.054 64.8506 102H66.5591C66.5591 101.058 66.4767 99.666 66.24 98.2663C68.6221 95.5998 75.4368 91.7143 85.5598 91.7143C94.1302 91.7143 98.8142 95.9184 100.269 97.4682C99.9705 98.4087 99.764 99.3045 99.7101 99.9371L101.412 100.083C101.475 99.3441 101.86 97.9036 102.42 96.5481C102.697 95.879 103.002 95.2666 103.308 94.7965C103.636 94.2921 103.884 94.0792 104 94.0267L103.3 92.4631C102.71 92.7289 102.237 93.3054 101.877 93.8597C101.528 94.3964 101.205 95.0388 100.923 95.6992C98.8149 93.6839 93.8543 90 85.5598 90C75.9967 90 69.0457 93.3379 65.787 96.3008C65.6826 95.9598 65.5644 95.6289 65.4308 95.3164C65.105 94.5547 64.6507 93.8162 63.9975 93.3449L63 94.7367C63.2889 94.9451 63.5881 95.355 63.8607 95.9925C64.1273 96.6156 64.3345 97.3756 64.4888 98.182Z" fill="black"/>
</svg>
