<svg width="94" height="246" viewBox="0 0 94 246" fill="none" xmlns="http://www.w3.org/2000/svg">
<path fill-rule="evenodd" clip-rule="evenodd" d="M73.7174 74.39C62.8104 53.269 49.9184 33.98 42.0803 23.999L30.833 33.867C38.043 43.048 50.4104 61.505 60.8864 81.792C66.1144 91.916 70.7944 102.347 74.1234 112.189C77.4834 122.12 79.3084 130.989 79.2124 138.129C78.9924 154.525 76.6794 174.45 74.3484 193.984C74.2574 194.744 74.1664 195.504 74.0754 196.264C71.8754 214.683 69.7104 232.804 69.7104 245.999H84.3274C84.3274 233.803 86.3914 216.516 88.6664 197.46C88.7274 196.947 88.7884 196.433 88.8504 195.917C91.1564 176.591 93.5934 155.768 93.8284 138.348C93.9594 128.581 91.5204 117.727 87.8874 106.987C84.2244 96.159 79.1804 84.97 73.7174 74.39Z" fill="black"/>
<path fill-rule="evenodd" clip-rule="evenodd" d="M70.3494 76.653C59.6524 55.791 47.0124 36.757 39.4035 26.999L33.833 31.9211C41.1305 41.2791 53.5104 59.899 63.9944 80.344C69.2314 90.558 73.9574 101.152 77.3384 111.217C80.7334 121.326 82.6934 130.667 82.5894 138.446C82.3684 155.057 80.0454 175.158 77.7434 194.593C77.6594 195.297 77.5764 196.001 77.4924 196.704C75.2964 215.222 73.1774 233.086 73.1774 245.999H80.4174C80.4174 233.585 82.4864 216.137 84.7194 197.301C84.7874 196.721 84.8564 196.14 84.9254 195.557C87.2164 176.225 89.6004 155.677 89.8284 138.555C89.9494 129.466 87.6864 119.134 84.1544 108.622C80.6084 98.066 75.7034 87.093 70.3494 76.653Z" fill="#019C40"/>
<path fill-rule="evenodd" clip-rule="evenodd" d="M42.333 69.471C56.6354 69.471 68.2294 58.067 68.2294 43.999C68.2294 29.932 56.6354 18.528 42.333 18.528C28.0309 18.528 16.4367 29.932 16.4367 43.999C16.4367 58.067 28.0309 69.471 42.333 69.471ZM42.333 73.999C59.1774 73.999 72.8334 60.568 72.8334 43.999C72.8334 27.431 59.1774 13.999 42.333 13.999C25.4883 13.999 11.833 27.431 11.833 43.999C11.833 60.568 25.4883 73.999 42.333 73.999Z" fill="black"/>
<path d="M81.8334 42.499C81.8334 65.419 63.7004 83.999 41.333 83.999C18.9654 83.999 0.833008 65.419 0.833008 42.499C0.833008 19.579 18.9654 0.999023 41.333 0.999023C63.7004 0.999023 81.8334 19.579 81.8334 42.499Z" fill="#FFE640"/>
<path d="M33.833 48.499C33.833 53.194 29.8035 56.999 24.833 56.999C19.8624 56.999 15.833 53.194 15.833 48.499C15.833 43.805 19.8624 39.999 24.833 39.999C29.8035 39.999 33.833 43.805 33.833 48.499Z" fill="#FF6C9C"/>
<path d="M66.834 48.499C66.834 53.194 63.476 56.999 59.334 56.999C55.191 56.999 51.834 53.194 51.834 48.499C51.834 43.805 55.191 39.999 59.334 39.999C63.476 39.999 66.834 43.805 66.834 48.499Z" fill="#FF6C9C"/>
<path d="M39.833 32.999C39.833 36.865 38.266 39.999 36.333 39.999C34.4 39.999 32.833 36.865 32.833 32.999C32.833 29.133 34.4 25.999 36.333 25.999C38.266 25.999 39.833 29.133 39.833 32.999Z" fill="black"/>
<path d="M52.8344 32.999C52.8344 36.865 51.4904 39.999 49.8344 39.999C48.1774 39.999 46.834 36.865 46.834 32.999C46.834 29.133 48.1774 25.999 49.8344 25.999C51.4904 25.999 52.8344 29.133 52.8344 32.999Z" fill="black"/>
<path fill-rule="evenodd" clip-rule="evenodd" d="M10.9094 60.9606C21.0062 78.3859 42.813 84.0253 59.6174 73.5537C76.4208 63.0832 81.8578 40.4682 71.7609 23.0422C61.6651 5.61596 39.857 -0.0226698 23.0536 10.4482C6.24986 20.9189 0.81267 43.5341 10.9094 60.9606ZM6.62535 63.6296C18.1438 83.5093 43.0209 89.9413 62.1915 77.9969C81.361 66.0513 87.564 40.2523 76.0455 20.3727C64.5269 0.492816 39.649 -5.93968 20.4794 6.00542C1.30974 17.9504 -4.89298 43.75 6.62535 63.6296Z" fill="black"/>
<path fill-rule="evenodd" clip-rule="evenodd" d="M32.7551 26.1679C33.9859 24.787 35.1212 23.1085 35.7829 21.9919L38 23.3472C37.2773 24.5667 36.0454 26.3924 34.6736 27.9316C33.9888 28.6999 33.2366 29.4338 32.4663 29.9854C31.7242 30.5167 30.81 30.9919 29.8312 30.9919C27.3638 30.9919 25.689 30.4489 25 30.0183L26.3562 27.78C26.356 27.7799 26.3561 27.78 26.3563 27.7801C26.3587 27.7815 26.3798 27.7939 26.4246 27.815C26.4723 27.8374 26.5381 27.8657 26.6233 27.8976C26.7939 27.9616 27.0287 28.0354 27.3278 28.1051C27.9253 28.2445 28.7625 28.3638 29.8312 28.3638C30.0153 28.3638 30.392 28.255 30.9754 27.8373C31.5306 27.4398 32.1386 26.8596 32.7551 26.1679Z" fill="black"/>
<path fill-rule="evenodd" clip-rule="evenodd" d="M54.2894 25.4852C56.1742 25.5642 58.2498 25.3768 59.5764 25.1781L59.9586 27.7746C58.5199 27.9901 56.2739 28.1957 54.1813 28.1079C53.1375 28.0642 52.0799 27.9456 51.1606 27.6949C50.2821 27.4553 49.3136 27.0383 48.7035 26.2363C47.2185 24.2843 46.6594 22.6002 46.6042 21.765L49.201 21.5906C49.201 21.5902 49.201 21.59 49.201 21.59C49.201 21.59 49.2029 21.6122 49.2119 21.6593C49.2212 21.7087 49.2365 21.7762 49.2602 21.8613C49.3077 22.0317 49.385 22.2587 49.5038 22.5338C49.741 23.0832 50.1365 23.8079 50.7682 24.6383C50.8524 24.7489 51.1393 24.9698 51.8399 25.1609C52.4996 25.3408 53.3446 25.4456 54.2894 25.4852Z" fill="black"/>
<path d="M54.4342 57.3149C55.3108 61.6233 51.6833 66.3468 45.7895 67.5459C39.8958 68.745 34.711 65.8144 33.8345 61.5059C32.9579 57.1975 36.5854 52.474 42.4792 51.2749C48.3729 50.0758 53.5577 53.0064 54.4342 57.3149Z" fill="#FFE640" stroke="black" stroke-width="2"/>
</svg>
