<svg width="173" height="381" viewBox="0 0 173 381" fill="none" xmlns="http://www.w3.org/2000/svg">
<path fill-rule="evenodd" clip-rule="evenodd" d="M30.5386 139.539C42.7626 112.717 56.8166 87.9426 67.5316 74.1926L79.6546 83.6426C70.0046 96.0236 56.5326 119.565 44.5236 145.914C32.5156 172.26 22.3746 200.536 18.9386 222.3C15.0926 246.662 17.6256 276.525 21.3236 305.436C22.2826 312.938 23.3306 320.425 24.3516 327.722C27.1726 347.881 29.7906 366.595 29.7906 380.193H14.4216C14.4216 367.748 12.0406 350.723 9.29059 331.058C8.23659 323.519 7.12759 315.592 6.07859 307.387C2.37959 278.465 -0.465412 246.65 3.75759 219.903C7.51259 196.114 18.3116 166.364 30.5386 139.539Z" fill="black"/>
<path fill-rule="evenodd" clip-rule="evenodd" d="M34.1439 139.062C46.2929 112.239 60.1769 87.6626 70.6059 74.1946L76.6569 78.9406C66.7589 91.7216 53.1649 115.678 41.1239 142.264C29.0829 168.848 18.7959 197.621 15.2859 219.992C11.3529 245.062 13.9599 275.549 17.6519 304.593C18.6309 312.3 19.6919 319.929 20.7189 327.321C23.5179 347.455 26.0719 365.826 26.0719 379.195H18.4019C18.4019 366.406 15.9659 348.883 13.2019 328.996C12.1579 321.483 11.0669 313.632 10.0429 305.572C6.35091 276.523 3.58791 245.056 7.70891 218.788C11.3789 195.4 21.9939 165.887 34.1439 139.062Z" fill="#019C40"/>
<path fill-rule="evenodd" clip-rule="evenodd" d="M116.676 57.4697C117.465 57.2227 118.155 57.0907 118.615 57.0157C119.078 56.9397 119.507 56.8917 119.704 56.8697L119.735 56.8657C119.808 56.8577 119.857 56.8517 119.887 56.8477C120.788 56.6937 121.722 56.4957 122.884 56.2477L122.96 56.2307C124.077 55.9927 125.422 55.7057 126.813 55.4707C128.309 55.2177 129.693 55.1477 130.519 55.1067C130.558 55.1047 130.597 55.1027 130.634 55.1007C131.215 55.0717 131.557 55.0507 131.788 55.0297C131.834 55.0107 131.888 54.9887 131.952 54.9617C131.969 54.9547 131.986 54.9477 132.005 54.9397C132.293 54.8197 132.836 54.5947 133.428 54.3867C133.815 54.2517 134.278 54.1027 134.805 53.9677C134.809 53.9647 134.813 53.9627 134.817 53.9597C134.836 53.9487 134.856 53.9357 134.878 53.9217C135.239 53.6937 135.991 53.2187 136.839 52.7907C137.782 52.3157 139.175 51.7207 140.914 51.4267C142.125 51.2217 143.893 50.9397 145.771 50.8157C147.456 50.7057 149.87 50.6697 152.368 51.2597C152.399 51.2647 152.435 51.2697 152.475 51.2747C152.49 51.2767 152.506 51.2787 152.525 51.2817C152.844 51.3247 153.727 51.4427 154.673 51.6927C155.673 51.9577 157.453 52.5427 159.206 53.9517C160.969 55.3697 162.321 57.3177 163.008 59.6277C163.777 60.2737 164.674 61.0977 165.532 62.0737C166.707 63.4107 168.681 65.9967 169.283 69.6297C169.549 71.2307 169.895 73.3617 169.99 75.6717C170.011 76.1957 170.043 76.5876 170.092 76.9566C170.133 77.1166 170.185 77.3267 170.234 77.5467C170.311 77.8977 170.478 78.6887 170.529 79.6507C170.556 80.1457 170.567 80.9307 170.428 81.8707C170.297 82.7607 169.956 84.3047 168.93 85.9317C168.471 86.6597 168.007 87.2237 167.673 87.6027C167.344 87.9757 167.04 88.2807 166.894 88.4257C166.881 88.4387 166.868 88.4517 166.856 88.4647C166.103 89.4447 165.007 90.8307 163.724 92.1157C163.613 92.2507 163.299 92.6327 162.984 92.9797C162.597 93.4057 161.933 94.0987 161.023 94.7787C160.096 95.4717 158.716 96.3016 156.896 96.7626C156.851 96.7736 156.77 96.7976 156.656 96.8316C156.022 97.0186 154.38 97.5017 152.343 97.7727C152.301 97.8107 152.258 97.8477 152.215 97.8857C151.831 98.2187 151.219 98.7216 150.437 99.2066C150.033 99.4566 149.508 99.7507 148.875 100.022C148.247 100.29 147.415 100.578 146.414 100.747C143.753 101.197 141.503 100.636 139.805 99.8487C137.614 100.53 135.051 100.853 132.178 100.363C129.543 99.9127 127.446 98.8987 126.197 98.2547C126.07 98.1897 125.953 98.1287 125.844 98.0717L125.923 98.5527C126.053 98.7037 126.192 98.8717 126.337 99.0547C126.61 99.3977 126.928 99.8247 127.249 100.327C127.439 100.623 127.677 100.977 127.94 101.335C128.126 101.587 128.301 101.81 128.46 101.999C129.227 102.28 129.785 102.565 130.043 102.696L130.069 102.709C130.091 102.72 130.114 102.732 130.136 102.743C130.211 102.764 130.277 102.781 130.364 102.804C130.464 102.83 130.591 102.863 130.792 102.917C131.284 103.048 132.18 103.289 133.214 103.701C133.269 103.713 133.326 103.727 133.385 103.741C133.55 103.78 133.725 103.825 133.908 103.878C133.928 103.882 133.951 103.887 133.977 103.893C134.167 103.936 134.438 103.995 134.799 104.072C134.995 104.114 135.215 104.161 135.453 104.211C136.037 104.335 136.722 104.481 137.384 104.625C138.311 104.828 139.358 105.063 140.256 105.294C140.693 105.407 141.225 105.551 141.746 105.719C142.002 105.802 142.372 105.928 142.782 106.097L142.788 106.1C143.052 106.208 143.985 106.593 144.99 107.317C145.497 107.681 146.185 108.245 146.867 109.056C147.557 109.876 148.35 111.082 148.837 112.692C148.904 112.915 148.964 113.141 149.016 113.368C149.037 113.385 149.058 113.402 149.08 113.42C150.405 114.515 151.593 115.932 152.478 117.716C152.661 118.084 152.798 118.411 152.895 118.655C152.994 118.906 153.076 119.134 153.14 119.323C153.265 119.69 153.367 120.033 153.441 120.288C153.5 120.493 153.556 120.698 153.604 120.874C153.958 121.496 154.214 122.059 154.387 122.47C154.463 122.652 154.55 122.866 154.639 123.108C154.841 123.58 154.999 124.018 155.123 124.403C155.54 125.698 155.737 126.898 155.846 127.733C155.947 128.496 156.008 129.249 156.045 129.707C156.049 129.749 156.052 129.789 156.055 129.826C156.093 130.294 156.108 130.431 156.108 130.431L156.252 131.295L155.021 131.504C155.067 132.102 155.092 132.736 155.082 133.386C155.004 138.17 152.278 141.527 150.965 142.982C149.623 144.469 148.075 145.762 146.753 146.78C146.801 148.807 146.256 150.578 145.537 151.944C144.774 153.394 143.828 154.384 143.169 154.98C141.566 156.429 139.914 157.225 139.251 157.544L139.217 157.56C139.015 157.658 138.899 157.713 138.824 157.748C138.805 157.758 138.788 157.766 138.773 157.773C137.014 158.973 134.577 160.097 132.199 160.581C132.074 160.629 131.921 160.693 131.696 160.789C131.559 160.848 131.497 160.875 131.336 160.943C131.207 160.999 131.056 161.063 130.898 161.128C129.709 161.623 128.058 162.101 126.085 162.05C123.991 161.996 122.157 161.36 120.676 160.474C119.345 159.677 118.447 158.763 118.021 158.307C117.789 158.059 117.596 157.835 117.482 157.702C117.356 157.554 117.339 157.535 117.327 157.52C117.317 157.507 117.309 157.499 117.24 157.417C116.845 156.957 116.565 156.735 115.759 156.092C115.348 155.764 114.8 155.328 114.031 154.696C112.646 153.558 111.666 152.374 111.088 151.651C110.727 151.198 110.542 150.958 110.423 150.805C110.291 150.634 110.242 150.57 110.123 150.438C107.002 146.967 105.218 143.046 104.012 140.123C103.542 138.986 103.17 138.039 102.844 137.211C102.186 135.539 101.719 134.353 101.035 133.072C99.971 131.083 99.227 128.589 98.998 127.82C98.976 127.748 98.959 127.691 98.947 127.651C98.942 127.638 98.935 127.62 98.925 127.598C98.88 127.492 98.855 127.434 98.813 127.34C98.777 127.258 98.728 127.148 98.645 126.955C98.402 126.396 97.913 125.263 97.568 123.851C97.555 123.805 97.535 123.731 97.504 123.621C97.502 123.613 97.499 123.604 97.497 123.594C97.43 123.356 97.156 122.374 97.073 121.18C97.035 120.624 97.002 119.566 97.261 118.279C97.138 118.192 97.014 118.104 96.89 118.017C96.494 118.139 96.151 118.23 95.891 118.296C95.706 118.344 95.526 118.387 95.378 118.422C95.389 118.7 95.395 118.962 95.398 119.206C95.416 120.584 95.335 122.065 95.285 122.983C95.274 123.188 95.264 123.365 95.257 123.506C95.227 124.157 95.175 124.776 95.136 125.234C95.13 125.308 95.124 125.378 95.118 125.444C95.084 125.841 95.06 126.118 95.042 126.396C95.025 126.665 95.022 126.825 95.021 126.899C95.078 127.223 95.124 127.444 95.187 127.746C95.254 128.062 95.338 128.465 95.472 129.168C95.676 130.237 95.949 131.838 95.972 133.622C95.991 135.08 95.854 136.392 95.764 137.211C95.746 137.378 95.73 137.527 95.715 137.66C95.643 138.315 95.612 138.596 95.599 138.897C95.59 139.103 95.59 139.188 95.59 139.344C95.59 139.498 95.589 139.722 95.58 140.202C95.567 140.904 95.529 141.97 95.328 143.2C95.059 144.849 94.705 146.228 94.289 147.534C94.311 147.636 94.334 147.744 94.356 147.851C94.412 148.123 94.48 148.462 94.542 148.836C94.546 148.864 94.552 148.897 94.559 148.937C94.605 149.213 94.698 149.762 94.757 150.265C94.835 150.922 94.926 151.988 94.794 153.262C94.487 156.202 93.207 158.304 92.324 159.553C92.306 159.579 92.279 159.62 92.244 159.673C91.735 160.446 89.461 163.898 84.796 165.205C81.886 166.02 79 166.546 76.27 166.915C73.906 167.235 71.889 166.951 70.508 166.671C69.832 166.534 69.217 166.377 68.804 166.27C68.724 166.249 68.651 166.231 68.584 166.213C68.246 166.126 68.056 166.077 67.858 166.032C67.012 165.838 66.654 165.842 66.23 165.894C65.502 165.983 63.943 166.171 62.211 166.061C60.741 165.968 58.488 165.627 56.193 164.33C56.181 164.327 56.17 164.323 56.158 164.32L56.153 164.318C55.787 164.206 54.884 163.93 53.914 163.472C52.95 163.016 51.264 162.085 49.792 160.299C46.966 156.869 45.57 153.351 44.638 150.13C43.336 145.635 42.666 140.272 44.412 134.476C45.33 131.43 46.695 128.294 47.736 125.903C48.041 125.201 48.319 124.563 48.549 124.011C48.796 123.418 49.05 122.864 49.232 122.467L49.258 122.412C49.447 121.998 49.566 121.74 49.673 121.489C49.758 121.291 49.804 121.17 49.825 121.111C49.918 120.57 50.031 119.967 50.168 119.321C49.81 119.374 49.505 119.411 49.267 119.439C48.924 119.48 48.595 119.514 48.344 119.54L48.326 119.541C48.06 119.569 47.877 119.588 47.704 119.608C47.532 119.628 47.435 119.642 47.395 119.648C47.297 119.675 47.153 119.721 46.678 119.875L46.443 119.951C45.97 120.104 45.179 120.359 44.23 120.576C43.972 120.843 43.695 121.104 43.398 121.356C43.115 121.596 42.819 121.832 42.51 122.063C42.255 122.723 41.88 123.496 41.324 124.288C40.093 126.038 37.916 127.905 34.768 128.436C33.937 128.577 33.225 128.594 32.72 128.583C32.2 128.571 31.75 128.525 31.403 128.477C30.935 128.414 30.513 128.329 30.169 128.25C30.043 128.359 29.913 128.466 29.779 128.571C26.228 131.35 22.471 130.698 21.219 130.379C19.802 130.019 18.809 129.426 18.451 129.204C18.204 129.052 17.99 128.905 17.814 128.777C17.341 128.542 16.805 128.234 16.248 127.833C13.667 125.975 12.392 123.57 11.819 122.367C11.507 121.711 11.264 121.101 11.127 120.752C11.039 120.531 11.005 120.443 10.952 120.309C10.931 120.257 10.915 120.22 10.904 120.192L10.892 120.162C10.889 120.156 10.888 120.153 10.888 120.153C9.99198 118.112 9.07899 115.852 8.40199 113.305C8.39599 113.296 8.39099 113.286 8.38499 113.277C7.13399 111.311 6.12199 109.284 5.30299 107.312C5.18599 107.03 5.16199 106.979 5.12599 106.902C5.08599 106.817 5.03099 106.7 4.82199 106.212C4.60299 105.7 4.16899 104.662 3.89099 103.358C3.19699 100.102 3.86999 97.3117 4.73799 95.1437C5.14699 94.1207 5.31699 93.4587 5.57699 92.4457C5.78899 91.6207 6.05999 90.5626 6.56999 88.8876C7.95299 84.3406 10.279 80.5567 12.396 77.5607C14.571 74.4827 17.677 73.4797 18.539 73.2057C19.868 72.7827 21.179 72.5737 22.149 72.4527C24.124 72.2057 26.386 72.1287 28.16 72.0777C28.538 72.0667 28.899 72.0567 29.244 72.0467C29.252 72.0467 29.26 72.0467 29.268 72.0467C29.897 71.5247 30.698 70.9697 31.676 70.5077C33.416 69.6877 35.751 69.1767 38.271 69.6717C39.594 69.2527 40.895 68.9157 42.096 68.6397C41.994 68.6297 41.887 68.6187 41.775 68.6067C41.688 68.5977 41.595 68.5887 41.498 68.5787C39.776 68.4057 36.524 68.0777 33.296 66.6517C33.292 66.6507 33.288 66.6497 33.284 66.6477L33.255 66.6376C33.211 66.6226 33.142 66.5987 33.068 66.5717C32.92 66.5197 32.684 66.4337 32.41 66.3217C31.833 66.0857 31.05 65.7207 30.195 65.1507C29.331 64.5747 28.573 63.9087 27.908 63.1817C27.621 62.8687 27.393 62.6417 27.043 62.2937C26.821 62.0737 26.551 61.8047 26.187 61.4357C25.425 60.6637 24.343 59.5327 23.33 58.1277C21.229 55.2157 19.728 51.8117 19.106 48.0617C18.764 45.9947 18.989 44.2397 19.167 43.2227C19.26 42.6927 19.367 42.2307 19.437 41.9327C19.488 41.7207 19.513 41.6187 19.53 41.5457C19.548 41.4737 19.558 41.4307 19.58 41.3377C19.633 41.1027 19.651 40.9837 19.694 40.7077C19.728 40.4867 19.777 40.1657 19.872 39.6057C20.04 38.6117 20.332 37.0857 20.992 35.3777C21.201 34.8357 21.382 34.2197 21.683 33.0717C21.828 32.5227 21.957 31.8947 22.13 30.9917C22.152 30.8767 22.175 30.7557 22.199 30.6277C22.332 29.9287 22.499 29.0447 22.697 28.1547C22.723 27.9847 22.775 27.6457 22.847 27.2807C22.925 26.8857 23.085 26.1377 23.395 25.2847C23.555 24.8437 23.804 24.2367 24.183 23.5647C24.553 22.9107 25.167 21.9767 26.135 21.0597C26.915 20.3197 27.662 19.7877 28.195 19.4367C28.538 19.2107 28.904 18.9887 29.126 18.8567C32.266 15.7757 35.963 14.5137 38.25 13.8807C38.265 13.8617 38.278 13.8447 38.29 13.8297L38.297 13.8217C38.441 13.6397 38.93 13.0237 39.593 12.3827C39.908 12.0767 40.534 11.4987 41.4 10.9417C41.94 10.5937 44.245 9.11366 47.533 9.28966C50.502 9.44766 52.81 10.6517 54.297 11.6967C55.542 12.1397 56.636 12.6067 57.488 12.9927C58.534 13.4667 60.361 14.4297 61.936 16.3617C62.802 17.4227 63.375 18.5097 63.762 19.4947C63.959 19.6507 64.172 19.8267 64.393 20.0197C65.414 20.9137 66.895 22.4437 67.9 24.7717C69.404 28.2597 70.858 31.1917 72.633 33.8317C73.205 34.6827 73.685 35.4167 74.118 36.0777C74.878 37.2387 75.491 38.1767 76.199 39.1327C75.438 37.4717 74.946 35.2287 75.493 32.6967C75.917 30.7367 76.814 29.3357 77.46 28.5147C78.116 27.6807 78.775 27.1077 79.212 26.7637C79.918 26.2077 80.58 25.8337 81.005 25.6157C80.901 25.4267 80.808 25.2427 80.724 25.0647C78.674 20.7157 80.29 16.8547 80.68 15.9617C81.286 14.5697 82.072 13.4767 82.565 12.8367C83.615 11.4737 84.887 10.2027 85.875 9.27366C86.929 8.28266 88.004 7.36066 88.87 6.66066C89.298 6.31466 89.741 5.96866 90.151 5.67066C90.343 5.53166 90.631 5.32666 90.961 5.11766C91.117 5.01866 91.409 4.83866 91.78 4.64566C91.782 4.64466 91.785 4.64266 91.791 4.63966C91.928 4.56566 93.133 3.91666 94.761 3.64166C96.729 3.30866 98.427 3.58066 99.648 3.93166C99.882 3.76566 100.137 3.59766 100.411 3.43266C100.922 3.12666 101.684 2.72466 102.655 2.40966C103.621 2.09566 105.061 1.78366 106.797 1.94466C110.098 2.25066 112.335 4.04566 113.535 5.44666C113.55 5.46366 113.565 5.48066 113.58 5.49866C114.765 5.32966 116.013 5.20166 117.137 5.18866C118.563 5.17366 119.885 5.34766 121.212 5.74066C121.704 5.88666 122.129 6.04366 122.298 6.10666C122.307 6.10966 122.315 6.11266 122.322 6.11566C122.527 6.19166 122.543 6.19666 122.566 6.20466C123.602 6.54766 124.434 6.98866 124.865 7.23466C127.862 8.57166 129.626 10.8657 130.454 12.1377C131.484 13.7177 132.357 15.7047 132.714 17.8597C132.726 17.9317 132.749 18.0477 132.994 18.8527C133.004 18.8837 133.014 18.9167 133.025 18.9517C133.243 19.6627 133.639 20.9567 133.892 22.4847C133.896 22.5037 133.901 22.5347 133.908 22.5747C133.983 22.9907 134.25 24.4747 134.227 25.9567C134.192 28.1237 133.643 29.9117 133.011 31.3767C132.981 31.4457 132.952 31.5177 132.863 31.7417C132.845 31.7847 132.826 31.8337 132.804 31.8897C132.694 32.1627 132.514 32.6117 132.295 33.0947C131.923 33.9167 131.14 35.5397 129.722 37.0897C129.505 38.0247 129.194 38.7697 128.948 39.2707C128.945 39.2817 128.941 39.2917 128.938 39.3017C128.852 39.5507 128.727 39.8887 128.556 40.2727C128.094 41.3117 127.578 42.1647 127.193 42.7607C126.893 43.2267 126.553 43.7127 126.356 43.9957C126.319 44.0487 126.287 44.0947 126.261 44.1317C126.192 44.2317 126.138 44.3087 126.098 44.3687C125.021 47.1207 123.098 49.0967 122.341 49.8577C121.675 50.5267 120.949 51.1757 120.221 51.7617C118.955 53.6807 117.767 55.5737 116.676 57.4697ZM85.724 11.6157C85.725 11.6147 85.739 11.6087 85.761 11.5987C85.733 11.6107 85.722 11.6157 85.724 11.6157ZM81.015 44.0627C80.58 43.8457 79.983 43.5117 79.35 43.0357C79.959 43.8097 80.637 44.7197 81.304 45.7637C81.269 45.6117 81.245 45.4917 81.237 45.4537C81.23 45.4207 81.225 45.3907 81.22 45.3657C81.216 45.3467 81.213 45.3307 81.21 45.3167C81.19 45.2067 81.173 45.1067 81.163 45.0467C81.123 44.8137 81.069 44.4657 81.015 44.0627ZM83.293 49.7437C83.398 50.0847 83.496 50.4637 83.573 50.8727C83.731 51.7117 84.578 56.9447 80.096 60.6197C80.335 61.6617 80.467 62.5847 80.551 63.2787C80.749 63.9357 80.862 64.5027 80.92 64.8147C80.974 65.1047 81.017 65.3797 81.042 65.5427C81.802 68.9127 82.18 72.4307 82.1 75.9677C82.058 77.8087 81.965 81.6807 80.539 85.3437C80.491 85.4667 80.444 85.5817 80.4 85.6847C80.374 85.7697 80.346 85.8577 80.316 85.9467C80.313 85.9567 80.309 85.9677 80.305 85.9817C80.156 86.4287 79.352 88.8567 76.929 90.7437C76.424 91.1377 75.869 91.4907 75.274 91.7897C75.459 91.9607 75.644 92.1447 75.827 92.3417C76.025 92.3827 76.257 92.4287 76.537 92.4827C76.592 92.4937 76.651 92.5047 76.712 92.5167C77.334 92.6367 78.229 92.8087 79.132 93.0307C83.611 94.1327 85.606 97.2867 86.485 99.7017C87.488 99.5407 88.339 99.3917 89.194 99.1947C89.669 98.7167 90.209 98.2667 90.818 97.8607C93.168 96.2957 95.531 96.0667 96.972 96.1067C99.521 96.1777 101.511 97.1526 102.128 97.4566C103.682 98.2246 105.369 99.4467 105.153 99.2997C105.394 99.4627 105.637 99.6277 105.882 99.7957L105.136 95.2957C105.123 95.2147 105.108 95.1337 105.072 94.9407L105.056 94.8517C105.016 94.6377 104.954 94.2967 104.897 93.9217C104.807 93.3347 104.692 92.4457 104.691 91.3837C104.291 90.5597 104.053 89.8447 103.919 89.4107C103.833 89.1327 103.756 88.8527 103.688 88.5827C101.234 88.6597 99.317 88.0087 98.692 87.7967C98.655 87.7837 98.623 87.7727 98.595 87.7637C97.236 87.3107 95.674 86.5267 94.254 85.1747C92.806 83.7967 91.953 82.2536 91.455 80.9306C91.005 79.7366 90.84 78.6927 90.777 78.2807C90.748 78.0897 90.72 77.8867 90.709 77.8007L90.705 77.7717C90.698 77.7197 90.694 77.6947 90.693 77.6857M81.174 45.1007C81.173 45.0947 81.164 45.0447 81.153 44.9647C81.169 45.0667 81.175 45.1067 81.174 45.1007ZM83.293 49.7437C84.255 50.6917 86.286 52.2477 88.043 53.0437L83.293 49.7437ZM88.043 53.0437C89.658 54.5937 91.541 55.4157 93.275 55.7577C93.526 56.0997 93.849 56.5357 94.191 56.9657C94.263 57.0567 94.34 57.1527 94.423 57.2547M91.087 98.7277C91.087 98.7277 91.083 98.7287 91.071 98.7327C91.081 98.7297 91.087 98.7277 91.087 98.7277ZM62.572 89.7547C61.769 90.0277 60.013 90.7237 58.41 92.2687C58.22 92.4527 58.013 92.6667 57.799 92.9107C57.106 93.4597 56.541 93.9677 56.144 94.3237C56.085 94.3767 56.03 94.4267 55.978 94.4727C55.666 94.7517 55.304 95.0167 54.486 95.5677C54.437 95.5887 54.381 95.6126 54.322 95.6376C54.038 95.7576 53.462 96.0037 52.832 96.3397C52.826 96.3427 52.821 96.3457 52.815 96.3487C52.757 96.3607 52.696 96.3727 52.632 96.3867C52.666 96.3397 52.7 96.2917 52.733 96.2447C53.376 95.3357 54.071 94.0467 54.512 92.5157C54.89 92.3467 55.305 92.1357 55.731 91.8737C56.25 91.5557 57.961 90.4157 59.218 88.3487C59.774 88.5557 60.326 88.7677 60.873 88.9857C61.526 89.2447 62.025 89.4787 62.572 89.7547ZM60.625 65.0997C60.625 65.0997 60.626 65.1027 60.628 65.1097C60.626 65.1037 60.625 65.0997 60.625 65.0997ZM34.247 99.6487C34.277 99.6447 34.295 99.6407 34.302 99.6397C34.303 99.6387 34.304 99.6387 34.304 99.6387C34.296 99.6397 34.285 99.6417 34.272 99.6447C34.264 99.6457 34.256 99.6467 34.247 99.6487ZM70.231 121.273C70.169 121.316 70.089 121.37 69.992 121.431C69.657 121.641 68.331 111.656 67.653 111.909C66.334 112.401 72.59 111.607 69.601 110.302C77.777 98.9367 65.706 112.702 65.191 112.325C65.657 110.292 60.838 117.34 61.322 116.248C61.478 115.896 61.639 115.541 61.803 115.185C61.961 114.842 62.122 114.498 62.284 114.156M81.079 65.7847C81.079 65.7867 81.076 65.7687 81.07 65.7277C81.076 65.7617 81.079 65.7827 81.079 65.7847ZM46.255 59.7307L46.25 59.7297C46.252 59.7297 46.254 59.7297 46.255 59.7307ZM29.488 18.6367C29.488 18.6367 29.475 18.6457 29.444 18.6657C29.471 18.6467 29.488 18.6367 29.488 18.6367ZM22.665 28.3587C22.665 28.3587 22.668 28.3437 22.672 28.3187C22.667 28.3477 22.665 28.3587 22.665 28.3587ZM40.65 121.023C40.632 121.026 40.622 121.027 40.622 121.027C40.622 121.027 40.631 121.026 40.65 121.023ZM138.644 157.837L138.646 157.835C138.641 157.839 138.64 157.839 138.644 157.837ZM133.809 103.854C133.809 103.854 133.817 103.856 133.832 103.86C133.816 103.856 133.809 103.854 133.809 103.854ZM132.35 103.535C132.348 103.535 132.347 103.535 132.35 103.535ZM163.827 91.9927C163.827 91.9927 163.821 91.9997 163.809 92.0137C163.822 91.9987 163.827 91.9927 163.827 91.9927ZM169.99 76.5647C169.991 76.5667 169.998 76.5967 170.01 76.6457C169.995 76.5877 169.989 76.5627 169.99 76.5647Z" fill="#FFBACB"/>
<path fill-rule="evenodd" clip-rule="evenodd" d="M60.9377 89.6216C63.2547 103.601 76.5086 113.011 90.5406 110.641C104.573 108.27 114.07 95.0166 111.752 81.0376C109.435 67.0586 96.1807 57.6486 82.1487 60.0186C68.1167 62.3896 58.6197 75.6426 60.9377 89.6216ZM56.4207 90.3846C59.1497 106.849 74.7597 117.932 91.2867 115.14C107.813 112.348 118.998 96.7386 116.269 80.2746C113.54 63.8106 97.9296 52.7276 81.4026 55.5196C64.8766 58.3116 53.6917 73.9206 56.4207 90.3846Z" fill="black"/>
<path fill-rule="evenodd" clip-rule="evenodd" d="M135.563 36.3056C130.957 48.9486 120.69 62.2386 108.217 68.9676L105.571 63.8926C116.663 57.9086 126.09 45.8086 130.286 34.2896C132.382 28.5366 133.065 23.2196 132.244 19.0636C131.454 15.0676 129.287 12.0936 125.281 10.5316C113.009 5.74764 102.659 4.52964 95.2371 6.95164C91.5881 8.14264 88.6201 10.2166 86.3831 13.2596C84.1291 16.3256 82.5121 20.5206 81.8321 26.0926C80.6651 35.6456 81.5561 42.8606 82.6871 47.7896C83.2541 50.2586 83.8871 52.1776 84.3761 53.5736C84.4591 53.8106 84.5451 54.0496 84.6271 54.2806C84.7721 54.6886 84.9081 55.0696 85.0061 55.3656C85.0861 55.6086 85.1751 55.8916 85.2391 56.1696L85.2411 56.1756C85.2841 56.3616 85.4191 56.9426 85.3181 57.6056L79.7571 56.7046C79.7091 57.0156 79.7311 57.2486 79.7401 57.3286C79.7461 57.3806 79.7521 57.4196 79.7561 57.4406C79.7591 57.4536 79.7611 57.4636 79.7621 57.4696C79.7631 57.4736 79.7631 57.4766 79.7631 57.4766C79.7631 57.4766 79.7581 57.4536 79.7421 57.3986C79.7261 57.3456 79.7041 57.2756 79.6741 57.1856C79.5941 56.9426 79.4971 56.6716 79.3741 56.3256C79.2891 56.0876 79.1911 55.8136 79.0771 55.4886C78.5491 53.9806 77.8411 51.8376 77.2081 49.0796C75.9391 43.5546 74.9901 35.6536 76.2461 25.3636C77.0181 19.0476 78.9061 13.8446 81.8751 9.80664C84.8611 5.74564 88.8321 3.00964 93.5041 1.48464C102.724 -1.52436 114.542 0.207636 127.275 5.17064C133.271 7.50864 136.628 12.2166 137.761 17.9486C138.862 23.5216 137.868 29.9776 135.563 36.3056Z" fill="black"/>
<path fill-rule="evenodd" clip-rule="evenodd" d="M42.7963 139.15C45.2363 126.178 53.3323 112.01 65.3493 104.153L68.4263 108.948C57.9073 115.827 50.5573 128.525 48.3573 140.216C47.2613 146.044 47.4953 151.366 49.0293 155.445C50.5243 159.422 53.2483 162.254 57.4633 163.461C70.3053 167.14 79.1483 167.372 84.7743 164.514C90.0683 161.826 93.4153 155.864 93.8523 144.371C94.2173 134.79 92.7173 127.714 91.1683 122.928C90.3923 120.53 89.5963 118.683 88.9893 117.343C88.8863 117.115 88.7803 116.886 88.6793 116.664C88.4993 116.273 88.3313 115.907 88.2073 115.622C88.1073 115.389 87.9943 115.116 87.9063 114.846L87.9043 114.84C87.8453 114.659 87.6603 114.096 87.7063 113.428L93.3533 113.821C93.3743 113.508 93.3333 113.278 93.3173 113.2C93.3073 113.149 93.2973 113.111 93.2913 113.09C93.2893 113.082 93.2873 113.075 93.2863 113.07C93.2833 113.061 93.2813 113.055 93.2813 113.055C93.2813 113.055 93.2893 113.078 93.3103 113.131C93.3303 113.182 93.3583 113.249 93.3953 113.336C93.4963 113.57 93.6163 113.83 93.7693 114.162C93.8743 114.391 93.9953 114.654 94.1363 114.966C94.7933 116.414 95.6823 118.475 96.5493 121.153C98.2853 126.519 99.9013 134.27 99.5093 144.59C99.0393 156.943 95.3263 165.552 87.3193 169.619C79.6453 173.517 68.9463 172.691 55.9173 168.958C49.7843 167.201 45.7913 162.936 43.7373 157.473C41.7213 152.112 41.5733 145.653 42.7963 139.15Z" fill="black"/>
<path fill-rule="evenodd" clip-rule="evenodd" d="M18.6509 71.0057C31.8369 66.6657 49.2899 69.4177 61.9079 77.3947L58.9039 82.2377C47.5199 75.0407 31.7979 72.6887 20.4059 76.4387C14.7789 78.2907 10.3939 81.5597 7.93186 86.2657C5.47186 90.9677 4.70686 97.5377 7.16486 106.443C10.5919 118.855 14.2179 124.767 17.9629 127.25C21.4589 129.567 25.8199 129.349 32.4279 126.905C40.5779 123.891 47.9539 118.225 53.5179 113.119C56.2819 110.583 58.5599 108.223 60.2309 106.452C60.5459 106.118 60.8469 105.796 61.1279 105.496C61.5759 105.02 61.9719 104.597 62.2909 104.266C62.5529 103.993 62.8089 103.733 63.0339 103.524C63.1459 103.42 63.2839 103.297 63.4339 103.179L63.4359 103.178C63.5339 103.102 63.8508 102.855 64.2888 102.685L66.3199 108.019C66.5379 107.934 66.6899 107.841 66.7529 107.801C66.8259 107.754 66.8748 107.717 66.8918 107.703C66.9058 107.693 66.9129 107.687 66.9129 107.687C66.9129 107.687 66.8989 107.699 66.8689 107.727C66.7649 107.823 66.5999 107.988 66.3519 108.246C66.0539 108.556 65.7019 108.931 65.2809 109.381C64.9969 109.683 64.6819 110.02 64.3289 110.393C62.6179 112.207 60.2339 114.679 57.3259 117.348C51.5449 122.652 43.5299 128.885 34.3749 132.271C27.4009 134.85 20.7239 135.917 14.8559 132.026C9.23785 128.302 5.17286 120.513 1.71186 107.977C-1.02014 98.0797 -0.385139 89.9277 2.92586 83.5977C6.23386 77.2727 11.9889 73.1987 18.6509 71.0057Z" fill="black"/>
<path fill-rule="evenodd" clip-rule="evenodd" d="M152.337 103.558C140.912 105.488 125.933 102.984 111.052 97.5586L112.975 92.1836C127.416 97.4486 141.334 99.6226 151.403 97.9216C156.412 97.0756 160.237 95.3116 162.773 92.7406C165.249 90.2306 166.751 86.6976 166.686 81.7186C166.511 68.3376 163.691 59.8956 159.032 55.6376C154.594 51.5816 147.587 50.5806 136.89 54.4676C127.953 57.7156 122.016 61.7706 118.2 65.0136C116.288 66.6376 114.891 68.0746 113.887 69.1446C113.717 69.3266 113.545 69.5116 113.38 69.6896C113.088 70.0046 112.815 70.2986 112.599 70.5216C112.423 70.7026 112.214 70.9106 111.999 71.0946L111.994 71.0986C111.851 71.2206 111.402 71.6046 110.772 71.8126L109.017 66.3796C108.722 66.4766 108.526 66.6016 108.46 66.6456C108.417 66.6746 108.386 66.6976 108.369 66.7106C108.351 66.7246 108.341 66.7336 108.341 66.7336C108.341 66.7336 108.36 66.7166 108.4 66.6786C108.439 66.6406 108.491 66.5896 108.556 66.5216C108.733 66.3396 108.927 66.1306 109.175 65.8626C109.345 65.6786 109.542 65.4666 109.775 65.2176C110.859 64.0606 112.419 62.4566 114.555 60.6416C118.833 57.0066 125.347 52.5896 134.972 49.0916C146.517 44.8956 156.125 45.2726 162.831 51.4016C169.316 57.3296 172.167 67.8806 172.346 81.6436C172.428 87.9376 170.481 93.0256 166.784 96.7726C163.147 100.459 158.076 102.588 152.337 103.558Z" fill="black"/>
<path fill-rule="evenodd" clip-rule="evenodd" d="M70.4063 21.0397C77.4933 31.4547 82.5153 45.6957 84.6493 57.3127L79.0843 58.3547C77.0563 47.3207 72.2753 33.8787 65.7403 24.2757C62.4703 19.4707 58.8973 15.8277 55.2023 13.8317C51.6143 11.8927 47.8863 11.4767 43.8913 13.1227C32.2053 17.9387 24.1663 27.5407 21.5123 37.2047C18.8943 46.7357 21.4803 56.1727 30.8833 61.7447C39.0583 66.5887 46.4793 68.7707 51.9583 69.8387C54.7003 70.3727 56.9653 70.6297 58.6343 70.8027C58.7993 70.8207 58.9633 70.8367 59.1233 70.8537C59.7433 70.9167 60.3143 70.9747 60.7583 71.0357C61.0383 71.0737 61.3593 71.1237 61.6613 71.1977C61.6663 71.1987 61.6713 71.1997 61.6773 71.2017C61.8633 71.2467 62.5503 71.4137 63.1493 71.9287L59.4773 76.2777C59.7843 76.5417 60.0643 76.6577 60.1493 76.6907C60.2083 76.7147 60.2533 76.7297 60.2793 76.7377C60.3063 76.7457 60.3223 76.7497 60.3253 76.7507C60.3223 76.7497 60.2973 76.7437 60.2433 76.7347C60.1853 76.7247 60.1073 76.7127 60.0043 76.6987C59.6603 76.6517 59.2163 76.6067 58.6173 76.5447C58.4433 76.5277 58.2563 76.5077 58.0543 76.4877C56.3223 76.3077 53.8683 76.0297 50.8853 75.4487C44.9143 74.2847 36.8573 71.9107 28.0183 66.6727C16.0483 59.5787 12.8713 47.2807 16.0573 35.6777C19.2073 24.2087 28.5403 13.2767 41.7523 7.83267C47.4763 5.47367 52.9683 6.14267 57.8733 8.79367C62.6713 11.3857 66.8643 15.8357 70.4063 21.0397Z" fill="black"/>
<path fill-rule="evenodd" clip-rule="evenodd" d="M104.618 151.006C97.5784 140.2 92.5044 125.311 90.5674 113.638L96.1504 112.695C97.9834 123.744 102.82 137.847 109.348 147.866C112.62 152.889 116.156 156.634 119.72 158.575C123.126 160.432 126.568 160.671 130.243 158.684C141.591 152.548 149.872 142.96 152.857 133.662C154.339 129.044 154.489 124.599 153.21 120.663C151.941 116.758 149.185 113.104 144.402 110.155C136.418 105.233 128.307 103.227 122.028 102.364C118.892 101.933 116.227 101.788 114.253 101.702C114.025 101.692 113.801 101.683 113.583 101.674C112.889 101.645 112.259 101.619 111.77 101.584C111.45 101.562 111.094 101.529 110.768 101.472C110.605 101.443 110.38 101.396 110.139 101.315C109.945 101.25 109.477 101.08 109.027 100.679L112.773 96.3945C112.381 96.0455 112.004 95.9185 111.925 95.8925L111.923 95.8915C111.8 95.8505 111.726 95.8395 111.743 95.8425C111.775 95.8485 111.897 95.8645 112.168 95.8835C112.566 95.9125 113.074 95.9335 113.737 95.9605C113.97 95.9705 114.222 95.9805 114.496 95.9925C116.534 96.0815 119.4 96.2355 122.792 96.7015C129.568 97.6335 138.498 99.8185 147.352 105.278C153.144 108.849 156.852 113.538 158.588 118.882C160.315 124.194 160.014 129.902 158.241 135.424C154.716 146.404 145.273 157.04 132.916 163.722C127.391 166.709 121.927 166.272 117.031 163.604C112.292 161.022 108.13 156.396 104.618 151.006Z" fill="black"/>
<path d="M93.5664 125.096C71.6414 128.799 50.8924 113.86 47.2234 91.7265C43.5544 69.5935 58.3543 48.6485 80.2793 44.9455C102.205 41.2415 122.953 56.1815 126.622 78.3145C130.291 100.447 115.492 121.392 93.5664 125.096Z" fill="#FFE640"/>
<path d="M84.6543 73.6926C84.6543 78.3876 83.3103 82.1926 81.6543 82.1926C79.9973 82.1926 78.6543 78.3876 78.6543 73.6926C78.6543 68.9986 79.9973 65.1926 81.6543 65.1926C83.3103 65.1926 84.6543 68.9986 84.6543 73.6926Z" fill="black"/>
<path d="M97.6543 73.6926C97.6543 78.3876 96.3103 82.1926 94.6543 82.1926C92.9973 82.1926 91.6543 78.3876 91.6543 73.6926C91.6543 68.9986 92.9973 65.1926 94.6543 65.1926C96.3103 65.1926 97.6543 68.9986 97.6543 73.6926Z" fill="black"/>
<path d="M81.6543 90.6926C81.6543 95.3876 77.1763 99.1926 71.6543 99.1926C66.1313 99.1926 61.6543 95.3876 61.6543 90.6926C61.6543 85.9986 66.1313 82.1926 71.6543 82.1926C77.1763 82.1926 81.6543 85.9986 81.6543 90.6926Z" fill="#FF6C9C"/>
<path d="M108.654 90.6926C108.654 95.3876 105.52 99.1926 101.654 99.1926C97.7883 99.1926 94.6543 95.3876 94.6543 90.6926C94.6543 85.9986 97.7883 82.1926 101.654 82.1926C105.52 82.1926 108.654 85.9986 108.654 90.6926Z" fill="#FF6C9C"/>
<path fill-rule="evenodd" clip-rule="evenodd" d="M68.0143 91.0566C68.2583 89.6326 68.3423 88.1506 68.3423 87.1926H69.9313C69.9313 88.1466 69.8553 89.5646 69.6363 90.9836C71.7603 93.6706 77.8943 97.5926 87.0123 97.5926C95.5183 97.5926 99.8993 94.1016 100.675 93.1146C100.173 91.7186 99.7973 90.1866 99.7253 89.2546L101.31 89.1316C101.368 89.8946 101.719 91.3566 102.225 92.7236C102.476 93.3996 102.753 94.0216 103.031 94.4996C103.333 95.0166 103.559 95.2296 103.654 95.2776L102.943 96.7086C102.402 96.4366 101.979 95.8556 101.661 95.3086C101.553 95.1226 101.447 94.9246 101.345 94.7166C99.5453 96.3786 94.8273 99.1926 87.0123 99.1926C78.4353 99.1926 72.1923 95.8746 69.2313 92.9156C69.1403 93.2426 69.0383 93.5596 68.9243 93.8586C68.6363 94.6116 68.2333 95.3446 67.6463 95.8176L66.6543 94.5686C66.9153 94.3576 67.1913 93.9376 67.4413 93.2826C67.6853 92.6466 67.8743 91.8736 68.0143 91.0566Z" fill="black"/>
<path fill-rule="evenodd" clip-rule="evenodd" d="M56.7302 104.154C66.827 121.579 88.6338 127.219 105.438 116.747C122.242 106.277 127.679 83.6618 117.582 66.2358C107.486 48.8096 85.6778 43.1709 68.8744 53.6418C52.0707 64.1125 46.6335 86.7277 56.7302 104.154ZM52.4462 106.823C63.9646 126.703 88.8417 133.135 108.012 121.19C127.182 109.245 133.385 83.4459 121.866 63.5663C110.348 43.6864 85.4698 37.2539 66.3002 49.199C47.1305 61.144 40.9278 86.9436 52.4462 106.823Z" fill="black"/>
</svg>
