<svg width="127" height="338" viewBox="0 0 127 338" fill="none" xmlns="http://www.w3.org/2000/svg">
<path fill-rule="evenodd" clip-rule="evenodd" d="M29.5386 96.5384C41.7626 69.7164 55.8166 44.9424 66.5316 31.1924L78.6546 40.6424C69.0046 53.0234 55.5326 76.5644 43.5236 102.913C31.5156 129.259 21.3746 157.535 17.9386 179.299C14.0926 203.661 16.6256 233.524 20.3236 262.435C21.2826 269.937 22.3306 277.424 23.3516 284.721C26.1726 304.88 28.7906 323.594 28.7906 337.192H13.4216C13.4216 324.747 11.0406 307.722 8.29059 288.057C7.23659 280.518 6.12759 272.591 5.07859 264.386C1.37959 235.464 -1.46541 203.649 2.75759 176.902C6.51259 153.113 17.3116 123.363 29.5386 96.5384Z" fill="black"/>
<path fill-rule="evenodd" clip-rule="evenodd" d="M33.1439 96.0613C45.2929 69.2383 59.1769 44.6623 69.6059 31.1943L75.6569 35.9403C65.7589 48.7213 52.1649 72.6773 40.1239 99.2633C28.0829 125.847 17.7959 154.62 14.2859 176.991C10.3529 202.061 12.9599 232.548 16.6519 261.592C17.6309 269.299 18.6919 276.928 19.7189 284.32C22.5179 304.454 25.0719 322.825 25.0719 336.194H17.4019C17.4019 323.405 14.9659 305.882 12.2019 285.995C11.1579 278.482 10.0669 270.631 9.04291 262.571C5.35091 233.522 2.58791 202.055 6.70891 175.787C10.3789 152.399 20.9939 122.886 33.1439 96.0613Z" fill="#019C40"/>
<path fill-rule="evenodd" clip-rule="evenodd" d="M59.9377 46.6213C62.2547 60.6003 75.5086 70.0103 89.5406 67.6403C103.573 65.2693 113.07 52.0163 110.752 38.0373C108.435 24.0583 95.1807 14.6483 81.1487 17.0183C67.1167 19.3893 57.6197 32.6423 59.9377 46.6213ZM55.4207 47.3843C58.1497 63.8483 73.7597 74.9313 90.2867 72.1393C106.813 69.3473 117.998 53.7383 115.269 37.2743C112.54 20.8103 96.9296 9.72731 80.4026 12.5193C63.8766 15.3113 52.6917 30.9203 55.4207 47.3843Z" fill="black"/>
<path d="M92.5664 82.0963C70.6414 85.7993 49.8924 70.8593 46.2234 48.7263C42.5544 26.5933 57.3543 5.64827 79.2793 1.94527C101.205 -1.75873 121.953 13.1813 125.622 35.3143C129.291 57.4473 114.492 78.3923 92.5664 82.0963Z" fill="#FFE640"/>
<path d="M83.6543 30.6924C83.6543 35.3874 82.3103 39.1924 80.6543 39.1924C78.9973 39.1924 77.6543 35.3874 77.6543 30.6924C77.6543 25.9984 78.9973 22.1924 80.6543 22.1924C82.3103 22.1924 83.6543 25.9984 83.6543 30.6924Z" fill="black"/>
<path d="M96.6543 30.6924C96.6543 35.3874 95.3103 39.1924 93.6543 39.1924C91.9973 39.1924 90.6543 35.3874 90.6543 30.6924C90.6543 25.9984 91.9973 22.1924 93.6543 22.1924C95.3103 22.1924 96.6543 25.9984 96.6543 30.6924Z" fill="black"/>
<path d="M80.6543 47.6924C80.6543 52.3874 76.1763 56.1924 70.6543 56.1924C65.1313 56.1924 60.6543 52.3874 60.6543 47.6924C60.6543 42.9984 65.1313 39.1924 70.6543 39.1924C76.1763 39.1924 80.6543 42.9984 80.6543 47.6924Z" fill="#FF6C9C"/>
<path d="M107.654 47.6924C107.654 52.3874 104.52 56.1924 100.654 56.1924C96.7883 56.1924 93.6543 52.3874 93.6543 47.6924C93.6543 42.9984 96.7883 39.1924 100.654 39.1924C104.52 39.1924 107.654 42.9984 107.654 47.6924Z" fill="#FF6C9C"/>
<path fill-rule="evenodd" clip-rule="evenodd" d="M55.7302 61.1539C65.827 78.5792 87.6338 84.2187 104.438 73.7471C121.242 63.2766 126.679 40.6615 116.582 23.2355C106.486 5.80932 84.6778 0.17069 67.8744 10.6415C51.0707 21.1122 45.6335 43.7275 55.7302 61.1539ZM51.4462 63.823C62.9646 83.7026 87.8417 90.1347 107.012 78.1902C126.182 66.2447 132.385 40.4457 120.866 20.566C109.348 0.686175 84.4698 -5.74632 65.3002 6.19878C46.1305 18.1438 39.9278 43.9433 51.4462 63.823Z" fill="black"/>
<path fill-rule="evenodd" clip-rule="evenodd" d="M77.9884 22.5322C79.1034 20.9359 80.1325 18.9951 80.734 17.7L83 18.8898C82.3535 20.2818 81.2485 22.3717 80.0173 24.1344C79.4038 25.0127 78.7269 25.8563 78.0292 26.4937C77.3737 27.0926 76.4959 27.7 75.5022 27.7C73.2253 27.7 71.6575 27.0598 71 26.5355L72.5163 24.3858C72.5159 24.3854 72.5161 24.3856 72.5171 24.3863C72.5254 24.3921 72.5886 24.4362 72.7248 24.5013C72.8676 24.5696 73.0674 24.65 73.3249 24.7266C73.8387 24.8795 74.5665 25.0128 75.5022 25.0128C75.5568 25.0128 75.8428 24.9484 76.3822 24.4555C76.8795 24.0013 77.4288 23.3334 77.9884 22.5322Z" fill="black"/>
<path fill-rule="evenodd" clip-rule="evenodd" d="M98.9476 22.7743C100.832 22.8533 102.908 22.6658 104.235 22.4672L104.617 25.0637C103.178 25.2792 100.932 25.4847 98.8395 25.397C97.7957 25.3532 96.7381 25.2347 95.8188 24.9839C94.9403 24.7444 93.9718 24.3273 93.3617 23.5253C91.8767 21.5734 91.3176 19.8892 91.2624 19.0541L93.8592 18.8797C93.8592 18.8793 93.8592 18.8791 93.8592 18.8791C93.8592 18.8791 93.8611 18.9012 93.8701 18.9484C93.8794 18.9977 93.8947 19.0652 93.9185 19.1503C93.9659 19.3208 94.0432 19.5478 94.162 19.8229C94.3992 20.3723 94.7947 21.097 95.4264 21.9273C95.5106 22.038 95.7975 22.2589 96.4981 22.4499C97.1578 22.6299 98.0028 22.7346 98.9476 22.7743Z" fill="black"/>
<path d="M97.9818 52.8927C98.9233 57.5203 95.0283 62.5676 88.7397 63.8471C82.451 65.1265 76.8935 62.0023 75.952 57.3747C75.0106 52.7472 78.9055 47.6999 85.1942 46.4204C91.4828 45.141 97.0403 48.2652 97.9818 52.8927Z" fill="#FFE640" stroke="black" stroke-width="2"/>
</svg>
