<svg width="69" height="65" viewBox="0 0 69 65" fill="none" xmlns="http://www.w3.org/2000/svg">
<path d="M13.167 56.2114L42.667 63.2114H57.167L67.667 42.7114L65.167 35.7114L57.167 21.2114L40.167 8.71143L22.667 4.21143L13.167 8.71143L2.66699 33.2114L5.16699 46.2114L13.167 56.2114Z" fill="#FF6C9C"/>
<path fill-rule="evenodd" clip-rule="evenodd" d="M41.4675 5.18555C53.1163 11.8016 64.4621 24.1136 69.0001 37.5296L63.5778 39.3105C59.5426 27.3805 49.2265 16.0935 38.6133 10.0645C33.3125 7.05455 28.2052 5.50955 23.9892 5.63955C19.9349 5.76555 16.6553 7.41754 14.4576 11.1175C7.72517 22.4515 4.81267 32.4705 5.95987 40.1945C6.52367 43.9915 8.06807 47.2625 10.6847 49.9695C13.3206 52.6955 17.1709 54.9785 22.5289 56.5625C31.7147 59.2785 38.9464 59.5795 43.9729 59.2685C46.4909 59.1135 48.4802 58.8025 49.9318 58.5475C50.1782 58.5045 50.4272 58.4596 50.6674 58.4166C51.0916 58.3396 51.4886 58.2685 51.796 58.2195C52.0473 58.1805 52.3399 58.1395 52.624 58.1205H52.63C52.8197 58.1085 53.4121 58.0696 54.0469 58.2786L52.2395 63.6215C52.5369 63.7195 52.7699 63.7356 52.8497 63.7396C52.9017 63.7426 52.9405 63.7425 52.9624 63.7425C52.9756 63.7425 52.9854 63.7415 52.9916 63.7415C52.9959 63.7415 52.9988 63.7415 52.9988 63.7415C52.9988 63.7415 52.9749 63.7425 52.9183 63.7495C52.8634 63.7565 52.7913 63.7665 52.6976 63.7815C52.446 63.8215 52.164 63.8725 51.8038 63.9375C51.5558 63.9825 51.2706 64.0346 50.9328 64.0936C49.3644 64.3686 47.1437 64.7166 44.3308 64.8906C38.6955 65.2386 30.7809 64.8825 20.8865 61.9575C14.8135 60.1625 10.019 57.4465 6.54637 53.8545C3.05447 50.2415 1.02667 45.8735 0.304469 41.0105C-1.12043 31.4155 2.53997 20.0315 9.52497 8.27254C12.8142 2.73454 17.9936 0.190548 23.8093 0.0105483C29.4634 -0.165452 35.6372 1.87355 41.4675 5.18555Z" fill="black"/>
</svg>
