<svg width="318" height="396" viewBox="0 0 318 396" fill="none" xmlns="http://www.w3.org/2000/svg">
<path d="M102.275 20.6652C111.995 16.4568 135.343 8.71007 150.971 11.3906C166.598 14.0712 183.984 22.4086 190.724 26.2422C184.77 70.254 172.041 160.697 168.756 170.376C164.649 182.474 154.067 215.996 158.327 225.225C162.586 234.454 167.196 240.043 164.742 265.529L155.206 364.559L117.736 356.542L128.518 274.965C121.612 277.012 115.33 279.09 111.043 280.936C109.331 281.673 107.532 282.465 105.669 283.289C105.66 283.293 105.651 283.297 105.642 283.301C100.287 285.69 98.1462 300.286 95.8513 308.87C93.5526 317.467 90.7906 338.514 88.9125 342.743C87.0345 346.971 81.3028 353.034 55.7994 350.578C35.3967 348.613 11.7346 332.127 2.4539 324.129C3.5707 317.622 6.34821 302.015 8.52372 291.642C10.6992 281.269 10.5846 277.877 15.0267 277.57C15.0317 272.426 18.2534 263.917 25.8316 264.647C35.3043 265.559 49.2892 265.435 64.9143 255.916C77.4144 248.301 85.5291 230.219 88.0239 222.13L102.275 20.6652Z" fill="#FF6C9C"/>
<path d="M164.742 265.529C167.196 240.043 162.586 234.454 158.327 225.225C154.067 215.996 164.649 182.474 168.756 170.376C172.041 160.697 184.77 70.254 190.724 26.2422C183.984 22.4086 166.598 14.0712 150.971 11.3906C135.343 8.71007 111.995 16.4568 102.275 20.6652L88.0239 222.13C85.5291 230.219 77.4144 248.301 64.9143 255.916C49.2892 265.435 35.3043 265.559 25.8316 264.647C18.2534 263.917 15.0317 272.426 15.0267 277.57M164.742 265.529C162.779 285.917 157.567 340.044 155.206 364.559L117.736 356.542L128.574 274.54M164.742 265.529C151.957 268.462 123.319 275.65 111.043 280.936C109.331 281.673 107.532 282.465 105.669 283.289M15.0267 277.57C19.4688 277.262 44.8169 296.606 60.9879 296.694C72.0632 296.753 90.8279 289.851 105.669 283.289M15.0267 277.57C10.5846 277.877 10.6992 281.268 8.52372 291.642C6.3482 302.015 3.57071 317.622 2.4539 324.129C11.7346 332.127 35.3967 348.613 55.7994 350.578C81.3028 353.034 87.0345 346.971 88.9125 342.743C90.7906 338.514 93.5526 317.467 95.8513 308.87C98.15 300.272 100.294 285.642 105.669 283.289" stroke="black" stroke-width="3"/>
<path fill-rule="evenodd" clip-rule="evenodd" d="M153.299 74.1626C156.091 74.0495 158.707 75.1316 160.93 77.4875C163.839 80.5709 163.9 84.9109 162.925 88.9429C161.925 93.0755 159.669 97.6689 156.781 102.171C151.004 111.178 142.254 120.497 134.172 125.947L132.01 127.405L130.333 125.408C124.035 117.903 118.453 106.331 115.842 96.0126C114.537 90.8557 113.915 85.7862 114.447 81.5677C114.973 77.3846 116.753 73.387 120.882 71.6384C123.329 70.6017 125.704 70.6759 127.858 71.6414C129.866 72.5418 131.484 74.1276 132.808 75.7597C134.15 77.4134 135.381 79.3585 136.52 81.2224C136.77 81.6307 137.015 82.0345 137.257 82.4333C137.527 82.8787 137.793 83.318 138.058 83.75C138.078 83.7304 138.098 83.7107 138.119 83.691C138.803 83.0247 139.532 82.3141 140.343 81.5499C142.109 79.8854 144.097 78.1305 146.189 76.7641C148.252 75.416 150.678 74.2688 153.299 74.1626Z" fill="white" stroke="black" stroke-width="2"/>
<path fill-rule="evenodd" clip-rule="evenodd" d="M141.299 150.059C143.785 149.958 146.114 150.922 148.093 153.02C150.683 155.765 150.738 159.63 149.869 163.22C148.979 166.9 146.971 170.99 144.399 175C139.255 183.02 131.463 191.317 124.266 196.171L122.341 197.469L120.848 195.69C115.241 189.008 110.27 178.704 107.945 169.516C106.783 164.924 106.229 160.409 106.702 156.653C107.171 152.928 108.756 149.369 112.432 147.811C114.612 146.888 116.727 146.954 118.644 147.814C120.432 148.616 121.873 150.028 123.053 151.481C124.247 152.954 125.343 154.686 126.358 156.346C126.58 156.709 126.798 157.069 127.013 157.424C127.254 157.82 127.491 158.212 127.727 158.596C127.745 158.579 127.763 158.561 127.781 158.544C128.39 157.95 129.04 157.318 129.762 156.637C131.334 155.155 133.105 153.592 134.967 152.376C136.804 151.175 138.965 150.154 141.299 150.059Z" fill="white" stroke="black" stroke-width="2"/>
<path d="M134.358 52.0517C141.729 44.4437 160.335 28.3518 175.798 24.8481C191.261 21.3444 210.515 22.3936 218.209 23.3561C229.551 66.2961 252.402 154.726 253.071 164.925C253.906 177.674 256.958 212.694 264.425 219.59C271.892 226.487 278.29 229.886 285.775 254.371L314.863 349.512L277.177 356.444L255.92 276.951C250.323 281.485 245.315 285.809 242.06 289.155C240.761 290.491 239.402 291.912 237.996 293.386C237.989 293.393 237.982 293.4 237.976 293.406C233.942 297.663 237.55 311.967 238.715 320.776C239.881 329.599 245.384 350.1 245.267 354.726C245.15 359.351 242.175 367.146 217.673 374.637C198.071 380.629 169.901 374.453 158.266 370.615C156.808 364.176 153.402 348.695 151.442 338.278C149.482 327.862 148.078 324.773 152.065 322.789C150.101 318.035 149.821 308.941 157.102 306.715C166.202 303.932 179.075 298.467 189.868 283.693C198.503 271.873 199.08 252.063 198.29 243.635L134.358 52.0517Z" fill="#FF6C9C"/>
<path d="M285.775 254.371C278.29 229.886 271.892 226.487 264.425 219.59C256.958 212.694 253.906 177.674 253.071 164.925C252.402 154.726 229.551 66.2961 218.209 23.3561C210.515 22.3936 191.261 21.3444 175.798 24.8481C160.335 28.3518 141.729 44.4437 134.358 52.0517L198.29 243.635C199.08 252.063 198.503 271.873 189.868 283.693C179.075 298.467 166.202 303.932 157.102 306.715C149.821 308.941 150.101 318.035 152.065 322.789M285.775 254.371C291.764 273.959 307.663 325.96 314.863 349.512L277.177 356.444L255.809 276.537M285.775 254.371C275.087 261.974 251.379 279.574 242.06 289.155C240.761 290.491 239.402 291.912 237.996 293.386M152.065 322.789C156.051 320.805 186.872 328.976 201.846 322.869C212.101 318.685 226.796 305.127 237.996 293.386M152.065 322.789C148.078 324.773 149.482 327.862 151.442 338.278C153.402 348.695 156.808 364.176 158.266 370.615C169.901 374.453 198.071 380.629 217.673 374.637C242.175 367.146 245.15 359.351 245.267 354.726C245.384 350.1 239.881 329.599 238.715 320.776C237.548 311.953 233.931 297.617 237.996 293.386" stroke="black" stroke-width="3"/>
<path fill-rule="evenodd" clip-rule="evenodd" d="M201.818 69.9874C204.364 68.8367 207.195 68.86 210.139 70.2117C213.991 71.981 215.674 75.9819 216.279 80.0858C216.9 84.2921 216.53 89.3959 215.539 94.6523C213.557 105.167 208.934 117.085 203.482 125.167L202.024 127.328L199.721 126.104C191.071 121.505 181.56 112.867 175.273 104.278C172.132 99.9856 169.656 95.5183 168.568 91.4078C167.49 87.332 167.643 82.9588 170.815 79.791C172.696 77.9128 174.926 77.0919 177.285 77.1804C179.484 77.263 181.578 78.1271 183.418 79.1443C185.281 80.1749 187.151 81.5175 188.905 82.8188C189.29 83.1038 189.668 83.3865 190.042 83.6656C190.459 83.9774 190.871 84.2848 191.278 84.5862C191.29 84.5605 191.301 84.5346 191.312 84.5088C191.697 83.6347 192.107 82.7026 192.572 81.6904C193.586 79.4857 194.773 77.1135 196.2 75.0632C197.608 73.0404 199.428 71.0678 201.818 69.9874Z" fill="white" stroke="black" stroke-width="2"/>
<path fill-rule="evenodd" clip-rule="evenodd" d="M219.123 144.852C221.39 143.828 223.911 143.848 226.532 145.052C229.962 146.628 231.461 150.19 232 153.844C232.553 157.59 232.223 162.135 231.341 166.815C229.575 176.178 225.459 186.791 220.605 193.987L219.306 195.912L217.256 194.822C209.553 190.726 201.084 183.035 195.486 175.387C192.689 171.564 190.484 167.586 189.516 163.926C188.555 160.297 188.691 156.403 191.516 153.582C193.191 151.91 195.177 151.178 197.277 151.257C199.235 151.331 201.1 152.1 202.738 153.006C204.398 153.924 206.062 155.119 207.625 156.278C207.967 156.532 208.304 156.784 208.637 157.032C209.008 157.31 209.375 157.583 209.738 157.852C209.748 157.829 209.758 157.806 209.768 157.783C210.11 157.005 210.476 156.175 210.89 155.273C211.793 153.31 212.849 151.198 214.12 149.372C215.374 147.571 216.994 145.814 219.123 144.852Z" fill="white" stroke="black" stroke-width="2"/>
</svg>
