<svg width="392" height="488" viewBox="0 0 392 488" fill="none" xmlns="http://www.w3.org/2000/svg">
<path d="M130.944 33.8107C141.204 29.369 165.846 21.1928 182.339 24.022C198.832 26.8512 217.183 35.6507 224.296 39.6968C218.012 86.148 204.578 181.604 201.11 191.819C196.776 204.588 185.607 239.968 190.103 249.709C194.598 259.45 199.464 265.348 196.874 292.246L186.809 396.766L147.263 388.304L158.642 302.205C151.353 304.366 144.723 306.559 140.199 308.507C138.392 309.285 136.493 310.122 134.526 310.991C134.517 310.995 134.508 310.999 134.498 311.003C128.846 313.525 126.587 328.93 124.165 337.99C121.738 347.064 118.823 369.277 116.841 373.74C114.859 378.203 108.81 384.602 81.8927 382.01C60.3591 379.936 35.3854 362.536 25.5903 354.094C26.769 347.227 29.7005 330.755 31.9966 319.807C34.2927 308.859 34.1717 305.279 38.86 304.955C38.8653 299.526 42.2656 290.545 50.2638 291.315C60.2615 292.278 75.0216 292.148 91.5128 282.101C104.706 274.064 113.27 254.98 115.903 246.443L130.944 33.8107Z" fill="#FF6C9C"/>
<path d="M196.874 292.246C199.464 265.348 194.598 259.45 190.103 249.709C185.607 239.968 196.776 204.588 201.11 191.819C204.578 181.604 218.012 86.148 224.296 39.6968C217.183 35.6507 198.832 26.8512 182.339 24.022C165.846 21.1928 141.204 29.369 130.944 33.8107L115.903 246.443C113.27 254.98 104.706 274.064 91.5128 282.101C75.0216 292.148 60.2615 292.278 50.2638 291.315C42.2656 290.545 38.8653 299.526 38.86 304.955M196.874 292.246C194.802 313.765 189.301 370.892 186.809 396.766L147.263 388.304L158.701 301.757M196.874 292.246C183.38 295.342 153.155 302.929 140.199 308.507C138.392 309.285 136.493 310.122 134.526 310.991M38.86 304.955C43.5483 304.631 70.3015 325.047 87.3687 325.139C99.0579 325.202 118.863 317.917 134.526 310.991M38.86 304.955C34.1717 305.279 34.2927 308.859 31.9966 319.807C29.7005 330.755 26.769 347.227 25.5903 354.094C35.3854 362.536 60.359 379.936 81.8927 382.01C108.81 384.602 114.859 378.203 116.841 373.74C118.823 369.277 121.738 347.064 124.165 337.99C126.591 328.915 128.854 313.475 134.526 310.991" stroke="black" stroke-width="5"/>
<path fill-rule="evenodd" clip-rule="evenodd" d="M184.796 90.2733C187.743 90.1539 190.504 91.296 192.85 93.7824C195.92 97.0368 195.985 101.617 194.955 105.873C193.9 110.234 191.519 115.083 188.471 119.835C182.374 129.341 173.139 139.175 164.608 144.928L162.327 146.467L160.557 144.359C153.91 136.438 148.018 124.225 145.263 113.334C143.886 107.892 143.229 102.541 143.79 98.0888C144.346 93.6739 146.225 89.4548 150.582 87.6092C153.165 86.515 155.672 86.5933 157.945 87.6124C160.064 88.5627 161.772 90.2363 163.17 91.959C164.586 93.7043 165.884 95.7572 167.087 97.7245C167.351 98.1553 167.609 98.5815 167.864 99.0024C168.15 99.4726 168.431 99.9361 168.71 100.392C168.732 100.371 168.753 100.351 168.774 100.33C169.496 99.6266 170.266 98.8766 171.122 98.07C172.985 96.3133 175.084 94.4611 177.292 93.019C179.469 91.5962 182.03 90.3854 184.796 90.2733Z" fill="white" stroke="black" stroke-width="2"/>
<path fill-rule="evenodd" clip-rule="evenodd" d="M172.131 170.377C174.755 170.27 177.213 171.287 179.302 173.501C182.036 176.399 182.094 180.478 181.177 184.267C180.237 188.151 178.117 192.468 175.403 196.7C169.974 205.164 161.75 213.922 154.154 219.044L152.123 220.414L150.547 218.537C144.628 211.484 139.382 200.609 136.928 190.912C135.702 186.065 135.117 181.301 135.617 177.336C136.112 173.405 137.785 169.648 141.664 168.004C143.965 167.03 146.197 167.1 148.221 168.007C150.108 168.853 151.629 170.344 152.873 171.878C154.135 173.432 155.291 175.26 156.362 177.012C156.596 177.395 156.826 177.775 157.054 178.15C157.308 178.568 157.558 178.981 157.807 179.387C157.826 179.369 157.845 179.35 157.864 179.332C158.507 178.705 159.192 178.037 159.954 177.319C161.614 175.755 163.483 174.106 165.448 172.822C167.387 171.555 169.668 170.477 172.131 170.377Z" fill="white" stroke="black" stroke-width="2"/>
<path d="M164.806 66.9371C172.585 58.9074 192.222 41.9236 208.542 38.2257C224.863 34.5278 245.184 35.6351 253.304 36.6509C265.275 81.971 289.393 175.302 290.098 186.067C290.98 199.522 294.201 236.483 302.082 243.762C309.963 251.041 316.715 254.628 324.616 280.47L355.316 380.885L315.541 388.202L293.105 304.302C287.199 309.088 281.912 313.651 278.478 317.182C277.106 318.592 275.672 320.092 274.188 321.648C274.181 321.655 274.174 321.662 274.167 321.67C269.91 326.162 273.717 341.259 274.947 350.556C276.178 359.868 281.985 381.506 281.862 386.388C281.739 391.27 278.598 399.496 252.738 407.402C232.05 413.727 202.319 407.208 190.039 403.158C188.5 396.362 184.905 380.022 182.836 369.029C180.768 358.035 179.286 354.774 183.494 352.681C181.421 347.663 181.126 338.065 188.81 335.716C198.415 332.779 212.002 327.01 223.393 311.417C232.506 298.943 233.115 278.034 232.281 269.139L164.806 66.9371Z" fill="#FF6C9C"/>
<path d="M324.616 280.47C316.715 254.628 309.963 251.041 302.082 243.762C294.201 236.483 290.98 199.522 290.098 186.067C289.393 175.302 265.275 81.971 253.304 36.6509C245.184 35.6351 224.863 34.5278 208.543 38.2257C192.222 41.9236 172.585 58.9074 164.806 66.9371L232.281 269.139C233.115 278.034 232.506 298.943 223.393 311.417C212.002 327.01 198.415 332.779 188.81 335.716C181.126 338.065 181.421 347.663 183.494 352.681M324.616 280.47C330.936 301.144 347.716 356.028 355.316 380.885L315.541 388.202L292.988 303.865M324.616 280.47C313.334 288.494 288.313 307.071 278.478 317.182C277.106 318.592 275.672 320.092 274.188 321.648M183.494 352.681C187.701 350.587 220.231 359.211 236.034 352.765C246.857 348.35 262.367 334.04 274.188 321.648M183.494 352.681C179.286 354.774 180.768 358.035 182.836 369.029C184.905 380.022 188.5 396.362 190.039 403.158C202.319 407.208 232.05 413.727 252.738 407.402C278.598 399.496 281.739 391.27 281.862 386.388C281.985 381.506 276.178 359.868 274.947 350.556C273.715 341.244 269.897 326.113 274.188 321.648" stroke="black" stroke-width="5"/>
<path fill-rule="evenodd" clip-rule="evenodd" d="M236.005 85.8667C238.692 84.6521 241.68 84.6767 244.786 86.1034C248.852 87.9708 250.628 92.1934 251.267 96.5247C251.923 100.964 251.532 106.351 250.486 111.899C248.394 122.997 243.515 135.575 237.761 144.104L236.221 146.386L233.791 145.094C224.661 140.24 214.623 131.123 207.989 122.058C204.673 117.528 202.06 112.813 200.912 108.474C199.774 104.173 199.935 99.557 203.283 96.2136C205.269 94.2314 207.622 93.3649 210.111 93.4584C212.432 93.5455 214.643 94.4575 216.584 95.5311C218.551 96.6188 220.524 98.0358 222.376 99.4093C222.782 99.7101 223.181 100.008 223.575 100.303C224.016 100.632 224.45 100.957 224.88 101.275C224.892 101.247 224.904 101.22 224.916 101.193C225.322 100.27 225.755 99.2866 226.246 98.2183C227.316 95.8914 228.568 93.3877 230.075 91.2238C231.561 89.0889 233.482 87.0069 236.005 85.8667Z" fill="white" stroke="black" stroke-width="2"/>
<path fill-rule="evenodd" clip-rule="evenodd" d="M254.269 164.881C256.662 163.8 259.322 163.822 262.088 165.092C265.708 166.755 267.29 170.515 267.859 174.372C268.443 178.325 268.095 183.121 267.163 188.061C265.3 197.944 260.956 209.144 255.832 216.739L254.462 218.771L252.298 217.62C244.168 213.298 235.229 205.18 229.322 197.108C226.369 193.074 224.042 188.875 223.02 185.012C222.007 181.182 222.15 177.072 225.132 174.095C226.9 172.329 228.995 171.558 231.212 171.641C233.278 171.719 235.247 172.531 236.976 173.487C238.727 174.455 240.484 175.717 242.133 176.94C242.494 177.208 242.85 177.474 243.201 177.736C243.593 178.029 243.98 178.318 244.363 178.601C244.374 178.577 244.384 178.553 244.395 178.528C244.757 177.707 245.142 176.831 245.579 175.88C246.532 173.808 247.647 171.578 248.988 169.651C250.312 167.75 252.022 165.896 254.269 164.881Z" fill="white" stroke="black" stroke-width="2"/>
<path d="M3 24.9999L347.672 441.831M3 24.9999L9.34332 108.719M3 24.9999C25.6551 29.9539 47.3288 34.0376 69.2471 37.251M3 24.9999C45.627 16.8333 149.293 1.09992 222.941 3.49992C296.588 5.89992 364.333 18.8333 389 24.9999M33.9153 433.018L389 24.9999M33.9153 433.018C43.8412 441.346 62.1065 452.501 86.0297 462.342M33.9153 433.018L26.1698 330.793M389 24.9999L377.477 158.069M389 24.9999C361.477 31.2172 327.847 37.4345 289.188 41.5028M347.672 441.831C350.939 438.369 352.764 435.338 353.668 433.018L357.369 390.278M347.672 441.831C341.251 448.632 329.26 457.093 307.737 465.067M10.8791 128.987L289.188 471.082M10.8791 128.987L16.2208 199.487M10.8791 128.987L9.34332 108.719M289.188 471.082C274.398 475.284 256.368 479.168 234.423 482.368C230.579 482.929 226.75 483.394 222.941 483.77M289.188 471.082C296.045 469.133 302.206 467.116 307.737 465.067M377.477 158.069L86.0297 462.342M377.477 158.069L369.846 246.193M377.477 158.069L289.188 41.5028M86.0297 462.342C105.226 470.239 128.064 477.29 153.16 481.355M103.696 41.5462L361.07 347.537M103.696 41.5462C119.6 43.1799 135.944 44.3787 153.16 45.1428M103.696 41.5462C92.0333 40.3483 80.6074 38.9166 69.2471 37.251M361.07 347.537L362.52 330.793M361.07 347.537L357.369 390.278M217.641 45.9819C212.115 46.0925 206.52 46.1499 200.858 46.1499C184.089 46.1499 168.288 45.8142 153.16 45.1428M217.641 45.9819L369.846 246.193M217.641 45.9819C232.906 45.6764 247.642 44.965 261.805 43.937M369.846 246.193L153.16 481.355M369.846 246.193L362.52 330.793M261.805 43.937L24.0331 302.593M261.805 43.937C271.189 43.256 280.321 42.4359 289.188 41.5028M24.0331 302.593L19.3591 240.906M24.0331 302.593L26.1698 330.793M153.16 45.1428L16.2208 199.487M16.2208 199.487L19.3591 240.906M19.3591 240.906L211.458 484.638M211.458 484.638C191.176 485.711 171.561 484.336 153.16 481.355M211.458 484.638C215.263 484.436 219.092 484.149 222.941 483.77M153.16 481.355L26.1698 330.793M222.941 483.77L362.52 330.793M357.369 390.278L307.737 465.067M9.34332 108.719L69.2471 37.251" stroke="black" stroke-width="5"/>
</svg>
